G04 #@! TF.GenerationSoftware,KiCad,Pcbnew,9.0.2*
G04 #@! TF.CreationDate,2025-10-30T11:47:24+05:30*
G04 #@! TF.ProjectId,Single_Wheel_Board,53696e67-6c65-45f5-9768-65656c5f426f,rev?*
G04 #@! TF.SameCoordinates,Original*
G04 #@! TF.FileFunction,Legend,Top*
G04 #@! TF.FilePolarity,Positive*
%FSLAX46Y46*%
G04 Gerber Fmt 4.6, Leading zero omitted, Abs format (unit mm)*
G04 Created by KiCad (PCBNEW 9.0.2) date 2025-10-30 11:47:24*
%MOMM*%
%LPD*%
G01*
G04 APERTURE LIST*
G04 Aperture macros list*
%AMRoundRect*
0 Rectangle with rounded corners*
0 $1 Rounding radius*
0 $2 $3 $4 $5 $6 $7 $8 $9 X,Y pos of 4 corners*
0 Add a 4 corners polygon primitive as box body*
4,1,4,$2,$3,$4,$5,$6,$7,$8,$9,$2,$3,0*
0 Add four circle primitives for the rounded corners*
1,1,$1+$1,$2,$3*
1,1,$1+$1,$4,$5*
1,1,$1+$1,$6,$7*
1,1,$1+$1,$8,$9*
0 Add four rect primitives between the rounded corners*
20,1,$1+$1,$2,$3,$4,$5,0*
20,1,$1+$1,$4,$5,$6,$7,0*
20,1,$1+$1,$6,$7,$8,$9,0*
20,1,$1+$1,$8,$9,$2,$3,0*%
G04 Aperture macros list end*
%ADD10C,0.153000*%
%ADD11C,0.200000*%
%ADD12C,0.150000*%
%ADD13C,0.120000*%
%ADD14C,0.100000*%
%ADD15C,2.200000*%
%ADD16RoundRect,0.250000X-0.725000X0.600000X-0.725000X-0.600000X0.725000X-0.600000X0.725000X0.600000X0*%
%ADD17O,1.950000X1.700000*%
%ADD18RoundRect,0.250000X0.725000X-0.600000X0.725000X0.600000X-0.725000X0.600000X-0.725000X-0.600000X0*%
%ADD19R,1.600000X1.600000*%
%ADD20C,1.600000*%
%ADD21R,1.300000X1.300000*%
%ADD22C,1.300000*%
%ADD23R,3.000000X3.000000*%
%ADD24C,3.000000*%
G04 APERTURE END LIST*
D10*
X196841133Y-113855377D02*
X197450657Y-113855377D01*
X197145895Y-114236330D02*
X197145895Y-113474425D01*
X197755418Y-113236330D02*
X198288752Y-113236330D01*
X198288752Y-113236330D02*
X197945894Y-114236330D01*
X198593514Y-114141091D02*
X198631609Y-114188711D01*
X198631609Y-114188711D02*
X198593514Y-114236330D01*
X198593514Y-114236330D02*
X198555418Y-114188711D01*
X198555418Y-114188711D02*
X198593514Y-114141091D01*
X198593514Y-114141091D02*
X198593514Y-114236330D01*
X199355418Y-113236330D02*
X198974466Y-113236330D01*
X198974466Y-113236330D02*
X198936370Y-113712520D01*
X198936370Y-113712520D02*
X198974466Y-113664901D01*
X198974466Y-113664901D02*
X199050656Y-113617282D01*
X199050656Y-113617282D02*
X199241132Y-113617282D01*
X199241132Y-113617282D02*
X199317323Y-113664901D01*
X199317323Y-113664901D02*
X199355418Y-113712520D01*
X199355418Y-113712520D02*
X199393513Y-113807758D01*
X199393513Y-113807758D02*
X199393513Y-114045853D01*
X199393513Y-114045853D02*
X199355418Y-114141091D01*
X199355418Y-114141091D02*
X199317323Y-114188711D01*
X199317323Y-114188711D02*
X199241132Y-114236330D01*
X199241132Y-114236330D02*
X199050656Y-114236330D01*
X199050656Y-114236330D02*
X198974466Y-114188711D01*
X198974466Y-114188711D02*
X198936370Y-114141091D01*
X199622085Y-113236330D02*
X199888752Y-114236330D01*
X199888752Y-114236330D02*
X200155418Y-113236330D01*
X184517323Y-76582163D02*
X184517323Y-75582163D01*
X184517323Y-75582163D02*
X184750657Y-76296448D01*
X184750657Y-76296448D02*
X184983990Y-75582163D01*
X184983990Y-75582163D02*
X184983990Y-76582163D01*
X185150657Y-76677401D02*
X185683990Y-76677401D01*
X185850656Y-76582163D02*
X185850656Y-75582163D01*
X185850656Y-75582163D02*
X186117323Y-75582163D01*
X186117323Y-75582163D02*
X186183990Y-75629782D01*
X186183990Y-75629782D02*
X186217323Y-75677401D01*
X186217323Y-75677401D02*
X186250656Y-75772639D01*
X186250656Y-75772639D02*
X186250656Y-75915496D01*
X186250656Y-75915496D02*
X186217323Y-76010734D01*
X186217323Y-76010734D02*
X186183990Y-76058353D01*
X186183990Y-76058353D02*
X186117323Y-76105972D01*
X186117323Y-76105972D02*
X185850656Y-76105972D01*
X186483990Y-75582163D02*
X186650656Y-76582163D01*
X186650656Y-76582163D02*
X186783990Y-75867877D01*
X186783990Y-75867877D02*
X186917323Y-76582163D01*
X186917323Y-76582163D02*
X187083990Y-75582163D01*
X187350656Y-76582163D02*
X187350656Y-75582163D01*
X187350656Y-75582163D02*
X187583990Y-76296448D01*
X187583990Y-76296448D02*
X187817323Y-75582163D01*
X187817323Y-75582163D02*
X187817323Y-76582163D01*
X218683990Y-112938711D02*
X218783990Y-112986330D01*
X218783990Y-112986330D02*
X218950657Y-112986330D01*
X218950657Y-112986330D02*
X219017323Y-112938711D01*
X219017323Y-112938711D02*
X219050657Y-112891091D01*
X219050657Y-112891091D02*
X219083990Y-112795853D01*
X219083990Y-112795853D02*
X219083990Y-112700615D01*
X219083990Y-112700615D02*
X219050657Y-112605377D01*
X219050657Y-112605377D02*
X219017323Y-112557758D01*
X219017323Y-112557758D02*
X218950657Y-112510139D01*
X218950657Y-112510139D02*
X218817323Y-112462520D01*
X218817323Y-112462520D02*
X218750657Y-112414901D01*
X218750657Y-112414901D02*
X218717323Y-112367282D01*
X218717323Y-112367282D02*
X218683990Y-112272044D01*
X218683990Y-112272044D02*
X218683990Y-112176806D01*
X218683990Y-112176806D02*
X218717323Y-112081568D01*
X218717323Y-112081568D02*
X218750657Y-112033949D01*
X218750657Y-112033949D02*
X218817323Y-111986330D01*
X218817323Y-111986330D02*
X218983990Y-111986330D01*
X218983990Y-111986330D02*
X219083990Y-112033949D01*
X219217324Y-113081568D02*
X219750657Y-113081568D01*
X219917323Y-112986330D02*
X219917323Y-111986330D01*
X219917323Y-111986330D02*
X220183990Y-111986330D01*
X220183990Y-111986330D02*
X220250657Y-112033949D01*
X220250657Y-112033949D02*
X220283990Y-112081568D01*
X220283990Y-112081568D02*
X220317323Y-112176806D01*
X220317323Y-112176806D02*
X220317323Y-112319663D01*
X220317323Y-112319663D02*
X220283990Y-112414901D01*
X220283990Y-112414901D02*
X220250657Y-112462520D01*
X220250657Y-112462520D02*
X220183990Y-112510139D01*
X220183990Y-112510139D02*
X219917323Y-112510139D01*
X220550657Y-111986330D02*
X220717323Y-112986330D01*
X220717323Y-112986330D02*
X220850657Y-112272044D01*
X220850657Y-112272044D02*
X220983990Y-112986330D01*
X220983990Y-112986330D02*
X221150657Y-111986330D01*
X221417323Y-112986330D02*
X221417323Y-111986330D01*
X221417323Y-111986330D02*
X221650657Y-112700615D01*
X221650657Y-112700615D02*
X221883990Y-111986330D01*
X221883990Y-111986330D02*
X221883990Y-112986330D01*
X219341133Y-100713711D02*
X219483990Y-100761330D01*
X219483990Y-100761330D02*
X219722085Y-100761330D01*
X219722085Y-100761330D02*
X219817323Y-100713711D01*
X219817323Y-100713711D02*
X219864942Y-100666091D01*
X219864942Y-100666091D02*
X219912561Y-100570853D01*
X219912561Y-100570853D02*
X219912561Y-100475615D01*
X219912561Y-100475615D02*
X219864942Y-100380377D01*
X219864942Y-100380377D02*
X219817323Y-100332758D01*
X219817323Y-100332758D02*
X219722085Y-100285139D01*
X219722085Y-100285139D02*
X219531609Y-100237520D01*
X219531609Y-100237520D02*
X219436371Y-100189901D01*
X219436371Y-100189901D02*
X219388752Y-100142282D01*
X219388752Y-100142282D02*
X219341133Y-100047044D01*
X219341133Y-100047044D02*
X219341133Y-99951806D01*
X219341133Y-99951806D02*
X219388752Y-99856568D01*
X219388752Y-99856568D02*
X219436371Y-99808949D01*
X219436371Y-99808949D02*
X219531609Y-99761330D01*
X219531609Y-99761330D02*
X219769704Y-99761330D01*
X219769704Y-99761330D02*
X219912561Y-99808949D01*
X220912561Y-100666091D02*
X220864942Y-100713711D01*
X220864942Y-100713711D02*
X220722085Y-100761330D01*
X220722085Y-100761330D02*
X220626847Y-100761330D01*
X220626847Y-100761330D02*
X220483990Y-100713711D01*
X220483990Y-100713711D02*
X220388752Y-100618472D01*
X220388752Y-100618472D02*
X220341133Y-100523234D01*
X220341133Y-100523234D02*
X220293514Y-100332758D01*
X220293514Y-100332758D02*
X220293514Y-100189901D01*
X220293514Y-100189901D02*
X220341133Y-99999425D01*
X220341133Y-99999425D02*
X220388752Y-99904187D01*
X220388752Y-99904187D02*
X220483990Y-99808949D01*
X220483990Y-99808949D02*
X220626847Y-99761330D01*
X220626847Y-99761330D02*
X220722085Y-99761330D01*
X220722085Y-99761330D02*
X220864942Y-99808949D01*
X220864942Y-99808949D02*
X220912561Y-99856568D01*
X221817323Y-100761330D02*
X221341133Y-100761330D01*
X221341133Y-100761330D02*
X221341133Y-99761330D01*
X218541133Y-83213710D02*
X219150657Y-83213710D01*
X218845895Y-83594663D02*
X218845895Y-82832758D01*
X219455418Y-82594663D02*
X219950656Y-82594663D01*
X219950656Y-82594663D02*
X219683990Y-82975615D01*
X219683990Y-82975615D02*
X219798275Y-82975615D01*
X219798275Y-82975615D02*
X219874466Y-83023234D01*
X219874466Y-83023234D02*
X219912561Y-83070853D01*
X219912561Y-83070853D02*
X219950656Y-83166091D01*
X219950656Y-83166091D02*
X219950656Y-83404186D01*
X219950656Y-83404186D02*
X219912561Y-83499424D01*
X219912561Y-83499424D02*
X219874466Y-83547044D01*
X219874466Y-83547044D02*
X219798275Y-83594663D01*
X219798275Y-83594663D02*
X219569704Y-83594663D01*
X219569704Y-83594663D02*
X219493513Y-83547044D01*
X219493513Y-83547044D02*
X219455418Y-83499424D01*
X220293514Y-83499424D02*
X220331609Y-83547044D01*
X220331609Y-83547044D02*
X220293514Y-83594663D01*
X220293514Y-83594663D02*
X220255418Y-83547044D01*
X220255418Y-83547044D02*
X220293514Y-83499424D01*
X220293514Y-83499424D02*
X220293514Y-83594663D01*
X220598275Y-82594663D02*
X221093513Y-82594663D01*
X221093513Y-82594663D02*
X220826847Y-82975615D01*
X220826847Y-82975615D02*
X220941132Y-82975615D01*
X220941132Y-82975615D02*
X221017323Y-83023234D01*
X221017323Y-83023234D02*
X221055418Y-83070853D01*
X221055418Y-83070853D02*
X221093513Y-83166091D01*
X221093513Y-83166091D02*
X221093513Y-83404186D01*
X221093513Y-83404186D02*
X221055418Y-83499424D01*
X221055418Y-83499424D02*
X221017323Y-83547044D01*
X221017323Y-83547044D02*
X220941132Y-83594663D01*
X220941132Y-83594663D02*
X220712561Y-83594663D01*
X220712561Y-83594663D02*
X220636370Y-83547044D01*
X220636370Y-83547044D02*
X220598275Y-83499424D01*
X221322085Y-82594663D02*
X221588752Y-83594663D01*
X221588752Y-83594663D02*
X221855418Y-82594663D01*
X219366133Y-76147044D02*
X219508990Y-76194663D01*
X219508990Y-76194663D02*
X219747085Y-76194663D01*
X219747085Y-76194663D02*
X219842323Y-76147044D01*
X219842323Y-76147044D02*
X219889942Y-76099424D01*
X219889942Y-76099424D02*
X219937561Y-76004186D01*
X219937561Y-76004186D02*
X219937561Y-75908948D01*
X219937561Y-75908948D02*
X219889942Y-75813710D01*
X219889942Y-75813710D02*
X219842323Y-75766091D01*
X219842323Y-75766091D02*
X219747085Y-75718472D01*
X219747085Y-75718472D02*
X219556609Y-75670853D01*
X219556609Y-75670853D02*
X219461371Y-75623234D01*
X219461371Y-75623234D02*
X219413752Y-75575615D01*
X219413752Y-75575615D02*
X219366133Y-75480377D01*
X219366133Y-75480377D02*
X219366133Y-75385139D01*
X219366133Y-75385139D02*
X219413752Y-75289901D01*
X219413752Y-75289901D02*
X219461371Y-75242282D01*
X219461371Y-75242282D02*
X219556609Y-75194663D01*
X219556609Y-75194663D02*
X219794704Y-75194663D01*
X219794704Y-75194663D02*
X219937561Y-75242282D01*
X220937561Y-76099424D02*
X220889942Y-76147044D01*
X220889942Y-76147044D02*
X220747085Y-76194663D01*
X220747085Y-76194663D02*
X220651847Y-76194663D01*
X220651847Y-76194663D02*
X220508990Y-76147044D01*
X220508990Y-76147044D02*
X220413752Y-76051805D01*
X220413752Y-76051805D02*
X220366133Y-75956567D01*
X220366133Y-75956567D02*
X220318514Y-75766091D01*
X220318514Y-75766091D02*
X220318514Y-75623234D01*
X220318514Y-75623234D02*
X220366133Y-75432758D01*
X220366133Y-75432758D02*
X220413752Y-75337520D01*
X220413752Y-75337520D02*
X220508990Y-75242282D01*
X220508990Y-75242282D02*
X220651847Y-75194663D01*
X220651847Y-75194663D02*
X220747085Y-75194663D01*
X220747085Y-75194663D02*
X220889942Y-75242282D01*
X220889942Y-75242282D02*
X220937561Y-75289901D01*
X221842323Y-76194663D02*
X221366133Y-76194663D01*
X221366133Y-76194663D02*
X221366133Y-75194663D01*
X231163752Y-113247043D02*
X231925657Y-113247043D01*
X231544704Y-113627996D02*
X231544704Y-112866091D01*
X232306609Y-112627996D02*
X232925656Y-112627996D01*
X232925656Y-112627996D02*
X232592323Y-113008948D01*
X232592323Y-113008948D02*
X232735180Y-113008948D01*
X232735180Y-113008948D02*
X232830418Y-113056567D01*
X232830418Y-113056567D02*
X232878037Y-113104186D01*
X232878037Y-113104186D02*
X232925656Y-113199424D01*
X232925656Y-113199424D02*
X232925656Y-113437519D01*
X232925656Y-113437519D02*
X232878037Y-113532757D01*
X232878037Y-113532757D02*
X232830418Y-113580377D01*
X232830418Y-113580377D02*
X232735180Y-113627996D01*
X232735180Y-113627996D02*
X232449466Y-113627996D01*
X232449466Y-113627996D02*
X232354228Y-113580377D01*
X232354228Y-113580377D02*
X232306609Y-113532757D01*
X233354228Y-113532757D02*
X233401847Y-113580377D01*
X233401847Y-113580377D02*
X233354228Y-113627996D01*
X233354228Y-113627996D02*
X233306609Y-113580377D01*
X233306609Y-113580377D02*
X233354228Y-113532757D01*
X233354228Y-113532757D02*
X233354228Y-113627996D01*
X233735180Y-112627996D02*
X234354227Y-112627996D01*
X234354227Y-112627996D02*
X234020894Y-113008948D01*
X234020894Y-113008948D02*
X234163751Y-113008948D01*
X234163751Y-113008948D02*
X234258989Y-113056567D01*
X234258989Y-113056567D02*
X234306608Y-113104186D01*
X234306608Y-113104186D02*
X234354227Y-113199424D01*
X234354227Y-113199424D02*
X234354227Y-113437519D01*
X234354227Y-113437519D02*
X234306608Y-113532757D01*
X234306608Y-113532757D02*
X234258989Y-113580377D01*
X234258989Y-113580377D02*
X234163751Y-113627996D01*
X234163751Y-113627996D02*
X233878037Y-113627996D01*
X233878037Y-113627996D02*
X233782799Y-113580377D01*
X233782799Y-113580377D02*
X233735180Y-113532757D01*
X234639942Y-112627996D02*
X234973275Y-113627996D01*
X234973275Y-113627996D02*
X235306608Y-112627996D01*
X218541133Y-117738710D02*
X219150657Y-117738710D01*
X218845895Y-118119663D02*
X218845895Y-117357758D01*
X219455418Y-117119663D02*
X219988752Y-117119663D01*
X219988752Y-117119663D02*
X219645894Y-118119663D01*
X220293514Y-118024424D02*
X220331609Y-118072044D01*
X220331609Y-118072044D02*
X220293514Y-118119663D01*
X220293514Y-118119663D02*
X220255418Y-118072044D01*
X220255418Y-118072044D02*
X220293514Y-118024424D01*
X220293514Y-118024424D02*
X220293514Y-118119663D01*
X221055418Y-117119663D02*
X220674466Y-117119663D01*
X220674466Y-117119663D02*
X220636370Y-117595853D01*
X220636370Y-117595853D02*
X220674466Y-117548234D01*
X220674466Y-117548234D02*
X220750656Y-117500615D01*
X220750656Y-117500615D02*
X220941132Y-117500615D01*
X220941132Y-117500615D02*
X221017323Y-117548234D01*
X221017323Y-117548234D02*
X221055418Y-117595853D01*
X221055418Y-117595853D02*
X221093513Y-117691091D01*
X221093513Y-117691091D02*
X221093513Y-117929186D01*
X221093513Y-117929186D02*
X221055418Y-118024424D01*
X221055418Y-118024424D02*
X221017323Y-118072044D01*
X221017323Y-118072044D02*
X220941132Y-118119663D01*
X220941132Y-118119663D02*
X220750656Y-118119663D01*
X220750656Y-118119663D02*
X220674466Y-118072044D01*
X220674466Y-118072044D02*
X220636370Y-118024424D01*
X221322085Y-117119663D02*
X221588752Y-118119663D01*
X221588752Y-118119663D02*
X221855418Y-117119663D01*
X198411289Y-123163752D02*
X198411289Y-123925657D01*
X198030336Y-123544704D02*
X198792241Y-123544704D01*
X199030336Y-124306609D02*
X199030336Y-124973275D01*
X199030336Y-124973275D02*
X198030336Y-124544704D01*
X198125575Y-125354228D02*
X198077956Y-125401847D01*
X198077956Y-125401847D02*
X198030336Y-125354228D01*
X198030336Y-125354228D02*
X198077956Y-125306609D01*
X198077956Y-125306609D02*
X198125575Y-125354228D01*
X198125575Y-125354228D02*
X198030336Y-125354228D01*
X199030336Y-126306608D02*
X199030336Y-125830418D01*
X199030336Y-125830418D02*
X198554146Y-125782799D01*
X198554146Y-125782799D02*
X198601765Y-125830418D01*
X198601765Y-125830418D02*
X198649384Y-125925656D01*
X198649384Y-125925656D02*
X198649384Y-126163751D01*
X198649384Y-126163751D02*
X198601765Y-126258989D01*
X198601765Y-126258989D02*
X198554146Y-126306608D01*
X198554146Y-126306608D02*
X198458908Y-126354227D01*
X198458908Y-126354227D02*
X198220813Y-126354227D01*
X198220813Y-126354227D02*
X198125575Y-126306608D01*
X198125575Y-126306608D02*
X198077956Y-126258989D01*
X198077956Y-126258989D02*
X198030336Y-126163751D01*
X198030336Y-126163751D02*
X198030336Y-125925656D01*
X198030336Y-125925656D02*
X198077956Y-125830418D01*
X198077956Y-125830418D02*
X198125575Y-125782799D01*
X199030336Y-126639942D02*
X198030336Y-126973275D01*
X198030336Y-126973275D02*
X199030336Y-127306608D01*
X232188752Y-120504186D02*
X232522085Y-120504186D01*
X232664942Y-121027996D02*
X232188752Y-121027996D01*
X232188752Y-121027996D02*
X232188752Y-120027996D01*
X232188752Y-120027996D02*
X232664942Y-120027996D01*
X233093514Y-120361329D02*
X233093514Y-121027996D01*
X233093514Y-120456567D02*
X233141133Y-120408948D01*
X233141133Y-120408948D02*
X233236371Y-120361329D01*
X233236371Y-120361329D02*
X233379228Y-120361329D01*
X233379228Y-120361329D02*
X233474466Y-120408948D01*
X233474466Y-120408948D02*
X233522085Y-120504186D01*
X233522085Y-120504186D02*
X233522085Y-121027996D01*
X234426847Y-120980377D02*
X234331609Y-121027996D01*
X234331609Y-121027996D02*
X234141133Y-121027996D01*
X234141133Y-121027996D02*
X234045895Y-120980377D01*
X234045895Y-120980377D02*
X233998276Y-120932757D01*
X233998276Y-120932757D02*
X233950657Y-120837519D01*
X233950657Y-120837519D02*
X233950657Y-120551805D01*
X233950657Y-120551805D02*
X233998276Y-120456567D01*
X233998276Y-120456567D02*
X234045895Y-120408948D01*
X234045895Y-120408948D02*
X234141133Y-120361329D01*
X234141133Y-120361329D02*
X234331609Y-120361329D01*
X234331609Y-120361329D02*
X234426847Y-120408948D01*
X235188752Y-120504186D02*
X235331609Y-120551805D01*
X235331609Y-120551805D02*
X235379228Y-120599424D01*
X235379228Y-120599424D02*
X235426847Y-120694662D01*
X235426847Y-120694662D02*
X235426847Y-120837519D01*
X235426847Y-120837519D02*
X235379228Y-120932757D01*
X235379228Y-120932757D02*
X235331609Y-120980377D01*
X235331609Y-120980377D02*
X235236371Y-121027996D01*
X235236371Y-121027996D02*
X234855419Y-121027996D01*
X234855419Y-121027996D02*
X234855419Y-120027996D01*
X234855419Y-120027996D02*
X235188752Y-120027996D01*
X235188752Y-120027996D02*
X235283990Y-120075615D01*
X235283990Y-120075615D02*
X235331609Y-120123234D01*
X235331609Y-120123234D02*
X235379228Y-120218472D01*
X235379228Y-120218472D02*
X235379228Y-120313710D01*
X235379228Y-120313710D02*
X235331609Y-120408948D01*
X235331609Y-120408948D02*
X235283990Y-120456567D01*
X235283990Y-120456567D02*
X235188752Y-120504186D01*
X235188752Y-120504186D02*
X234855419Y-120504186D01*
X196983990Y-109055378D02*
X197083990Y-109102997D01*
X197083990Y-109102997D02*
X197250657Y-109102997D01*
X197250657Y-109102997D02*
X197317323Y-109055378D01*
X197317323Y-109055378D02*
X197350657Y-109007758D01*
X197350657Y-109007758D02*
X197383990Y-108912520D01*
X197383990Y-108912520D02*
X197383990Y-108817282D01*
X197383990Y-108817282D02*
X197350657Y-108722044D01*
X197350657Y-108722044D02*
X197317323Y-108674425D01*
X197317323Y-108674425D02*
X197250657Y-108626806D01*
X197250657Y-108626806D02*
X197117323Y-108579187D01*
X197117323Y-108579187D02*
X197050657Y-108531568D01*
X197050657Y-108531568D02*
X197017323Y-108483949D01*
X197017323Y-108483949D02*
X196983990Y-108388711D01*
X196983990Y-108388711D02*
X196983990Y-108293473D01*
X196983990Y-108293473D02*
X197017323Y-108198235D01*
X197017323Y-108198235D02*
X197050657Y-108150616D01*
X197050657Y-108150616D02*
X197117323Y-108102997D01*
X197117323Y-108102997D02*
X197283990Y-108102997D01*
X197283990Y-108102997D02*
X197383990Y-108150616D01*
X197517324Y-109198235D02*
X198050657Y-109198235D01*
X198217323Y-109102997D02*
X198217323Y-108102997D01*
X198217323Y-108102997D02*
X198483990Y-108102997D01*
X198483990Y-108102997D02*
X198550657Y-108150616D01*
X198550657Y-108150616D02*
X198583990Y-108198235D01*
X198583990Y-108198235D02*
X198617323Y-108293473D01*
X198617323Y-108293473D02*
X198617323Y-108436330D01*
X198617323Y-108436330D02*
X198583990Y-108531568D01*
X198583990Y-108531568D02*
X198550657Y-108579187D01*
X198550657Y-108579187D02*
X198483990Y-108626806D01*
X198483990Y-108626806D02*
X198217323Y-108626806D01*
X198850657Y-108102997D02*
X199017323Y-109102997D01*
X199017323Y-109102997D02*
X199150657Y-108388711D01*
X199150657Y-108388711D02*
X199283990Y-109102997D01*
X199283990Y-109102997D02*
X199450657Y-108102997D01*
X199717323Y-109102997D02*
X199717323Y-108102997D01*
X199717323Y-108102997D02*
X199950657Y-108817282D01*
X199950657Y-108817282D02*
X200183990Y-108102997D01*
X200183990Y-108102997D02*
X200183990Y-109102997D01*
X219787561Y-114600615D02*
X219692323Y-114552996D01*
X219692323Y-114552996D02*
X219549466Y-114552996D01*
X219549466Y-114552996D02*
X219406609Y-114600615D01*
X219406609Y-114600615D02*
X219311371Y-114695853D01*
X219311371Y-114695853D02*
X219263752Y-114791091D01*
X219263752Y-114791091D02*
X219216133Y-114981567D01*
X219216133Y-114981567D02*
X219216133Y-115124424D01*
X219216133Y-115124424D02*
X219263752Y-115314900D01*
X219263752Y-115314900D02*
X219311371Y-115410138D01*
X219311371Y-115410138D02*
X219406609Y-115505377D01*
X219406609Y-115505377D02*
X219549466Y-115552996D01*
X219549466Y-115552996D02*
X219644704Y-115552996D01*
X219644704Y-115552996D02*
X219787561Y-115505377D01*
X219787561Y-115505377D02*
X219835180Y-115457757D01*
X219835180Y-115457757D02*
X219835180Y-115124424D01*
X219835180Y-115124424D02*
X219644704Y-115124424D01*
X220263752Y-115552996D02*
X220263752Y-114552996D01*
X220263752Y-114552996D02*
X220835180Y-115552996D01*
X220835180Y-115552996D02*
X220835180Y-114552996D01*
X221311371Y-115552996D02*
X221311371Y-114552996D01*
X221311371Y-114552996D02*
X221549466Y-114552996D01*
X221549466Y-114552996D02*
X221692323Y-114600615D01*
X221692323Y-114600615D02*
X221787561Y-114695853D01*
X221787561Y-114695853D02*
X221835180Y-114791091D01*
X221835180Y-114791091D02*
X221882799Y-114981567D01*
X221882799Y-114981567D02*
X221882799Y-115124424D01*
X221882799Y-115124424D02*
X221835180Y-115314900D01*
X221835180Y-115314900D02*
X221787561Y-115410138D01*
X221787561Y-115410138D02*
X221692323Y-115505377D01*
X221692323Y-115505377D02*
X221549466Y-115552996D01*
X221549466Y-115552996D02*
X221311371Y-115552996D01*
X197338752Y-71169663D02*
X197338752Y-70169663D01*
X197338752Y-70169663D02*
X197576847Y-70169663D01*
X197576847Y-70169663D02*
X197719704Y-70217282D01*
X197719704Y-70217282D02*
X197814942Y-70312520D01*
X197814942Y-70312520D02*
X197862561Y-70407758D01*
X197862561Y-70407758D02*
X197910180Y-70598234D01*
X197910180Y-70598234D02*
X197910180Y-70741091D01*
X197910180Y-70741091D02*
X197862561Y-70931567D01*
X197862561Y-70931567D02*
X197814942Y-71026805D01*
X197814942Y-71026805D02*
X197719704Y-71122044D01*
X197719704Y-71122044D02*
X197576847Y-71169663D01*
X197576847Y-71169663D02*
X197338752Y-71169663D01*
X198338752Y-71169663D02*
X198338752Y-70169663D01*
X199386370Y-71169663D02*
X199053037Y-70693472D01*
X198814942Y-71169663D02*
X198814942Y-70169663D01*
X198814942Y-70169663D02*
X199195894Y-70169663D01*
X199195894Y-70169663D02*
X199291132Y-70217282D01*
X199291132Y-70217282D02*
X199338751Y-70264901D01*
X199338751Y-70264901D02*
X199386370Y-70360139D01*
X199386370Y-70360139D02*
X199386370Y-70502996D01*
X199386370Y-70502996D02*
X199338751Y-70598234D01*
X199338751Y-70598234D02*
X199291132Y-70645853D01*
X199291132Y-70645853D02*
X199195894Y-70693472D01*
X199195894Y-70693472D02*
X198814942Y-70693472D01*
X232313752Y-98287520D02*
X232647085Y-98287520D01*
X232789942Y-98811330D02*
X232313752Y-98811330D01*
X232313752Y-98811330D02*
X232313752Y-97811330D01*
X232313752Y-97811330D02*
X232789942Y-97811330D01*
X233218514Y-98144663D02*
X233218514Y-98811330D01*
X233218514Y-98239901D02*
X233266133Y-98192282D01*
X233266133Y-98192282D02*
X233361371Y-98144663D01*
X233361371Y-98144663D02*
X233504228Y-98144663D01*
X233504228Y-98144663D02*
X233599466Y-98192282D01*
X233599466Y-98192282D02*
X233647085Y-98287520D01*
X233647085Y-98287520D02*
X233647085Y-98811330D01*
X234551847Y-98763711D02*
X234456609Y-98811330D01*
X234456609Y-98811330D02*
X234266133Y-98811330D01*
X234266133Y-98811330D02*
X234170895Y-98763711D01*
X234170895Y-98763711D02*
X234123276Y-98716091D01*
X234123276Y-98716091D02*
X234075657Y-98620853D01*
X234075657Y-98620853D02*
X234075657Y-98335139D01*
X234075657Y-98335139D02*
X234123276Y-98239901D01*
X234123276Y-98239901D02*
X234170895Y-98192282D01*
X234170895Y-98192282D02*
X234266133Y-98144663D01*
X234266133Y-98144663D02*
X234456609Y-98144663D01*
X234456609Y-98144663D02*
X234551847Y-98192282D01*
X235313752Y-98287520D02*
X235456609Y-98335139D01*
X235456609Y-98335139D02*
X235504228Y-98382758D01*
X235504228Y-98382758D02*
X235551847Y-98477996D01*
X235551847Y-98477996D02*
X235551847Y-98620853D01*
X235551847Y-98620853D02*
X235504228Y-98716091D01*
X235504228Y-98716091D02*
X235456609Y-98763711D01*
X235456609Y-98763711D02*
X235361371Y-98811330D01*
X235361371Y-98811330D02*
X234980419Y-98811330D01*
X234980419Y-98811330D02*
X234980419Y-97811330D01*
X234980419Y-97811330D02*
X235313752Y-97811330D01*
X235313752Y-97811330D02*
X235408990Y-97858949D01*
X235408990Y-97858949D02*
X235456609Y-97906568D01*
X235456609Y-97906568D02*
X235504228Y-98001806D01*
X235504228Y-98001806D02*
X235504228Y-98097044D01*
X235504228Y-98097044D02*
X235456609Y-98192282D01*
X235456609Y-98192282D02*
X235408990Y-98239901D01*
X235408990Y-98239901D02*
X235313752Y-98287520D01*
X235313752Y-98287520D02*
X234980419Y-98287520D01*
X184266133Y-92169265D02*
X184875657Y-92169265D01*
X184570895Y-92550218D02*
X184570895Y-91788313D01*
X185180418Y-91550218D02*
X185675656Y-91550218D01*
X185675656Y-91550218D02*
X185408990Y-91931170D01*
X185408990Y-91931170D02*
X185523275Y-91931170D01*
X185523275Y-91931170D02*
X185599466Y-91978789D01*
X185599466Y-91978789D02*
X185637561Y-92026408D01*
X185637561Y-92026408D02*
X185675656Y-92121646D01*
X185675656Y-92121646D02*
X185675656Y-92359741D01*
X185675656Y-92359741D02*
X185637561Y-92454979D01*
X185637561Y-92454979D02*
X185599466Y-92502599D01*
X185599466Y-92502599D02*
X185523275Y-92550218D01*
X185523275Y-92550218D02*
X185294704Y-92550218D01*
X185294704Y-92550218D02*
X185218513Y-92502599D01*
X185218513Y-92502599D02*
X185180418Y-92454979D01*
X186018514Y-92454979D02*
X186056609Y-92502599D01*
X186056609Y-92502599D02*
X186018514Y-92550218D01*
X186018514Y-92550218D02*
X185980418Y-92502599D01*
X185980418Y-92502599D02*
X186018514Y-92454979D01*
X186018514Y-92454979D02*
X186018514Y-92550218D01*
X186323275Y-91550218D02*
X186818513Y-91550218D01*
X186818513Y-91550218D02*
X186551847Y-91931170D01*
X186551847Y-91931170D02*
X186666132Y-91931170D01*
X186666132Y-91931170D02*
X186742323Y-91978789D01*
X186742323Y-91978789D02*
X186780418Y-92026408D01*
X186780418Y-92026408D02*
X186818513Y-92121646D01*
X186818513Y-92121646D02*
X186818513Y-92359741D01*
X186818513Y-92359741D02*
X186780418Y-92454979D01*
X186780418Y-92454979D02*
X186742323Y-92502599D01*
X186742323Y-92502599D02*
X186666132Y-92550218D01*
X186666132Y-92550218D02*
X186437561Y-92550218D01*
X186437561Y-92550218D02*
X186361370Y-92502599D01*
X186361370Y-92502599D02*
X186323275Y-92454979D01*
X187047085Y-91550218D02*
X187313752Y-92550218D01*
X187313752Y-92550218D02*
X187580418Y-91550218D01*
X196942323Y-68557163D02*
X196942323Y-67557163D01*
X196942323Y-67557163D02*
X197175657Y-68271448D01*
X197175657Y-68271448D02*
X197408990Y-67557163D01*
X197408990Y-67557163D02*
X197408990Y-68557163D01*
X197575657Y-68652401D02*
X198108990Y-68652401D01*
X198275656Y-68557163D02*
X198275656Y-67557163D01*
X198275656Y-67557163D02*
X198542323Y-67557163D01*
X198542323Y-67557163D02*
X198608990Y-67604782D01*
X198608990Y-67604782D02*
X198642323Y-67652401D01*
X198642323Y-67652401D02*
X198675656Y-67747639D01*
X198675656Y-67747639D02*
X198675656Y-67890496D01*
X198675656Y-67890496D02*
X198642323Y-67985734D01*
X198642323Y-67985734D02*
X198608990Y-68033353D01*
X198608990Y-68033353D02*
X198542323Y-68080972D01*
X198542323Y-68080972D02*
X198275656Y-68080972D01*
X198908990Y-67557163D02*
X199075656Y-68557163D01*
X199075656Y-68557163D02*
X199208990Y-67842877D01*
X199208990Y-67842877D02*
X199342323Y-68557163D01*
X199342323Y-68557163D02*
X199508990Y-67557163D01*
X199775656Y-68557163D02*
X199775656Y-67557163D01*
X199775656Y-67557163D02*
X200008990Y-68271448D01*
X200008990Y-68271448D02*
X200242323Y-67557163D01*
X200242323Y-67557163D02*
X200242323Y-68557163D01*
X232588752Y-73370853D02*
X232922085Y-73370853D01*
X233064942Y-73894663D02*
X232588752Y-73894663D01*
X232588752Y-73894663D02*
X232588752Y-72894663D01*
X232588752Y-72894663D02*
X233064942Y-72894663D01*
X233493514Y-73227996D02*
X233493514Y-73894663D01*
X233493514Y-73323234D02*
X233541133Y-73275615D01*
X233541133Y-73275615D02*
X233636371Y-73227996D01*
X233636371Y-73227996D02*
X233779228Y-73227996D01*
X233779228Y-73227996D02*
X233874466Y-73275615D01*
X233874466Y-73275615D02*
X233922085Y-73370853D01*
X233922085Y-73370853D02*
X233922085Y-73894663D01*
X234826847Y-73847044D02*
X234731609Y-73894663D01*
X234731609Y-73894663D02*
X234541133Y-73894663D01*
X234541133Y-73894663D02*
X234445895Y-73847044D01*
X234445895Y-73847044D02*
X234398276Y-73799424D01*
X234398276Y-73799424D02*
X234350657Y-73704186D01*
X234350657Y-73704186D02*
X234350657Y-73418472D01*
X234350657Y-73418472D02*
X234398276Y-73323234D01*
X234398276Y-73323234D02*
X234445895Y-73275615D01*
X234445895Y-73275615D02*
X234541133Y-73227996D01*
X234541133Y-73227996D02*
X234731609Y-73227996D01*
X234731609Y-73227996D02*
X234826847Y-73275615D01*
X235588752Y-73370853D02*
X235731609Y-73418472D01*
X235731609Y-73418472D02*
X235779228Y-73466091D01*
X235779228Y-73466091D02*
X235826847Y-73561329D01*
X235826847Y-73561329D02*
X235826847Y-73704186D01*
X235826847Y-73704186D02*
X235779228Y-73799424D01*
X235779228Y-73799424D02*
X235731609Y-73847044D01*
X235731609Y-73847044D02*
X235636371Y-73894663D01*
X235636371Y-73894663D02*
X235255419Y-73894663D01*
X235255419Y-73894663D02*
X235255419Y-72894663D01*
X235255419Y-72894663D02*
X235588752Y-72894663D01*
X235588752Y-72894663D02*
X235683990Y-72942282D01*
X235683990Y-72942282D02*
X235731609Y-72989901D01*
X235731609Y-72989901D02*
X235779228Y-73085139D01*
X235779228Y-73085139D02*
X235779228Y-73180377D01*
X235779228Y-73180377D02*
X235731609Y-73275615D01*
X235731609Y-73275615D02*
X235683990Y-73323234D01*
X235683990Y-73323234D02*
X235588752Y-73370853D01*
X235588752Y-73370853D02*
X235255419Y-73370853D01*
X218491133Y-92972043D02*
X219100657Y-92972043D01*
X218795895Y-93352996D02*
X218795895Y-92591091D01*
X219405418Y-92352996D02*
X219900656Y-92352996D01*
X219900656Y-92352996D02*
X219633990Y-92733948D01*
X219633990Y-92733948D02*
X219748275Y-92733948D01*
X219748275Y-92733948D02*
X219824466Y-92781567D01*
X219824466Y-92781567D02*
X219862561Y-92829186D01*
X219862561Y-92829186D02*
X219900656Y-92924424D01*
X219900656Y-92924424D02*
X219900656Y-93162519D01*
X219900656Y-93162519D02*
X219862561Y-93257757D01*
X219862561Y-93257757D02*
X219824466Y-93305377D01*
X219824466Y-93305377D02*
X219748275Y-93352996D01*
X219748275Y-93352996D02*
X219519704Y-93352996D01*
X219519704Y-93352996D02*
X219443513Y-93305377D01*
X219443513Y-93305377D02*
X219405418Y-93257757D01*
X220243514Y-93257757D02*
X220281609Y-93305377D01*
X220281609Y-93305377D02*
X220243514Y-93352996D01*
X220243514Y-93352996D02*
X220205418Y-93305377D01*
X220205418Y-93305377D02*
X220243514Y-93257757D01*
X220243514Y-93257757D02*
X220243514Y-93352996D01*
X220548275Y-92352996D02*
X221043513Y-92352996D01*
X221043513Y-92352996D02*
X220776847Y-92733948D01*
X220776847Y-92733948D02*
X220891132Y-92733948D01*
X220891132Y-92733948D02*
X220967323Y-92781567D01*
X220967323Y-92781567D02*
X221005418Y-92829186D01*
X221005418Y-92829186D02*
X221043513Y-92924424D01*
X221043513Y-92924424D02*
X221043513Y-93162519D01*
X221043513Y-93162519D02*
X221005418Y-93257757D01*
X221005418Y-93257757D02*
X220967323Y-93305377D01*
X220967323Y-93305377D02*
X220891132Y-93352996D01*
X220891132Y-93352996D02*
X220662561Y-93352996D01*
X220662561Y-93352996D02*
X220586370Y-93305377D01*
X220586370Y-93305377D02*
X220548275Y-93257757D01*
X221272085Y-92352996D02*
X221538752Y-93352996D01*
X221538752Y-93352996D02*
X221805418Y-92352996D01*
X197363752Y-91519663D02*
X197363752Y-90519663D01*
X197363752Y-90519663D02*
X197601847Y-90519663D01*
X197601847Y-90519663D02*
X197744704Y-90567282D01*
X197744704Y-90567282D02*
X197839942Y-90662520D01*
X197839942Y-90662520D02*
X197887561Y-90757758D01*
X197887561Y-90757758D02*
X197935180Y-90948234D01*
X197935180Y-90948234D02*
X197935180Y-91091091D01*
X197935180Y-91091091D02*
X197887561Y-91281567D01*
X197887561Y-91281567D02*
X197839942Y-91376805D01*
X197839942Y-91376805D02*
X197744704Y-91472044D01*
X197744704Y-91472044D02*
X197601847Y-91519663D01*
X197601847Y-91519663D02*
X197363752Y-91519663D01*
X198363752Y-91519663D02*
X198363752Y-90519663D01*
X199411370Y-91519663D02*
X199078037Y-91043472D01*
X198839942Y-91519663D02*
X198839942Y-90519663D01*
X198839942Y-90519663D02*
X199220894Y-90519663D01*
X199220894Y-90519663D02*
X199316132Y-90567282D01*
X199316132Y-90567282D02*
X199363751Y-90614901D01*
X199363751Y-90614901D02*
X199411370Y-90710139D01*
X199411370Y-90710139D02*
X199411370Y-90852996D01*
X199411370Y-90852996D02*
X199363751Y-90948234D01*
X199363751Y-90948234D02*
X199316132Y-90995853D01*
X199316132Y-90995853D02*
X199220894Y-91043472D01*
X199220894Y-91043472D02*
X198839942Y-91043472D01*
X185091133Y-99877600D02*
X185233990Y-99925219D01*
X185233990Y-99925219D02*
X185472085Y-99925219D01*
X185472085Y-99925219D02*
X185567323Y-99877600D01*
X185567323Y-99877600D02*
X185614942Y-99829980D01*
X185614942Y-99829980D02*
X185662561Y-99734742D01*
X185662561Y-99734742D02*
X185662561Y-99639504D01*
X185662561Y-99639504D02*
X185614942Y-99544266D01*
X185614942Y-99544266D02*
X185567323Y-99496647D01*
X185567323Y-99496647D02*
X185472085Y-99449028D01*
X185472085Y-99449028D02*
X185281609Y-99401409D01*
X185281609Y-99401409D02*
X185186371Y-99353790D01*
X185186371Y-99353790D02*
X185138752Y-99306171D01*
X185138752Y-99306171D02*
X185091133Y-99210933D01*
X185091133Y-99210933D02*
X185091133Y-99115695D01*
X185091133Y-99115695D02*
X185138752Y-99020457D01*
X185138752Y-99020457D02*
X185186371Y-98972838D01*
X185186371Y-98972838D02*
X185281609Y-98925219D01*
X185281609Y-98925219D02*
X185519704Y-98925219D01*
X185519704Y-98925219D02*
X185662561Y-98972838D01*
X186091133Y-99925219D02*
X186091133Y-98925219D01*
X186091133Y-98925219D02*
X186329228Y-98925219D01*
X186329228Y-98925219D02*
X186472085Y-98972838D01*
X186472085Y-98972838D02*
X186567323Y-99068076D01*
X186567323Y-99068076D02*
X186614942Y-99163314D01*
X186614942Y-99163314D02*
X186662561Y-99353790D01*
X186662561Y-99353790D02*
X186662561Y-99496647D01*
X186662561Y-99496647D02*
X186614942Y-99687123D01*
X186614942Y-99687123D02*
X186567323Y-99782361D01*
X186567323Y-99782361D02*
X186472085Y-99877600D01*
X186472085Y-99877600D02*
X186329228Y-99925219D01*
X186329228Y-99925219D02*
X186091133Y-99925219D01*
X187043514Y-99639504D02*
X187519704Y-99639504D01*
X186948276Y-99925219D02*
X187281609Y-98925219D01*
X187281609Y-98925219D02*
X187614942Y-99925219D01*
X222988752Y-70638710D02*
X223750657Y-70638710D01*
X223369704Y-71019663D02*
X223369704Y-70257758D01*
X224703037Y-70019663D02*
X224226847Y-70019663D01*
X224226847Y-70019663D02*
X224179228Y-70495853D01*
X224179228Y-70495853D02*
X224226847Y-70448234D01*
X224226847Y-70448234D02*
X224322085Y-70400615D01*
X224322085Y-70400615D02*
X224560180Y-70400615D01*
X224560180Y-70400615D02*
X224655418Y-70448234D01*
X224655418Y-70448234D02*
X224703037Y-70495853D01*
X224703037Y-70495853D02*
X224750656Y-70591091D01*
X224750656Y-70591091D02*
X224750656Y-70829186D01*
X224750656Y-70829186D02*
X224703037Y-70924424D01*
X224703037Y-70924424D02*
X224655418Y-70972044D01*
X224655418Y-70972044D02*
X224560180Y-71019663D01*
X224560180Y-71019663D02*
X224322085Y-71019663D01*
X224322085Y-71019663D02*
X224226847Y-70972044D01*
X224226847Y-70972044D02*
X224179228Y-70924424D01*
X225036371Y-70019663D02*
X225369704Y-71019663D01*
X225369704Y-71019663D02*
X225703037Y-70019663D01*
X184913752Y-79194663D02*
X184913752Y-78194663D01*
X184913752Y-78194663D02*
X185151847Y-78194663D01*
X185151847Y-78194663D02*
X185294704Y-78242282D01*
X185294704Y-78242282D02*
X185389942Y-78337520D01*
X185389942Y-78337520D02*
X185437561Y-78432758D01*
X185437561Y-78432758D02*
X185485180Y-78623234D01*
X185485180Y-78623234D02*
X185485180Y-78766091D01*
X185485180Y-78766091D02*
X185437561Y-78956567D01*
X185437561Y-78956567D02*
X185389942Y-79051805D01*
X185389942Y-79051805D02*
X185294704Y-79147044D01*
X185294704Y-79147044D02*
X185151847Y-79194663D01*
X185151847Y-79194663D02*
X184913752Y-79194663D01*
X185913752Y-79194663D02*
X185913752Y-78194663D01*
X186961370Y-79194663D02*
X186628037Y-78718472D01*
X186389942Y-79194663D02*
X186389942Y-78194663D01*
X186389942Y-78194663D02*
X186770894Y-78194663D01*
X186770894Y-78194663D02*
X186866132Y-78242282D01*
X186866132Y-78242282D02*
X186913751Y-78289901D01*
X186913751Y-78289901D02*
X186961370Y-78385139D01*
X186961370Y-78385139D02*
X186961370Y-78527996D01*
X186961370Y-78527996D02*
X186913751Y-78623234D01*
X186913751Y-78623234D02*
X186866132Y-78670853D01*
X186866132Y-78670853D02*
X186770894Y-78718472D01*
X186770894Y-78718472D02*
X186389942Y-78718472D01*
X219787561Y-80175615D02*
X219692323Y-80127996D01*
X219692323Y-80127996D02*
X219549466Y-80127996D01*
X219549466Y-80127996D02*
X219406609Y-80175615D01*
X219406609Y-80175615D02*
X219311371Y-80270853D01*
X219311371Y-80270853D02*
X219263752Y-80366091D01*
X219263752Y-80366091D02*
X219216133Y-80556567D01*
X219216133Y-80556567D02*
X219216133Y-80699424D01*
X219216133Y-80699424D02*
X219263752Y-80889900D01*
X219263752Y-80889900D02*
X219311371Y-80985138D01*
X219311371Y-80985138D02*
X219406609Y-81080377D01*
X219406609Y-81080377D02*
X219549466Y-81127996D01*
X219549466Y-81127996D02*
X219644704Y-81127996D01*
X219644704Y-81127996D02*
X219787561Y-81080377D01*
X219787561Y-81080377D02*
X219835180Y-81032757D01*
X219835180Y-81032757D02*
X219835180Y-80699424D01*
X219835180Y-80699424D02*
X219644704Y-80699424D01*
X220263752Y-81127996D02*
X220263752Y-80127996D01*
X220263752Y-80127996D02*
X220835180Y-81127996D01*
X220835180Y-81127996D02*
X220835180Y-80127996D01*
X221311371Y-81127996D02*
X221311371Y-80127996D01*
X221311371Y-80127996D02*
X221549466Y-80127996D01*
X221549466Y-80127996D02*
X221692323Y-80175615D01*
X221692323Y-80175615D02*
X221787561Y-80270853D01*
X221787561Y-80270853D02*
X221835180Y-80366091D01*
X221835180Y-80366091D02*
X221882799Y-80556567D01*
X221882799Y-80556567D02*
X221882799Y-80699424D01*
X221882799Y-80699424D02*
X221835180Y-80889900D01*
X221835180Y-80889900D02*
X221787561Y-80985138D01*
X221787561Y-80985138D02*
X221692323Y-81080377D01*
X221692323Y-81080377D02*
X221549466Y-81127996D01*
X221549466Y-81127996D02*
X221311371Y-81127996D01*
X198087561Y-110717282D02*
X197992323Y-110669663D01*
X197992323Y-110669663D02*
X197849466Y-110669663D01*
X197849466Y-110669663D02*
X197706609Y-110717282D01*
X197706609Y-110717282D02*
X197611371Y-110812520D01*
X197611371Y-110812520D02*
X197563752Y-110907758D01*
X197563752Y-110907758D02*
X197516133Y-111098234D01*
X197516133Y-111098234D02*
X197516133Y-111241091D01*
X197516133Y-111241091D02*
X197563752Y-111431567D01*
X197563752Y-111431567D02*
X197611371Y-111526805D01*
X197611371Y-111526805D02*
X197706609Y-111622044D01*
X197706609Y-111622044D02*
X197849466Y-111669663D01*
X197849466Y-111669663D02*
X197944704Y-111669663D01*
X197944704Y-111669663D02*
X198087561Y-111622044D01*
X198087561Y-111622044D02*
X198135180Y-111574424D01*
X198135180Y-111574424D02*
X198135180Y-111241091D01*
X198135180Y-111241091D02*
X197944704Y-111241091D01*
X198563752Y-111669663D02*
X198563752Y-110669663D01*
X198563752Y-110669663D02*
X199135180Y-111669663D01*
X199135180Y-111669663D02*
X199135180Y-110669663D01*
X199611371Y-111669663D02*
X199611371Y-110669663D01*
X199611371Y-110669663D02*
X199849466Y-110669663D01*
X199849466Y-110669663D02*
X199992323Y-110717282D01*
X199992323Y-110717282D02*
X200087561Y-110812520D01*
X200087561Y-110812520D02*
X200135180Y-110907758D01*
X200135180Y-110907758D02*
X200182799Y-111098234D01*
X200182799Y-111098234D02*
X200182799Y-111241091D01*
X200182799Y-111241091D02*
X200135180Y-111431567D01*
X200135180Y-111431567D02*
X200087561Y-111526805D01*
X200087561Y-111526805D02*
X199992323Y-111622044D01*
X199992323Y-111622044D02*
X199849466Y-111669663D01*
X199849466Y-111669663D02*
X199611371Y-111669663D01*
X197762561Y-85342282D02*
X197667323Y-85294663D01*
X197667323Y-85294663D02*
X197524466Y-85294663D01*
X197524466Y-85294663D02*
X197381609Y-85342282D01*
X197381609Y-85342282D02*
X197286371Y-85437520D01*
X197286371Y-85437520D02*
X197238752Y-85532758D01*
X197238752Y-85532758D02*
X197191133Y-85723234D01*
X197191133Y-85723234D02*
X197191133Y-85866091D01*
X197191133Y-85866091D02*
X197238752Y-86056567D01*
X197238752Y-86056567D02*
X197286371Y-86151805D01*
X197286371Y-86151805D02*
X197381609Y-86247044D01*
X197381609Y-86247044D02*
X197524466Y-86294663D01*
X197524466Y-86294663D02*
X197619704Y-86294663D01*
X197619704Y-86294663D02*
X197762561Y-86247044D01*
X197762561Y-86247044D02*
X197810180Y-86199424D01*
X197810180Y-86199424D02*
X197810180Y-85866091D01*
X197810180Y-85866091D02*
X197619704Y-85866091D01*
X198238752Y-86294663D02*
X198238752Y-85294663D01*
X198238752Y-85294663D02*
X198810180Y-86294663D01*
X198810180Y-86294663D02*
X198810180Y-85294663D01*
X199286371Y-86294663D02*
X199286371Y-85294663D01*
X199286371Y-85294663D02*
X199524466Y-85294663D01*
X199524466Y-85294663D02*
X199667323Y-85342282D01*
X199667323Y-85342282D02*
X199762561Y-85437520D01*
X199762561Y-85437520D02*
X199810180Y-85532758D01*
X199810180Y-85532758D02*
X199857799Y-85723234D01*
X199857799Y-85723234D02*
X199857799Y-85866091D01*
X199857799Y-85866091D02*
X199810180Y-86056567D01*
X199810180Y-86056567D02*
X199762561Y-86151805D01*
X199762561Y-86151805D02*
X199667323Y-86247044D01*
X199667323Y-86247044D02*
X199524466Y-86294663D01*
X199524466Y-86294663D02*
X199286371Y-86294663D01*
X184528037Y-112513711D02*
X184642323Y-112561330D01*
X184642323Y-112561330D02*
X184832799Y-112561330D01*
X184832799Y-112561330D02*
X184908990Y-112513711D01*
X184908990Y-112513711D02*
X184947085Y-112466091D01*
X184947085Y-112466091D02*
X184985180Y-112370853D01*
X184985180Y-112370853D02*
X184985180Y-112275615D01*
X184985180Y-112275615D02*
X184947085Y-112180377D01*
X184947085Y-112180377D02*
X184908990Y-112132758D01*
X184908990Y-112132758D02*
X184832799Y-112085139D01*
X184832799Y-112085139D02*
X184680418Y-112037520D01*
X184680418Y-112037520D02*
X184604228Y-111989901D01*
X184604228Y-111989901D02*
X184566133Y-111942282D01*
X184566133Y-111942282D02*
X184528037Y-111847044D01*
X184528037Y-111847044D02*
X184528037Y-111751806D01*
X184528037Y-111751806D02*
X184566133Y-111656568D01*
X184566133Y-111656568D02*
X184604228Y-111608949D01*
X184604228Y-111608949D02*
X184680418Y-111561330D01*
X184680418Y-111561330D02*
X184870895Y-111561330D01*
X184870895Y-111561330D02*
X184985180Y-111608949D01*
X185137562Y-112656568D02*
X185747085Y-112656568D01*
X185899466Y-112275615D02*
X186280419Y-112275615D01*
X185823276Y-112561330D02*
X186089943Y-111561330D01*
X186089943Y-111561330D02*
X186356609Y-112561330D01*
X186623276Y-111894663D02*
X186623276Y-112561330D01*
X186623276Y-111989901D02*
X186661371Y-111942282D01*
X186661371Y-111942282D02*
X186737561Y-111894663D01*
X186737561Y-111894663D02*
X186851847Y-111894663D01*
X186851847Y-111894663D02*
X186928038Y-111942282D01*
X186928038Y-111942282D02*
X186966133Y-112037520D01*
X186966133Y-112037520D02*
X186966133Y-112561330D01*
X187689943Y-111894663D02*
X187689943Y-112704187D01*
X187689943Y-112704187D02*
X187651848Y-112799425D01*
X187651848Y-112799425D02*
X187613752Y-112847044D01*
X187613752Y-112847044D02*
X187537562Y-112894663D01*
X187537562Y-112894663D02*
X187423276Y-112894663D01*
X187423276Y-112894663D02*
X187347086Y-112847044D01*
X187689943Y-112513711D02*
X187613752Y-112561330D01*
X187613752Y-112561330D02*
X187461371Y-112561330D01*
X187461371Y-112561330D02*
X187385181Y-112513711D01*
X187385181Y-112513711D02*
X187347086Y-112466091D01*
X187347086Y-112466091D02*
X187308990Y-112370853D01*
X187308990Y-112370853D02*
X187308990Y-112085139D01*
X187308990Y-112085139D02*
X187347086Y-111989901D01*
X187347086Y-111989901D02*
X187385181Y-111942282D01*
X187385181Y-111942282D02*
X187461371Y-111894663D01*
X187461371Y-111894663D02*
X187613752Y-111894663D01*
X187613752Y-111894663D02*
X187689943Y-111942282D01*
X232288752Y-118037519D02*
X232622085Y-118037519D01*
X232764942Y-118561329D02*
X232288752Y-118561329D01*
X232288752Y-118561329D02*
X232288752Y-117561329D01*
X232288752Y-117561329D02*
X232764942Y-117561329D01*
X233193514Y-117894662D02*
X233193514Y-118561329D01*
X233193514Y-117989900D02*
X233241133Y-117942281D01*
X233241133Y-117942281D02*
X233336371Y-117894662D01*
X233336371Y-117894662D02*
X233479228Y-117894662D01*
X233479228Y-117894662D02*
X233574466Y-117942281D01*
X233574466Y-117942281D02*
X233622085Y-118037519D01*
X233622085Y-118037519D02*
X233622085Y-118561329D01*
X234526847Y-118513710D02*
X234431609Y-118561329D01*
X234431609Y-118561329D02*
X234241133Y-118561329D01*
X234241133Y-118561329D02*
X234145895Y-118513710D01*
X234145895Y-118513710D02*
X234098276Y-118466090D01*
X234098276Y-118466090D02*
X234050657Y-118370852D01*
X234050657Y-118370852D02*
X234050657Y-118085138D01*
X234050657Y-118085138D02*
X234098276Y-117989900D01*
X234098276Y-117989900D02*
X234145895Y-117942281D01*
X234145895Y-117942281D02*
X234241133Y-117894662D01*
X234241133Y-117894662D02*
X234431609Y-117894662D01*
X234431609Y-117894662D02*
X234526847Y-117942281D01*
X234907800Y-118275614D02*
X235383990Y-118275614D01*
X234812562Y-118561329D02*
X235145895Y-117561329D01*
X235145895Y-117561329D02*
X235479228Y-118561329D01*
X184466133Y-119880377D02*
X185075657Y-119880377D01*
X184770895Y-120261330D02*
X184770895Y-119499425D01*
X185380418Y-119261330D02*
X185913752Y-119261330D01*
X185913752Y-119261330D02*
X185570894Y-120261330D01*
X186218514Y-120166091D02*
X186256609Y-120213711D01*
X186256609Y-120213711D02*
X186218514Y-120261330D01*
X186218514Y-120261330D02*
X186180418Y-120213711D01*
X186180418Y-120213711D02*
X186218514Y-120166091D01*
X186218514Y-120166091D02*
X186218514Y-120261330D01*
X186980418Y-119261330D02*
X186599466Y-119261330D01*
X186599466Y-119261330D02*
X186561370Y-119737520D01*
X186561370Y-119737520D02*
X186599466Y-119689901D01*
X186599466Y-119689901D02*
X186675656Y-119642282D01*
X186675656Y-119642282D02*
X186866132Y-119642282D01*
X186866132Y-119642282D02*
X186942323Y-119689901D01*
X186942323Y-119689901D02*
X186980418Y-119737520D01*
X186980418Y-119737520D02*
X187018513Y-119832758D01*
X187018513Y-119832758D02*
X187018513Y-120070853D01*
X187018513Y-120070853D02*
X186980418Y-120166091D01*
X186980418Y-120166091D02*
X186942323Y-120213711D01*
X186942323Y-120213711D02*
X186866132Y-120261330D01*
X186866132Y-120261330D02*
X186675656Y-120261330D01*
X186675656Y-120261330D02*
X186599466Y-120213711D01*
X186599466Y-120213711D02*
X186561370Y-120166091D01*
X187247085Y-119261330D02*
X187513752Y-120261330D01*
X187513752Y-120261330D02*
X187780418Y-119261330D01*
X196967323Y-88907163D02*
X196967323Y-87907163D01*
X196967323Y-87907163D02*
X197200657Y-88621448D01*
X197200657Y-88621448D02*
X197433990Y-87907163D01*
X197433990Y-87907163D02*
X197433990Y-88907163D01*
X197600657Y-89002401D02*
X198133990Y-89002401D01*
X198300656Y-88907163D02*
X198300656Y-87907163D01*
X198300656Y-87907163D02*
X198567323Y-87907163D01*
X198567323Y-87907163D02*
X198633990Y-87954782D01*
X198633990Y-87954782D02*
X198667323Y-88002401D01*
X198667323Y-88002401D02*
X198700656Y-88097639D01*
X198700656Y-88097639D02*
X198700656Y-88240496D01*
X198700656Y-88240496D02*
X198667323Y-88335734D01*
X198667323Y-88335734D02*
X198633990Y-88383353D01*
X198633990Y-88383353D02*
X198567323Y-88430972D01*
X198567323Y-88430972D02*
X198300656Y-88430972D01*
X198933990Y-87907163D02*
X199100656Y-88907163D01*
X199100656Y-88907163D02*
X199233990Y-88192877D01*
X199233990Y-88192877D02*
X199367323Y-88907163D01*
X199367323Y-88907163D02*
X199533990Y-87907163D01*
X199800656Y-88907163D02*
X199800656Y-87907163D01*
X199800656Y-87907163D02*
X200033990Y-88621448D01*
X200033990Y-88621448D02*
X200267323Y-87907163D01*
X200267323Y-87907163D02*
X200267323Y-88907163D01*
X185842282Y-125812438D02*
X185794663Y-125907676D01*
X185794663Y-125907676D02*
X185794663Y-126050533D01*
X185794663Y-126050533D02*
X185842282Y-126193390D01*
X185842282Y-126193390D02*
X185937520Y-126288628D01*
X185937520Y-126288628D02*
X186032758Y-126336247D01*
X186032758Y-126336247D02*
X186223234Y-126383866D01*
X186223234Y-126383866D02*
X186366091Y-126383866D01*
X186366091Y-126383866D02*
X186556567Y-126336247D01*
X186556567Y-126336247D02*
X186651805Y-126288628D01*
X186651805Y-126288628D02*
X186747044Y-126193390D01*
X186747044Y-126193390D02*
X186794663Y-126050533D01*
X186794663Y-126050533D02*
X186794663Y-125955295D01*
X186794663Y-125955295D02*
X186747044Y-125812438D01*
X186747044Y-125812438D02*
X186699424Y-125764819D01*
X186699424Y-125764819D02*
X186366091Y-125764819D01*
X186366091Y-125764819D02*
X186366091Y-125955295D01*
X186794663Y-125336247D02*
X185794663Y-125336247D01*
X185794663Y-125336247D02*
X186794663Y-124764819D01*
X186794663Y-124764819D02*
X185794663Y-124764819D01*
X186794663Y-124288628D02*
X185794663Y-124288628D01*
X185794663Y-124288628D02*
X185794663Y-124050533D01*
X185794663Y-124050533D02*
X185842282Y-123907676D01*
X185842282Y-123907676D02*
X185937520Y-123812438D01*
X185937520Y-123812438D02*
X186032758Y-123764819D01*
X186032758Y-123764819D02*
X186223234Y-123717200D01*
X186223234Y-123717200D02*
X186366091Y-123717200D01*
X186366091Y-123717200D02*
X186556567Y-123764819D01*
X186556567Y-123764819D02*
X186651805Y-123812438D01*
X186651805Y-123812438D02*
X186747044Y-123907676D01*
X186747044Y-123907676D02*
X186794663Y-124050533D01*
X186794663Y-124050533D02*
X186794663Y-124288628D01*
X231438752Y-78738710D02*
X232200657Y-78738710D01*
X231819704Y-79119663D02*
X231819704Y-78357758D01*
X232581609Y-78119663D02*
X233200656Y-78119663D01*
X233200656Y-78119663D02*
X232867323Y-78500615D01*
X232867323Y-78500615D02*
X233010180Y-78500615D01*
X233010180Y-78500615D02*
X233105418Y-78548234D01*
X233105418Y-78548234D02*
X233153037Y-78595853D01*
X233153037Y-78595853D02*
X233200656Y-78691091D01*
X233200656Y-78691091D02*
X233200656Y-78929186D01*
X233200656Y-78929186D02*
X233153037Y-79024424D01*
X233153037Y-79024424D02*
X233105418Y-79072044D01*
X233105418Y-79072044D02*
X233010180Y-79119663D01*
X233010180Y-79119663D02*
X232724466Y-79119663D01*
X232724466Y-79119663D02*
X232629228Y-79072044D01*
X232629228Y-79072044D02*
X232581609Y-79024424D01*
X233629228Y-79024424D02*
X233676847Y-79072044D01*
X233676847Y-79072044D02*
X233629228Y-79119663D01*
X233629228Y-79119663D02*
X233581609Y-79072044D01*
X233581609Y-79072044D02*
X233629228Y-79024424D01*
X233629228Y-79024424D02*
X233629228Y-79119663D01*
X234010180Y-78119663D02*
X234629227Y-78119663D01*
X234629227Y-78119663D02*
X234295894Y-78500615D01*
X234295894Y-78500615D02*
X234438751Y-78500615D01*
X234438751Y-78500615D02*
X234533989Y-78548234D01*
X234533989Y-78548234D02*
X234581608Y-78595853D01*
X234581608Y-78595853D02*
X234629227Y-78691091D01*
X234629227Y-78691091D02*
X234629227Y-78929186D01*
X234629227Y-78929186D02*
X234581608Y-79024424D01*
X234581608Y-79024424D02*
X234533989Y-79072044D01*
X234533989Y-79072044D02*
X234438751Y-79119663D01*
X234438751Y-79119663D02*
X234153037Y-79119663D01*
X234153037Y-79119663D02*
X234057799Y-79072044D01*
X234057799Y-79072044D02*
X234010180Y-79024424D01*
X234914942Y-78119663D02*
X235248275Y-79119663D01*
X235248275Y-79119663D02*
X235581608Y-78119663D01*
X233012561Y-115142282D02*
X232917323Y-115094663D01*
X232917323Y-115094663D02*
X232774466Y-115094663D01*
X232774466Y-115094663D02*
X232631609Y-115142282D01*
X232631609Y-115142282D02*
X232536371Y-115237520D01*
X232536371Y-115237520D02*
X232488752Y-115332758D01*
X232488752Y-115332758D02*
X232441133Y-115523234D01*
X232441133Y-115523234D02*
X232441133Y-115666091D01*
X232441133Y-115666091D02*
X232488752Y-115856567D01*
X232488752Y-115856567D02*
X232536371Y-115951805D01*
X232536371Y-115951805D02*
X232631609Y-116047044D01*
X232631609Y-116047044D02*
X232774466Y-116094663D01*
X232774466Y-116094663D02*
X232869704Y-116094663D01*
X232869704Y-116094663D02*
X233012561Y-116047044D01*
X233012561Y-116047044D02*
X233060180Y-115999424D01*
X233060180Y-115999424D02*
X233060180Y-115666091D01*
X233060180Y-115666091D02*
X232869704Y-115666091D01*
X233488752Y-116094663D02*
X233488752Y-115094663D01*
X233488752Y-115094663D02*
X234060180Y-116094663D01*
X234060180Y-116094663D02*
X234060180Y-115094663D01*
X234536371Y-116094663D02*
X234536371Y-115094663D01*
X234536371Y-115094663D02*
X234774466Y-115094663D01*
X234774466Y-115094663D02*
X234917323Y-115142282D01*
X234917323Y-115142282D02*
X235012561Y-115237520D01*
X235012561Y-115237520D02*
X235060180Y-115332758D01*
X235060180Y-115332758D02*
X235107799Y-115523234D01*
X235107799Y-115523234D02*
X235107799Y-115666091D01*
X235107799Y-115666091D02*
X235060180Y-115856567D01*
X235060180Y-115856567D02*
X235012561Y-115951805D01*
X235012561Y-115951805D02*
X234917323Y-116047044D01*
X234917323Y-116047044D02*
X234774466Y-116094663D01*
X234774466Y-116094663D02*
X234536371Y-116094663D01*
X232413752Y-95820853D02*
X232747085Y-95820853D01*
X232889942Y-96344663D02*
X232413752Y-96344663D01*
X232413752Y-96344663D02*
X232413752Y-95344663D01*
X232413752Y-95344663D02*
X232889942Y-95344663D01*
X233318514Y-95677996D02*
X233318514Y-96344663D01*
X233318514Y-95773234D02*
X233366133Y-95725615D01*
X233366133Y-95725615D02*
X233461371Y-95677996D01*
X233461371Y-95677996D02*
X233604228Y-95677996D01*
X233604228Y-95677996D02*
X233699466Y-95725615D01*
X233699466Y-95725615D02*
X233747085Y-95820853D01*
X233747085Y-95820853D02*
X233747085Y-96344663D01*
X234651847Y-96297044D02*
X234556609Y-96344663D01*
X234556609Y-96344663D02*
X234366133Y-96344663D01*
X234366133Y-96344663D02*
X234270895Y-96297044D01*
X234270895Y-96297044D02*
X234223276Y-96249424D01*
X234223276Y-96249424D02*
X234175657Y-96154186D01*
X234175657Y-96154186D02*
X234175657Y-95868472D01*
X234175657Y-95868472D02*
X234223276Y-95773234D01*
X234223276Y-95773234D02*
X234270895Y-95725615D01*
X234270895Y-95725615D02*
X234366133Y-95677996D01*
X234366133Y-95677996D02*
X234556609Y-95677996D01*
X234556609Y-95677996D02*
X234651847Y-95725615D01*
X235032800Y-96058948D02*
X235508990Y-96058948D01*
X234937562Y-96344663D02*
X235270895Y-95344663D01*
X235270895Y-95344663D02*
X235604228Y-96344663D01*
X233287561Y-75554782D02*
X233192323Y-75507163D01*
X233192323Y-75507163D02*
X233049466Y-75507163D01*
X233049466Y-75507163D02*
X232906609Y-75554782D01*
X232906609Y-75554782D02*
X232811371Y-75650020D01*
X232811371Y-75650020D02*
X232763752Y-75745258D01*
X232763752Y-75745258D02*
X232716133Y-75935734D01*
X232716133Y-75935734D02*
X232716133Y-76078591D01*
X232716133Y-76078591D02*
X232763752Y-76269067D01*
X232763752Y-76269067D02*
X232811371Y-76364305D01*
X232811371Y-76364305D02*
X232906609Y-76459544D01*
X232906609Y-76459544D02*
X233049466Y-76507163D01*
X233049466Y-76507163D02*
X233144704Y-76507163D01*
X233144704Y-76507163D02*
X233287561Y-76459544D01*
X233287561Y-76459544D02*
X233335180Y-76411924D01*
X233335180Y-76411924D02*
X233335180Y-76078591D01*
X233335180Y-76078591D02*
X233144704Y-76078591D01*
X233763752Y-76507163D02*
X233763752Y-75507163D01*
X233763752Y-75507163D02*
X234335180Y-76507163D01*
X234335180Y-76507163D02*
X234335180Y-75507163D01*
X234811371Y-76507163D02*
X234811371Y-75507163D01*
X234811371Y-75507163D02*
X235049466Y-75507163D01*
X235049466Y-75507163D02*
X235192323Y-75554782D01*
X235192323Y-75554782D02*
X235287561Y-75650020D01*
X235287561Y-75650020D02*
X235335180Y-75745258D01*
X235335180Y-75745258D02*
X235382799Y-75935734D01*
X235382799Y-75935734D02*
X235382799Y-76078591D01*
X235382799Y-76078591D02*
X235335180Y-76269067D01*
X235335180Y-76269067D02*
X235287561Y-76364305D01*
X235287561Y-76364305D02*
X235192323Y-76459544D01*
X235192323Y-76459544D02*
X235049466Y-76507163D01*
X235049466Y-76507163D02*
X234811371Y-76507163D01*
X185512561Y-94056171D02*
X185417323Y-94008552D01*
X185417323Y-94008552D02*
X185274466Y-94008552D01*
X185274466Y-94008552D02*
X185131609Y-94056171D01*
X185131609Y-94056171D02*
X185036371Y-94151409D01*
X185036371Y-94151409D02*
X184988752Y-94246647D01*
X184988752Y-94246647D02*
X184941133Y-94437123D01*
X184941133Y-94437123D02*
X184941133Y-94579980D01*
X184941133Y-94579980D02*
X184988752Y-94770456D01*
X184988752Y-94770456D02*
X185036371Y-94865694D01*
X185036371Y-94865694D02*
X185131609Y-94960933D01*
X185131609Y-94960933D02*
X185274466Y-95008552D01*
X185274466Y-95008552D02*
X185369704Y-95008552D01*
X185369704Y-95008552D02*
X185512561Y-94960933D01*
X185512561Y-94960933D02*
X185560180Y-94913313D01*
X185560180Y-94913313D02*
X185560180Y-94579980D01*
X185560180Y-94579980D02*
X185369704Y-94579980D01*
X185988752Y-95008552D02*
X185988752Y-94008552D01*
X185988752Y-94008552D02*
X186560180Y-95008552D01*
X186560180Y-95008552D02*
X186560180Y-94008552D01*
X187036371Y-95008552D02*
X187036371Y-94008552D01*
X187036371Y-94008552D02*
X187274466Y-94008552D01*
X187274466Y-94008552D02*
X187417323Y-94056171D01*
X187417323Y-94056171D02*
X187512561Y-94151409D01*
X187512561Y-94151409D02*
X187560180Y-94246647D01*
X187560180Y-94246647D02*
X187607799Y-94437123D01*
X187607799Y-94437123D02*
X187607799Y-94579980D01*
X187607799Y-94579980D02*
X187560180Y-94770456D01*
X187560180Y-94770456D02*
X187512561Y-94865694D01*
X187512561Y-94865694D02*
X187417323Y-94960933D01*
X187417323Y-94960933D02*
X187274466Y-95008552D01*
X187274466Y-95008552D02*
X187036371Y-95008552D01*
X219737561Y-94870060D02*
X219642323Y-94822441D01*
X219642323Y-94822441D02*
X219499466Y-94822441D01*
X219499466Y-94822441D02*
X219356609Y-94870060D01*
X219356609Y-94870060D02*
X219261371Y-94965298D01*
X219261371Y-94965298D02*
X219213752Y-95060536D01*
X219213752Y-95060536D02*
X219166133Y-95251012D01*
X219166133Y-95251012D02*
X219166133Y-95393869D01*
X219166133Y-95393869D02*
X219213752Y-95584345D01*
X219213752Y-95584345D02*
X219261371Y-95679583D01*
X219261371Y-95679583D02*
X219356609Y-95774822D01*
X219356609Y-95774822D02*
X219499466Y-95822441D01*
X219499466Y-95822441D02*
X219594704Y-95822441D01*
X219594704Y-95822441D02*
X219737561Y-95774822D01*
X219737561Y-95774822D02*
X219785180Y-95727202D01*
X219785180Y-95727202D02*
X219785180Y-95393869D01*
X219785180Y-95393869D02*
X219594704Y-95393869D01*
X220213752Y-95822441D02*
X220213752Y-94822441D01*
X220213752Y-94822441D02*
X220785180Y-95822441D01*
X220785180Y-95822441D02*
X220785180Y-94822441D01*
X221261371Y-95822441D02*
X221261371Y-94822441D01*
X221261371Y-94822441D02*
X221499466Y-94822441D01*
X221499466Y-94822441D02*
X221642323Y-94870060D01*
X221642323Y-94870060D02*
X221737561Y-94965298D01*
X221737561Y-94965298D02*
X221785180Y-95060536D01*
X221785180Y-95060536D02*
X221832799Y-95251012D01*
X221832799Y-95251012D02*
X221832799Y-95393869D01*
X221832799Y-95393869D02*
X221785180Y-95584345D01*
X221785180Y-95584345D02*
X221737561Y-95679583D01*
X221737561Y-95679583D02*
X221642323Y-95774822D01*
X221642323Y-95774822D02*
X221499466Y-95822441D01*
X221499466Y-95822441D02*
X221261371Y-95822441D01*
X219341133Y-98244266D02*
X219483990Y-98291885D01*
X219483990Y-98291885D02*
X219722085Y-98291885D01*
X219722085Y-98291885D02*
X219817323Y-98244266D01*
X219817323Y-98244266D02*
X219864942Y-98196646D01*
X219864942Y-98196646D02*
X219912561Y-98101408D01*
X219912561Y-98101408D02*
X219912561Y-98006170D01*
X219912561Y-98006170D02*
X219864942Y-97910932D01*
X219864942Y-97910932D02*
X219817323Y-97863313D01*
X219817323Y-97863313D02*
X219722085Y-97815694D01*
X219722085Y-97815694D02*
X219531609Y-97768075D01*
X219531609Y-97768075D02*
X219436371Y-97720456D01*
X219436371Y-97720456D02*
X219388752Y-97672837D01*
X219388752Y-97672837D02*
X219341133Y-97577599D01*
X219341133Y-97577599D02*
X219341133Y-97482361D01*
X219341133Y-97482361D02*
X219388752Y-97387123D01*
X219388752Y-97387123D02*
X219436371Y-97339504D01*
X219436371Y-97339504D02*
X219531609Y-97291885D01*
X219531609Y-97291885D02*
X219769704Y-97291885D01*
X219769704Y-97291885D02*
X219912561Y-97339504D01*
X220341133Y-98291885D02*
X220341133Y-97291885D01*
X220341133Y-97291885D02*
X220579228Y-97291885D01*
X220579228Y-97291885D02*
X220722085Y-97339504D01*
X220722085Y-97339504D02*
X220817323Y-97434742D01*
X220817323Y-97434742D02*
X220864942Y-97529980D01*
X220864942Y-97529980D02*
X220912561Y-97720456D01*
X220912561Y-97720456D02*
X220912561Y-97863313D01*
X220912561Y-97863313D02*
X220864942Y-98053789D01*
X220864942Y-98053789D02*
X220817323Y-98149027D01*
X220817323Y-98149027D02*
X220722085Y-98244266D01*
X220722085Y-98244266D02*
X220579228Y-98291885D01*
X220579228Y-98291885D02*
X220341133Y-98291885D01*
X221293514Y-98006170D02*
X221769704Y-98006170D01*
X221198276Y-98291885D02*
X221531609Y-97291885D01*
X221531609Y-97291885D02*
X221864942Y-98291885D01*
X185712561Y-116742282D02*
X185617323Y-116694663D01*
X185617323Y-116694663D02*
X185474466Y-116694663D01*
X185474466Y-116694663D02*
X185331609Y-116742282D01*
X185331609Y-116742282D02*
X185236371Y-116837520D01*
X185236371Y-116837520D02*
X185188752Y-116932758D01*
X185188752Y-116932758D02*
X185141133Y-117123234D01*
X185141133Y-117123234D02*
X185141133Y-117266091D01*
X185141133Y-117266091D02*
X185188752Y-117456567D01*
X185188752Y-117456567D02*
X185236371Y-117551805D01*
X185236371Y-117551805D02*
X185331609Y-117647044D01*
X185331609Y-117647044D02*
X185474466Y-117694663D01*
X185474466Y-117694663D02*
X185569704Y-117694663D01*
X185569704Y-117694663D02*
X185712561Y-117647044D01*
X185712561Y-117647044D02*
X185760180Y-117599424D01*
X185760180Y-117599424D02*
X185760180Y-117266091D01*
X185760180Y-117266091D02*
X185569704Y-117266091D01*
X186188752Y-117694663D02*
X186188752Y-116694663D01*
X186188752Y-116694663D02*
X186760180Y-117694663D01*
X186760180Y-117694663D02*
X186760180Y-116694663D01*
X187236371Y-117694663D02*
X187236371Y-116694663D01*
X187236371Y-116694663D02*
X187474466Y-116694663D01*
X187474466Y-116694663D02*
X187617323Y-116742282D01*
X187617323Y-116742282D02*
X187712561Y-116837520D01*
X187712561Y-116837520D02*
X187760180Y-116932758D01*
X187760180Y-116932758D02*
X187807799Y-117123234D01*
X187807799Y-117123234D02*
X187807799Y-117266091D01*
X187807799Y-117266091D02*
X187760180Y-117456567D01*
X187760180Y-117456567D02*
X187712561Y-117551805D01*
X187712561Y-117551805D02*
X187617323Y-117647044D01*
X187617323Y-117647044D02*
X187474466Y-117694663D01*
X187474466Y-117694663D02*
X187236371Y-117694663D01*
X233137561Y-92925616D02*
X233042323Y-92877997D01*
X233042323Y-92877997D02*
X232899466Y-92877997D01*
X232899466Y-92877997D02*
X232756609Y-92925616D01*
X232756609Y-92925616D02*
X232661371Y-93020854D01*
X232661371Y-93020854D02*
X232613752Y-93116092D01*
X232613752Y-93116092D02*
X232566133Y-93306568D01*
X232566133Y-93306568D02*
X232566133Y-93449425D01*
X232566133Y-93449425D02*
X232613752Y-93639901D01*
X232613752Y-93639901D02*
X232661371Y-93735139D01*
X232661371Y-93735139D02*
X232756609Y-93830378D01*
X232756609Y-93830378D02*
X232899466Y-93877997D01*
X232899466Y-93877997D02*
X232994704Y-93877997D01*
X232994704Y-93877997D02*
X233137561Y-93830378D01*
X233137561Y-93830378D02*
X233185180Y-93782758D01*
X233185180Y-93782758D02*
X233185180Y-93449425D01*
X233185180Y-93449425D02*
X232994704Y-93449425D01*
X233613752Y-93877997D02*
X233613752Y-92877997D01*
X233613752Y-92877997D02*
X234185180Y-93877997D01*
X234185180Y-93877997D02*
X234185180Y-92877997D01*
X234661371Y-93877997D02*
X234661371Y-92877997D01*
X234661371Y-92877997D02*
X234899466Y-92877997D01*
X234899466Y-92877997D02*
X235042323Y-92925616D01*
X235042323Y-92925616D02*
X235137561Y-93020854D01*
X235137561Y-93020854D02*
X235185180Y-93116092D01*
X235185180Y-93116092D02*
X235232799Y-93306568D01*
X235232799Y-93306568D02*
X235232799Y-93449425D01*
X235232799Y-93449425D02*
X235185180Y-93639901D01*
X235185180Y-93639901D02*
X235137561Y-93735139D01*
X235137561Y-93735139D02*
X235042323Y-93830378D01*
X235042323Y-93830378D02*
X234899466Y-93877997D01*
X234899466Y-93877997D02*
X234661371Y-93877997D01*
X185091133Y-97419266D02*
X185233990Y-97466885D01*
X185233990Y-97466885D02*
X185472085Y-97466885D01*
X185472085Y-97466885D02*
X185567323Y-97419266D01*
X185567323Y-97419266D02*
X185614942Y-97371646D01*
X185614942Y-97371646D02*
X185662561Y-97276408D01*
X185662561Y-97276408D02*
X185662561Y-97181170D01*
X185662561Y-97181170D02*
X185614942Y-97085932D01*
X185614942Y-97085932D02*
X185567323Y-97038313D01*
X185567323Y-97038313D02*
X185472085Y-96990694D01*
X185472085Y-96990694D02*
X185281609Y-96943075D01*
X185281609Y-96943075D02*
X185186371Y-96895456D01*
X185186371Y-96895456D02*
X185138752Y-96847837D01*
X185138752Y-96847837D02*
X185091133Y-96752599D01*
X185091133Y-96752599D02*
X185091133Y-96657361D01*
X185091133Y-96657361D02*
X185138752Y-96562123D01*
X185138752Y-96562123D02*
X185186371Y-96514504D01*
X185186371Y-96514504D02*
X185281609Y-96466885D01*
X185281609Y-96466885D02*
X185519704Y-96466885D01*
X185519704Y-96466885D02*
X185662561Y-96514504D01*
X186662561Y-97371646D02*
X186614942Y-97419266D01*
X186614942Y-97419266D02*
X186472085Y-97466885D01*
X186472085Y-97466885D02*
X186376847Y-97466885D01*
X186376847Y-97466885D02*
X186233990Y-97419266D01*
X186233990Y-97419266D02*
X186138752Y-97324027D01*
X186138752Y-97324027D02*
X186091133Y-97228789D01*
X186091133Y-97228789D02*
X186043514Y-97038313D01*
X186043514Y-97038313D02*
X186043514Y-96895456D01*
X186043514Y-96895456D02*
X186091133Y-96704980D01*
X186091133Y-96704980D02*
X186138752Y-96609742D01*
X186138752Y-96609742D02*
X186233990Y-96514504D01*
X186233990Y-96514504D02*
X186376847Y-96466885D01*
X186376847Y-96466885D02*
X186472085Y-96466885D01*
X186472085Y-96466885D02*
X186614942Y-96514504D01*
X186614942Y-96514504D02*
X186662561Y-96562123D01*
X187567323Y-97466885D02*
X187091133Y-97466885D01*
X187091133Y-97466885D02*
X187091133Y-96466885D01*
X184608990Y-115080378D02*
X184708990Y-115127997D01*
X184708990Y-115127997D02*
X184875657Y-115127997D01*
X184875657Y-115127997D02*
X184942323Y-115080378D01*
X184942323Y-115080378D02*
X184975657Y-115032758D01*
X184975657Y-115032758D02*
X185008990Y-114937520D01*
X185008990Y-114937520D02*
X185008990Y-114842282D01*
X185008990Y-114842282D02*
X184975657Y-114747044D01*
X184975657Y-114747044D02*
X184942323Y-114699425D01*
X184942323Y-114699425D02*
X184875657Y-114651806D01*
X184875657Y-114651806D02*
X184742323Y-114604187D01*
X184742323Y-114604187D02*
X184675657Y-114556568D01*
X184675657Y-114556568D02*
X184642323Y-114508949D01*
X184642323Y-114508949D02*
X184608990Y-114413711D01*
X184608990Y-114413711D02*
X184608990Y-114318473D01*
X184608990Y-114318473D02*
X184642323Y-114223235D01*
X184642323Y-114223235D02*
X184675657Y-114175616D01*
X184675657Y-114175616D02*
X184742323Y-114127997D01*
X184742323Y-114127997D02*
X184908990Y-114127997D01*
X184908990Y-114127997D02*
X185008990Y-114175616D01*
X185142324Y-115223235D02*
X185675657Y-115223235D01*
X185842323Y-115127997D02*
X185842323Y-114127997D01*
X185842323Y-114127997D02*
X186108990Y-114127997D01*
X186108990Y-114127997D02*
X186175657Y-114175616D01*
X186175657Y-114175616D02*
X186208990Y-114223235D01*
X186208990Y-114223235D02*
X186242323Y-114318473D01*
X186242323Y-114318473D02*
X186242323Y-114461330D01*
X186242323Y-114461330D02*
X186208990Y-114556568D01*
X186208990Y-114556568D02*
X186175657Y-114604187D01*
X186175657Y-114604187D02*
X186108990Y-114651806D01*
X186108990Y-114651806D02*
X185842323Y-114651806D01*
X186475657Y-114127997D02*
X186642323Y-115127997D01*
X186642323Y-115127997D02*
X186775657Y-114413711D01*
X186775657Y-114413711D02*
X186908990Y-115127997D01*
X186908990Y-115127997D02*
X187075657Y-114127997D01*
X187342323Y-115127997D02*
X187342323Y-114127997D01*
X187342323Y-114127997D02*
X187575657Y-114842282D01*
X187575657Y-114842282D02*
X187808990Y-114127997D01*
X187808990Y-114127997D02*
X187808990Y-115127997D01*
X229037561Y-70067282D02*
X228942323Y-70019663D01*
X228942323Y-70019663D02*
X228799466Y-70019663D01*
X228799466Y-70019663D02*
X228656609Y-70067282D01*
X228656609Y-70067282D02*
X228561371Y-70162520D01*
X228561371Y-70162520D02*
X228513752Y-70257758D01*
X228513752Y-70257758D02*
X228466133Y-70448234D01*
X228466133Y-70448234D02*
X228466133Y-70591091D01*
X228466133Y-70591091D02*
X228513752Y-70781567D01*
X228513752Y-70781567D02*
X228561371Y-70876805D01*
X228561371Y-70876805D02*
X228656609Y-70972044D01*
X228656609Y-70972044D02*
X228799466Y-71019663D01*
X228799466Y-71019663D02*
X228894704Y-71019663D01*
X228894704Y-71019663D02*
X229037561Y-70972044D01*
X229037561Y-70972044D02*
X229085180Y-70924424D01*
X229085180Y-70924424D02*
X229085180Y-70591091D01*
X229085180Y-70591091D02*
X228894704Y-70591091D01*
X229513752Y-71019663D02*
X229513752Y-70019663D01*
X229513752Y-70019663D02*
X230085180Y-71019663D01*
X230085180Y-71019663D02*
X230085180Y-70019663D01*
X230561371Y-71019663D02*
X230561371Y-70019663D01*
X230561371Y-70019663D02*
X230799466Y-70019663D01*
X230799466Y-70019663D02*
X230942323Y-70067282D01*
X230942323Y-70067282D02*
X231037561Y-70162520D01*
X231037561Y-70162520D02*
X231085180Y-70257758D01*
X231085180Y-70257758D02*
X231132799Y-70448234D01*
X231132799Y-70448234D02*
X231132799Y-70591091D01*
X231132799Y-70591091D02*
X231085180Y-70781567D01*
X231085180Y-70781567D02*
X231037561Y-70876805D01*
X231037561Y-70876805D02*
X230942323Y-70972044D01*
X230942323Y-70972044D02*
X230799466Y-71019663D01*
X230799466Y-71019663D02*
X230561371Y-71019663D01*
X232688752Y-70758353D02*
X233022085Y-70758353D01*
X233164942Y-71282163D02*
X232688752Y-71282163D01*
X232688752Y-71282163D02*
X232688752Y-70282163D01*
X232688752Y-70282163D02*
X233164942Y-70282163D01*
X233593514Y-70615496D02*
X233593514Y-71282163D01*
X233593514Y-70710734D02*
X233641133Y-70663115D01*
X233641133Y-70663115D02*
X233736371Y-70615496D01*
X233736371Y-70615496D02*
X233879228Y-70615496D01*
X233879228Y-70615496D02*
X233974466Y-70663115D01*
X233974466Y-70663115D02*
X234022085Y-70758353D01*
X234022085Y-70758353D02*
X234022085Y-71282163D01*
X234926847Y-71234544D02*
X234831609Y-71282163D01*
X234831609Y-71282163D02*
X234641133Y-71282163D01*
X234641133Y-71282163D02*
X234545895Y-71234544D01*
X234545895Y-71234544D02*
X234498276Y-71186924D01*
X234498276Y-71186924D02*
X234450657Y-71091686D01*
X234450657Y-71091686D02*
X234450657Y-70805972D01*
X234450657Y-70805972D02*
X234498276Y-70710734D01*
X234498276Y-70710734D02*
X234545895Y-70663115D01*
X234545895Y-70663115D02*
X234641133Y-70615496D01*
X234641133Y-70615496D02*
X234831609Y-70615496D01*
X234831609Y-70615496D02*
X234926847Y-70663115D01*
X235307800Y-70996448D02*
X235783990Y-70996448D01*
X235212562Y-71282163D02*
X235545895Y-70282163D01*
X235545895Y-70282163D02*
X235879228Y-71282163D01*
X218603037Y-110372044D02*
X218717323Y-110419663D01*
X218717323Y-110419663D02*
X218907799Y-110419663D01*
X218907799Y-110419663D02*
X218983990Y-110372044D01*
X218983990Y-110372044D02*
X219022085Y-110324424D01*
X219022085Y-110324424D02*
X219060180Y-110229186D01*
X219060180Y-110229186D02*
X219060180Y-110133948D01*
X219060180Y-110133948D02*
X219022085Y-110038710D01*
X219022085Y-110038710D02*
X218983990Y-109991091D01*
X218983990Y-109991091D02*
X218907799Y-109943472D01*
X218907799Y-109943472D02*
X218755418Y-109895853D01*
X218755418Y-109895853D02*
X218679228Y-109848234D01*
X218679228Y-109848234D02*
X218641133Y-109800615D01*
X218641133Y-109800615D02*
X218603037Y-109705377D01*
X218603037Y-109705377D02*
X218603037Y-109610139D01*
X218603037Y-109610139D02*
X218641133Y-109514901D01*
X218641133Y-109514901D02*
X218679228Y-109467282D01*
X218679228Y-109467282D02*
X218755418Y-109419663D01*
X218755418Y-109419663D02*
X218945895Y-109419663D01*
X218945895Y-109419663D02*
X219060180Y-109467282D01*
X219212562Y-110514901D02*
X219822085Y-110514901D01*
X219974466Y-110133948D02*
X220355419Y-110133948D01*
X219898276Y-110419663D02*
X220164943Y-109419663D01*
X220164943Y-109419663D02*
X220431609Y-110419663D01*
X220698276Y-109752996D02*
X220698276Y-110419663D01*
X220698276Y-109848234D02*
X220736371Y-109800615D01*
X220736371Y-109800615D02*
X220812561Y-109752996D01*
X220812561Y-109752996D02*
X220926847Y-109752996D01*
X220926847Y-109752996D02*
X221003038Y-109800615D01*
X221003038Y-109800615D02*
X221041133Y-109895853D01*
X221041133Y-109895853D02*
X221041133Y-110419663D01*
X221764943Y-109752996D02*
X221764943Y-110562520D01*
X221764943Y-110562520D02*
X221726848Y-110657758D01*
X221726848Y-110657758D02*
X221688752Y-110705377D01*
X221688752Y-110705377D02*
X221612562Y-110752996D01*
X221612562Y-110752996D02*
X221498276Y-110752996D01*
X221498276Y-110752996D02*
X221422086Y-110705377D01*
X221764943Y-110372044D02*
X221688752Y-110419663D01*
X221688752Y-110419663D02*
X221536371Y-110419663D01*
X221536371Y-110419663D02*
X221460181Y-110372044D01*
X221460181Y-110372044D02*
X221422086Y-110324424D01*
X221422086Y-110324424D02*
X221383990Y-110229186D01*
X221383990Y-110229186D02*
X221383990Y-109943472D01*
X221383990Y-109943472D02*
X221422086Y-109848234D01*
X221422086Y-109848234D02*
X221460181Y-109800615D01*
X221460181Y-109800615D02*
X221536371Y-109752996D01*
X221536371Y-109752996D02*
X221688752Y-109752996D01*
X221688752Y-109752996D02*
X221764943Y-109800615D01*
X219366133Y-78613711D02*
X219508990Y-78661330D01*
X219508990Y-78661330D02*
X219747085Y-78661330D01*
X219747085Y-78661330D02*
X219842323Y-78613711D01*
X219842323Y-78613711D02*
X219889942Y-78566091D01*
X219889942Y-78566091D02*
X219937561Y-78470853D01*
X219937561Y-78470853D02*
X219937561Y-78375615D01*
X219937561Y-78375615D02*
X219889942Y-78280377D01*
X219889942Y-78280377D02*
X219842323Y-78232758D01*
X219842323Y-78232758D02*
X219747085Y-78185139D01*
X219747085Y-78185139D02*
X219556609Y-78137520D01*
X219556609Y-78137520D02*
X219461371Y-78089901D01*
X219461371Y-78089901D02*
X219413752Y-78042282D01*
X219413752Y-78042282D02*
X219366133Y-77947044D01*
X219366133Y-77947044D02*
X219366133Y-77851806D01*
X219366133Y-77851806D02*
X219413752Y-77756568D01*
X219413752Y-77756568D02*
X219461371Y-77708949D01*
X219461371Y-77708949D02*
X219556609Y-77661330D01*
X219556609Y-77661330D02*
X219794704Y-77661330D01*
X219794704Y-77661330D02*
X219937561Y-77708949D01*
X220366133Y-78661330D02*
X220366133Y-77661330D01*
X220366133Y-77661330D02*
X220604228Y-77661330D01*
X220604228Y-77661330D02*
X220747085Y-77708949D01*
X220747085Y-77708949D02*
X220842323Y-77804187D01*
X220842323Y-77804187D02*
X220889942Y-77899425D01*
X220889942Y-77899425D02*
X220937561Y-78089901D01*
X220937561Y-78089901D02*
X220937561Y-78232758D01*
X220937561Y-78232758D02*
X220889942Y-78423234D01*
X220889942Y-78423234D02*
X220842323Y-78518472D01*
X220842323Y-78518472D02*
X220747085Y-78613711D01*
X220747085Y-78613711D02*
X220604228Y-78661330D01*
X220604228Y-78661330D02*
X220366133Y-78661330D01*
X221318514Y-78375615D02*
X221794704Y-78375615D01*
X221223276Y-78661330D02*
X221556609Y-77661330D01*
X221556609Y-77661330D02*
X221889942Y-78661330D01*
X197737561Y-64992282D02*
X197642323Y-64944663D01*
X197642323Y-64944663D02*
X197499466Y-64944663D01*
X197499466Y-64944663D02*
X197356609Y-64992282D01*
X197356609Y-64992282D02*
X197261371Y-65087520D01*
X197261371Y-65087520D02*
X197213752Y-65182758D01*
X197213752Y-65182758D02*
X197166133Y-65373234D01*
X197166133Y-65373234D02*
X197166133Y-65516091D01*
X197166133Y-65516091D02*
X197213752Y-65706567D01*
X197213752Y-65706567D02*
X197261371Y-65801805D01*
X197261371Y-65801805D02*
X197356609Y-65897044D01*
X197356609Y-65897044D02*
X197499466Y-65944663D01*
X197499466Y-65944663D02*
X197594704Y-65944663D01*
X197594704Y-65944663D02*
X197737561Y-65897044D01*
X197737561Y-65897044D02*
X197785180Y-65849424D01*
X197785180Y-65849424D02*
X197785180Y-65516091D01*
X197785180Y-65516091D02*
X197594704Y-65516091D01*
X198213752Y-65944663D02*
X198213752Y-64944663D01*
X198213752Y-64944663D02*
X198785180Y-65944663D01*
X198785180Y-65944663D02*
X198785180Y-64944663D01*
X199261371Y-65944663D02*
X199261371Y-64944663D01*
X199261371Y-64944663D02*
X199499466Y-64944663D01*
X199499466Y-64944663D02*
X199642323Y-64992282D01*
X199642323Y-64992282D02*
X199737561Y-65087520D01*
X199737561Y-65087520D02*
X199785180Y-65182758D01*
X199785180Y-65182758D02*
X199832799Y-65373234D01*
X199832799Y-65373234D02*
X199832799Y-65516091D01*
X199832799Y-65516091D02*
X199785180Y-65706567D01*
X199785180Y-65706567D02*
X199737561Y-65801805D01*
X199737561Y-65801805D02*
X199642323Y-65897044D01*
X199642323Y-65897044D02*
X199499466Y-65944663D01*
X199499466Y-65944663D02*
X199261371Y-65944663D01*
X185312561Y-73017282D02*
X185217323Y-72969663D01*
X185217323Y-72969663D02*
X185074466Y-72969663D01*
X185074466Y-72969663D02*
X184931609Y-73017282D01*
X184931609Y-73017282D02*
X184836371Y-73112520D01*
X184836371Y-73112520D02*
X184788752Y-73207758D01*
X184788752Y-73207758D02*
X184741133Y-73398234D01*
X184741133Y-73398234D02*
X184741133Y-73541091D01*
X184741133Y-73541091D02*
X184788752Y-73731567D01*
X184788752Y-73731567D02*
X184836371Y-73826805D01*
X184836371Y-73826805D02*
X184931609Y-73922044D01*
X184931609Y-73922044D02*
X185074466Y-73969663D01*
X185074466Y-73969663D02*
X185169704Y-73969663D01*
X185169704Y-73969663D02*
X185312561Y-73922044D01*
X185312561Y-73922044D02*
X185360180Y-73874424D01*
X185360180Y-73874424D02*
X185360180Y-73541091D01*
X185360180Y-73541091D02*
X185169704Y-73541091D01*
X185788752Y-73969663D02*
X185788752Y-72969663D01*
X185788752Y-72969663D02*
X186360180Y-73969663D01*
X186360180Y-73969663D02*
X186360180Y-72969663D01*
X186836371Y-73969663D02*
X186836371Y-72969663D01*
X186836371Y-72969663D02*
X187074466Y-72969663D01*
X187074466Y-72969663D02*
X187217323Y-73017282D01*
X187217323Y-73017282D02*
X187312561Y-73112520D01*
X187312561Y-73112520D02*
X187360180Y-73207758D01*
X187360180Y-73207758D02*
X187407799Y-73398234D01*
X187407799Y-73398234D02*
X187407799Y-73541091D01*
X187407799Y-73541091D02*
X187360180Y-73731567D01*
X187360180Y-73731567D02*
X187312561Y-73826805D01*
X187312561Y-73826805D02*
X187217323Y-73922044D01*
X187217323Y-73922044D02*
X187074466Y-73969663D01*
X187074466Y-73969663D02*
X186836371Y-73969663D01*
X196903037Y-106488711D02*
X197017323Y-106536330D01*
X197017323Y-106536330D02*
X197207799Y-106536330D01*
X197207799Y-106536330D02*
X197283990Y-106488711D01*
X197283990Y-106488711D02*
X197322085Y-106441091D01*
X197322085Y-106441091D02*
X197360180Y-106345853D01*
X197360180Y-106345853D02*
X197360180Y-106250615D01*
X197360180Y-106250615D02*
X197322085Y-106155377D01*
X197322085Y-106155377D02*
X197283990Y-106107758D01*
X197283990Y-106107758D02*
X197207799Y-106060139D01*
X197207799Y-106060139D02*
X197055418Y-106012520D01*
X197055418Y-106012520D02*
X196979228Y-105964901D01*
X196979228Y-105964901D02*
X196941133Y-105917282D01*
X196941133Y-105917282D02*
X196903037Y-105822044D01*
X196903037Y-105822044D02*
X196903037Y-105726806D01*
X196903037Y-105726806D02*
X196941133Y-105631568D01*
X196941133Y-105631568D02*
X196979228Y-105583949D01*
X196979228Y-105583949D02*
X197055418Y-105536330D01*
X197055418Y-105536330D02*
X197245895Y-105536330D01*
X197245895Y-105536330D02*
X197360180Y-105583949D01*
X197512562Y-106631568D02*
X198122085Y-106631568D01*
X198274466Y-106250615D02*
X198655419Y-106250615D01*
X198198276Y-106536330D02*
X198464943Y-105536330D01*
X198464943Y-105536330D02*
X198731609Y-106536330D01*
X198998276Y-105869663D02*
X198998276Y-106536330D01*
X198998276Y-105964901D02*
X199036371Y-105917282D01*
X199036371Y-105917282D02*
X199112561Y-105869663D01*
X199112561Y-105869663D02*
X199226847Y-105869663D01*
X199226847Y-105869663D02*
X199303038Y-105917282D01*
X199303038Y-105917282D02*
X199341133Y-106012520D01*
X199341133Y-106012520D02*
X199341133Y-106536330D01*
X200064943Y-105869663D02*
X200064943Y-106679187D01*
X200064943Y-106679187D02*
X200026848Y-106774425D01*
X200026848Y-106774425D02*
X199988752Y-106822044D01*
X199988752Y-106822044D02*
X199912562Y-106869663D01*
X199912562Y-106869663D02*
X199798276Y-106869663D01*
X199798276Y-106869663D02*
X199722086Y-106822044D01*
X200064943Y-106488711D02*
X199988752Y-106536330D01*
X199988752Y-106536330D02*
X199836371Y-106536330D01*
X199836371Y-106536330D02*
X199760181Y-106488711D01*
X199760181Y-106488711D02*
X199722086Y-106441091D01*
X199722086Y-106441091D02*
X199683990Y-106345853D01*
X199683990Y-106345853D02*
X199683990Y-106060139D01*
X199683990Y-106060139D02*
X199722086Y-105964901D01*
X199722086Y-105964901D02*
X199760181Y-105917282D01*
X199760181Y-105917282D02*
X199836371Y-105869663D01*
X199836371Y-105869663D02*
X199988752Y-105869663D01*
X199988752Y-105869663D02*
X200064943Y-105917282D01*
X231288752Y-91030377D02*
X232050657Y-91030377D01*
X231669704Y-91411330D02*
X231669704Y-90649425D01*
X232431609Y-90411330D02*
X233050656Y-90411330D01*
X233050656Y-90411330D02*
X232717323Y-90792282D01*
X232717323Y-90792282D02*
X232860180Y-90792282D01*
X232860180Y-90792282D02*
X232955418Y-90839901D01*
X232955418Y-90839901D02*
X233003037Y-90887520D01*
X233003037Y-90887520D02*
X233050656Y-90982758D01*
X233050656Y-90982758D02*
X233050656Y-91220853D01*
X233050656Y-91220853D02*
X233003037Y-91316091D01*
X233003037Y-91316091D02*
X232955418Y-91363711D01*
X232955418Y-91363711D02*
X232860180Y-91411330D01*
X232860180Y-91411330D02*
X232574466Y-91411330D01*
X232574466Y-91411330D02*
X232479228Y-91363711D01*
X232479228Y-91363711D02*
X232431609Y-91316091D01*
X233479228Y-91316091D02*
X233526847Y-91363711D01*
X233526847Y-91363711D02*
X233479228Y-91411330D01*
X233479228Y-91411330D02*
X233431609Y-91363711D01*
X233431609Y-91363711D02*
X233479228Y-91316091D01*
X233479228Y-91316091D02*
X233479228Y-91411330D01*
X233860180Y-90411330D02*
X234479227Y-90411330D01*
X234479227Y-90411330D02*
X234145894Y-90792282D01*
X234145894Y-90792282D02*
X234288751Y-90792282D01*
X234288751Y-90792282D02*
X234383989Y-90839901D01*
X234383989Y-90839901D02*
X234431608Y-90887520D01*
X234431608Y-90887520D02*
X234479227Y-90982758D01*
X234479227Y-90982758D02*
X234479227Y-91220853D01*
X234479227Y-91220853D02*
X234431608Y-91316091D01*
X234431608Y-91316091D02*
X234383989Y-91363711D01*
X234383989Y-91363711D02*
X234288751Y-91411330D01*
X234288751Y-91411330D02*
X234003037Y-91411330D01*
X234003037Y-91411330D02*
X233907799Y-91363711D01*
X233907799Y-91363711D02*
X233860180Y-91316091D01*
X234764942Y-90411330D02*
X235098275Y-91411330D01*
X235098275Y-91411330D02*
X235431608Y-90411330D01*
D11*
X243228409Y-97742261D02*
X243228409Y-97408928D01*
X243752219Y-97331547D02*
X243752219Y-97807738D01*
X243752219Y-97807738D02*
X242752219Y-97682738D01*
X242752219Y-97682738D02*
X242752219Y-97206547D01*
X243085552Y-96819642D02*
X243752219Y-96902976D01*
X243180790Y-96831547D02*
X243133171Y-96777976D01*
X243133171Y-96777976D02*
X243085552Y-96676785D01*
X243085552Y-96676785D02*
X243085552Y-96533928D01*
X243085552Y-96533928D02*
X243133171Y-96444642D01*
X243133171Y-96444642D02*
X243228409Y-96408928D01*
X243228409Y-96408928D02*
X243752219Y-96474404D01*
X243704600Y-95563690D02*
X243752219Y-95664880D01*
X243752219Y-95664880D02*
X243752219Y-95855357D01*
X243752219Y-95855357D02*
X243704600Y-95944642D01*
X243704600Y-95944642D02*
X243656980Y-95986309D01*
X243656980Y-95986309D02*
X243561742Y-96022023D01*
X243561742Y-96022023D02*
X243276028Y-95986309D01*
X243276028Y-95986309D02*
X243180790Y-95926785D01*
X243180790Y-95926785D02*
X243133171Y-95873214D01*
X243133171Y-95873214D02*
X243085552Y-95772023D01*
X243085552Y-95772023D02*
X243085552Y-95581547D01*
X243085552Y-95581547D02*
X243133171Y-95492261D01*
X243752219Y-94998214D02*
X243704600Y-95087499D01*
X243704600Y-95087499D02*
X243656980Y-95129166D01*
X243656980Y-95129166D02*
X243561742Y-95164880D01*
X243561742Y-95164880D02*
X243276028Y-95129166D01*
X243276028Y-95129166D02*
X243180790Y-95069642D01*
X243180790Y-95069642D02*
X243133171Y-95016071D01*
X243133171Y-95016071D02*
X243085552Y-94914880D01*
X243085552Y-94914880D02*
X243085552Y-94772023D01*
X243085552Y-94772023D02*
X243133171Y-94682737D01*
X243133171Y-94682737D02*
X243180790Y-94641071D01*
X243180790Y-94641071D02*
X243276028Y-94605356D01*
X243276028Y-94605356D02*
X243561742Y-94641071D01*
X243561742Y-94641071D02*
X243656980Y-94700594D01*
X243656980Y-94700594D02*
X243704600Y-94754166D01*
X243704600Y-94754166D02*
X243752219Y-94855356D01*
X243752219Y-94855356D02*
X243752219Y-94998214D01*
X243752219Y-93807737D02*
X242752219Y-93682737D01*
X243704600Y-93801785D02*
X243752219Y-93902975D01*
X243752219Y-93902975D02*
X243752219Y-94093452D01*
X243752219Y-94093452D02*
X243704600Y-94182737D01*
X243704600Y-94182737D02*
X243656980Y-94224404D01*
X243656980Y-94224404D02*
X243561742Y-94260118D01*
X243561742Y-94260118D02*
X243276028Y-94224404D01*
X243276028Y-94224404D02*
X243180790Y-94164880D01*
X243180790Y-94164880D02*
X243133171Y-94111309D01*
X243133171Y-94111309D02*
X243085552Y-94010118D01*
X243085552Y-94010118D02*
X243085552Y-93819642D01*
X243085552Y-93819642D02*
X243133171Y-93730356D01*
X243704600Y-92944642D02*
X243752219Y-93045832D01*
X243752219Y-93045832D02*
X243752219Y-93236309D01*
X243752219Y-93236309D02*
X243704600Y-93325594D01*
X243704600Y-93325594D02*
X243609361Y-93361309D01*
X243609361Y-93361309D02*
X243228409Y-93313690D01*
X243228409Y-93313690D02*
X243133171Y-93254166D01*
X243133171Y-93254166D02*
X243085552Y-93152975D01*
X243085552Y-93152975D02*
X243085552Y-92962499D01*
X243085552Y-92962499D02*
X243133171Y-92873213D01*
X243133171Y-92873213D02*
X243228409Y-92837499D01*
X243228409Y-92837499D02*
X243323647Y-92849404D01*
X243323647Y-92849404D02*
X243418885Y-93337499D01*
X243752219Y-92474404D02*
X243085552Y-92391070D01*
X243276028Y-92414880D02*
X243180790Y-92355356D01*
X243180790Y-92355356D02*
X243133171Y-92301785D01*
X243133171Y-92301785D02*
X243085552Y-92200594D01*
X243085552Y-92200594D02*
X243085552Y-92105356D01*
X242847457Y-91789879D02*
X242799838Y-91736308D01*
X242799838Y-91736308D02*
X242752219Y-91635118D01*
X242752219Y-91635118D02*
X242752219Y-91397022D01*
X242752219Y-91397022D02*
X242799838Y-91307737D01*
X242799838Y-91307737D02*
X242847457Y-91266070D01*
X242847457Y-91266070D02*
X242942695Y-91230356D01*
X242942695Y-91230356D02*
X243037933Y-91242260D01*
X243037933Y-91242260D02*
X243180790Y-91307737D01*
X243180790Y-91307737D02*
X243752219Y-91950594D01*
X243752219Y-91950594D02*
X243752219Y-91331546D01*
X177104600Y-118439285D02*
X177152219Y-118302381D01*
X177152219Y-118302381D02*
X177152219Y-118064285D01*
X177152219Y-118064285D02*
X177104600Y-117963095D01*
X177104600Y-117963095D02*
X177056980Y-117909523D01*
X177056980Y-117909523D02*
X176961742Y-117850000D01*
X176961742Y-117850000D02*
X176866504Y-117838095D01*
X176866504Y-117838095D02*
X176771266Y-117873809D01*
X176771266Y-117873809D02*
X176723647Y-117915476D01*
X176723647Y-117915476D02*
X176676028Y-118004762D01*
X176676028Y-118004762D02*
X176628409Y-118189285D01*
X176628409Y-118189285D02*
X176580790Y-118278571D01*
X176580790Y-118278571D02*
X176533171Y-118320238D01*
X176533171Y-118320238D02*
X176437933Y-118355952D01*
X176437933Y-118355952D02*
X176342695Y-118344047D01*
X176342695Y-118344047D02*
X176247457Y-118284523D01*
X176247457Y-118284523D02*
X176199838Y-118230952D01*
X176199838Y-118230952D02*
X176152219Y-118129762D01*
X176152219Y-118129762D02*
X176152219Y-117891666D01*
X176152219Y-117891666D02*
X176199838Y-117754762D01*
X177104600Y-117058333D02*
X177152219Y-117159523D01*
X177152219Y-117159523D02*
X177152219Y-117350000D01*
X177152219Y-117350000D02*
X177104600Y-117439285D01*
X177104600Y-117439285D02*
X177009361Y-117475000D01*
X177009361Y-117475000D02*
X176628409Y-117427381D01*
X176628409Y-117427381D02*
X176533171Y-117367857D01*
X176533171Y-117367857D02*
X176485552Y-117266666D01*
X176485552Y-117266666D02*
X176485552Y-117076190D01*
X176485552Y-117076190D02*
X176533171Y-116986904D01*
X176533171Y-116986904D02*
X176628409Y-116951190D01*
X176628409Y-116951190D02*
X176723647Y-116963095D01*
X176723647Y-116963095D02*
X176818885Y-117451190D01*
X177152219Y-116588095D02*
X176485552Y-116504761D01*
X176676028Y-116528571D02*
X176580790Y-116469047D01*
X176580790Y-116469047D02*
X176533171Y-116415476D01*
X176533171Y-116415476D02*
X176485552Y-116314285D01*
X176485552Y-116314285D02*
X176485552Y-116219047D01*
X176485552Y-115980951D02*
X177152219Y-115826190D01*
X177152219Y-115826190D02*
X176485552Y-115504761D01*
X177152219Y-115064285D02*
X177104600Y-115153570D01*
X177104600Y-115153570D02*
X177056980Y-115195237D01*
X177056980Y-115195237D02*
X176961742Y-115230951D01*
X176961742Y-115230951D02*
X176676028Y-115195237D01*
X176676028Y-115195237D02*
X176580790Y-115135713D01*
X176580790Y-115135713D02*
X176533171Y-115082142D01*
X176533171Y-115082142D02*
X176485552Y-114980951D01*
X176485552Y-114980951D02*
X176485552Y-114838094D01*
X176485552Y-114838094D02*
X176533171Y-114748808D01*
X176533171Y-114748808D02*
X176580790Y-114707142D01*
X176580790Y-114707142D02*
X176676028Y-114671427D01*
X176676028Y-114671427D02*
X176961742Y-114707142D01*
X176961742Y-114707142D02*
X177056980Y-114766665D01*
X177056980Y-114766665D02*
X177104600Y-114820237D01*
X177104600Y-114820237D02*
X177152219Y-114921427D01*
X177152219Y-114921427D02*
X177152219Y-115064285D01*
X177247457Y-114552380D02*
X177247457Y-113790475D01*
X176152219Y-113510713D02*
X176152219Y-112891665D01*
X176152219Y-112891665D02*
X176533171Y-113272618D01*
X176533171Y-113272618D02*
X176533171Y-113129760D01*
X176533171Y-113129760D02*
X176580790Y-113040475D01*
X176580790Y-113040475D02*
X176628409Y-112998808D01*
X176628409Y-112998808D02*
X176723647Y-112963094D01*
X176723647Y-112963094D02*
X176961742Y-112992856D01*
X176961742Y-112992856D02*
X177056980Y-113052379D01*
X177056980Y-113052379D02*
X177104600Y-113105951D01*
X177104600Y-113105951D02*
X177152219Y-113207141D01*
X177152219Y-113207141D02*
X177152219Y-113492856D01*
X177152219Y-113492856D02*
X177104600Y-113582141D01*
X177104600Y-113582141D02*
X177056980Y-113623808D01*
X208707142Y-125727219D02*
X208605952Y-126536742D01*
X208605952Y-126536742D02*
X208641666Y-126631980D01*
X208641666Y-126631980D02*
X208683333Y-126679600D01*
X208683333Y-126679600D02*
X208772619Y-126727219D01*
X208772619Y-126727219D02*
X208963095Y-126727219D01*
X208963095Y-126727219D02*
X209064285Y-126679600D01*
X209064285Y-126679600D02*
X209117857Y-126631980D01*
X209117857Y-126631980D02*
X209177380Y-126536742D01*
X209177380Y-126536742D02*
X209278571Y-125727219D01*
X210153571Y-126727219D02*
X209582142Y-126727219D01*
X209867857Y-126727219D02*
X209992857Y-125727219D01*
X209992857Y-125727219D02*
X209879761Y-125870076D01*
X209879761Y-125870076D02*
X209772619Y-125965314D01*
X209772619Y-125965314D02*
X209671428Y-126012933D01*
D12*
X208176666Y-91006033D02*
X208176666Y-90306033D01*
X208176666Y-90306033D02*
X208343333Y-90306033D01*
X208343333Y-90306033D02*
X208443333Y-90339366D01*
X208443333Y-90339366D02*
X208510000Y-90406033D01*
X208510000Y-90406033D02*
X208543333Y-90472700D01*
X208543333Y-90472700D02*
X208576666Y-90606033D01*
X208576666Y-90606033D02*
X208576666Y-90706033D01*
X208576666Y-90706033D02*
X208543333Y-90839366D01*
X208543333Y-90839366D02*
X208510000Y-90906033D01*
X208510000Y-90906033D02*
X208443333Y-90972700D01*
X208443333Y-90972700D02*
X208343333Y-91006033D01*
X208343333Y-91006033D02*
X208176666Y-91006033D01*
X208776666Y-90306033D02*
X209010000Y-91006033D01*
X209010000Y-91006033D02*
X209243333Y-90306033D01*
X209676666Y-90306033D02*
X209676666Y-90806033D01*
X209676666Y-90806033D02*
X209643333Y-90906033D01*
X209643333Y-90906033D02*
X209576666Y-90972700D01*
X209576666Y-90972700D02*
X209476666Y-91006033D01*
X209476666Y-91006033D02*
X209410000Y-91006033D01*
X210309999Y-90306033D02*
X210176666Y-90306033D01*
X210176666Y-90306033D02*
X210109999Y-90339366D01*
X210109999Y-90339366D02*
X210076666Y-90372700D01*
X210076666Y-90372700D02*
X210009999Y-90472700D01*
X210009999Y-90472700D02*
X209976666Y-90606033D01*
X209976666Y-90606033D02*
X209976666Y-90872700D01*
X209976666Y-90872700D02*
X210009999Y-90939366D01*
X210009999Y-90939366D02*
X210043333Y-90972700D01*
X210043333Y-90972700D02*
X210109999Y-91006033D01*
X210109999Y-91006033D02*
X210243333Y-91006033D01*
X210243333Y-91006033D02*
X210309999Y-90972700D01*
X210309999Y-90972700D02*
X210343333Y-90939366D01*
X210343333Y-90939366D02*
X210376666Y-90872700D01*
X210376666Y-90872700D02*
X210376666Y-90706033D01*
X210376666Y-90706033D02*
X210343333Y-90639366D01*
X210343333Y-90639366D02*
X210309999Y-90606033D01*
X210309999Y-90606033D02*
X210243333Y-90572700D01*
X210243333Y-90572700D02*
X210109999Y-90572700D01*
X210109999Y-90572700D02*
X210043333Y-90606033D01*
X210043333Y-90606033D02*
X210009999Y-90639366D01*
X210009999Y-90639366D02*
X209976666Y-90706033D01*
X210643333Y-90806033D02*
X210976666Y-90806033D01*
X210576666Y-91006033D02*
X210810000Y-90306033D01*
X210810000Y-90306033D02*
X211043333Y-91006033D01*
X208118095Y-66014819D02*
X208118095Y-66824342D01*
X208118095Y-66824342D02*
X208165714Y-66919580D01*
X208165714Y-66919580D02*
X208213333Y-66967200D01*
X208213333Y-66967200D02*
X208308571Y-67014819D01*
X208308571Y-67014819D02*
X208499047Y-67014819D01*
X208499047Y-67014819D02*
X208594285Y-66967200D01*
X208594285Y-66967200D02*
X208641904Y-66919580D01*
X208641904Y-66919580D02*
X208689523Y-66824342D01*
X208689523Y-66824342D02*
X208689523Y-66014819D01*
X209118095Y-66967200D02*
X209260952Y-67014819D01*
X209260952Y-67014819D02*
X209499047Y-67014819D01*
X209499047Y-67014819D02*
X209594285Y-66967200D01*
X209594285Y-66967200D02*
X209641904Y-66919580D01*
X209641904Y-66919580D02*
X209689523Y-66824342D01*
X209689523Y-66824342D02*
X209689523Y-66729104D01*
X209689523Y-66729104D02*
X209641904Y-66633866D01*
X209641904Y-66633866D02*
X209594285Y-66586247D01*
X209594285Y-66586247D02*
X209499047Y-66538628D01*
X209499047Y-66538628D02*
X209308571Y-66491009D01*
X209308571Y-66491009D02*
X209213333Y-66443390D01*
X209213333Y-66443390D02*
X209165714Y-66395771D01*
X209165714Y-66395771D02*
X209118095Y-66300533D01*
X209118095Y-66300533D02*
X209118095Y-66205295D01*
X209118095Y-66205295D02*
X209165714Y-66110057D01*
X209165714Y-66110057D02*
X209213333Y-66062438D01*
X209213333Y-66062438D02*
X209308571Y-66014819D01*
X209308571Y-66014819D02*
X209546666Y-66014819D01*
X209546666Y-66014819D02*
X209689523Y-66062438D01*
X210451428Y-66491009D02*
X210594285Y-66538628D01*
X210594285Y-66538628D02*
X210641904Y-66586247D01*
X210641904Y-66586247D02*
X210689523Y-66681485D01*
X210689523Y-66681485D02*
X210689523Y-66824342D01*
X210689523Y-66824342D02*
X210641904Y-66919580D01*
X210641904Y-66919580D02*
X210594285Y-66967200D01*
X210594285Y-66967200D02*
X210499047Y-67014819D01*
X210499047Y-67014819D02*
X210118095Y-67014819D01*
X210118095Y-67014819D02*
X210118095Y-66014819D01*
X210118095Y-66014819D02*
X210451428Y-66014819D01*
X210451428Y-66014819D02*
X210546666Y-66062438D01*
X210546666Y-66062438D02*
X210594285Y-66110057D01*
X210594285Y-66110057D02*
X210641904Y-66205295D01*
X210641904Y-66205295D02*
X210641904Y-66300533D01*
X210641904Y-66300533D02*
X210594285Y-66395771D01*
X210594285Y-66395771D02*
X210546666Y-66443390D01*
X210546666Y-66443390D02*
X210451428Y-66491009D01*
X210451428Y-66491009D02*
X210118095Y-66491009D01*
X209834819Y-120479047D02*
X208834819Y-120479047D01*
X208834819Y-120479047D02*
X209549104Y-120145714D01*
X209549104Y-120145714D02*
X208834819Y-119812381D01*
X208834819Y-119812381D02*
X209834819Y-119812381D01*
X209834819Y-119336190D02*
X209168152Y-119336190D01*
X208834819Y-119336190D02*
X208882438Y-119383809D01*
X208882438Y-119383809D02*
X208930057Y-119336190D01*
X208930057Y-119336190D02*
X208882438Y-119288571D01*
X208882438Y-119288571D02*
X208834819Y-119336190D01*
X208834819Y-119336190D02*
X208930057Y-119336190D01*
X209787200Y-118431429D02*
X209834819Y-118526667D01*
X209834819Y-118526667D02*
X209834819Y-118717143D01*
X209834819Y-118717143D02*
X209787200Y-118812381D01*
X209787200Y-118812381D02*
X209739580Y-118860000D01*
X209739580Y-118860000D02*
X209644342Y-118907619D01*
X209644342Y-118907619D02*
X209358628Y-118907619D01*
X209358628Y-118907619D02*
X209263390Y-118860000D01*
X209263390Y-118860000D02*
X209215771Y-118812381D01*
X209215771Y-118812381D02*
X209168152Y-118717143D01*
X209168152Y-118717143D02*
X209168152Y-118526667D01*
X209168152Y-118526667D02*
X209215771Y-118431429D01*
X209834819Y-118002857D02*
X209168152Y-118002857D01*
X209358628Y-118002857D02*
X209263390Y-117955238D01*
X209263390Y-117955238D02*
X209215771Y-117907619D01*
X209215771Y-117907619D02*
X209168152Y-117812381D01*
X209168152Y-117812381D02*
X209168152Y-117717143D01*
X209834819Y-117240952D02*
X209787200Y-117336190D01*
X209787200Y-117336190D02*
X209739580Y-117383809D01*
X209739580Y-117383809D02*
X209644342Y-117431428D01*
X209644342Y-117431428D02*
X209358628Y-117431428D01*
X209358628Y-117431428D02*
X209263390Y-117383809D01*
X209263390Y-117383809D02*
X209215771Y-117336190D01*
X209215771Y-117336190D02*
X209168152Y-117240952D01*
X209168152Y-117240952D02*
X209168152Y-117098095D01*
X209168152Y-117098095D02*
X209215771Y-117002857D01*
X209215771Y-117002857D02*
X209263390Y-116955238D01*
X209263390Y-116955238D02*
X209358628Y-116907619D01*
X209358628Y-116907619D02*
X209644342Y-116907619D01*
X209644342Y-116907619D02*
X209739580Y-116955238D01*
X209739580Y-116955238D02*
X209787200Y-117002857D01*
X209787200Y-117002857D02*
X209834819Y-117098095D01*
X209834819Y-117098095D02*
X209834819Y-117240952D01*
X209787200Y-115764761D02*
X209834819Y-115621904D01*
X209834819Y-115621904D02*
X209834819Y-115383809D01*
X209834819Y-115383809D02*
X209787200Y-115288571D01*
X209787200Y-115288571D02*
X209739580Y-115240952D01*
X209739580Y-115240952D02*
X209644342Y-115193333D01*
X209644342Y-115193333D02*
X209549104Y-115193333D01*
X209549104Y-115193333D02*
X209453866Y-115240952D01*
X209453866Y-115240952D02*
X209406247Y-115288571D01*
X209406247Y-115288571D02*
X209358628Y-115383809D01*
X209358628Y-115383809D02*
X209311009Y-115574285D01*
X209311009Y-115574285D02*
X209263390Y-115669523D01*
X209263390Y-115669523D02*
X209215771Y-115717142D01*
X209215771Y-115717142D02*
X209120533Y-115764761D01*
X209120533Y-115764761D02*
X209025295Y-115764761D01*
X209025295Y-115764761D02*
X208930057Y-115717142D01*
X208930057Y-115717142D02*
X208882438Y-115669523D01*
X208882438Y-115669523D02*
X208834819Y-115574285D01*
X208834819Y-115574285D02*
X208834819Y-115336190D01*
X208834819Y-115336190D02*
X208882438Y-115193333D01*
X209834819Y-114764761D02*
X208834819Y-114764761D01*
X208834819Y-114764761D02*
X208834819Y-114526666D01*
X208834819Y-114526666D02*
X208882438Y-114383809D01*
X208882438Y-114383809D02*
X208977676Y-114288571D01*
X208977676Y-114288571D02*
X209072914Y-114240952D01*
X209072914Y-114240952D02*
X209263390Y-114193333D01*
X209263390Y-114193333D02*
X209406247Y-114193333D01*
X209406247Y-114193333D02*
X209596723Y-114240952D01*
X209596723Y-114240952D02*
X209691961Y-114288571D01*
X209691961Y-114288571D02*
X209787200Y-114383809D01*
X209787200Y-114383809D02*
X209834819Y-114526666D01*
X209834819Y-114526666D02*
X209834819Y-114764761D01*
X209799456Y-81096009D02*
X210132789Y-81096009D01*
X210275646Y-81619819D02*
X209799456Y-81619819D01*
X209799456Y-81619819D02*
X209799456Y-80619819D01*
X209799456Y-80619819D02*
X210275646Y-80619819D01*
X210561361Y-80953152D02*
X210942313Y-80953152D01*
X210704218Y-80619819D02*
X210704218Y-81476961D01*
X210704218Y-81476961D02*
X210751837Y-81572200D01*
X210751837Y-81572200D02*
X210847075Y-81619819D01*
X210847075Y-81619819D02*
X210942313Y-81619819D01*
X211275647Y-81619819D02*
X211275647Y-80619819D01*
X211704218Y-81619819D02*
X211704218Y-81096009D01*
X211704218Y-81096009D02*
X211656599Y-81000771D01*
X211656599Y-81000771D02*
X211561361Y-80953152D01*
X211561361Y-80953152D02*
X211418504Y-80953152D01*
X211418504Y-80953152D02*
X211323266Y-81000771D01*
X211323266Y-81000771D02*
X211275647Y-81048390D01*
X212561361Y-81572200D02*
X212466123Y-81619819D01*
X212466123Y-81619819D02*
X212275647Y-81619819D01*
X212275647Y-81619819D02*
X212180409Y-81572200D01*
X212180409Y-81572200D02*
X212132790Y-81476961D01*
X212132790Y-81476961D02*
X212132790Y-81096009D01*
X212132790Y-81096009D02*
X212180409Y-81000771D01*
X212180409Y-81000771D02*
X212275647Y-80953152D01*
X212275647Y-80953152D02*
X212466123Y-80953152D01*
X212466123Y-80953152D02*
X212561361Y-81000771D01*
X212561361Y-81000771D02*
X212608980Y-81096009D01*
X212608980Y-81096009D02*
X212608980Y-81191247D01*
X212608980Y-81191247D02*
X212132790Y-81286485D01*
X213037552Y-81619819D02*
X213037552Y-80953152D01*
X213037552Y-81143628D02*
X213085171Y-81048390D01*
X213085171Y-81048390D02*
X213132790Y-81000771D01*
X213132790Y-81000771D02*
X213228028Y-80953152D01*
X213228028Y-80953152D02*
X213323266Y-80953152D01*
X213656600Y-80953152D02*
X213656600Y-81619819D01*
X213656600Y-81048390D02*
X213704219Y-81000771D01*
X213704219Y-81000771D02*
X213799457Y-80953152D01*
X213799457Y-80953152D02*
X213942314Y-80953152D01*
X213942314Y-80953152D02*
X214037552Y-81000771D01*
X214037552Y-81000771D02*
X214085171Y-81096009D01*
X214085171Y-81096009D02*
X214085171Y-81619819D01*
X214942314Y-81572200D02*
X214847076Y-81619819D01*
X214847076Y-81619819D02*
X214656600Y-81619819D01*
X214656600Y-81619819D02*
X214561362Y-81572200D01*
X214561362Y-81572200D02*
X214513743Y-81476961D01*
X214513743Y-81476961D02*
X214513743Y-81096009D01*
X214513743Y-81096009D02*
X214561362Y-81000771D01*
X214561362Y-81000771D02*
X214656600Y-80953152D01*
X214656600Y-80953152D02*
X214847076Y-80953152D01*
X214847076Y-80953152D02*
X214942314Y-81000771D01*
X214942314Y-81000771D02*
X214989933Y-81096009D01*
X214989933Y-81096009D02*
X214989933Y-81191247D01*
X214989933Y-81191247D02*
X214513743Y-81286485D01*
X215275648Y-80953152D02*
X215656600Y-80953152D01*
X215418505Y-80619819D02*
X215418505Y-81476961D01*
X215418505Y-81476961D02*
X215466124Y-81572200D01*
X215466124Y-81572200D02*
X215561362Y-81619819D01*
X215561362Y-81619819D02*
X215656600Y-81619819D01*
X206296666Y-92276033D02*
X206296666Y-91576033D01*
X206296666Y-91576033D02*
X206530000Y-92076033D01*
X206530000Y-92076033D02*
X206763333Y-91576033D01*
X206763333Y-91576033D02*
X206763333Y-92276033D01*
X207096666Y-92276033D02*
X207096666Y-91576033D01*
X207429999Y-92276033D02*
X207429999Y-91576033D01*
X207429999Y-91576033D02*
X207663333Y-92076033D01*
X207663333Y-92076033D02*
X207896666Y-91576033D01*
X207896666Y-91576033D02*
X207896666Y-92276033D01*
X208163333Y-91576033D02*
X208629999Y-92276033D01*
X208629999Y-91576033D02*
X208163333Y-92276033D01*
X209296666Y-92276033D02*
X209063333Y-91942700D01*
X208896666Y-92276033D02*
X208896666Y-91576033D01*
X208896666Y-91576033D02*
X209163333Y-91576033D01*
X209163333Y-91576033D02*
X209230000Y-91609366D01*
X209230000Y-91609366D02*
X209263333Y-91642700D01*
X209263333Y-91642700D02*
X209296666Y-91709366D01*
X209296666Y-91709366D02*
X209296666Y-91809366D01*
X209296666Y-91809366D02*
X209263333Y-91876033D01*
X209263333Y-91876033D02*
X209230000Y-91909366D01*
X209230000Y-91909366D02*
X209163333Y-91942700D01*
X209163333Y-91942700D02*
X208896666Y-91942700D01*
X209496666Y-91576033D02*
X209896666Y-91576033D01*
X209696666Y-92276033D02*
X209696666Y-91576033D01*
X210496666Y-92276033D02*
X210096666Y-92276033D01*
X210296666Y-92276033D02*
X210296666Y-91576033D01*
X210296666Y-91576033D02*
X210229999Y-91676033D01*
X210229999Y-91676033D02*
X210163333Y-91742700D01*
X210163333Y-91742700D02*
X210096666Y-91776033D01*
X210930000Y-91576033D02*
X210996666Y-91576033D01*
X210996666Y-91576033D02*
X211063333Y-91609366D01*
X211063333Y-91609366D02*
X211096666Y-91642700D01*
X211096666Y-91642700D02*
X211130000Y-91709366D01*
X211130000Y-91709366D02*
X211163333Y-91842700D01*
X211163333Y-91842700D02*
X211163333Y-92009366D01*
X211163333Y-92009366D02*
X211130000Y-92142700D01*
X211130000Y-92142700D02*
X211096666Y-92209366D01*
X211096666Y-92209366D02*
X211063333Y-92242700D01*
X211063333Y-92242700D02*
X210996666Y-92276033D01*
X210996666Y-92276033D02*
X210930000Y-92276033D01*
X210930000Y-92276033D02*
X210863333Y-92242700D01*
X210863333Y-92242700D02*
X210830000Y-92209366D01*
X210830000Y-92209366D02*
X210796666Y-92142700D01*
X210796666Y-92142700D02*
X210763333Y-92009366D01*
X210763333Y-92009366D02*
X210763333Y-91842700D01*
X210763333Y-91842700D02*
X210796666Y-91709366D01*
X210796666Y-91709366D02*
X210830000Y-91642700D01*
X210830000Y-91642700D02*
X210863333Y-91609366D01*
X210863333Y-91609366D02*
X210930000Y-91576033D01*
X211763333Y-91576033D02*
X211630000Y-91576033D01*
X211630000Y-91576033D02*
X211563333Y-91609366D01*
X211563333Y-91609366D02*
X211530000Y-91642700D01*
X211530000Y-91642700D02*
X211463333Y-91742700D01*
X211463333Y-91742700D02*
X211430000Y-91876033D01*
X211430000Y-91876033D02*
X211430000Y-92142700D01*
X211430000Y-92142700D02*
X211463333Y-92209366D01*
X211463333Y-92209366D02*
X211496667Y-92242700D01*
X211496667Y-92242700D02*
X211563333Y-92276033D01*
X211563333Y-92276033D02*
X211696667Y-92276033D01*
X211696667Y-92276033D02*
X211763333Y-92242700D01*
X211763333Y-92242700D02*
X211796667Y-92209366D01*
X211796667Y-92209366D02*
X211830000Y-92142700D01*
X211830000Y-92142700D02*
X211830000Y-91976033D01*
X211830000Y-91976033D02*
X211796667Y-91909366D01*
X211796667Y-91909366D02*
X211763333Y-91876033D01*
X211763333Y-91876033D02*
X211696667Y-91842700D01*
X211696667Y-91842700D02*
X211563333Y-91842700D01*
X211563333Y-91842700D02*
X211496667Y-91876033D01*
X211496667Y-91876033D02*
X211463333Y-91909366D01*
X211463333Y-91909366D02*
X211430000Y-91976033D01*
X212096667Y-91642700D02*
X212130000Y-91609366D01*
X212130000Y-91609366D02*
X212196667Y-91576033D01*
X212196667Y-91576033D02*
X212363334Y-91576033D01*
X212363334Y-91576033D02*
X212430000Y-91609366D01*
X212430000Y-91609366D02*
X212463334Y-91642700D01*
X212463334Y-91642700D02*
X212496667Y-91709366D01*
X212496667Y-91709366D02*
X212496667Y-91776033D01*
X212496667Y-91776033D02*
X212463334Y-91876033D01*
X212463334Y-91876033D02*
X212063334Y-92276033D01*
X212063334Y-92276033D02*
X212496667Y-92276033D01*
X206345619Y-78073723D02*
X207155142Y-78073723D01*
X207155142Y-78073723D02*
X207250380Y-78026104D01*
X207250380Y-78026104D02*
X207298000Y-77978485D01*
X207298000Y-77978485D02*
X207345619Y-77883247D01*
X207345619Y-77883247D02*
X207345619Y-77692771D01*
X207345619Y-77692771D02*
X207298000Y-77597533D01*
X207298000Y-77597533D02*
X207250380Y-77549914D01*
X207250380Y-77549914D02*
X207155142Y-77502295D01*
X207155142Y-77502295D02*
X206345619Y-77502295D01*
X207298000Y-77073723D02*
X207345619Y-76930866D01*
X207345619Y-76930866D02*
X207345619Y-76692771D01*
X207345619Y-76692771D02*
X207298000Y-76597533D01*
X207298000Y-76597533D02*
X207250380Y-76549914D01*
X207250380Y-76549914D02*
X207155142Y-76502295D01*
X207155142Y-76502295D02*
X207059904Y-76502295D01*
X207059904Y-76502295D02*
X206964666Y-76549914D01*
X206964666Y-76549914D02*
X206917047Y-76597533D01*
X206917047Y-76597533D02*
X206869428Y-76692771D01*
X206869428Y-76692771D02*
X206821809Y-76883247D01*
X206821809Y-76883247D02*
X206774190Y-76978485D01*
X206774190Y-76978485D02*
X206726571Y-77026104D01*
X206726571Y-77026104D02*
X206631333Y-77073723D01*
X206631333Y-77073723D02*
X206536095Y-77073723D01*
X206536095Y-77073723D02*
X206440857Y-77026104D01*
X206440857Y-77026104D02*
X206393238Y-76978485D01*
X206393238Y-76978485D02*
X206345619Y-76883247D01*
X206345619Y-76883247D02*
X206345619Y-76645152D01*
X206345619Y-76645152D02*
X206393238Y-76502295D01*
X206821809Y-75740390D02*
X206869428Y-75597533D01*
X206869428Y-75597533D02*
X206917047Y-75549914D01*
X206917047Y-75549914D02*
X207012285Y-75502295D01*
X207012285Y-75502295D02*
X207155142Y-75502295D01*
X207155142Y-75502295D02*
X207250380Y-75549914D01*
X207250380Y-75549914D02*
X207298000Y-75597533D01*
X207298000Y-75597533D02*
X207345619Y-75692771D01*
X207345619Y-75692771D02*
X207345619Y-76073723D01*
X207345619Y-76073723D02*
X206345619Y-76073723D01*
X206345619Y-76073723D02*
X206345619Y-75740390D01*
X206345619Y-75740390D02*
X206393238Y-75645152D01*
X206393238Y-75645152D02*
X206440857Y-75597533D01*
X206440857Y-75597533D02*
X206536095Y-75549914D01*
X206536095Y-75549914D02*
X206631333Y-75549914D01*
X206631333Y-75549914D02*
X206726571Y-75597533D01*
X206726571Y-75597533D02*
X206774190Y-75645152D01*
X206774190Y-75645152D02*
X206821809Y-75740390D01*
X206821809Y-75740390D02*
X206821809Y-76073723D01*
X207345619Y-74311818D02*
X206345619Y-74311818D01*
X206821809Y-74311818D02*
X206821809Y-73740390D01*
X207345619Y-73740390D02*
X206345619Y-73740390D01*
X207345619Y-73121342D02*
X207298000Y-73216580D01*
X207298000Y-73216580D02*
X207250380Y-73264199D01*
X207250380Y-73264199D02*
X207155142Y-73311818D01*
X207155142Y-73311818D02*
X206869428Y-73311818D01*
X206869428Y-73311818D02*
X206774190Y-73264199D01*
X206774190Y-73264199D02*
X206726571Y-73216580D01*
X206726571Y-73216580D02*
X206678952Y-73121342D01*
X206678952Y-73121342D02*
X206678952Y-72978485D01*
X206678952Y-72978485D02*
X206726571Y-72883247D01*
X206726571Y-72883247D02*
X206774190Y-72835628D01*
X206774190Y-72835628D02*
X206869428Y-72788009D01*
X206869428Y-72788009D02*
X207155142Y-72788009D01*
X207155142Y-72788009D02*
X207250380Y-72835628D01*
X207250380Y-72835628D02*
X207298000Y-72883247D01*
X207298000Y-72883247D02*
X207345619Y-72978485D01*
X207345619Y-72978485D02*
X207345619Y-73121342D01*
X207298000Y-72407056D02*
X207345619Y-72311818D01*
X207345619Y-72311818D02*
X207345619Y-72121342D01*
X207345619Y-72121342D02*
X207298000Y-72026104D01*
X207298000Y-72026104D02*
X207202761Y-71978485D01*
X207202761Y-71978485D02*
X207155142Y-71978485D01*
X207155142Y-71978485D02*
X207059904Y-72026104D01*
X207059904Y-72026104D02*
X207012285Y-72121342D01*
X207012285Y-72121342D02*
X207012285Y-72264199D01*
X207012285Y-72264199D02*
X206964666Y-72359437D01*
X206964666Y-72359437D02*
X206869428Y-72407056D01*
X206869428Y-72407056D02*
X206821809Y-72407056D01*
X206821809Y-72407056D02*
X206726571Y-72359437D01*
X206726571Y-72359437D02*
X206678952Y-72264199D01*
X206678952Y-72264199D02*
X206678952Y-72121342D01*
X206678952Y-72121342D02*
X206726571Y-72026104D01*
X206678952Y-71692770D02*
X206678952Y-71311818D01*
X206345619Y-71549913D02*
X207202761Y-71549913D01*
X207202761Y-71549913D02*
X207298000Y-71502294D01*
X207298000Y-71502294D02*
X207345619Y-71407056D01*
X207345619Y-71407056D02*
X207345619Y-71311818D01*
D11*
X243228409Y-119954761D02*
X243228409Y-119621428D01*
X243752219Y-119544047D02*
X243752219Y-120020238D01*
X243752219Y-120020238D02*
X242752219Y-119895238D01*
X242752219Y-119895238D02*
X242752219Y-119419047D01*
X243085552Y-119032142D02*
X243752219Y-119115476D01*
X243180790Y-119044047D02*
X243133171Y-118990476D01*
X243133171Y-118990476D02*
X243085552Y-118889285D01*
X243085552Y-118889285D02*
X243085552Y-118746428D01*
X243085552Y-118746428D02*
X243133171Y-118657142D01*
X243133171Y-118657142D02*
X243228409Y-118621428D01*
X243228409Y-118621428D02*
X243752219Y-118686904D01*
X243704600Y-117776190D02*
X243752219Y-117877380D01*
X243752219Y-117877380D02*
X243752219Y-118067857D01*
X243752219Y-118067857D02*
X243704600Y-118157142D01*
X243704600Y-118157142D02*
X243656980Y-118198809D01*
X243656980Y-118198809D02*
X243561742Y-118234523D01*
X243561742Y-118234523D02*
X243276028Y-118198809D01*
X243276028Y-118198809D02*
X243180790Y-118139285D01*
X243180790Y-118139285D02*
X243133171Y-118085714D01*
X243133171Y-118085714D02*
X243085552Y-117984523D01*
X243085552Y-117984523D02*
X243085552Y-117794047D01*
X243085552Y-117794047D02*
X243133171Y-117704761D01*
X243752219Y-117210714D02*
X243704600Y-117299999D01*
X243704600Y-117299999D02*
X243656980Y-117341666D01*
X243656980Y-117341666D02*
X243561742Y-117377380D01*
X243561742Y-117377380D02*
X243276028Y-117341666D01*
X243276028Y-117341666D02*
X243180790Y-117282142D01*
X243180790Y-117282142D02*
X243133171Y-117228571D01*
X243133171Y-117228571D02*
X243085552Y-117127380D01*
X243085552Y-117127380D02*
X243085552Y-116984523D01*
X243085552Y-116984523D02*
X243133171Y-116895237D01*
X243133171Y-116895237D02*
X243180790Y-116853571D01*
X243180790Y-116853571D02*
X243276028Y-116817856D01*
X243276028Y-116817856D02*
X243561742Y-116853571D01*
X243561742Y-116853571D02*
X243656980Y-116913094D01*
X243656980Y-116913094D02*
X243704600Y-116966666D01*
X243704600Y-116966666D02*
X243752219Y-117067856D01*
X243752219Y-117067856D02*
X243752219Y-117210714D01*
X243752219Y-116020237D02*
X242752219Y-115895237D01*
X243704600Y-116014285D02*
X243752219Y-116115475D01*
X243752219Y-116115475D02*
X243752219Y-116305952D01*
X243752219Y-116305952D02*
X243704600Y-116395237D01*
X243704600Y-116395237D02*
X243656980Y-116436904D01*
X243656980Y-116436904D02*
X243561742Y-116472618D01*
X243561742Y-116472618D02*
X243276028Y-116436904D01*
X243276028Y-116436904D02*
X243180790Y-116377380D01*
X243180790Y-116377380D02*
X243133171Y-116323809D01*
X243133171Y-116323809D02*
X243085552Y-116222618D01*
X243085552Y-116222618D02*
X243085552Y-116032142D01*
X243085552Y-116032142D02*
X243133171Y-115942856D01*
X243704600Y-115157142D02*
X243752219Y-115258332D01*
X243752219Y-115258332D02*
X243752219Y-115448809D01*
X243752219Y-115448809D02*
X243704600Y-115538094D01*
X243704600Y-115538094D02*
X243609361Y-115573809D01*
X243609361Y-115573809D02*
X243228409Y-115526190D01*
X243228409Y-115526190D02*
X243133171Y-115466666D01*
X243133171Y-115466666D02*
X243085552Y-115365475D01*
X243085552Y-115365475D02*
X243085552Y-115174999D01*
X243085552Y-115174999D02*
X243133171Y-115085713D01*
X243133171Y-115085713D02*
X243228409Y-115049999D01*
X243228409Y-115049999D02*
X243323647Y-115061904D01*
X243323647Y-115061904D02*
X243418885Y-115549999D01*
X243752219Y-114686904D02*
X243085552Y-114603570D01*
X243276028Y-114627380D02*
X243180790Y-114567856D01*
X243180790Y-114567856D02*
X243133171Y-114514285D01*
X243133171Y-114514285D02*
X243085552Y-114413094D01*
X243085552Y-114413094D02*
X243085552Y-114317856D01*
X242752219Y-114038094D02*
X242752219Y-113419046D01*
X242752219Y-113419046D02*
X243133171Y-113799999D01*
X243133171Y-113799999D02*
X243133171Y-113657141D01*
X243133171Y-113657141D02*
X243180790Y-113567856D01*
X243180790Y-113567856D02*
X243228409Y-113526189D01*
X243228409Y-113526189D02*
X243323647Y-113490475D01*
X243323647Y-113490475D02*
X243561742Y-113520237D01*
X243561742Y-113520237D02*
X243656980Y-113579760D01*
X243656980Y-113579760D02*
X243704600Y-113633332D01*
X243704600Y-113633332D02*
X243752219Y-113734522D01*
X243752219Y-113734522D02*
X243752219Y-114020237D01*
X243752219Y-114020237D02*
X243704600Y-114109522D01*
X243704600Y-114109522D02*
X243656980Y-114151189D01*
X243453409Y-77704761D02*
X243453409Y-77371428D01*
X243977219Y-77294047D02*
X243977219Y-77770238D01*
X243977219Y-77770238D02*
X242977219Y-77645238D01*
X242977219Y-77645238D02*
X242977219Y-77169047D01*
X243310552Y-76782142D02*
X243977219Y-76865476D01*
X243405790Y-76794047D02*
X243358171Y-76740476D01*
X243358171Y-76740476D02*
X243310552Y-76639285D01*
X243310552Y-76639285D02*
X243310552Y-76496428D01*
X243310552Y-76496428D02*
X243358171Y-76407142D01*
X243358171Y-76407142D02*
X243453409Y-76371428D01*
X243453409Y-76371428D02*
X243977219Y-76436904D01*
X243929600Y-75526190D02*
X243977219Y-75627380D01*
X243977219Y-75627380D02*
X243977219Y-75817857D01*
X243977219Y-75817857D02*
X243929600Y-75907142D01*
X243929600Y-75907142D02*
X243881980Y-75948809D01*
X243881980Y-75948809D02*
X243786742Y-75984523D01*
X243786742Y-75984523D02*
X243501028Y-75948809D01*
X243501028Y-75948809D02*
X243405790Y-75889285D01*
X243405790Y-75889285D02*
X243358171Y-75835714D01*
X243358171Y-75835714D02*
X243310552Y-75734523D01*
X243310552Y-75734523D02*
X243310552Y-75544047D01*
X243310552Y-75544047D02*
X243358171Y-75454761D01*
X243977219Y-74960714D02*
X243929600Y-75049999D01*
X243929600Y-75049999D02*
X243881980Y-75091666D01*
X243881980Y-75091666D02*
X243786742Y-75127380D01*
X243786742Y-75127380D02*
X243501028Y-75091666D01*
X243501028Y-75091666D02*
X243405790Y-75032142D01*
X243405790Y-75032142D02*
X243358171Y-74978571D01*
X243358171Y-74978571D02*
X243310552Y-74877380D01*
X243310552Y-74877380D02*
X243310552Y-74734523D01*
X243310552Y-74734523D02*
X243358171Y-74645237D01*
X243358171Y-74645237D02*
X243405790Y-74603571D01*
X243405790Y-74603571D02*
X243501028Y-74567856D01*
X243501028Y-74567856D02*
X243786742Y-74603571D01*
X243786742Y-74603571D02*
X243881980Y-74663094D01*
X243881980Y-74663094D02*
X243929600Y-74716666D01*
X243929600Y-74716666D02*
X243977219Y-74817856D01*
X243977219Y-74817856D02*
X243977219Y-74960714D01*
X243977219Y-73770237D02*
X242977219Y-73645237D01*
X243929600Y-73764285D02*
X243977219Y-73865475D01*
X243977219Y-73865475D02*
X243977219Y-74055952D01*
X243977219Y-74055952D02*
X243929600Y-74145237D01*
X243929600Y-74145237D02*
X243881980Y-74186904D01*
X243881980Y-74186904D02*
X243786742Y-74222618D01*
X243786742Y-74222618D02*
X243501028Y-74186904D01*
X243501028Y-74186904D02*
X243405790Y-74127380D01*
X243405790Y-74127380D02*
X243358171Y-74073809D01*
X243358171Y-74073809D02*
X243310552Y-73972618D01*
X243310552Y-73972618D02*
X243310552Y-73782142D01*
X243310552Y-73782142D02*
X243358171Y-73692856D01*
X243929600Y-72907142D02*
X243977219Y-73008332D01*
X243977219Y-73008332D02*
X243977219Y-73198809D01*
X243977219Y-73198809D02*
X243929600Y-73288094D01*
X243929600Y-73288094D02*
X243834361Y-73323809D01*
X243834361Y-73323809D02*
X243453409Y-73276190D01*
X243453409Y-73276190D02*
X243358171Y-73216666D01*
X243358171Y-73216666D02*
X243310552Y-73115475D01*
X243310552Y-73115475D02*
X243310552Y-72924999D01*
X243310552Y-72924999D02*
X243358171Y-72835713D01*
X243358171Y-72835713D02*
X243453409Y-72799999D01*
X243453409Y-72799999D02*
X243548647Y-72811904D01*
X243548647Y-72811904D02*
X243643885Y-73299999D01*
X243977219Y-72436904D02*
X243310552Y-72353570D01*
X243501028Y-72377380D02*
X243405790Y-72317856D01*
X243405790Y-72317856D02*
X243358171Y-72264285D01*
X243358171Y-72264285D02*
X243310552Y-72163094D01*
X243310552Y-72163094D02*
X243310552Y-72067856D01*
X243977219Y-71294046D02*
X243977219Y-71865475D01*
X243977219Y-71579760D02*
X242977219Y-71454760D01*
X242977219Y-71454760D02*
X243120076Y-71567856D01*
X243120076Y-71567856D02*
X243215314Y-71674999D01*
X243215314Y-71674999D02*
X243262933Y-71776189D01*
X229856980Y-84247619D02*
X229904600Y-84301191D01*
X229904600Y-84301191D02*
X229952219Y-84450000D01*
X229952219Y-84450000D02*
X229952219Y-84545238D01*
X229952219Y-84545238D02*
X229904600Y-84682143D01*
X229904600Y-84682143D02*
X229809361Y-84765476D01*
X229809361Y-84765476D02*
X229714123Y-84801191D01*
X229714123Y-84801191D02*
X229523647Y-84825000D01*
X229523647Y-84825000D02*
X229380790Y-84807143D01*
X229380790Y-84807143D02*
X229190314Y-84735715D01*
X229190314Y-84735715D02*
X229095076Y-84676191D01*
X229095076Y-84676191D02*
X228999838Y-84569048D01*
X228999838Y-84569048D02*
X228952219Y-84420238D01*
X228952219Y-84420238D02*
X228952219Y-84325000D01*
X228952219Y-84325000D02*
X228999838Y-84188096D01*
X228999838Y-84188096D02*
X229047457Y-84146429D01*
X229285552Y-83319048D02*
X229952219Y-83402381D01*
X229285552Y-83747619D02*
X229809361Y-83813096D01*
X229809361Y-83813096D02*
X229904600Y-83777381D01*
X229904600Y-83777381D02*
X229952219Y-83688096D01*
X229952219Y-83688096D02*
X229952219Y-83545238D01*
X229952219Y-83545238D02*
X229904600Y-83444048D01*
X229904600Y-83444048D02*
X229856980Y-83390476D01*
X229952219Y-82926191D02*
X229285552Y-82842857D01*
X229476028Y-82866667D02*
X229380790Y-82807143D01*
X229380790Y-82807143D02*
X229333171Y-82753572D01*
X229333171Y-82753572D02*
X229285552Y-82652381D01*
X229285552Y-82652381D02*
X229285552Y-82557143D01*
X229952219Y-82307143D02*
X229285552Y-82223809D01*
X229476028Y-82247619D02*
X229380790Y-82188095D01*
X229380790Y-82188095D02*
X229333171Y-82134524D01*
X229333171Y-82134524D02*
X229285552Y-82033333D01*
X229285552Y-82033333D02*
X229285552Y-81938095D01*
X229904600Y-81301190D02*
X229952219Y-81402380D01*
X229952219Y-81402380D02*
X229952219Y-81592857D01*
X229952219Y-81592857D02*
X229904600Y-81682142D01*
X229904600Y-81682142D02*
X229809361Y-81717857D01*
X229809361Y-81717857D02*
X229428409Y-81670238D01*
X229428409Y-81670238D02*
X229333171Y-81610714D01*
X229333171Y-81610714D02*
X229285552Y-81509523D01*
X229285552Y-81509523D02*
X229285552Y-81319047D01*
X229285552Y-81319047D02*
X229333171Y-81229761D01*
X229333171Y-81229761D02*
X229428409Y-81194047D01*
X229428409Y-81194047D02*
X229523647Y-81205952D01*
X229523647Y-81205952D02*
X229618885Y-81694047D01*
X229285552Y-80747618D02*
X229952219Y-80830952D01*
X229380790Y-80759523D02*
X229333171Y-80705952D01*
X229333171Y-80705952D02*
X229285552Y-80604761D01*
X229285552Y-80604761D02*
X229285552Y-80461904D01*
X229285552Y-80461904D02*
X229333171Y-80372618D01*
X229333171Y-80372618D02*
X229428409Y-80336904D01*
X229428409Y-80336904D02*
X229952219Y-80402380D01*
X229285552Y-79985713D02*
X229285552Y-79604761D01*
X228952219Y-79801190D02*
X229809361Y-79908333D01*
X229809361Y-79908333D02*
X229904600Y-79872618D01*
X229904600Y-79872618D02*
X229952219Y-79783333D01*
X229952219Y-79783333D02*
X229952219Y-79688094D01*
X229904600Y-79396427D02*
X229952219Y-79259523D01*
X229952219Y-79259523D02*
X229952219Y-79021427D01*
X229952219Y-79021427D02*
X229904600Y-78920237D01*
X229904600Y-78920237D02*
X229856980Y-78866665D01*
X229856980Y-78866665D02*
X229761742Y-78807142D01*
X229761742Y-78807142D02*
X229666504Y-78795237D01*
X229666504Y-78795237D02*
X229571266Y-78830951D01*
X229571266Y-78830951D02*
X229523647Y-78872618D01*
X229523647Y-78872618D02*
X229476028Y-78961904D01*
X229476028Y-78961904D02*
X229428409Y-79146427D01*
X229428409Y-79146427D02*
X229380790Y-79235713D01*
X229380790Y-79235713D02*
X229333171Y-79277380D01*
X229333171Y-79277380D02*
X229237933Y-79313094D01*
X229237933Y-79313094D02*
X229142695Y-79301189D01*
X229142695Y-79301189D02*
X229047457Y-79241665D01*
X229047457Y-79241665D02*
X228999838Y-79188094D01*
X228999838Y-79188094D02*
X228952219Y-79086904D01*
X228952219Y-79086904D02*
X228952219Y-78848808D01*
X228952219Y-78848808D02*
X228999838Y-78711904D01*
X229904600Y-78015475D02*
X229952219Y-78116665D01*
X229952219Y-78116665D02*
X229952219Y-78307142D01*
X229952219Y-78307142D02*
X229904600Y-78396427D01*
X229904600Y-78396427D02*
X229809361Y-78432142D01*
X229809361Y-78432142D02*
X229428409Y-78384523D01*
X229428409Y-78384523D02*
X229333171Y-78324999D01*
X229333171Y-78324999D02*
X229285552Y-78223808D01*
X229285552Y-78223808D02*
X229285552Y-78033332D01*
X229285552Y-78033332D02*
X229333171Y-77944046D01*
X229333171Y-77944046D02*
X229428409Y-77908332D01*
X229428409Y-77908332D02*
X229523647Y-77920237D01*
X229523647Y-77920237D02*
X229618885Y-78408332D01*
X229285552Y-77461903D02*
X229952219Y-77545237D01*
X229380790Y-77473808D02*
X229333171Y-77420237D01*
X229333171Y-77420237D02*
X229285552Y-77319046D01*
X229285552Y-77319046D02*
X229285552Y-77176189D01*
X229285552Y-77176189D02*
X229333171Y-77086903D01*
X229333171Y-77086903D02*
X229428409Y-77051189D01*
X229428409Y-77051189D02*
X229952219Y-77116665D01*
X229904600Y-76682141D02*
X229952219Y-76592856D01*
X229952219Y-76592856D02*
X229952219Y-76402379D01*
X229952219Y-76402379D02*
X229904600Y-76301189D01*
X229904600Y-76301189D02*
X229809361Y-76241665D01*
X229809361Y-76241665D02*
X229761742Y-76235713D01*
X229761742Y-76235713D02*
X229666504Y-76271427D01*
X229666504Y-76271427D02*
X229618885Y-76360713D01*
X229618885Y-76360713D02*
X229618885Y-76503570D01*
X229618885Y-76503570D02*
X229571266Y-76592856D01*
X229571266Y-76592856D02*
X229476028Y-76628570D01*
X229476028Y-76628570D02*
X229428409Y-76622618D01*
X229428409Y-76622618D02*
X229333171Y-76563094D01*
X229333171Y-76563094D02*
X229285552Y-76461903D01*
X229285552Y-76461903D02*
X229285552Y-76319046D01*
X229285552Y-76319046D02*
X229333171Y-76229760D01*
X229952219Y-75688094D02*
X229904600Y-75777379D01*
X229904600Y-75777379D02*
X229856980Y-75819046D01*
X229856980Y-75819046D02*
X229761742Y-75854760D01*
X229761742Y-75854760D02*
X229476028Y-75819046D01*
X229476028Y-75819046D02*
X229380790Y-75759522D01*
X229380790Y-75759522D02*
X229333171Y-75705951D01*
X229333171Y-75705951D02*
X229285552Y-75604760D01*
X229285552Y-75604760D02*
X229285552Y-75461903D01*
X229285552Y-75461903D02*
X229333171Y-75372617D01*
X229333171Y-75372617D02*
X229380790Y-75330951D01*
X229380790Y-75330951D02*
X229476028Y-75295236D01*
X229476028Y-75295236D02*
X229761742Y-75330951D01*
X229761742Y-75330951D02*
X229856980Y-75390474D01*
X229856980Y-75390474D02*
X229904600Y-75444046D01*
X229904600Y-75444046D02*
X229952219Y-75545236D01*
X229952219Y-75545236D02*
X229952219Y-75688094D01*
X229952219Y-74926189D02*
X229285552Y-74842855D01*
X229476028Y-74866665D02*
X229380790Y-74807141D01*
X229380790Y-74807141D02*
X229333171Y-74753570D01*
X229333171Y-74753570D02*
X229285552Y-74652379D01*
X229285552Y-74652379D02*
X229285552Y-74557141D01*
X229952219Y-73783331D02*
X229952219Y-74354760D01*
X229952219Y-74069045D02*
X228952219Y-73944045D01*
X228952219Y-73944045D02*
X229095076Y-74057141D01*
X229095076Y-74057141D02*
X229190314Y-74164284D01*
X229190314Y-74164284D02*
X229237933Y-74265474D01*
X189604600Y-112589285D02*
X189652219Y-112452381D01*
X189652219Y-112452381D02*
X189652219Y-112214285D01*
X189652219Y-112214285D02*
X189604600Y-112113095D01*
X189604600Y-112113095D02*
X189556980Y-112059523D01*
X189556980Y-112059523D02*
X189461742Y-112000000D01*
X189461742Y-112000000D02*
X189366504Y-111988095D01*
X189366504Y-111988095D02*
X189271266Y-112023809D01*
X189271266Y-112023809D02*
X189223647Y-112065476D01*
X189223647Y-112065476D02*
X189176028Y-112154762D01*
X189176028Y-112154762D02*
X189128409Y-112339285D01*
X189128409Y-112339285D02*
X189080790Y-112428571D01*
X189080790Y-112428571D02*
X189033171Y-112470238D01*
X189033171Y-112470238D02*
X188937933Y-112505952D01*
X188937933Y-112505952D02*
X188842695Y-112494047D01*
X188842695Y-112494047D02*
X188747457Y-112434523D01*
X188747457Y-112434523D02*
X188699838Y-112380952D01*
X188699838Y-112380952D02*
X188652219Y-112279762D01*
X188652219Y-112279762D02*
X188652219Y-112041666D01*
X188652219Y-112041666D02*
X188699838Y-111904762D01*
X189604600Y-111208333D02*
X189652219Y-111309523D01*
X189652219Y-111309523D02*
X189652219Y-111500000D01*
X189652219Y-111500000D02*
X189604600Y-111589285D01*
X189604600Y-111589285D02*
X189509361Y-111625000D01*
X189509361Y-111625000D02*
X189128409Y-111577381D01*
X189128409Y-111577381D02*
X189033171Y-111517857D01*
X189033171Y-111517857D02*
X188985552Y-111416666D01*
X188985552Y-111416666D02*
X188985552Y-111226190D01*
X188985552Y-111226190D02*
X189033171Y-111136904D01*
X189033171Y-111136904D02*
X189128409Y-111101190D01*
X189128409Y-111101190D02*
X189223647Y-111113095D01*
X189223647Y-111113095D02*
X189318885Y-111601190D01*
X189652219Y-110738095D02*
X188985552Y-110654761D01*
X189176028Y-110678571D02*
X189080790Y-110619047D01*
X189080790Y-110619047D02*
X189033171Y-110565476D01*
X189033171Y-110565476D02*
X188985552Y-110464285D01*
X188985552Y-110464285D02*
X188985552Y-110369047D01*
X188985552Y-110130951D02*
X189652219Y-109976190D01*
X189652219Y-109976190D02*
X188985552Y-109654761D01*
X189652219Y-109214285D02*
X189604600Y-109303570D01*
X189604600Y-109303570D02*
X189556980Y-109345237D01*
X189556980Y-109345237D02*
X189461742Y-109380951D01*
X189461742Y-109380951D02*
X189176028Y-109345237D01*
X189176028Y-109345237D02*
X189080790Y-109285713D01*
X189080790Y-109285713D02*
X189033171Y-109232142D01*
X189033171Y-109232142D02*
X188985552Y-109130951D01*
X188985552Y-109130951D02*
X188985552Y-108988094D01*
X188985552Y-108988094D02*
X189033171Y-108898808D01*
X189033171Y-108898808D02*
X189080790Y-108857142D01*
X189080790Y-108857142D02*
X189176028Y-108821427D01*
X189176028Y-108821427D02*
X189461742Y-108857142D01*
X189461742Y-108857142D02*
X189556980Y-108916665D01*
X189556980Y-108916665D02*
X189604600Y-108970237D01*
X189604600Y-108970237D02*
X189652219Y-109071427D01*
X189652219Y-109071427D02*
X189652219Y-109214285D01*
X189747457Y-108702380D02*
X189747457Y-107940475D01*
X188747457Y-107624998D02*
X188699838Y-107571427D01*
X188699838Y-107571427D02*
X188652219Y-107470237D01*
X188652219Y-107470237D02*
X188652219Y-107232141D01*
X188652219Y-107232141D02*
X188699838Y-107142856D01*
X188699838Y-107142856D02*
X188747457Y-107101189D01*
X188747457Y-107101189D02*
X188842695Y-107065475D01*
X188842695Y-107065475D02*
X188937933Y-107077379D01*
X188937933Y-107077379D02*
X189080790Y-107142856D01*
X189080790Y-107142856D02*
X189652219Y-107785713D01*
X189652219Y-107785713D02*
X189652219Y-107166665D01*
X233560714Y-64277219D02*
X233471428Y-64991504D01*
X233471428Y-64991504D02*
X233405952Y-65134361D01*
X233405952Y-65134361D02*
X233298809Y-65229600D01*
X233298809Y-65229600D02*
X233149999Y-65277219D01*
X233149999Y-65277219D02*
X233054761Y-65277219D01*
X234435714Y-65277219D02*
X233864285Y-65277219D01*
X234150000Y-65277219D02*
X234275000Y-64277219D01*
X234275000Y-64277219D02*
X234161904Y-64420076D01*
X234161904Y-64420076D02*
X234054762Y-64515314D01*
X234054762Y-64515314D02*
X233953571Y-64562933D01*
X229879600Y-116514285D02*
X229927219Y-116377381D01*
X229927219Y-116377381D02*
X229927219Y-116139285D01*
X229927219Y-116139285D02*
X229879600Y-116038095D01*
X229879600Y-116038095D02*
X229831980Y-115984523D01*
X229831980Y-115984523D02*
X229736742Y-115925000D01*
X229736742Y-115925000D02*
X229641504Y-115913095D01*
X229641504Y-115913095D02*
X229546266Y-115948809D01*
X229546266Y-115948809D02*
X229498647Y-115990476D01*
X229498647Y-115990476D02*
X229451028Y-116079762D01*
X229451028Y-116079762D02*
X229403409Y-116264285D01*
X229403409Y-116264285D02*
X229355790Y-116353571D01*
X229355790Y-116353571D02*
X229308171Y-116395238D01*
X229308171Y-116395238D02*
X229212933Y-116430952D01*
X229212933Y-116430952D02*
X229117695Y-116419047D01*
X229117695Y-116419047D02*
X229022457Y-116359523D01*
X229022457Y-116359523D02*
X228974838Y-116305952D01*
X228974838Y-116305952D02*
X228927219Y-116204762D01*
X228927219Y-116204762D02*
X228927219Y-115966666D01*
X228927219Y-115966666D02*
X228974838Y-115829762D01*
X229879600Y-115133333D02*
X229927219Y-115234523D01*
X229927219Y-115234523D02*
X229927219Y-115425000D01*
X229927219Y-115425000D02*
X229879600Y-115514285D01*
X229879600Y-115514285D02*
X229784361Y-115550000D01*
X229784361Y-115550000D02*
X229403409Y-115502381D01*
X229403409Y-115502381D02*
X229308171Y-115442857D01*
X229308171Y-115442857D02*
X229260552Y-115341666D01*
X229260552Y-115341666D02*
X229260552Y-115151190D01*
X229260552Y-115151190D02*
X229308171Y-115061904D01*
X229308171Y-115061904D02*
X229403409Y-115026190D01*
X229403409Y-115026190D02*
X229498647Y-115038095D01*
X229498647Y-115038095D02*
X229593885Y-115526190D01*
X229927219Y-114663095D02*
X229260552Y-114579761D01*
X229451028Y-114603571D02*
X229355790Y-114544047D01*
X229355790Y-114544047D02*
X229308171Y-114490476D01*
X229308171Y-114490476D02*
X229260552Y-114389285D01*
X229260552Y-114389285D02*
X229260552Y-114294047D01*
X229260552Y-114055951D02*
X229927219Y-113901190D01*
X229927219Y-113901190D02*
X229260552Y-113579761D01*
X229927219Y-113139285D02*
X229879600Y-113228570D01*
X229879600Y-113228570D02*
X229831980Y-113270237D01*
X229831980Y-113270237D02*
X229736742Y-113305951D01*
X229736742Y-113305951D02*
X229451028Y-113270237D01*
X229451028Y-113270237D02*
X229355790Y-113210713D01*
X229355790Y-113210713D02*
X229308171Y-113157142D01*
X229308171Y-113157142D02*
X229260552Y-113055951D01*
X229260552Y-113055951D02*
X229260552Y-112913094D01*
X229260552Y-112913094D02*
X229308171Y-112823808D01*
X229308171Y-112823808D02*
X229355790Y-112782142D01*
X229355790Y-112782142D02*
X229451028Y-112746427D01*
X229451028Y-112746427D02*
X229736742Y-112782142D01*
X229736742Y-112782142D02*
X229831980Y-112841665D01*
X229831980Y-112841665D02*
X229879600Y-112895237D01*
X229879600Y-112895237D02*
X229927219Y-112996427D01*
X229927219Y-112996427D02*
X229927219Y-113139285D01*
X230022457Y-112627380D02*
X230022457Y-111865475D01*
X229927219Y-111091665D02*
X229927219Y-111663094D01*
X229927219Y-111377379D02*
X228927219Y-111252379D01*
X228927219Y-111252379D02*
X229070076Y-111365475D01*
X229070076Y-111365475D02*
X229165314Y-111472618D01*
X229165314Y-111472618D02*
X229212933Y-111573808D01*
X177127219Y-80863096D02*
X176127219Y-80738096D01*
X176127219Y-80738096D02*
X176841504Y-80494048D01*
X176841504Y-80494048D02*
X176127219Y-80071429D01*
X176127219Y-80071429D02*
X177127219Y-80196429D01*
X177127219Y-79577382D02*
X177079600Y-79666667D01*
X177079600Y-79666667D02*
X177031980Y-79708334D01*
X177031980Y-79708334D02*
X176936742Y-79744048D01*
X176936742Y-79744048D02*
X176651028Y-79708334D01*
X176651028Y-79708334D02*
X176555790Y-79648810D01*
X176555790Y-79648810D02*
X176508171Y-79595239D01*
X176508171Y-79595239D02*
X176460552Y-79494048D01*
X176460552Y-79494048D02*
X176460552Y-79351191D01*
X176460552Y-79351191D02*
X176508171Y-79261905D01*
X176508171Y-79261905D02*
X176555790Y-79220239D01*
X176555790Y-79220239D02*
X176651028Y-79184524D01*
X176651028Y-79184524D02*
X176936742Y-79220239D01*
X176936742Y-79220239D02*
X177031980Y-79279762D01*
X177031980Y-79279762D02*
X177079600Y-79333334D01*
X177079600Y-79333334D02*
X177127219Y-79434524D01*
X177127219Y-79434524D02*
X177127219Y-79577382D01*
X176460552Y-78875000D02*
X176460552Y-78494048D01*
X176127219Y-78690477D02*
X176984361Y-78797620D01*
X176984361Y-78797620D02*
X177079600Y-78761905D01*
X177079600Y-78761905D02*
X177127219Y-78672620D01*
X177127219Y-78672620D02*
X177127219Y-78577381D01*
X177127219Y-78101191D02*
X177079600Y-78190476D01*
X177079600Y-78190476D02*
X177031980Y-78232143D01*
X177031980Y-78232143D02*
X176936742Y-78267857D01*
X176936742Y-78267857D02*
X176651028Y-78232143D01*
X176651028Y-78232143D02*
X176555790Y-78172619D01*
X176555790Y-78172619D02*
X176508171Y-78119048D01*
X176508171Y-78119048D02*
X176460552Y-78017857D01*
X176460552Y-78017857D02*
X176460552Y-77875000D01*
X176460552Y-77875000D02*
X176508171Y-77785714D01*
X176508171Y-77785714D02*
X176555790Y-77744048D01*
X176555790Y-77744048D02*
X176651028Y-77708333D01*
X176651028Y-77708333D02*
X176936742Y-77744048D01*
X176936742Y-77744048D02*
X177031980Y-77803571D01*
X177031980Y-77803571D02*
X177079600Y-77857143D01*
X177079600Y-77857143D02*
X177127219Y-77958333D01*
X177127219Y-77958333D02*
X177127219Y-78101191D01*
X177127219Y-77339286D02*
X176460552Y-77255952D01*
X176651028Y-77279762D02*
X176555790Y-77220238D01*
X176555790Y-77220238D02*
X176508171Y-77166667D01*
X176508171Y-77166667D02*
X176460552Y-77065476D01*
X176460552Y-77065476D02*
X176460552Y-76970238D01*
X177222457Y-76970238D02*
X177222457Y-76208333D01*
X177127219Y-75958333D02*
X176127219Y-75833333D01*
X176127219Y-75833333D02*
X176127219Y-75595237D01*
X176127219Y-75595237D02*
X176174838Y-75458333D01*
X176174838Y-75458333D02*
X176270076Y-75374999D01*
X176270076Y-75374999D02*
X176365314Y-75339285D01*
X176365314Y-75339285D02*
X176555790Y-75315476D01*
X176555790Y-75315476D02*
X176698647Y-75333333D01*
X176698647Y-75333333D02*
X176889123Y-75404761D01*
X176889123Y-75404761D02*
X176984361Y-75464285D01*
X176984361Y-75464285D02*
X177079600Y-75571428D01*
X177079600Y-75571428D02*
X177127219Y-75720237D01*
X177127219Y-75720237D02*
X177127219Y-75958333D01*
X177127219Y-74958333D02*
X176460552Y-74874999D01*
X176651028Y-74898809D02*
X176555790Y-74839285D01*
X176555790Y-74839285D02*
X176508171Y-74785714D01*
X176508171Y-74785714D02*
X176460552Y-74684523D01*
X176460552Y-74684523D02*
X176460552Y-74589285D01*
X177127219Y-74339285D02*
X176460552Y-74255951D01*
X176127219Y-74214285D02*
X176174838Y-74267856D01*
X176174838Y-74267856D02*
X176222457Y-74226189D01*
X176222457Y-74226189D02*
X176174838Y-74172618D01*
X176174838Y-74172618D02*
X176127219Y-74214285D01*
X176127219Y-74214285D02*
X176222457Y-74226189D01*
X176460552Y-73874999D02*
X177127219Y-73720238D01*
X177127219Y-73720238D02*
X176460552Y-73398809D01*
X177079600Y-72714285D02*
X177127219Y-72815475D01*
X177127219Y-72815475D02*
X177127219Y-73005952D01*
X177127219Y-73005952D02*
X177079600Y-73095237D01*
X177079600Y-73095237D02*
X176984361Y-73130952D01*
X176984361Y-73130952D02*
X176603409Y-73083333D01*
X176603409Y-73083333D02*
X176508171Y-73023809D01*
X176508171Y-73023809D02*
X176460552Y-72922618D01*
X176460552Y-72922618D02*
X176460552Y-72732142D01*
X176460552Y-72732142D02*
X176508171Y-72642856D01*
X176508171Y-72642856D02*
X176603409Y-72607142D01*
X176603409Y-72607142D02*
X176698647Y-72619047D01*
X176698647Y-72619047D02*
X176793885Y-73107142D01*
X177127219Y-72244047D02*
X176460552Y-72160713D01*
X176651028Y-72184523D02*
X176555790Y-72124999D01*
X176555790Y-72124999D02*
X176508171Y-72071428D01*
X176508171Y-72071428D02*
X176460552Y-71970237D01*
X176460552Y-71970237D02*
X176460552Y-71874999D01*
X176222457Y-71559522D02*
X176174838Y-71505951D01*
X176174838Y-71505951D02*
X176127219Y-71404761D01*
X176127219Y-71404761D02*
X176127219Y-71166665D01*
X176127219Y-71166665D02*
X176174838Y-71077380D01*
X176174838Y-71077380D02*
X176222457Y-71035713D01*
X176222457Y-71035713D02*
X176317695Y-70999999D01*
X176317695Y-70999999D02*
X176412933Y-71011903D01*
X176412933Y-71011903D02*
X176555790Y-71077380D01*
X176555790Y-71077380D02*
X177127219Y-71720237D01*
X177127219Y-71720237D02*
X177127219Y-71101189D01*
X177106980Y-100672619D02*
X177154600Y-100726191D01*
X177154600Y-100726191D02*
X177202219Y-100875000D01*
X177202219Y-100875000D02*
X177202219Y-100970238D01*
X177202219Y-100970238D02*
X177154600Y-101107143D01*
X177154600Y-101107143D02*
X177059361Y-101190476D01*
X177059361Y-101190476D02*
X176964123Y-101226191D01*
X176964123Y-101226191D02*
X176773647Y-101250000D01*
X176773647Y-101250000D02*
X176630790Y-101232143D01*
X176630790Y-101232143D02*
X176440314Y-101160715D01*
X176440314Y-101160715D02*
X176345076Y-101101191D01*
X176345076Y-101101191D02*
X176249838Y-100994048D01*
X176249838Y-100994048D02*
X176202219Y-100845238D01*
X176202219Y-100845238D02*
X176202219Y-100750000D01*
X176202219Y-100750000D02*
X176249838Y-100613096D01*
X176249838Y-100613096D02*
X176297457Y-100571429D01*
X176535552Y-99744048D02*
X177202219Y-99827381D01*
X176535552Y-100172619D02*
X177059361Y-100238096D01*
X177059361Y-100238096D02*
X177154600Y-100202381D01*
X177154600Y-100202381D02*
X177202219Y-100113096D01*
X177202219Y-100113096D02*
X177202219Y-99970238D01*
X177202219Y-99970238D02*
X177154600Y-99869048D01*
X177154600Y-99869048D02*
X177106980Y-99815476D01*
X177202219Y-99351191D02*
X176535552Y-99267857D01*
X176726028Y-99291667D02*
X176630790Y-99232143D01*
X176630790Y-99232143D02*
X176583171Y-99178572D01*
X176583171Y-99178572D02*
X176535552Y-99077381D01*
X176535552Y-99077381D02*
X176535552Y-98982143D01*
X177202219Y-98732143D02*
X176535552Y-98648809D01*
X176726028Y-98672619D02*
X176630790Y-98613095D01*
X176630790Y-98613095D02*
X176583171Y-98559524D01*
X176583171Y-98559524D02*
X176535552Y-98458333D01*
X176535552Y-98458333D02*
X176535552Y-98363095D01*
X177154600Y-97726190D02*
X177202219Y-97827380D01*
X177202219Y-97827380D02*
X177202219Y-98017857D01*
X177202219Y-98017857D02*
X177154600Y-98107142D01*
X177154600Y-98107142D02*
X177059361Y-98142857D01*
X177059361Y-98142857D02*
X176678409Y-98095238D01*
X176678409Y-98095238D02*
X176583171Y-98035714D01*
X176583171Y-98035714D02*
X176535552Y-97934523D01*
X176535552Y-97934523D02*
X176535552Y-97744047D01*
X176535552Y-97744047D02*
X176583171Y-97654761D01*
X176583171Y-97654761D02*
X176678409Y-97619047D01*
X176678409Y-97619047D02*
X176773647Y-97630952D01*
X176773647Y-97630952D02*
X176868885Y-98119047D01*
X176535552Y-97172618D02*
X177202219Y-97255952D01*
X176630790Y-97184523D02*
X176583171Y-97130952D01*
X176583171Y-97130952D02*
X176535552Y-97029761D01*
X176535552Y-97029761D02*
X176535552Y-96886904D01*
X176535552Y-96886904D02*
X176583171Y-96797618D01*
X176583171Y-96797618D02*
X176678409Y-96761904D01*
X176678409Y-96761904D02*
X177202219Y-96827380D01*
X176535552Y-96410713D02*
X176535552Y-96029761D01*
X176202219Y-96226190D02*
X177059361Y-96333333D01*
X177059361Y-96333333D02*
X177154600Y-96297618D01*
X177154600Y-96297618D02*
X177202219Y-96208333D01*
X177202219Y-96208333D02*
X177202219Y-96113094D01*
X177154600Y-95821427D02*
X177202219Y-95684523D01*
X177202219Y-95684523D02*
X177202219Y-95446427D01*
X177202219Y-95446427D02*
X177154600Y-95345237D01*
X177154600Y-95345237D02*
X177106980Y-95291665D01*
X177106980Y-95291665D02*
X177011742Y-95232142D01*
X177011742Y-95232142D02*
X176916504Y-95220237D01*
X176916504Y-95220237D02*
X176821266Y-95255951D01*
X176821266Y-95255951D02*
X176773647Y-95297618D01*
X176773647Y-95297618D02*
X176726028Y-95386904D01*
X176726028Y-95386904D02*
X176678409Y-95571427D01*
X176678409Y-95571427D02*
X176630790Y-95660713D01*
X176630790Y-95660713D02*
X176583171Y-95702380D01*
X176583171Y-95702380D02*
X176487933Y-95738094D01*
X176487933Y-95738094D02*
X176392695Y-95726189D01*
X176392695Y-95726189D02*
X176297457Y-95666665D01*
X176297457Y-95666665D02*
X176249838Y-95613094D01*
X176249838Y-95613094D02*
X176202219Y-95511904D01*
X176202219Y-95511904D02*
X176202219Y-95273808D01*
X176202219Y-95273808D02*
X176249838Y-95136904D01*
X177154600Y-94440475D02*
X177202219Y-94541665D01*
X177202219Y-94541665D02*
X177202219Y-94732142D01*
X177202219Y-94732142D02*
X177154600Y-94821427D01*
X177154600Y-94821427D02*
X177059361Y-94857142D01*
X177059361Y-94857142D02*
X176678409Y-94809523D01*
X176678409Y-94809523D02*
X176583171Y-94749999D01*
X176583171Y-94749999D02*
X176535552Y-94648808D01*
X176535552Y-94648808D02*
X176535552Y-94458332D01*
X176535552Y-94458332D02*
X176583171Y-94369046D01*
X176583171Y-94369046D02*
X176678409Y-94333332D01*
X176678409Y-94333332D02*
X176773647Y-94345237D01*
X176773647Y-94345237D02*
X176868885Y-94833332D01*
X176535552Y-93886903D02*
X177202219Y-93970237D01*
X176630790Y-93898808D02*
X176583171Y-93845237D01*
X176583171Y-93845237D02*
X176535552Y-93744046D01*
X176535552Y-93744046D02*
X176535552Y-93601189D01*
X176535552Y-93601189D02*
X176583171Y-93511903D01*
X176583171Y-93511903D02*
X176678409Y-93476189D01*
X176678409Y-93476189D02*
X177202219Y-93541665D01*
X177154600Y-93107141D02*
X177202219Y-93017856D01*
X177202219Y-93017856D02*
X177202219Y-92827379D01*
X177202219Y-92827379D02*
X177154600Y-92726189D01*
X177154600Y-92726189D02*
X177059361Y-92666665D01*
X177059361Y-92666665D02*
X177011742Y-92660713D01*
X177011742Y-92660713D02*
X176916504Y-92696427D01*
X176916504Y-92696427D02*
X176868885Y-92785713D01*
X176868885Y-92785713D02*
X176868885Y-92928570D01*
X176868885Y-92928570D02*
X176821266Y-93017856D01*
X176821266Y-93017856D02*
X176726028Y-93053570D01*
X176726028Y-93053570D02*
X176678409Y-93047618D01*
X176678409Y-93047618D02*
X176583171Y-92988094D01*
X176583171Y-92988094D02*
X176535552Y-92886903D01*
X176535552Y-92886903D02*
X176535552Y-92744046D01*
X176535552Y-92744046D02*
X176583171Y-92654760D01*
X177202219Y-92113094D02*
X177154600Y-92202379D01*
X177154600Y-92202379D02*
X177106980Y-92244046D01*
X177106980Y-92244046D02*
X177011742Y-92279760D01*
X177011742Y-92279760D02*
X176726028Y-92244046D01*
X176726028Y-92244046D02*
X176630790Y-92184522D01*
X176630790Y-92184522D02*
X176583171Y-92130951D01*
X176583171Y-92130951D02*
X176535552Y-92029760D01*
X176535552Y-92029760D02*
X176535552Y-91886903D01*
X176535552Y-91886903D02*
X176583171Y-91797617D01*
X176583171Y-91797617D02*
X176630790Y-91755951D01*
X176630790Y-91755951D02*
X176726028Y-91720236D01*
X176726028Y-91720236D02*
X177011742Y-91755951D01*
X177011742Y-91755951D02*
X177106980Y-91815474D01*
X177106980Y-91815474D02*
X177154600Y-91869046D01*
X177154600Y-91869046D02*
X177202219Y-91970236D01*
X177202219Y-91970236D02*
X177202219Y-92113094D01*
X177202219Y-91351189D02*
X176535552Y-91267855D01*
X176726028Y-91291665D02*
X176630790Y-91232141D01*
X176630790Y-91232141D02*
X176583171Y-91178570D01*
X176583171Y-91178570D02*
X176535552Y-91077379D01*
X176535552Y-91077379D02*
X176535552Y-90982141D01*
X176202219Y-90702379D02*
X176202219Y-90083331D01*
X176202219Y-90083331D02*
X176583171Y-90464284D01*
X176583171Y-90464284D02*
X176583171Y-90321426D01*
X176583171Y-90321426D02*
X176630790Y-90232141D01*
X176630790Y-90232141D02*
X176678409Y-90190474D01*
X176678409Y-90190474D02*
X176773647Y-90154760D01*
X176773647Y-90154760D02*
X177011742Y-90184522D01*
X177011742Y-90184522D02*
X177106980Y-90244045D01*
X177106980Y-90244045D02*
X177154600Y-90297617D01*
X177154600Y-90297617D02*
X177202219Y-90398807D01*
X177202219Y-90398807D02*
X177202219Y-90684522D01*
X177202219Y-90684522D02*
X177154600Y-90773807D01*
X177154600Y-90773807D02*
X177106980Y-90815474D01*
X189652219Y-72988096D02*
X188652219Y-72863096D01*
X188652219Y-72863096D02*
X189366504Y-72619048D01*
X189366504Y-72619048D02*
X188652219Y-72196429D01*
X188652219Y-72196429D02*
X189652219Y-72321429D01*
X189652219Y-71702382D02*
X189604600Y-71791667D01*
X189604600Y-71791667D02*
X189556980Y-71833334D01*
X189556980Y-71833334D02*
X189461742Y-71869048D01*
X189461742Y-71869048D02*
X189176028Y-71833334D01*
X189176028Y-71833334D02*
X189080790Y-71773810D01*
X189080790Y-71773810D02*
X189033171Y-71720239D01*
X189033171Y-71720239D02*
X188985552Y-71619048D01*
X188985552Y-71619048D02*
X188985552Y-71476191D01*
X188985552Y-71476191D02*
X189033171Y-71386905D01*
X189033171Y-71386905D02*
X189080790Y-71345239D01*
X189080790Y-71345239D02*
X189176028Y-71309524D01*
X189176028Y-71309524D02*
X189461742Y-71345239D01*
X189461742Y-71345239D02*
X189556980Y-71404762D01*
X189556980Y-71404762D02*
X189604600Y-71458334D01*
X189604600Y-71458334D02*
X189652219Y-71559524D01*
X189652219Y-71559524D02*
X189652219Y-71702382D01*
X188985552Y-71000000D02*
X188985552Y-70619048D01*
X188652219Y-70815477D02*
X189509361Y-70922620D01*
X189509361Y-70922620D02*
X189604600Y-70886905D01*
X189604600Y-70886905D02*
X189652219Y-70797620D01*
X189652219Y-70797620D02*
X189652219Y-70702381D01*
X189652219Y-70226191D02*
X189604600Y-70315476D01*
X189604600Y-70315476D02*
X189556980Y-70357143D01*
X189556980Y-70357143D02*
X189461742Y-70392857D01*
X189461742Y-70392857D02*
X189176028Y-70357143D01*
X189176028Y-70357143D02*
X189080790Y-70297619D01*
X189080790Y-70297619D02*
X189033171Y-70244048D01*
X189033171Y-70244048D02*
X188985552Y-70142857D01*
X188985552Y-70142857D02*
X188985552Y-70000000D01*
X188985552Y-70000000D02*
X189033171Y-69910714D01*
X189033171Y-69910714D02*
X189080790Y-69869048D01*
X189080790Y-69869048D02*
X189176028Y-69833333D01*
X189176028Y-69833333D02*
X189461742Y-69869048D01*
X189461742Y-69869048D02*
X189556980Y-69928571D01*
X189556980Y-69928571D02*
X189604600Y-69982143D01*
X189604600Y-69982143D02*
X189652219Y-70083333D01*
X189652219Y-70083333D02*
X189652219Y-70226191D01*
X189652219Y-69464286D02*
X188985552Y-69380952D01*
X189176028Y-69404762D02*
X189080790Y-69345238D01*
X189080790Y-69345238D02*
X189033171Y-69291667D01*
X189033171Y-69291667D02*
X188985552Y-69190476D01*
X188985552Y-69190476D02*
X188985552Y-69095238D01*
X189747457Y-69095238D02*
X189747457Y-68333333D01*
X189652219Y-68083333D02*
X188652219Y-67958333D01*
X188652219Y-67958333D02*
X188652219Y-67720237D01*
X188652219Y-67720237D02*
X188699838Y-67583333D01*
X188699838Y-67583333D02*
X188795076Y-67499999D01*
X188795076Y-67499999D02*
X188890314Y-67464285D01*
X188890314Y-67464285D02*
X189080790Y-67440476D01*
X189080790Y-67440476D02*
X189223647Y-67458333D01*
X189223647Y-67458333D02*
X189414123Y-67529761D01*
X189414123Y-67529761D02*
X189509361Y-67589285D01*
X189509361Y-67589285D02*
X189604600Y-67696428D01*
X189604600Y-67696428D02*
X189652219Y-67845237D01*
X189652219Y-67845237D02*
X189652219Y-68083333D01*
X189652219Y-67083333D02*
X188985552Y-66999999D01*
X189176028Y-67023809D02*
X189080790Y-66964285D01*
X189080790Y-66964285D02*
X189033171Y-66910714D01*
X189033171Y-66910714D02*
X188985552Y-66809523D01*
X188985552Y-66809523D02*
X188985552Y-66714285D01*
X189652219Y-66464285D02*
X188985552Y-66380951D01*
X188652219Y-66339285D02*
X188699838Y-66392856D01*
X188699838Y-66392856D02*
X188747457Y-66351189D01*
X188747457Y-66351189D02*
X188699838Y-66297618D01*
X188699838Y-66297618D02*
X188652219Y-66339285D01*
X188652219Y-66339285D02*
X188747457Y-66351189D01*
X188985552Y-65999999D02*
X189652219Y-65845238D01*
X189652219Y-65845238D02*
X188985552Y-65523809D01*
X189604600Y-64839285D02*
X189652219Y-64940475D01*
X189652219Y-64940475D02*
X189652219Y-65130952D01*
X189652219Y-65130952D02*
X189604600Y-65220237D01*
X189604600Y-65220237D02*
X189509361Y-65255952D01*
X189509361Y-65255952D02*
X189128409Y-65208333D01*
X189128409Y-65208333D02*
X189033171Y-65148809D01*
X189033171Y-65148809D02*
X188985552Y-65047618D01*
X188985552Y-65047618D02*
X188985552Y-64857142D01*
X188985552Y-64857142D02*
X189033171Y-64767856D01*
X189033171Y-64767856D02*
X189128409Y-64732142D01*
X189128409Y-64732142D02*
X189223647Y-64744047D01*
X189223647Y-64744047D02*
X189318885Y-65232142D01*
X189652219Y-64369047D02*
X188985552Y-64285713D01*
X189176028Y-64309523D02*
X189080790Y-64249999D01*
X189080790Y-64249999D02*
X189033171Y-64196428D01*
X189033171Y-64196428D02*
X188985552Y-64095237D01*
X188985552Y-64095237D02*
X188985552Y-63999999D01*
X189652219Y-63226189D02*
X189652219Y-63797618D01*
X189652219Y-63511903D02*
X188652219Y-63386903D01*
X188652219Y-63386903D02*
X188795076Y-63499999D01*
X188795076Y-63499999D02*
X188890314Y-63607142D01*
X188890314Y-63607142D02*
X188937933Y-63708332D01*
X189652219Y-93238096D02*
X188652219Y-93113096D01*
X188652219Y-93113096D02*
X189366504Y-92869048D01*
X189366504Y-92869048D02*
X188652219Y-92446429D01*
X188652219Y-92446429D02*
X189652219Y-92571429D01*
X189652219Y-91952382D02*
X189604600Y-92041667D01*
X189604600Y-92041667D02*
X189556980Y-92083334D01*
X189556980Y-92083334D02*
X189461742Y-92119048D01*
X189461742Y-92119048D02*
X189176028Y-92083334D01*
X189176028Y-92083334D02*
X189080790Y-92023810D01*
X189080790Y-92023810D02*
X189033171Y-91970239D01*
X189033171Y-91970239D02*
X188985552Y-91869048D01*
X188985552Y-91869048D02*
X188985552Y-91726191D01*
X188985552Y-91726191D02*
X189033171Y-91636905D01*
X189033171Y-91636905D02*
X189080790Y-91595239D01*
X189080790Y-91595239D02*
X189176028Y-91559524D01*
X189176028Y-91559524D02*
X189461742Y-91595239D01*
X189461742Y-91595239D02*
X189556980Y-91654762D01*
X189556980Y-91654762D02*
X189604600Y-91708334D01*
X189604600Y-91708334D02*
X189652219Y-91809524D01*
X189652219Y-91809524D02*
X189652219Y-91952382D01*
X188985552Y-91250000D02*
X188985552Y-90869048D01*
X188652219Y-91065477D02*
X189509361Y-91172620D01*
X189509361Y-91172620D02*
X189604600Y-91136905D01*
X189604600Y-91136905D02*
X189652219Y-91047620D01*
X189652219Y-91047620D02*
X189652219Y-90952381D01*
X189652219Y-90476191D02*
X189604600Y-90565476D01*
X189604600Y-90565476D02*
X189556980Y-90607143D01*
X189556980Y-90607143D02*
X189461742Y-90642857D01*
X189461742Y-90642857D02*
X189176028Y-90607143D01*
X189176028Y-90607143D02*
X189080790Y-90547619D01*
X189080790Y-90547619D02*
X189033171Y-90494048D01*
X189033171Y-90494048D02*
X188985552Y-90392857D01*
X188985552Y-90392857D02*
X188985552Y-90250000D01*
X188985552Y-90250000D02*
X189033171Y-90160714D01*
X189033171Y-90160714D02*
X189080790Y-90119048D01*
X189080790Y-90119048D02*
X189176028Y-90083333D01*
X189176028Y-90083333D02*
X189461742Y-90119048D01*
X189461742Y-90119048D02*
X189556980Y-90178571D01*
X189556980Y-90178571D02*
X189604600Y-90232143D01*
X189604600Y-90232143D02*
X189652219Y-90333333D01*
X189652219Y-90333333D02*
X189652219Y-90476191D01*
X189652219Y-89714286D02*
X188985552Y-89630952D01*
X189176028Y-89654762D02*
X189080790Y-89595238D01*
X189080790Y-89595238D02*
X189033171Y-89541667D01*
X189033171Y-89541667D02*
X188985552Y-89440476D01*
X188985552Y-89440476D02*
X188985552Y-89345238D01*
X189747457Y-89345238D02*
X189747457Y-88583333D01*
X189652219Y-88333333D02*
X188652219Y-88208333D01*
X188652219Y-88208333D02*
X188652219Y-87970237D01*
X188652219Y-87970237D02*
X188699838Y-87833333D01*
X188699838Y-87833333D02*
X188795076Y-87749999D01*
X188795076Y-87749999D02*
X188890314Y-87714285D01*
X188890314Y-87714285D02*
X189080790Y-87690476D01*
X189080790Y-87690476D02*
X189223647Y-87708333D01*
X189223647Y-87708333D02*
X189414123Y-87779761D01*
X189414123Y-87779761D02*
X189509361Y-87839285D01*
X189509361Y-87839285D02*
X189604600Y-87946428D01*
X189604600Y-87946428D02*
X189652219Y-88095237D01*
X189652219Y-88095237D02*
X189652219Y-88333333D01*
X189652219Y-87333333D02*
X188985552Y-87249999D01*
X189176028Y-87273809D02*
X189080790Y-87214285D01*
X189080790Y-87214285D02*
X189033171Y-87160714D01*
X189033171Y-87160714D02*
X188985552Y-87059523D01*
X188985552Y-87059523D02*
X188985552Y-86964285D01*
X189652219Y-86714285D02*
X188985552Y-86630951D01*
X188652219Y-86589285D02*
X188699838Y-86642856D01*
X188699838Y-86642856D02*
X188747457Y-86601189D01*
X188747457Y-86601189D02*
X188699838Y-86547618D01*
X188699838Y-86547618D02*
X188652219Y-86589285D01*
X188652219Y-86589285D02*
X188747457Y-86601189D01*
X188985552Y-86249999D02*
X189652219Y-86095238D01*
X189652219Y-86095238D02*
X188985552Y-85773809D01*
X189604600Y-85089285D02*
X189652219Y-85190475D01*
X189652219Y-85190475D02*
X189652219Y-85380952D01*
X189652219Y-85380952D02*
X189604600Y-85470237D01*
X189604600Y-85470237D02*
X189509361Y-85505952D01*
X189509361Y-85505952D02*
X189128409Y-85458333D01*
X189128409Y-85458333D02*
X189033171Y-85398809D01*
X189033171Y-85398809D02*
X188985552Y-85297618D01*
X188985552Y-85297618D02*
X188985552Y-85107142D01*
X188985552Y-85107142D02*
X189033171Y-85017856D01*
X189033171Y-85017856D02*
X189128409Y-84982142D01*
X189128409Y-84982142D02*
X189223647Y-84994047D01*
X189223647Y-84994047D02*
X189318885Y-85482142D01*
X189652219Y-84619047D02*
X188985552Y-84535713D01*
X189176028Y-84559523D02*
X189080790Y-84499999D01*
X189080790Y-84499999D02*
X189033171Y-84446428D01*
X189033171Y-84446428D02*
X188985552Y-84345237D01*
X188985552Y-84345237D02*
X188985552Y-84249999D01*
X188652219Y-83970237D02*
X188652219Y-83351189D01*
X188652219Y-83351189D02*
X189033171Y-83732142D01*
X189033171Y-83732142D02*
X189033171Y-83589284D01*
X189033171Y-83589284D02*
X189080790Y-83499999D01*
X189080790Y-83499999D02*
X189128409Y-83458332D01*
X189128409Y-83458332D02*
X189223647Y-83422618D01*
X189223647Y-83422618D02*
X189461742Y-83452380D01*
X189461742Y-83452380D02*
X189556980Y-83511903D01*
X189556980Y-83511903D02*
X189604600Y-83565475D01*
X189604600Y-83565475D02*
X189652219Y-83666665D01*
X189652219Y-83666665D02*
X189652219Y-83952380D01*
X189652219Y-83952380D02*
X189604600Y-84041665D01*
X189604600Y-84041665D02*
X189556980Y-84083332D01*
X192335714Y-119427219D02*
X192246428Y-120141504D01*
X192246428Y-120141504D02*
X192180952Y-120284361D01*
X192180952Y-120284361D02*
X192073809Y-120379600D01*
X192073809Y-120379600D02*
X191924999Y-120427219D01*
X191924999Y-120427219D02*
X191829761Y-120427219D01*
X192752381Y-119522457D02*
X192805952Y-119474838D01*
X192805952Y-119474838D02*
X192907142Y-119427219D01*
X192907142Y-119427219D02*
X193145238Y-119427219D01*
X193145238Y-119427219D02*
X193234523Y-119474838D01*
X193234523Y-119474838D02*
X193276190Y-119522457D01*
X193276190Y-119522457D02*
X193311904Y-119617695D01*
X193311904Y-119617695D02*
X193300000Y-119712933D01*
X193300000Y-119712933D02*
X193234523Y-119855790D01*
X193234523Y-119855790D02*
X192591666Y-120427219D01*
X192591666Y-120427219D02*
X193210714Y-120427219D01*
X229856980Y-101485119D02*
X229904600Y-101538691D01*
X229904600Y-101538691D02*
X229952219Y-101687500D01*
X229952219Y-101687500D02*
X229952219Y-101782738D01*
X229952219Y-101782738D02*
X229904600Y-101919643D01*
X229904600Y-101919643D02*
X229809361Y-102002976D01*
X229809361Y-102002976D02*
X229714123Y-102038691D01*
X229714123Y-102038691D02*
X229523647Y-102062500D01*
X229523647Y-102062500D02*
X229380790Y-102044643D01*
X229380790Y-102044643D02*
X229190314Y-101973215D01*
X229190314Y-101973215D02*
X229095076Y-101913691D01*
X229095076Y-101913691D02*
X228999838Y-101806548D01*
X228999838Y-101806548D02*
X228952219Y-101657738D01*
X228952219Y-101657738D02*
X228952219Y-101562500D01*
X228952219Y-101562500D02*
X228999838Y-101425596D01*
X228999838Y-101425596D02*
X229047457Y-101383929D01*
X229285552Y-100556548D02*
X229952219Y-100639881D01*
X229285552Y-100985119D02*
X229809361Y-101050596D01*
X229809361Y-101050596D02*
X229904600Y-101014881D01*
X229904600Y-101014881D02*
X229952219Y-100925596D01*
X229952219Y-100925596D02*
X229952219Y-100782738D01*
X229952219Y-100782738D02*
X229904600Y-100681548D01*
X229904600Y-100681548D02*
X229856980Y-100627976D01*
X229952219Y-100163691D02*
X229285552Y-100080357D01*
X229476028Y-100104167D02*
X229380790Y-100044643D01*
X229380790Y-100044643D02*
X229333171Y-99991072D01*
X229333171Y-99991072D02*
X229285552Y-99889881D01*
X229285552Y-99889881D02*
X229285552Y-99794643D01*
X229952219Y-99544643D02*
X229285552Y-99461309D01*
X229476028Y-99485119D02*
X229380790Y-99425595D01*
X229380790Y-99425595D02*
X229333171Y-99372024D01*
X229333171Y-99372024D02*
X229285552Y-99270833D01*
X229285552Y-99270833D02*
X229285552Y-99175595D01*
X229904600Y-98538690D02*
X229952219Y-98639880D01*
X229952219Y-98639880D02*
X229952219Y-98830357D01*
X229952219Y-98830357D02*
X229904600Y-98919642D01*
X229904600Y-98919642D02*
X229809361Y-98955357D01*
X229809361Y-98955357D02*
X229428409Y-98907738D01*
X229428409Y-98907738D02*
X229333171Y-98848214D01*
X229333171Y-98848214D02*
X229285552Y-98747023D01*
X229285552Y-98747023D02*
X229285552Y-98556547D01*
X229285552Y-98556547D02*
X229333171Y-98467261D01*
X229333171Y-98467261D02*
X229428409Y-98431547D01*
X229428409Y-98431547D02*
X229523647Y-98443452D01*
X229523647Y-98443452D02*
X229618885Y-98931547D01*
X229285552Y-97985118D02*
X229952219Y-98068452D01*
X229380790Y-97997023D02*
X229333171Y-97943452D01*
X229333171Y-97943452D02*
X229285552Y-97842261D01*
X229285552Y-97842261D02*
X229285552Y-97699404D01*
X229285552Y-97699404D02*
X229333171Y-97610118D01*
X229333171Y-97610118D02*
X229428409Y-97574404D01*
X229428409Y-97574404D02*
X229952219Y-97639880D01*
X229285552Y-97223213D02*
X229285552Y-96842261D01*
X228952219Y-97038690D02*
X229809361Y-97145833D01*
X229809361Y-97145833D02*
X229904600Y-97110118D01*
X229904600Y-97110118D02*
X229952219Y-97020833D01*
X229952219Y-97020833D02*
X229952219Y-96925594D01*
X229904600Y-96633927D02*
X229952219Y-96497023D01*
X229952219Y-96497023D02*
X229952219Y-96258927D01*
X229952219Y-96258927D02*
X229904600Y-96157737D01*
X229904600Y-96157737D02*
X229856980Y-96104165D01*
X229856980Y-96104165D02*
X229761742Y-96044642D01*
X229761742Y-96044642D02*
X229666504Y-96032737D01*
X229666504Y-96032737D02*
X229571266Y-96068451D01*
X229571266Y-96068451D02*
X229523647Y-96110118D01*
X229523647Y-96110118D02*
X229476028Y-96199404D01*
X229476028Y-96199404D02*
X229428409Y-96383927D01*
X229428409Y-96383927D02*
X229380790Y-96473213D01*
X229380790Y-96473213D02*
X229333171Y-96514880D01*
X229333171Y-96514880D02*
X229237933Y-96550594D01*
X229237933Y-96550594D02*
X229142695Y-96538689D01*
X229142695Y-96538689D02*
X229047457Y-96479165D01*
X229047457Y-96479165D02*
X228999838Y-96425594D01*
X228999838Y-96425594D02*
X228952219Y-96324404D01*
X228952219Y-96324404D02*
X228952219Y-96086308D01*
X228952219Y-96086308D02*
X228999838Y-95949404D01*
X229904600Y-95252975D02*
X229952219Y-95354165D01*
X229952219Y-95354165D02*
X229952219Y-95544642D01*
X229952219Y-95544642D02*
X229904600Y-95633927D01*
X229904600Y-95633927D02*
X229809361Y-95669642D01*
X229809361Y-95669642D02*
X229428409Y-95622023D01*
X229428409Y-95622023D02*
X229333171Y-95562499D01*
X229333171Y-95562499D02*
X229285552Y-95461308D01*
X229285552Y-95461308D02*
X229285552Y-95270832D01*
X229285552Y-95270832D02*
X229333171Y-95181546D01*
X229333171Y-95181546D02*
X229428409Y-95145832D01*
X229428409Y-95145832D02*
X229523647Y-95157737D01*
X229523647Y-95157737D02*
X229618885Y-95645832D01*
X229285552Y-94699403D02*
X229952219Y-94782737D01*
X229380790Y-94711308D02*
X229333171Y-94657737D01*
X229333171Y-94657737D02*
X229285552Y-94556546D01*
X229285552Y-94556546D02*
X229285552Y-94413689D01*
X229285552Y-94413689D02*
X229333171Y-94324403D01*
X229333171Y-94324403D02*
X229428409Y-94288689D01*
X229428409Y-94288689D02*
X229952219Y-94354165D01*
X229904600Y-93919641D02*
X229952219Y-93830356D01*
X229952219Y-93830356D02*
X229952219Y-93639879D01*
X229952219Y-93639879D02*
X229904600Y-93538689D01*
X229904600Y-93538689D02*
X229809361Y-93479165D01*
X229809361Y-93479165D02*
X229761742Y-93473213D01*
X229761742Y-93473213D02*
X229666504Y-93508927D01*
X229666504Y-93508927D02*
X229618885Y-93598213D01*
X229618885Y-93598213D02*
X229618885Y-93741070D01*
X229618885Y-93741070D02*
X229571266Y-93830356D01*
X229571266Y-93830356D02*
X229476028Y-93866070D01*
X229476028Y-93866070D02*
X229428409Y-93860118D01*
X229428409Y-93860118D02*
X229333171Y-93800594D01*
X229333171Y-93800594D02*
X229285552Y-93699403D01*
X229285552Y-93699403D02*
X229285552Y-93556546D01*
X229285552Y-93556546D02*
X229333171Y-93467260D01*
X229952219Y-92925594D02*
X229904600Y-93014879D01*
X229904600Y-93014879D02*
X229856980Y-93056546D01*
X229856980Y-93056546D02*
X229761742Y-93092260D01*
X229761742Y-93092260D02*
X229476028Y-93056546D01*
X229476028Y-93056546D02*
X229380790Y-92997022D01*
X229380790Y-92997022D02*
X229333171Y-92943451D01*
X229333171Y-92943451D02*
X229285552Y-92842260D01*
X229285552Y-92842260D02*
X229285552Y-92699403D01*
X229285552Y-92699403D02*
X229333171Y-92610117D01*
X229333171Y-92610117D02*
X229380790Y-92568451D01*
X229380790Y-92568451D02*
X229476028Y-92532736D01*
X229476028Y-92532736D02*
X229761742Y-92568451D01*
X229761742Y-92568451D02*
X229856980Y-92627974D01*
X229856980Y-92627974D02*
X229904600Y-92681546D01*
X229904600Y-92681546D02*
X229952219Y-92782736D01*
X229952219Y-92782736D02*
X229952219Y-92925594D01*
X229952219Y-92163689D02*
X229285552Y-92080355D01*
X229476028Y-92104165D02*
X229380790Y-92044641D01*
X229380790Y-92044641D02*
X229333171Y-91991070D01*
X229333171Y-91991070D02*
X229285552Y-91889879D01*
X229285552Y-91889879D02*
X229285552Y-91794641D01*
X229047457Y-91479164D02*
X228999838Y-91425593D01*
X228999838Y-91425593D02*
X228952219Y-91324403D01*
X228952219Y-91324403D02*
X228952219Y-91086307D01*
X228952219Y-91086307D02*
X228999838Y-90997022D01*
X228999838Y-90997022D02*
X229047457Y-90955355D01*
X229047457Y-90955355D02*
X229142695Y-90919641D01*
X229142695Y-90919641D02*
X229237933Y-90931545D01*
X229237933Y-90931545D02*
X229380790Y-90997022D01*
X229380790Y-90997022D02*
X229952219Y-91639879D01*
X229952219Y-91639879D02*
X229952219Y-91020831D01*
D13*
X236240000Y-88277500D02*
X236240000Y-100897500D01*
X236240000Y-100897500D02*
X242210000Y-100897500D01*
X237000000Y-89037500D02*
X237000000Y-94587500D01*
X237000000Y-100137500D02*
X237000000Y-94587500D01*
X239950000Y-88287500D02*
X239950000Y-89037500D01*
X239950000Y-89037500D02*
X237000000Y-89037500D01*
X239950000Y-100137500D02*
X237000000Y-100137500D01*
X239950000Y-100887500D02*
X239950000Y-100137500D01*
X241450000Y-88287500D02*
X241450000Y-90087500D01*
X241450000Y-90087500D02*
X242200000Y-90087500D01*
X241450000Y-91587500D02*
X241450000Y-97587500D01*
X241450000Y-97587500D02*
X242200000Y-97587500D01*
X241450000Y-99087500D02*
X241450000Y-100887500D01*
X241450000Y-100887500D02*
X242200000Y-100887500D01*
X242200000Y-88287500D02*
X241450000Y-88287500D01*
X242200000Y-90087500D02*
X242200000Y-88287500D01*
X242200000Y-91587500D02*
X241450000Y-91587500D01*
X242200000Y-97587500D02*
X242200000Y-91587500D01*
X242200000Y-99087500D02*
X241450000Y-99087500D01*
X242200000Y-100887500D02*
X242200000Y-99087500D01*
X242210000Y-88277500D02*
X236240000Y-88277500D01*
X242210000Y-100897500D02*
X242210000Y-88277500D01*
X242500000Y-87987500D02*
X241250000Y-87987500D01*
X242500000Y-89237500D02*
X242500000Y-87987500D01*
X177500000Y-121075000D02*
X177500000Y-122325000D01*
X177500000Y-122325000D02*
X178750000Y-122325000D01*
X177790000Y-109415000D02*
X177790000Y-122035000D01*
X177790000Y-122035000D02*
X183760000Y-122035000D01*
X177800000Y-109425000D02*
X177800000Y-111225000D01*
X177800000Y-111225000D02*
X178550000Y-111225000D01*
X177800000Y-112725000D02*
X177800000Y-118725000D01*
X177800000Y-118725000D02*
X178550000Y-118725000D01*
X177800000Y-120225000D02*
X177800000Y-122025000D01*
X177800000Y-122025000D02*
X178550000Y-122025000D01*
X178550000Y-109425000D02*
X177800000Y-109425000D01*
X178550000Y-111225000D02*
X178550000Y-109425000D01*
X178550000Y-112725000D02*
X177800000Y-112725000D01*
X178550000Y-118725000D02*
X178550000Y-112725000D01*
X178550000Y-120225000D02*
X177800000Y-120225000D01*
X178550000Y-122025000D02*
X178550000Y-120225000D01*
X180050000Y-109425000D02*
X180050000Y-110175000D01*
X180050000Y-110175000D02*
X183000000Y-110175000D01*
X180050000Y-121275000D02*
X183000000Y-121275000D01*
X180050000Y-122025000D02*
X180050000Y-121275000D01*
X183000000Y-110175000D02*
X183000000Y-115725000D01*
X183000000Y-121275000D02*
X183000000Y-115725000D01*
X183760000Y-109415000D02*
X177790000Y-109415000D01*
X183760000Y-122035000D02*
X183760000Y-109415000D01*
D12*
X200490000Y-62750000D02*
X218270000Y-62750000D01*
X200490000Y-123710000D02*
X200490000Y-62750000D01*
X203030000Y-85610000D02*
X203030000Y-98310000D01*
X203030000Y-98310000D02*
X215730000Y-98310000D01*
X203030000Y-111010000D02*
X203030000Y-123710000D01*
X203540800Y-69049200D02*
X206080800Y-69049200D01*
X203540800Y-81749200D02*
X203540800Y-69049200D01*
X204300000Y-122440000D02*
X204300000Y-123710000D01*
X205570000Y-61480000D02*
X213190000Y-61480000D01*
X205570000Y-62750000D02*
X205570000Y-61480000D01*
X205570000Y-67830000D02*
X205570000Y-62750000D01*
X205570000Y-67830000D02*
X213190000Y-67830000D01*
X206080800Y-69049200D02*
X206080800Y-71589200D01*
X206080800Y-69049200D02*
X206080800Y-81749200D01*
X206080800Y-71589200D02*
X203540800Y-71589200D01*
X206080800Y-81749200D02*
X203540800Y-81749200D01*
X208110000Y-103390000D02*
X210650000Y-103390000D01*
X208110000Y-107200000D02*
X208110000Y-103390000D01*
X209481600Y-75980000D02*
X209481600Y-79980000D01*
X209481600Y-79980000D02*
X215731600Y-79980000D01*
X210650000Y-103390000D02*
X210650000Y-107200000D01*
X210650000Y-107200000D02*
X208110000Y-107200000D01*
X213190000Y-61480000D02*
X213190000Y-62750000D01*
X213190000Y-67830000D02*
X213190000Y-62750000D01*
X214460000Y-122440000D02*
X204300000Y-122440000D01*
X214460000Y-123710000D02*
X214460000Y-122440000D01*
X215481600Y-75980000D02*
X209481600Y-75980000D01*
X215730000Y-85610000D02*
X203030000Y-85610000D01*
X215730000Y-98310000D02*
X215730000Y-85610000D01*
X215730000Y-111010000D02*
X203030000Y-111010000D01*
X215730000Y-123710000D02*
X215730000Y-111010000D01*
X215731600Y-75980000D02*
X215481600Y-75980000D01*
X215731600Y-79980000D02*
X215731600Y-75980000D01*
X218270000Y-62750000D02*
X218270000Y-123710000D01*
X218270000Y-123710000D02*
X200490000Y-123710000D01*
X210278026Y-105295000D02*
G75*
G02*
X208481974Y-105295000I-898026J0D01*
G01*
X208481974Y-105295000D02*
G75*
G02*
X210278026Y-105295000I898026J0D01*
G01*
D14*
X209306000Y-95411000D02*
X208925000Y-95665000D01*
X208671000Y-95411000D01*
X209052000Y-95157000D01*
X209306000Y-95411000D01*
G36*
X209306000Y-95411000D02*
G01*
X208925000Y-95665000D01*
X208671000Y-95411000D01*
X209052000Y-95157000D01*
X209306000Y-95411000D01*
G37*
X209433000Y-94649000D02*
X209052000Y-94903000D01*
X208798000Y-94649000D01*
X209179000Y-94395000D01*
X209433000Y-94649000D01*
G36*
X209433000Y-94649000D02*
G01*
X209052000Y-94903000D01*
X208798000Y-94649000D01*
X209179000Y-94395000D01*
X209433000Y-94649000D01*
G37*
X209687000Y-95792000D02*
X209306000Y-96046000D01*
X209052000Y-95792000D01*
X209433000Y-95538000D01*
X209687000Y-95792000D01*
G36*
X209687000Y-95792000D02*
G01*
X209306000Y-96046000D01*
X209052000Y-95792000D01*
X209433000Y-95538000D01*
X209687000Y-95792000D01*
G37*
X209814000Y-95030000D02*
X209433000Y-95284000D01*
X209179000Y-95030000D01*
X209560000Y-94776000D01*
X209814000Y-95030000D01*
G36*
X209814000Y-95030000D02*
G01*
X209433000Y-95284000D01*
X209179000Y-95030000D01*
X209560000Y-94776000D01*
X209814000Y-95030000D01*
G37*
X209941000Y-94268000D02*
X209560000Y-94522000D01*
X209306000Y-94268000D01*
X209687000Y-94014000D01*
X209941000Y-94268000D01*
G36*
X209941000Y-94268000D02*
G01*
X209560000Y-94522000D01*
X209306000Y-94268000D01*
X209687000Y-94014000D01*
X209941000Y-94268000D01*
G37*
X210068000Y-96173000D02*
X209687000Y-96427000D01*
X209433000Y-96173000D01*
X209814000Y-95919000D01*
X210068000Y-96173000D01*
G36*
X210068000Y-96173000D02*
G01*
X209687000Y-96427000D01*
X209433000Y-96173000D01*
X209814000Y-95919000D01*
X210068000Y-96173000D01*
G37*
X210322000Y-94649000D02*
X209941000Y-94903000D01*
X209687000Y-94649000D01*
X210068000Y-94395000D01*
X210322000Y-94649000D01*
G36*
X210322000Y-94649000D02*
G01*
X209941000Y-94903000D01*
X209687000Y-94649000D01*
X210068000Y-94395000D01*
X210322000Y-94649000D01*
G37*
X210449000Y-93887000D02*
X210068000Y-94141000D01*
X209814000Y-93887000D01*
X210195000Y-93633000D01*
X210449000Y-93887000D01*
G36*
X210449000Y-93887000D02*
G01*
X210068000Y-94141000D01*
X209814000Y-93887000D01*
X210195000Y-93633000D01*
X210449000Y-93887000D01*
G37*
D13*
X236240000Y-110490000D02*
X236240000Y-123110000D01*
X236240000Y-123110000D02*
X242210000Y-123110000D01*
X237000000Y-111250000D02*
X237000000Y-116800000D01*
X237000000Y-122350000D02*
X237000000Y-116800000D01*
X239950000Y-110500000D02*
X239950000Y-111250000D01*
X239950000Y-111250000D02*
X237000000Y-111250000D01*
X239950000Y-122350000D02*
X237000000Y-122350000D01*
X239950000Y-123100000D02*
X239950000Y-122350000D01*
X241450000Y-110500000D02*
X241450000Y-112300000D01*
X241450000Y-112300000D02*
X242200000Y-112300000D01*
X241450000Y-113800000D02*
X241450000Y-119800000D01*
X241450000Y-119800000D02*
X242200000Y-119800000D01*
X241450000Y-121300000D02*
X241450000Y-123100000D01*
X241450000Y-123100000D02*
X242200000Y-123100000D01*
X242200000Y-110500000D02*
X241450000Y-110500000D01*
X242200000Y-112300000D02*
X242200000Y-110500000D01*
X242200000Y-113800000D02*
X241450000Y-113800000D01*
X242200000Y-119800000D02*
X242200000Y-113800000D01*
X242200000Y-121300000D02*
X241450000Y-121300000D01*
X242200000Y-123100000D02*
X242200000Y-121300000D01*
X242210000Y-110490000D02*
X236240000Y-110490000D01*
X242210000Y-123110000D02*
X242210000Y-110490000D01*
X242500000Y-110200000D02*
X241250000Y-110200000D01*
X242500000Y-111450000D02*
X242500000Y-110200000D01*
X236465000Y-68240000D02*
X236465000Y-80860000D01*
X236465000Y-80860000D02*
X242435000Y-80860000D01*
X237225000Y-69000000D02*
X237225000Y-74550000D01*
X237225000Y-80100000D02*
X237225000Y-74550000D01*
X240175000Y-68250000D02*
X240175000Y-69000000D01*
X240175000Y-69000000D02*
X237225000Y-69000000D01*
X240175000Y-80100000D02*
X237225000Y-80100000D01*
X240175000Y-80850000D02*
X240175000Y-80100000D01*
X241675000Y-68250000D02*
X241675000Y-70050000D01*
X241675000Y-70050000D02*
X242425000Y-70050000D01*
X241675000Y-71550000D02*
X241675000Y-77550000D01*
X241675000Y-77550000D02*
X242425000Y-77550000D01*
X241675000Y-79050000D02*
X241675000Y-80850000D01*
X241675000Y-80850000D02*
X242425000Y-80850000D01*
X242425000Y-68250000D02*
X241675000Y-68250000D01*
X242425000Y-70050000D02*
X242425000Y-68250000D01*
X242425000Y-71550000D02*
X241675000Y-71550000D01*
X242425000Y-77550000D02*
X242425000Y-71550000D01*
X242425000Y-79050000D02*
X241675000Y-79050000D01*
X242425000Y-80850000D02*
X242425000Y-79050000D01*
X242435000Y-68240000D02*
X236465000Y-68240000D01*
X242435000Y-80860000D02*
X242435000Y-68240000D01*
X242725000Y-67950000D02*
X241475000Y-67950000D01*
X242725000Y-69200000D02*
X242725000Y-67950000D01*
X222440000Y-73015000D02*
X222440000Y-85635000D01*
X222440000Y-85635000D02*
X228410000Y-85635000D01*
X223200000Y-73775000D02*
X223200000Y-79325000D01*
X223200000Y-84875000D02*
X223200000Y-79325000D01*
X226150000Y-73025000D02*
X226150000Y-73775000D01*
X226150000Y-73775000D02*
X223200000Y-73775000D01*
X226150000Y-84875000D02*
X223200000Y-84875000D01*
X226150000Y-85625000D02*
X226150000Y-84875000D01*
X227650000Y-73025000D02*
X227650000Y-74825000D01*
X227650000Y-74825000D02*
X228400000Y-74825000D01*
X227650000Y-76325000D02*
X227650000Y-82325000D01*
X227650000Y-82325000D02*
X228400000Y-82325000D01*
X227650000Y-83825000D02*
X227650000Y-85625000D01*
X227650000Y-85625000D02*
X228400000Y-85625000D01*
X228400000Y-73025000D02*
X227650000Y-73025000D01*
X228400000Y-74825000D02*
X228400000Y-73025000D01*
X228400000Y-76325000D02*
X227650000Y-76325000D01*
X228400000Y-82325000D02*
X228400000Y-76325000D01*
X228400000Y-83825000D02*
X227650000Y-83825000D01*
X228400000Y-85625000D02*
X228400000Y-83825000D01*
X228410000Y-73015000D02*
X222440000Y-73015000D01*
X228410000Y-85635000D02*
X228410000Y-73015000D01*
X228700000Y-72725000D02*
X227450000Y-72725000D01*
X228700000Y-73975000D02*
X228700000Y-72725000D01*
X190000000Y-115225000D02*
X190000000Y-116475000D01*
X190000000Y-116475000D02*
X191250000Y-116475000D01*
X190290000Y-103565000D02*
X190290000Y-116185000D01*
X190290000Y-116185000D02*
X196260000Y-116185000D01*
X190300000Y-103575000D02*
X190300000Y-105375000D01*
X190300000Y-105375000D02*
X191050000Y-105375000D01*
X190300000Y-106875000D02*
X190300000Y-112875000D01*
X190300000Y-112875000D02*
X191050000Y-112875000D01*
X190300000Y-114375000D02*
X190300000Y-116175000D01*
X190300000Y-116175000D02*
X191050000Y-116175000D01*
X191050000Y-103575000D02*
X190300000Y-103575000D01*
X191050000Y-105375000D02*
X191050000Y-103575000D01*
X191050000Y-106875000D02*
X190300000Y-106875000D01*
X191050000Y-112875000D02*
X191050000Y-106875000D01*
X191050000Y-114375000D02*
X190300000Y-114375000D01*
X191050000Y-116175000D02*
X191050000Y-114375000D01*
X192550000Y-103575000D02*
X192550000Y-104325000D01*
X192550000Y-104325000D02*
X195500000Y-104325000D01*
X192550000Y-115425000D02*
X195500000Y-115425000D01*
X192550000Y-116175000D02*
X192550000Y-115425000D01*
X195500000Y-104325000D02*
X195500000Y-109875000D01*
X195500000Y-115425000D02*
X195500000Y-109875000D01*
X196260000Y-103565000D02*
X190290000Y-103565000D01*
X196260000Y-116185000D02*
X196260000Y-103565000D01*
X221920000Y-61565000D02*
X221920000Y-69185000D01*
X221920000Y-69185000D02*
X232080000Y-69185000D01*
X232080000Y-61565000D02*
X221920000Y-61565000D01*
X232080000Y-67915000D02*
X221920000Y-67915000D01*
X232080000Y-69185000D02*
X232080000Y-61565000D01*
X222150000Y-119100000D02*
X222150000Y-120350000D01*
X222150000Y-120350000D02*
X223400000Y-120350000D01*
X222440000Y-107440000D02*
X222440000Y-120060000D01*
X222440000Y-120060000D02*
X228410000Y-120060000D01*
X222450000Y-107450000D02*
X222450000Y-109250000D01*
X222450000Y-109250000D02*
X223200000Y-109250000D01*
X222450000Y-110750000D02*
X222450000Y-116750000D01*
X222450000Y-116750000D02*
X223200000Y-116750000D01*
X222450000Y-118250000D02*
X222450000Y-120050000D01*
X222450000Y-120050000D02*
X223200000Y-120050000D01*
X223200000Y-107450000D02*
X222450000Y-107450000D01*
X223200000Y-109250000D02*
X223200000Y-107450000D01*
X223200000Y-110750000D02*
X222450000Y-110750000D01*
X223200000Y-116750000D02*
X223200000Y-110750000D01*
X223200000Y-118250000D02*
X222450000Y-118250000D01*
X223200000Y-120050000D02*
X223200000Y-118250000D01*
X224700000Y-107450000D02*
X224700000Y-108200000D01*
X224700000Y-108200000D02*
X227650000Y-108200000D01*
X224700000Y-119300000D02*
X227650000Y-119300000D01*
X224700000Y-120050000D02*
X224700000Y-119300000D01*
X227650000Y-108200000D02*
X227650000Y-113750000D01*
X227650000Y-119300000D02*
X227650000Y-113750000D01*
X228410000Y-107440000D02*
X222440000Y-107440000D01*
X228410000Y-120060000D02*
X228410000Y-107440000D01*
X177475000Y-80100000D02*
X177475000Y-81350000D01*
X177475000Y-81350000D02*
X178725000Y-81350000D01*
X177765000Y-70940000D02*
X177765000Y-81060000D01*
X177765000Y-81060000D02*
X183735000Y-81060000D01*
X177775000Y-70950000D02*
X177775000Y-72750000D01*
X177775000Y-72750000D02*
X178525000Y-72750000D01*
X177775000Y-74250000D02*
X177775000Y-77750000D01*
X177775000Y-77750000D02*
X178525000Y-77750000D01*
X177775000Y-79250000D02*
X177775000Y-81050000D01*
X177775000Y-81050000D02*
X178525000Y-81050000D01*
X178525000Y-70950000D02*
X177775000Y-70950000D01*
X178525000Y-72750000D02*
X178525000Y-70950000D01*
X178525000Y-74250000D02*
X177775000Y-74250000D01*
X178525000Y-77750000D02*
X178525000Y-74250000D01*
X178525000Y-79250000D02*
X177775000Y-79250000D01*
X178525000Y-81050000D02*
X178525000Y-79250000D01*
X180025000Y-70950000D02*
X180025000Y-71700000D01*
X180025000Y-71700000D02*
X182975000Y-71700000D01*
X180025000Y-80300000D02*
X182975000Y-80300000D01*
X180025000Y-81050000D02*
X180025000Y-80300000D01*
X182975000Y-71700000D02*
X182975000Y-76000000D01*
X182975000Y-80300000D02*
X182975000Y-76000000D01*
X183735000Y-70940000D02*
X177765000Y-70940000D01*
X183735000Y-81060000D02*
X183735000Y-70940000D01*
X177765000Y-89440000D02*
X177765000Y-102060000D01*
X177765000Y-102060000D02*
X183735000Y-102060000D01*
X178525000Y-90200000D02*
X178525000Y-95750000D01*
X178525000Y-101300000D02*
X178525000Y-95750000D01*
X181475000Y-89450000D02*
X181475000Y-90200000D01*
X181475000Y-90200000D02*
X178525000Y-90200000D01*
X181475000Y-101300000D02*
X178525000Y-101300000D01*
X181475000Y-102050000D02*
X181475000Y-101300000D01*
X182975000Y-89450000D02*
X182975000Y-91250000D01*
X182975000Y-91250000D02*
X183725000Y-91250000D01*
X182975000Y-92750000D02*
X182975000Y-98750000D01*
X182975000Y-98750000D02*
X183725000Y-98750000D01*
X182975000Y-100250000D02*
X182975000Y-102050000D01*
X182975000Y-102050000D02*
X183725000Y-102050000D01*
X183725000Y-89450000D02*
X182975000Y-89450000D01*
X183725000Y-91250000D02*
X183725000Y-89450000D01*
X183725000Y-92750000D02*
X182975000Y-92750000D01*
X183725000Y-98750000D02*
X183725000Y-92750000D01*
X183725000Y-100250000D02*
X182975000Y-100250000D01*
X183725000Y-102050000D02*
X183725000Y-100250000D01*
X183735000Y-89440000D02*
X177765000Y-89440000D01*
X183735000Y-102060000D02*
X183735000Y-89440000D01*
X184025000Y-89150000D02*
X182775000Y-89150000D01*
X184025000Y-90400000D02*
X184025000Y-89150000D01*
X190000000Y-72225000D02*
X190000000Y-73475000D01*
X190000000Y-73475000D02*
X191250000Y-73475000D01*
X190290000Y-63065000D02*
X190290000Y-73185000D01*
X190290000Y-73185000D02*
X196260000Y-73185000D01*
X190300000Y-63075000D02*
X190300000Y-64875000D01*
X190300000Y-64875000D02*
X191050000Y-64875000D01*
X190300000Y-66375000D02*
X190300000Y-69875000D01*
X190300000Y-69875000D02*
X191050000Y-69875000D01*
X190300000Y-71375000D02*
X190300000Y-73175000D01*
X190300000Y-73175000D02*
X191050000Y-73175000D01*
X191050000Y-63075000D02*
X190300000Y-63075000D01*
X191050000Y-64875000D02*
X191050000Y-63075000D01*
X191050000Y-66375000D02*
X190300000Y-66375000D01*
X191050000Y-69875000D02*
X191050000Y-66375000D01*
X191050000Y-71375000D02*
X190300000Y-71375000D01*
X191050000Y-73175000D02*
X191050000Y-71375000D01*
X192550000Y-63075000D02*
X192550000Y-63825000D01*
X192550000Y-63825000D02*
X195500000Y-63825000D01*
X192550000Y-72425000D02*
X195500000Y-72425000D01*
X192550000Y-73175000D02*
X192550000Y-72425000D01*
X195500000Y-63825000D02*
X195500000Y-68125000D01*
X195500000Y-72425000D02*
X195500000Y-68125000D01*
X196260000Y-63065000D02*
X190290000Y-63065000D01*
X196260000Y-73185000D02*
X196260000Y-63065000D01*
X190000000Y-92475000D02*
X190000000Y-93725000D01*
X190000000Y-93725000D02*
X191250000Y-93725000D01*
X190290000Y-83315000D02*
X190290000Y-93435000D01*
X190290000Y-93435000D02*
X196260000Y-93435000D01*
X190300000Y-83325000D02*
X190300000Y-85125000D01*
X190300000Y-85125000D02*
X191050000Y-85125000D01*
X190300000Y-86625000D02*
X190300000Y-90125000D01*
X190300000Y-90125000D02*
X191050000Y-90125000D01*
X190300000Y-91625000D02*
X190300000Y-93425000D01*
X190300000Y-93425000D02*
X191050000Y-93425000D01*
X191050000Y-83325000D02*
X190300000Y-83325000D01*
X191050000Y-85125000D02*
X191050000Y-83325000D01*
X191050000Y-86625000D02*
X190300000Y-86625000D01*
X191050000Y-90125000D02*
X191050000Y-86625000D01*
X191050000Y-91625000D02*
X190300000Y-91625000D01*
X191050000Y-93425000D02*
X191050000Y-91625000D01*
X192550000Y-83325000D02*
X192550000Y-84075000D01*
X192550000Y-84075000D02*
X195500000Y-84075000D01*
X192550000Y-92675000D02*
X195500000Y-92675000D01*
X192550000Y-93425000D02*
X192550000Y-92675000D01*
X195500000Y-84075000D02*
X195500000Y-88375000D01*
X195500000Y-92675000D02*
X195500000Y-88375000D01*
X196260000Y-83315000D02*
X190290000Y-83315000D01*
X196260000Y-93435000D02*
X196260000Y-83315000D01*
X187420000Y-121165000D02*
X187420000Y-128785000D01*
X187420000Y-122435000D02*
X197580000Y-122435000D01*
X187420000Y-128785000D02*
X197580000Y-128785000D01*
X197580000Y-121165000D02*
X187420000Y-121165000D01*
X197580000Y-128785000D02*
X197580000Y-121165000D01*
X222150000Y-101887500D02*
X222150000Y-103137500D01*
X222150000Y-103137500D02*
X223400000Y-103137500D01*
X222440000Y-90227500D02*
X222440000Y-102847500D01*
X222440000Y-102847500D02*
X228410000Y-102847500D01*
X222450000Y-90237500D02*
X222450000Y-92037500D01*
X222450000Y-92037500D02*
X223200000Y-92037500D01*
X222450000Y-93537500D02*
X222450000Y-99537500D01*
X222450000Y-99537500D02*
X223200000Y-99537500D01*
X222450000Y-101037500D02*
X222450000Y-102837500D01*
X222450000Y-102837500D02*
X223200000Y-102837500D01*
X223200000Y-90237500D02*
X222450000Y-90237500D01*
X223200000Y-92037500D02*
X223200000Y-90237500D01*
X223200000Y-93537500D02*
X222450000Y-93537500D01*
X223200000Y-99537500D02*
X223200000Y-93537500D01*
X223200000Y-101037500D02*
X222450000Y-101037500D01*
X223200000Y-102837500D02*
X223200000Y-101037500D01*
X224700000Y-90237500D02*
X224700000Y-90987500D01*
X224700000Y-90987500D02*
X227650000Y-90987500D01*
X224700000Y-102087500D02*
X227650000Y-102087500D01*
X224700000Y-102837500D02*
X224700000Y-102087500D01*
X227650000Y-90987500D02*
X227650000Y-96537500D01*
X227650000Y-102087500D02*
X227650000Y-96537500D01*
X228410000Y-90227500D02*
X222440000Y-90227500D01*
X228410000Y-102847500D02*
X228410000Y-90227500D01*
%LPC*%
D15*
X178250000Y-64000000D03*
X178250000Y-127000000D03*
X241750000Y-64000000D03*
X241750000Y-127000000D03*
D16*
X239750000Y-90837500D03*
D17*
X239750000Y-93337500D03*
X239750000Y-95837500D03*
X239750000Y-98337500D03*
D18*
X180250000Y-119475000D03*
D17*
X180250000Y-116975000D03*
X180250000Y-114475000D03*
X180250000Y-111975000D03*
D19*
X201760000Y-64020000D03*
D20*
X201760000Y-66560000D03*
X201760000Y-69100000D03*
X201760000Y-71640000D03*
X201760000Y-74180000D03*
X201760000Y-76720000D03*
X201760000Y-79260000D03*
X201760000Y-81800000D03*
X201760000Y-84340000D03*
X201760000Y-86880000D03*
X201760000Y-89420000D03*
X201760000Y-91960000D03*
X201760000Y-94500000D03*
X201760000Y-97040000D03*
X201760000Y-99580000D03*
X201760000Y-102120000D03*
X201760000Y-104660000D03*
X201760000Y-107200000D03*
X201760000Y-109740000D03*
X201760000Y-112280000D03*
X201760000Y-114820000D03*
X201760000Y-117360000D03*
X201760000Y-119900000D03*
X201760000Y-122440000D03*
X217000000Y-122440000D03*
X217000000Y-119900000D03*
X217000000Y-117360000D03*
X217000000Y-114820000D03*
X217000000Y-112280000D03*
X217000000Y-109740000D03*
X217000000Y-107200000D03*
X217000000Y-104660000D03*
X217000000Y-102120000D03*
X217000000Y-99580000D03*
X217000000Y-97040000D03*
X217000000Y-94500000D03*
X217000000Y-91960000D03*
X217000000Y-89420000D03*
X217000000Y-86880000D03*
X217000000Y-84340000D03*
X217000000Y-81800000D03*
X217000000Y-79260000D03*
X217000000Y-76720000D03*
X217000000Y-74180000D03*
X217000000Y-71640000D03*
X217000000Y-69100000D03*
X217000000Y-66560000D03*
X217000000Y-64020000D03*
X214460000Y-66560000D03*
X204300000Y-109740000D03*
X206840000Y-109740000D03*
X209380000Y-109740000D03*
X211920000Y-109740000D03*
X214460000Y-109740000D03*
D19*
X204810800Y-70319200D03*
D20*
X204810800Y-72859200D03*
X204810800Y-75399200D03*
X204810800Y-77939200D03*
X204810800Y-80479200D03*
D21*
X214561600Y-76990000D03*
D22*
X212561600Y-76990000D03*
X210561600Y-76990000D03*
X210561600Y-78990000D03*
X212561600Y-78990000D03*
X214561600Y-78990000D03*
X210650000Y-64750000D03*
X208110000Y-64750000D03*
D16*
X239750000Y-113050000D03*
D17*
X239750000Y-115550000D03*
X239750000Y-118050000D03*
X239750000Y-120550000D03*
D16*
X239975000Y-70800000D03*
D17*
X239975000Y-73300000D03*
X239975000Y-75800000D03*
X239975000Y-78300000D03*
D16*
X225950000Y-75575000D03*
D17*
X225950000Y-78075000D03*
X225950000Y-80575000D03*
X225950000Y-83075000D03*
D18*
X192750000Y-113625000D03*
D17*
X192750000Y-111125000D03*
X192750000Y-108625000D03*
X192750000Y-106125000D03*
D23*
X224460000Y-65375000D03*
D24*
X229540000Y-65375000D03*
D18*
X224900000Y-117500000D03*
D17*
X224900000Y-115000000D03*
X224900000Y-112500000D03*
X224900000Y-110000000D03*
D18*
X180225000Y-78500000D03*
D17*
X180225000Y-76000000D03*
X180225000Y-73500000D03*
D16*
X181275000Y-92000000D03*
D17*
X181275000Y-94500000D03*
X181275000Y-97000000D03*
X181275000Y-99500000D03*
D18*
X192750000Y-70625000D03*
D17*
X192750000Y-68125000D03*
X192750000Y-65625000D03*
D18*
X192750000Y-90875000D03*
D17*
X192750000Y-88375000D03*
X192750000Y-85875000D03*
D23*
X195040000Y-124975000D03*
D24*
X189960000Y-124975000D03*
D18*
X224900000Y-100287500D03*
D17*
X224900000Y-97787500D03*
X224900000Y-95287500D03*
X224900000Y-92787500D03*
%LPD*%
M02*
