G04 #@! TF.GenerationSoftware,KiCad,Pcbnew,9.0.2*
G04 #@! TF.CreationDate,2025-10-30T11:47:24+05:30*
G04 #@! TF.ProjectId,Single_Wheel_Board,53696e67-6c65-45f5-9768-65656c5f426f,rev?*
G04 #@! TF.SameCoordinates,Original*
G04 #@! TF.FileFunction,Copper,L2,Bot*
G04 #@! TF.FilePolarity,Positive*
%FSLAX46Y46*%
G04 Gerber Fmt 4.6, Leading zero omitted, Abs format (unit mm)*
G04 Created by KiCad (PCBNEW 9.0.2) date 2025-10-30 11:47:24*
%MOMM*%
%LPD*%
G01*
G04 APERTURE LIST*
G04 Aperture macros list*
%AMRoundRect*
0 Rectangle with rounded corners*
0 $1 Rounding radius*
0 $2 $3 $4 $5 $6 $7 $8 $9 X,Y pos of 4 corners*
0 Add a 4 corners polygon primitive as box body*
4,1,4,$2,$3,$4,$5,$6,$7,$8,$9,$2,$3,0*
0 Add four circle primitives for the rounded corners*
1,1,$1+$1,$2,$3*
1,1,$1+$1,$4,$5*
1,1,$1+$1,$6,$7*
1,1,$1+$1,$8,$9*
0 Add four rect primitives between the rounded corners*
20,1,$1+$1,$2,$3,$4,$5,0*
20,1,$1+$1,$4,$5,$6,$7,0*
20,1,$1+$1,$6,$7,$8,$9,0*
20,1,$1+$1,$8,$9,$2,$3,0*%
G04 Aperture macros list end*
G04 #@! TA.AperFunction,ComponentPad*
%ADD10RoundRect,0.250000X-0.725000X0.600000X-0.725000X-0.600000X0.725000X-0.600000X0.725000X0.600000X0*%
G04 #@! TD*
G04 #@! TA.AperFunction,ComponentPad*
%ADD11O,1.950000X1.700000*%
G04 #@! TD*
G04 #@! TA.AperFunction,ComponentPad*
%ADD12RoundRect,0.250000X0.725000X-0.600000X0.725000X0.600000X-0.725000X0.600000X-0.725000X-0.600000X0*%
G04 #@! TD*
G04 #@! TA.AperFunction,ComponentPad*
%ADD13R,1.600000X1.600000*%
G04 #@! TD*
G04 #@! TA.AperFunction,ComponentPad*
%ADD14C,1.600000*%
G04 #@! TD*
G04 #@! TA.AperFunction,ComponentPad*
%ADD15R,1.300000X1.300000*%
G04 #@! TD*
G04 #@! TA.AperFunction,ComponentPad*
%ADD16C,1.300000*%
G04 #@! TD*
G04 #@! TA.AperFunction,ComponentPad*
%ADD17R,3.000000X3.000000*%
G04 #@! TD*
G04 #@! TA.AperFunction,ComponentPad*
%ADD18C,3.000000*%
G04 #@! TD*
G04 #@! TA.AperFunction,Conductor*
%ADD19C,0.500000*%
G04 #@! TD*
G04 APERTURE END LIST*
D10*
X239750000Y-90837500D03*
D11*
X239750000Y-93337500D03*
X239750000Y-95837500D03*
X239750000Y-98337500D03*
D12*
X180250000Y-119475000D03*
D11*
X180250000Y-116975000D03*
X180250000Y-114475000D03*
X180250000Y-111975000D03*
D13*
X201760000Y-64020000D03*
D14*
X201760000Y-66560000D03*
X201760000Y-69100000D03*
X201760000Y-71640000D03*
X201760000Y-74180000D03*
X201760000Y-76720000D03*
X201760000Y-79260000D03*
X201760000Y-81800000D03*
X201760000Y-84340000D03*
X201760000Y-86880000D03*
X201760000Y-89420000D03*
X201760000Y-91960000D03*
X201760000Y-94500000D03*
X201760000Y-97040000D03*
X201760000Y-99580000D03*
X201760000Y-102120000D03*
X201760000Y-104660000D03*
X201760000Y-107200000D03*
X201760000Y-109740000D03*
X201760000Y-112280000D03*
X201760000Y-114820000D03*
X201760000Y-117360000D03*
X201760000Y-119900000D03*
X201760000Y-122440000D03*
X217000000Y-122440000D03*
X217000000Y-119900000D03*
X217000000Y-117360000D03*
X217000000Y-114820000D03*
X217000000Y-112280000D03*
X217000000Y-109740000D03*
X217000000Y-107200000D03*
X217000000Y-104660000D03*
X217000000Y-102120000D03*
X217000000Y-99580000D03*
X217000000Y-97040000D03*
X217000000Y-94500000D03*
X217000000Y-91960000D03*
X217000000Y-89420000D03*
X217000000Y-86880000D03*
X217000000Y-84340000D03*
X217000000Y-81800000D03*
X217000000Y-79260000D03*
X217000000Y-76720000D03*
X217000000Y-74180000D03*
X217000000Y-71640000D03*
X217000000Y-69100000D03*
X217000000Y-66560000D03*
X217000000Y-64020000D03*
X214460000Y-66560000D03*
X204300000Y-109740000D03*
X206840000Y-109740000D03*
X209380000Y-109740000D03*
X211920000Y-109740000D03*
X214460000Y-109740000D03*
D13*
X204810800Y-70319200D03*
D14*
X204810800Y-72859200D03*
X204810800Y-75399200D03*
X204810800Y-77939200D03*
X204810800Y-80479200D03*
D15*
X214561600Y-76990000D03*
D16*
X212561600Y-76990000D03*
X210561600Y-76990000D03*
X210561600Y-78990000D03*
X212561600Y-78990000D03*
X214561600Y-78990000D03*
X210650000Y-64750000D03*
X208110000Y-64750000D03*
D10*
X239750000Y-113050000D03*
D11*
X239750000Y-115550000D03*
X239750000Y-118050000D03*
X239750000Y-120550000D03*
D10*
X239975000Y-70800000D03*
D11*
X239975000Y-73300000D03*
X239975000Y-75800000D03*
X239975000Y-78300000D03*
D10*
X225950000Y-75575000D03*
D11*
X225950000Y-78075000D03*
X225950000Y-80575000D03*
X225950000Y-83075000D03*
D12*
X192750000Y-113625000D03*
D11*
X192750000Y-111125000D03*
X192750000Y-108625000D03*
X192750000Y-106125000D03*
D17*
X224460000Y-65375000D03*
D18*
X229540000Y-65375000D03*
D12*
X224900000Y-117500000D03*
D11*
X224900000Y-115000000D03*
X224900000Y-112500000D03*
X224900000Y-110000000D03*
D12*
X180225000Y-78500000D03*
D11*
X180225000Y-76000000D03*
X180225000Y-73500000D03*
D10*
X181275000Y-92000000D03*
D11*
X181275000Y-94500000D03*
X181275000Y-97000000D03*
X181275000Y-99500000D03*
D12*
X192750000Y-70625000D03*
D11*
X192750000Y-68125000D03*
X192750000Y-65625000D03*
D12*
X192750000Y-90875000D03*
D11*
X192750000Y-88375000D03*
X192750000Y-85875000D03*
D17*
X195040000Y-124975000D03*
D18*
X189960000Y-124975000D03*
D12*
X224900000Y-100287500D03*
D11*
X224900000Y-97787500D03*
X224900000Y-95287500D03*
X224900000Y-92787500D03*
D19*
X184775000Y-95500000D02*
X197680000Y-95500000D01*
X181275000Y-92000000D02*
X184775000Y-95500000D01*
X224462500Y-93225000D02*
X224900000Y-92787500D01*
X201760000Y-99580000D02*
X208115000Y-93225000D01*
X208115000Y-93225000D02*
X224462500Y-93225000D01*
X197680000Y-95500000D02*
X201760000Y-99580000D01*
G04 #@! TA.AperFunction,Conductor*
G36*
X192274357Y-112431069D02*
G01*
X192289948Y-112436134D01*
X192308757Y-112442246D01*
X192518713Y-112475500D01*
X192518714Y-112475500D01*
X192981286Y-112475500D01*
X192981287Y-112475500D01*
X193191243Y-112442246D01*
X193215299Y-112434429D01*
X193225643Y-112431069D01*
X193263960Y-112425000D01*
X198775560Y-112425000D01*
X198842599Y-112444685D01*
X198888354Y-112497489D01*
X198899560Y-112548996D01*
X198900000Y-125099999D01*
X198900000Y-125100000D01*
X220450000Y-125076056D01*
X220450000Y-116399000D01*
X220469685Y-116331961D01*
X220522489Y-116286206D01*
X220574000Y-116275000D01*
X224309098Y-116275000D01*
X224347416Y-116281069D01*
X224458757Y-116317246D01*
X224668713Y-116350500D01*
X224668714Y-116350500D01*
X225131286Y-116350500D01*
X225131287Y-116350500D01*
X225341243Y-116317246D01*
X225452584Y-116281069D01*
X225490902Y-116275000D01*
X229837299Y-116275000D01*
X229904338Y-116294685D01*
X229950093Y-116347489D01*
X229961299Y-116398734D01*
X229985768Y-127825734D01*
X229966227Y-127892816D01*
X229913521Y-127938684D01*
X229861768Y-127950000D01*
X192590217Y-127950000D01*
X192523178Y-127930315D01*
X192477423Y-127877511D01*
X192466228Y-127824324D01*
X192503043Y-125099999D01*
X192538548Y-122472652D01*
X192538546Y-122472652D01*
X192538547Y-122472651D01*
X177199476Y-122531564D01*
X177132362Y-122512137D01*
X177086404Y-122459509D01*
X177075000Y-122407565D01*
X177075000Y-118448337D01*
X177094685Y-118381298D01*
X177147489Y-118335543D01*
X177197274Y-118324349D01*
X179776803Y-118288523D01*
X179803935Y-118291543D01*
X179803945Y-118291484D01*
X179805230Y-118291687D01*
X179807471Y-118291937D01*
X179808745Y-118292242D01*
X179808757Y-118292246D01*
X180018713Y-118325500D01*
X180018714Y-118325500D01*
X180481286Y-118325500D01*
X180481287Y-118325500D01*
X180691243Y-118292246D01*
X180726206Y-118280885D01*
X180762796Y-118274828D01*
X189175189Y-118157991D01*
X189176373Y-112548974D01*
X189196072Y-112481939D01*
X189248885Y-112436195D01*
X189300373Y-112425000D01*
X192236040Y-112425000D01*
X192274357Y-112431069D01*
G37*
G04 #@! TD.AperFunction*
G04 #@! TA.AperFunction,Conductor*
G36*
X226968039Y-61694685D02*
G01*
X227013794Y-61747489D01*
X227025000Y-61799000D01*
X227025000Y-68294910D01*
X227005315Y-68361949D01*
X226952511Y-68407704D01*
X226901549Y-68418909D01*
X219998608Y-68449453D01*
X219931482Y-68430065D01*
X219885494Y-68377464D01*
X219874063Y-68326395D01*
X219850568Y-65225004D01*
X219850566Y-65225003D01*
X215691185Y-65197995D01*
X215624275Y-65177876D01*
X215578864Y-65124776D01*
X215568019Y-65071303D01*
X215639215Y-61796305D01*
X215660352Y-61729709D01*
X215714138Y-61685113D01*
X215763186Y-61675000D01*
X226901000Y-61675000D01*
X226968039Y-61694685D01*
G37*
G04 #@! TD.AperFunction*
G04 #@! TA.AperFunction,Conductor*
G36*
X243591572Y-77211382D02*
G01*
X243637327Y-77264186D01*
X243648533Y-77315793D01*
X243637208Y-91891110D01*
X243617471Y-91958134D01*
X243564632Y-92003848D01*
X243512678Y-92015013D01*
X240074623Y-92000320D01*
X240055755Y-91998794D01*
X239981292Y-91987000D01*
X239981287Y-91987000D01*
X239518713Y-91987000D01*
X239461322Y-91996089D01*
X239441396Y-91997614D01*
X237140185Y-91987780D01*
X237126024Y-91987720D01*
X237126023Y-91987720D01*
X237177021Y-109070878D01*
X237177022Y-109070879D01*
X243731697Y-108869197D01*
X243799311Y-108886810D01*
X243846668Y-108938182D01*
X243859491Y-108990894D01*
X243954329Y-114230695D01*
X243935861Y-114298080D01*
X243883893Y-114344783D01*
X243826593Y-114356882D01*
X240256359Y-114248693D01*
X240221798Y-114242681D01*
X240191245Y-114232754D01*
X240191246Y-114232754D01*
X240033776Y-114207813D01*
X239981287Y-114199500D01*
X239518713Y-114199500D01*
X239518709Y-114199500D01*
X239387969Y-114220207D01*
X239364815Y-114221677D01*
X237365135Y-114161081D01*
X237298723Y-114139375D01*
X237255949Y-114088323D01*
X228152877Y-94001398D01*
X225456733Y-94001398D01*
X225418416Y-93995329D01*
X225341243Y-93970254D01*
X225341240Y-93970253D01*
X225179957Y-93944708D01*
X225131287Y-93937000D01*
X224668713Y-93937000D01*
X224629202Y-93943257D01*
X224458759Y-93970253D01*
X224423490Y-93981713D01*
X224381583Y-93995329D01*
X224343267Y-94001398D01*
X221699160Y-94001398D01*
X221632121Y-93981713D01*
X221586366Y-93928909D01*
X221575160Y-93877398D01*
X221575160Y-88927214D01*
X221575167Y-88925921D01*
X221579960Y-88466230D01*
X221648720Y-81872705D01*
X221669102Y-81805876D01*
X221722381Y-81760675D01*
X221772713Y-81750000D01*
X225126566Y-81750000D01*
X225182860Y-81763514D01*
X225306588Y-81826557D01*
X225508757Y-81892246D01*
X225718713Y-81925500D01*
X225718714Y-81925500D01*
X226181286Y-81925500D01*
X226181287Y-81925500D01*
X226391243Y-81892246D01*
X226593412Y-81826557D01*
X226717139Y-81763514D01*
X226773434Y-81750000D01*
X231849999Y-81750000D01*
X231850000Y-81750000D01*
X231801820Y-77341560D01*
X231820771Y-77274313D01*
X231873072Y-77227983D01*
X231925328Y-77216209D01*
X238200200Y-77191698D01*
X238200684Y-77191697D01*
X243524533Y-77191697D01*
X243591572Y-77211382D01*
G37*
G04 #@! TD.AperFunction*
G04 #@! TA.AperFunction,Conductor*
G36*
X215633124Y-60970185D02*
G01*
X215678879Y-61022989D01*
X215688823Y-61092147D01*
X215659798Y-61155703D01*
X215603323Y-61192777D01*
X215514188Y-61220839D01*
X215391490Y-61295974D01*
X215337702Y-61340571D01*
X215337699Y-61340574D01*
X215241139Y-61447237D01*
X215178536Y-61576787D01*
X215157401Y-61643380D01*
X215157399Y-61643390D01*
X215133835Y-61785303D01*
X215133834Y-61785314D01*
X215130148Y-61954887D01*
X215063528Y-65019410D01*
X215062638Y-65060328D01*
X215072604Y-65171775D01*
X215078104Y-65198896D01*
X215072136Y-65268510D01*
X215029479Y-65323847D01*
X214963676Y-65347337D01*
X214918260Y-65341471D01*
X214764536Y-65291523D01*
X214619238Y-65268510D01*
X214562352Y-65259500D01*
X214357648Y-65259500D01*
X214333329Y-65263351D01*
X214155465Y-65291522D01*
X213960776Y-65354781D01*
X213778386Y-65447715D01*
X213612786Y-65568028D01*
X213468028Y-65712786D01*
X213347715Y-65878386D01*
X213254781Y-66060776D01*
X213191522Y-66255465D01*
X213159500Y-66457648D01*
X213159500Y-66662351D01*
X213191522Y-66864534D01*
X213254781Y-67059223D01*
X213347715Y-67241613D01*
X213468028Y-67407213D01*
X213612786Y-67551971D01*
X213767749Y-67664556D01*
X213778390Y-67672287D01*
X213871080Y-67719515D01*
X213960776Y-67765218D01*
X213960778Y-67765218D01*
X213960781Y-67765220D01*
X214065137Y-67799127D01*
X214155465Y-67828477D01*
X214174697Y-67831523D01*
X214357648Y-67860500D01*
X214357649Y-67860500D01*
X214562351Y-67860500D01*
X214562352Y-67860500D01*
X214764534Y-67828477D01*
X214959219Y-67765220D01*
X215141610Y-67672287D01*
X215234590Y-67604732D01*
X215307213Y-67551971D01*
X215307215Y-67551968D01*
X215307219Y-67551966D01*
X215451966Y-67407219D01*
X215451968Y-67407215D01*
X215451971Y-67407213D01*
X215572284Y-67241614D01*
X215572285Y-67241613D01*
X215572287Y-67241610D01*
X215619516Y-67148917D01*
X215667489Y-67098123D01*
X215735310Y-67081328D01*
X215801445Y-67103865D01*
X215840485Y-67148919D01*
X215887715Y-67241614D01*
X216008028Y-67407213D01*
X216152786Y-67551971D01*
X216307749Y-67664556D01*
X216318390Y-67672287D01*
X216409840Y-67718883D01*
X216411080Y-67719515D01*
X216461876Y-67767490D01*
X216478671Y-67835311D01*
X216456134Y-67901446D01*
X216411080Y-67940485D01*
X216318386Y-67987715D01*
X216152786Y-68108028D01*
X216008028Y-68252786D01*
X215887715Y-68418386D01*
X215794781Y-68600776D01*
X215731522Y-68795465D01*
X215706263Y-68954947D01*
X215699500Y-68997648D01*
X215699500Y-69202352D01*
X215701647Y-69215910D01*
X215731522Y-69404534D01*
X215794781Y-69599223D01*
X215887715Y-69781613D01*
X216008028Y-69947213D01*
X216152786Y-70091971D01*
X216307749Y-70204556D01*
X216318390Y-70212287D01*
X216409840Y-70258883D01*
X216411080Y-70259515D01*
X216461876Y-70307490D01*
X216478671Y-70375311D01*
X216456134Y-70441446D01*
X216411080Y-70480485D01*
X216318386Y-70527715D01*
X216152786Y-70648028D01*
X216008028Y-70792786D01*
X215887715Y-70958386D01*
X215794781Y-71140776D01*
X215731522Y-71335465D01*
X215713379Y-71450018D01*
X215699500Y-71537648D01*
X215699500Y-71742352D01*
X215703878Y-71769995D01*
X215731522Y-71944534D01*
X215794781Y-72139223D01*
X215887715Y-72321613D01*
X216008028Y-72487213D01*
X216152786Y-72631971D01*
X216307749Y-72744556D01*
X216318390Y-72752287D01*
X216409840Y-72798883D01*
X216411080Y-72799515D01*
X216461876Y-72847490D01*
X216478671Y-72915311D01*
X216456134Y-72981446D01*
X216411080Y-73020485D01*
X216318386Y-73067715D01*
X216152786Y-73188028D01*
X216008028Y-73332786D01*
X215887715Y-73498386D01*
X215794781Y-73680776D01*
X215731522Y-73875465D01*
X215708834Y-74018715D01*
X215699500Y-74077648D01*
X215699500Y-74282352D01*
X215700223Y-74286915D01*
X215731522Y-74484534D01*
X215794781Y-74679223D01*
X215887715Y-74861613D01*
X216008028Y-75027213D01*
X216152786Y-75171971D01*
X216307749Y-75284556D01*
X216318390Y-75292287D01*
X216409840Y-75338883D01*
X216411080Y-75339515D01*
X216461876Y-75387490D01*
X216478671Y-75455311D01*
X216456134Y-75521446D01*
X216411080Y-75560485D01*
X216318386Y-75607715D01*
X216152786Y-75728028D01*
X216008028Y-75872786D01*
X215887714Y-76038386D01*
X215866063Y-76080879D01*
X215818088Y-76131674D01*
X215750266Y-76148468D01*
X215684132Y-76125930D01*
X215656313Y-76098893D01*
X215569147Y-75982455D01*
X215569144Y-75982452D01*
X215453935Y-75896206D01*
X215453928Y-75896202D01*
X215319082Y-75845908D01*
X215319083Y-75845908D01*
X215259483Y-75839501D01*
X215259481Y-75839500D01*
X215259473Y-75839500D01*
X215259464Y-75839500D01*
X213863729Y-75839500D01*
X213863723Y-75839501D01*
X213804116Y-75845908D01*
X213669271Y-75896202D01*
X213669264Y-75896206D01*
X213554055Y-75982452D01*
X213478690Y-76083126D01*
X213422756Y-76124996D01*
X213353064Y-76129980D01*
X213306539Y-76109132D01*
X213164597Y-76006006D01*
X213164596Y-76006005D01*
X213164594Y-76006004D01*
X213112900Y-75979664D01*
X213003239Y-75923788D01*
X213003236Y-75923787D01*
X212831010Y-75867829D01*
X212652151Y-75839500D01*
X212652146Y-75839500D01*
X212471054Y-75839500D01*
X212471049Y-75839500D01*
X212292189Y-75867829D01*
X212119963Y-75923787D01*
X212119960Y-75923788D01*
X211958602Y-76006006D01*
X211812105Y-76112441D01*
X211812100Y-76112445D01*
X211684045Y-76240500D01*
X211661918Y-76270956D01*
X211606587Y-76313621D01*
X211536974Y-76319600D01*
X211475179Y-76286994D01*
X211461282Y-76270956D01*
X211439154Y-76240500D01*
X211311099Y-76112445D01*
X211311094Y-76112441D01*
X211164597Y-76006006D01*
X211164596Y-76006005D01*
X211164594Y-76006004D01*
X211112900Y-75979664D01*
X211003239Y-75923788D01*
X211003236Y-75923787D01*
X210831010Y-75867829D01*
X210652151Y-75839500D01*
X210652146Y-75839500D01*
X210471054Y-75839500D01*
X210471049Y-75839500D01*
X210292189Y-75867829D01*
X210119963Y-75923787D01*
X210119960Y-75923788D01*
X209958602Y-76006006D01*
X209812105Y-76112441D01*
X209812100Y-76112445D01*
X209684045Y-76240500D01*
X209684041Y-76240505D01*
X209577606Y-76387002D01*
X209495388Y-76548360D01*
X209495387Y-76548363D01*
X209439429Y-76720589D01*
X209411100Y-76899448D01*
X209411100Y-77080551D01*
X209439429Y-77259410D01*
X209495387Y-77431636D01*
X209495388Y-77431639D01*
X209551264Y-77541300D01*
X209564467Y-77567212D01*
X209577606Y-77592997D01*
X209684041Y-77739494D01*
X209684045Y-77739499D01*
X209812100Y-77867554D01*
X209842556Y-77889682D01*
X209885221Y-77945013D01*
X209891200Y-78014626D01*
X209858594Y-78076421D01*
X209842556Y-78090318D01*
X209812100Y-78112445D01*
X209684045Y-78240500D01*
X209684041Y-78240505D01*
X209577606Y-78387002D01*
X209495388Y-78548360D01*
X209495387Y-78548363D01*
X209439429Y-78720589D01*
X209411100Y-78899448D01*
X209411100Y-79080551D01*
X209439429Y-79259410D01*
X209495387Y-79431636D01*
X209495388Y-79431639D01*
X209523713Y-79487228D01*
X209575170Y-79588218D01*
X209577606Y-79592997D01*
X209684041Y-79739494D01*
X209684045Y-79739499D01*
X209812100Y-79867554D01*
X209812105Y-79867558D01*
X209914030Y-79941610D01*
X209958606Y-79973996D01*
X210064084Y-80027740D01*
X210119960Y-80056211D01*
X210119963Y-80056212D01*
X210206076Y-80084191D01*
X210292191Y-80112171D01*
X210375029Y-80125291D01*
X210471049Y-80140500D01*
X210471054Y-80140500D01*
X210652151Y-80140500D01*
X210738859Y-80126765D01*
X210831009Y-80112171D01*
X211003239Y-80056211D01*
X211164594Y-79973996D01*
X211311101Y-79867553D01*
X211439153Y-79739501D01*
X211461281Y-79709043D01*
X211516611Y-79666378D01*
X211586224Y-79660399D01*
X211648020Y-79693004D01*
X211661919Y-79709044D01*
X211684047Y-79739501D01*
X211812100Y-79867554D01*
X211812105Y-79867558D01*
X211914030Y-79941610D01*
X211958606Y-79973996D01*
X212064084Y-80027740D01*
X212119960Y-80056211D01*
X212119963Y-80056212D01*
X212206076Y-80084191D01*
X212292191Y-80112171D01*
X212375029Y-80125291D01*
X212471049Y-80140500D01*
X212471054Y-80140500D01*
X212652151Y-80140500D01*
X212738859Y-80126765D01*
X212831009Y-80112171D01*
X213003239Y-80056211D01*
X213164594Y-79973996D01*
X213311101Y-79867553D01*
X213439153Y-79739501D01*
X213461281Y-79709043D01*
X213516611Y-79666378D01*
X213586224Y-79660399D01*
X213648020Y-79693004D01*
X213661919Y-79709044D01*
X213684047Y-79739501D01*
X213812100Y-79867554D01*
X213812105Y-79867558D01*
X213914030Y-79941610D01*
X213958606Y-79973996D01*
X214064084Y-80027740D01*
X214119960Y-80056211D01*
X214119963Y-80056212D01*
X214206076Y-80084191D01*
X214292191Y-80112171D01*
X214375029Y-80125291D01*
X214471049Y-80140500D01*
X214471054Y-80140500D01*
X214652151Y-80140500D01*
X214738859Y-80126765D01*
X214831009Y-80112171D01*
X215003239Y-80056211D01*
X215164594Y-79973996D01*
X215311101Y-79867553D01*
X215439153Y-79739501D01*
X215537413Y-79604255D01*
X215592741Y-79561592D01*
X215662354Y-79555613D01*
X215724149Y-79588218D01*
X215755661Y-79638824D01*
X215794781Y-79759223D01*
X215887715Y-79941613D01*
X216008028Y-80107213D01*
X216152786Y-80251971D01*
X216307749Y-80364556D01*
X216318390Y-80372287D01*
X216409840Y-80418883D01*
X216411080Y-80419515D01*
X216461876Y-80467490D01*
X216478671Y-80535311D01*
X216456134Y-80601446D01*
X216411080Y-80640485D01*
X216318386Y-80687715D01*
X216152786Y-80808028D01*
X216008028Y-80952786D01*
X215887715Y-81118386D01*
X215794781Y-81300776D01*
X215731522Y-81495465D01*
X215699500Y-81697648D01*
X215699500Y-81902351D01*
X215731522Y-82104534D01*
X215794781Y-82299223D01*
X215887715Y-82481613D01*
X216008028Y-82647213D01*
X216152786Y-82791971D01*
X216307749Y-82904556D01*
X216318390Y-82912287D01*
X216409840Y-82958883D01*
X216411080Y-82959515D01*
X216461876Y-83007490D01*
X216478671Y-83075311D01*
X216456134Y-83141446D01*
X216411080Y-83180485D01*
X216318386Y-83227715D01*
X216152786Y-83348028D01*
X216008028Y-83492786D01*
X215887715Y-83658386D01*
X215794781Y-83840776D01*
X215731522Y-84035465D01*
X215699500Y-84237648D01*
X215699500Y-84442351D01*
X215731522Y-84644534D01*
X215794781Y-84839223D01*
X215887715Y-85021613D01*
X216008028Y-85187213D01*
X216152786Y-85331971D01*
X216307749Y-85444556D01*
X216318390Y-85452287D01*
X216409840Y-85498883D01*
X216411080Y-85499515D01*
X216461876Y-85547490D01*
X216478671Y-85615311D01*
X216456134Y-85681446D01*
X216411080Y-85720485D01*
X216318386Y-85767715D01*
X216152786Y-85888028D01*
X216008028Y-86032786D01*
X215887715Y-86198386D01*
X215794781Y-86380776D01*
X215731522Y-86575465D01*
X215699500Y-86777648D01*
X215699500Y-86982351D01*
X215731522Y-87184534D01*
X215794781Y-87379223D01*
X215887715Y-87561613D01*
X216008028Y-87727213D01*
X216152786Y-87871971D01*
X216307749Y-87984556D01*
X216318390Y-87992287D01*
X216409840Y-88038883D01*
X216411080Y-88039515D01*
X216461876Y-88087490D01*
X216478671Y-88155311D01*
X216456134Y-88221446D01*
X216411080Y-88260485D01*
X216318386Y-88307715D01*
X216152786Y-88428028D01*
X216008028Y-88572786D01*
X215887715Y-88738386D01*
X215794781Y-88920776D01*
X215731522Y-89115465D01*
X215699500Y-89317648D01*
X215699500Y-89522352D01*
X215703878Y-89549995D01*
X215731522Y-89724534D01*
X215794781Y-89919223D01*
X215887715Y-90101613D01*
X216008028Y-90267213D01*
X216152786Y-90411971D01*
X216307749Y-90524556D01*
X216318390Y-90532287D01*
X216409840Y-90578883D01*
X216411080Y-90579515D01*
X216461876Y-90627490D01*
X216478671Y-90695311D01*
X216456134Y-90761446D01*
X216411080Y-90800485D01*
X216318386Y-90847715D01*
X216152786Y-90968028D01*
X216008028Y-91112786D01*
X215887715Y-91278386D01*
X215794781Y-91460776D01*
X215731522Y-91655465D01*
X215699500Y-91857648D01*
X215699500Y-92062351D01*
X215731523Y-92264535D01*
X215731523Y-92264538D01*
X215747004Y-92312182D01*
X215748999Y-92382023D01*
X215712918Y-92441856D01*
X215650217Y-92472684D01*
X215629073Y-92474500D01*
X208041080Y-92474500D01*
X207896092Y-92503340D01*
X207896082Y-92503343D01*
X207759511Y-92559912D01*
X207759498Y-92559919D01*
X207636584Y-92642048D01*
X207636580Y-92642051D01*
X203270933Y-97007697D01*
X203209610Y-97041182D01*
X203139918Y-97036198D01*
X203083985Y-96994326D01*
X203060779Y-96939414D01*
X203060500Y-96937652D01*
X203060500Y-96937648D01*
X203028477Y-96735466D01*
X202965220Y-96540781D01*
X202965218Y-96540778D01*
X202965218Y-96540776D01*
X202912341Y-96437000D01*
X202872287Y-96358390D01*
X202824186Y-96292184D01*
X202751971Y-96192786D01*
X202607213Y-96048028D01*
X202441614Y-95927715D01*
X202435006Y-95924348D01*
X202348917Y-95880483D01*
X202298123Y-95832511D01*
X202281328Y-95764690D01*
X202303865Y-95698555D01*
X202348917Y-95659516D01*
X202441610Y-95612287D01*
X202462770Y-95596913D01*
X202607213Y-95491971D01*
X202607215Y-95491968D01*
X202607219Y-95491966D01*
X202751966Y-95347219D01*
X202751968Y-95347215D01*
X202751971Y-95347213D01*
X202804732Y-95274590D01*
X202872287Y-95181610D01*
X202965220Y-94999219D01*
X203028477Y-94804534D01*
X203060500Y-94602352D01*
X203060500Y-94397648D01*
X203028477Y-94195465D01*
X202965218Y-94000776D01*
X202931503Y-93934607D01*
X202872287Y-93818390D01*
X202864556Y-93807749D01*
X202751971Y-93652786D01*
X202607213Y-93508028D01*
X202441614Y-93387715D01*
X202368575Y-93350500D01*
X202348917Y-93340483D01*
X202298123Y-93292511D01*
X202281328Y-93224690D01*
X202303865Y-93158555D01*
X202348917Y-93119516D01*
X202441610Y-93072287D01*
X202462770Y-93056913D01*
X202607213Y-92951971D01*
X202607215Y-92951968D01*
X202607219Y-92951966D01*
X202751966Y-92807219D01*
X202751968Y-92807215D01*
X202751971Y-92807213D01*
X202866178Y-92650018D01*
X202872287Y-92641610D01*
X202965220Y-92459219D01*
X203028477Y-92264534D01*
X203060500Y-92062352D01*
X203060500Y-91857648D01*
X203028477Y-91655466D01*
X203019487Y-91627799D01*
X202986089Y-91525009D01*
X202965220Y-91460781D01*
X202965218Y-91460778D01*
X202965218Y-91460776D01*
X202908770Y-91349992D01*
X202872287Y-91278390D01*
X202849629Y-91247203D01*
X202751971Y-91112786D01*
X202607213Y-90968028D01*
X202441614Y-90847715D01*
X202435006Y-90844348D01*
X202348917Y-90800483D01*
X202298123Y-90752511D01*
X202281328Y-90684690D01*
X202303865Y-90618555D01*
X202348917Y-90579516D01*
X202441610Y-90532287D01*
X202462770Y-90516913D01*
X202607213Y-90411971D01*
X202607215Y-90411968D01*
X202607219Y-90411966D01*
X202751966Y-90267219D01*
X202751968Y-90267215D01*
X202751971Y-90267213D01*
X202804732Y-90194590D01*
X202872287Y-90101610D01*
X202965220Y-89919219D01*
X203028477Y-89724534D01*
X203060500Y-89522352D01*
X203060500Y-89317648D01*
X203050544Y-89254792D01*
X203028477Y-89115465D01*
X202966044Y-88923318D01*
X202965220Y-88920781D01*
X202965218Y-88920778D01*
X202965218Y-88920776D01*
X202931503Y-88854607D01*
X202872287Y-88738390D01*
X202838030Y-88691239D01*
X202751971Y-88572786D01*
X202607213Y-88428028D01*
X202441614Y-88307715D01*
X202365068Y-88268713D01*
X202348917Y-88260483D01*
X202298123Y-88212511D01*
X202281328Y-88144690D01*
X202303865Y-88078555D01*
X202348917Y-88039516D01*
X202441610Y-87992287D01*
X202462770Y-87976913D01*
X202607213Y-87871971D01*
X202607215Y-87871968D01*
X202607219Y-87871966D01*
X202751966Y-87727219D01*
X202751968Y-87727215D01*
X202751971Y-87727213D01*
X202804732Y-87654590D01*
X202872287Y-87561610D01*
X202965220Y-87379219D01*
X203028477Y-87184534D01*
X203060500Y-86982352D01*
X203060500Y-86777648D01*
X203028477Y-86575466D01*
X202965220Y-86380781D01*
X202965218Y-86380778D01*
X202965218Y-86380776D01*
X202931503Y-86314607D01*
X202872287Y-86198390D01*
X202864556Y-86187749D01*
X202751971Y-86032786D01*
X202607213Y-85888028D01*
X202441614Y-85767715D01*
X202435006Y-85764348D01*
X202348917Y-85720483D01*
X202298123Y-85672511D01*
X202281328Y-85604690D01*
X202303865Y-85538555D01*
X202348917Y-85499516D01*
X202441610Y-85452287D01*
X202462770Y-85436913D01*
X202607213Y-85331971D01*
X202607215Y-85331968D01*
X202607219Y-85331966D01*
X202751966Y-85187219D01*
X202751968Y-85187215D01*
X202751971Y-85187213D01*
X202804732Y-85114590D01*
X202872287Y-85021610D01*
X202965220Y-84839219D01*
X203028477Y-84644534D01*
X203060500Y-84442352D01*
X203060500Y-84237648D01*
X203028477Y-84035466D01*
X202965220Y-83840781D01*
X202965218Y-83840778D01*
X202965218Y-83840776D01*
X202931503Y-83774607D01*
X202872287Y-83658390D01*
X202864556Y-83647749D01*
X202751971Y-83492786D01*
X202607213Y-83348028D01*
X202441614Y-83227715D01*
X202435006Y-83224348D01*
X202348917Y-83180483D01*
X202298123Y-83132511D01*
X202281328Y-83064690D01*
X202303865Y-82998555D01*
X202348917Y-82959516D01*
X202441610Y-82912287D01*
X202462770Y-82896913D01*
X202607213Y-82791971D01*
X202607215Y-82791968D01*
X202607219Y-82791966D01*
X202751966Y-82647219D01*
X202751968Y-82647215D01*
X202751971Y-82647213D01*
X202804732Y-82574590D01*
X202872287Y-82481610D01*
X202965220Y-82299219D01*
X203028477Y-82104534D01*
X203060500Y-81902352D01*
X203060500Y-81697648D01*
X203054285Y-81658407D01*
X203028477Y-81495465D01*
X202989402Y-81375205D01*
X202965220Y-81300781D01*
X202965218Y-81300778D01*
X202965218Y-81300776D01*
X202906937Y-81186395D01*
X202872287Y-81118390D01*
X202864556Y-81107749D01*
X202751971Y-80952786D01*
X202607213Y-80808028D01*
X202441614Y-80687715D01*
X202435006Y-80684348D01*
X202348917Y-80640483D01*
X202298123Y-80592511D01*
X202281328Y-80524690D01*
X202303865Y-80458555D01*
X202348917Y-80419516D01*
X202441610Y-80372287D01*
X202462770Y-80356913D01*
X202607213Y-80251971D01*
X202607215Y-80251968D01*
X202607219Y-80251966D01*
X202751966Y-80107219D01*
X202751968Y-80107215D01*
X202751971Y-80107213D01*
X202844409Y-79979981D01*
X202872287Y-79941610D01*
X202965220Y-79759219D01*
X203028477Y-79564534D01*
X203060500Y-79362352D01*
X203060500Y-79157648D01*
X203047900Y-79078096D01*
X203028477Y-78955465D01*
X202972381Y-78782820D01*
X202965220Y-78760781D01*
X202965218Y-78760778D01*
X202965218Y-78760776D01*
X202931503Y-78694607D01*
X202872287Y-78578390D01*
X202864556Y-78567749D01*
X202751971Y-78412786D01*
X202607213Y-78268028D01*
X202441614Y-78147715D01*
X202407590Y-78130379D01*
X202348917Y-78100483D01*
X202298123Y-78052511D01*
X202281328Y-77984690D01*
X202303865Y-77918555D01*
X202348917Y-77879516D01*
X202441610Y-77832287D01*
X202462770Y-77816913D01*
X202607213Y-77711971D01*
X202607215Y-77711968D01*
X202607219Y-77711966D01*
X202751966Y-77567219D01*
X202751968Y-77567215D01*
X202751971Y-77567213D01*
X202823581Y-77468648D01*
X202872287Y-77401610D01*
X202965220Y-77219219D01*
X203028477Y-77024534D01*
X203060500Y-76822352D01*
X203060500Y-76617648D01*
X203044782Y-76518412D01*
X203028477Y-76415465D01*
X202973548Y-76246413D01*
X202965220Y-76220781D01*
X202965218Y-76220778D01*
X202965218Y-76220776D01*
X202928375Y-76148468D01*
X202872287Y-76038390D01*
X202848759Y-76006006D01*
X202751971Y-75872786D01*
X202607213Y-75728028D01*
X202441614Y-75607715D01*
X202435006Y-75604348D01*
X202348917Y-75560483D01*
X202298123Y-75512511D01*
X202281328Y-75444690D01*
X202303865Y-75378555D01*
X202348917Y-75339516D01*
X202441610Y-75292287D01*
X202462770Y-75276913D01*
X202607213Y-75171971D01*
X202607215Y-75171968D01*
X202607219Y-75171966D01*
X202751966Y-75027219D01*
X202751968Y-75027215D01*
X202751971Y-75027213D01*
X202826233Y-74924998D01*
X202872287Y-74861610D01*
X202965220Y-74679219D01*
X203028477Y-74484534D01*
X203060500Y-74282352D01*
X203060500Y-74077648D01*
X203049440Y-74007816D01*
X203028477Y-73875465D01*
X202965218Y-73680776D01*
X202931503Y-73614607D01*
X202872287Y-73498390D01*
X202864556Y-73487749D01*
X202751971Y-73332786D01*
X202607213Y-73188028D01*
X202441614Y-73067715D01*
X202435006Y-73064348D01*
X202348917Y-73020483D01*
X202298123Y-72972511D01*
X202281328Y-72904690D01*
X202303865Y-72838555D01*
X202348917Y-72799516D01*
X202441610Y-72752287D01*
X202462770Y-72736913D01*
X202607213Y-72631971D01*
X202607215Y-72631968D01*
X202607219Y-72631966D01*
X202751966Y-72487219D01*
X202751968Y-72487215D01*
X202751971Y-72487213D01*
X202844409Y-72359981D01*
X202872287Y-72321610D01*
X202965220Y-72139219D01*
X203028477Y-71944534D01*
X203060500Y-71742352D01*
X203060500Y-71537648D01*
X203028477Y-71335466D01*
X202965220Y-71140781D01*
X202965218Y-71140778D01*
X202965218Y-71140776D01*
X202931503Y-71074607D01*
X202872287Y-70958390D01*
X202864556Y-70947749D01*
X202751971Y-70792786D01*
X202607213Y-70648028D01*
X202441614Y-70527715D01*
X202435006Y-70524348D01*
X202348917Y-70480483D01*
X202298123Y-70432511D01*
X202281328Y-70364690D01*
X202303865Y-70298555D01*
X202348917Y-70259516D01*
X202441610Y-70212287D01*
X202462770Y-70196913D01*
X202607213Y-70091971D01*
X202607215Y-70091968D01*
X202607219Y-70091966D01*
X202751966Y-69947219D01*
X202751968Y-69947215D01*
X202751971Y-69947213D01*
X202806470Y-69872200D01*
X202872287Y-69781610D01*
X202965220Y-69599219D01*
X203006772Y-69471335D01*
X203510300Y-69471335D01*
X203510300Y-71167070D01*
X203510301Y-71167076D01*
X203516708Y-71226683D01*
X203567002Y-71361528D01*
X203567006Y-71361535D01*
X203653252Y-71476744D01*
X203653255Y-71476747D01*
X203768464Y-71562993D01*
X203768471Y-71562997D01*
X203813418Y-71579761D01*
X203903317Y-71613291D01*
X203940241Y-71617260D01*
X204004789Y-71643996D01*
X204044638Y-71701388D01*
X204047133Y-71771213D01*
X204011481Y-71831302D01*
X203999871Y-71840866D01*
X203963584Y-71867230D01*
X203818828Y-72011986D01*
X203698515Y-72177586D01*
X203605581Y-72359976D01*
X203542322Y-72554665D01*
X203510300Y-72756848D01*
X203510300Y-72961551D01*
X203542322Y-73163734D01*
X203605581Y-73358423D01*
X203698515Y-73540813D01*
X203818828Y-73706413D01*
X203963586Y-73851171D01*
X204118549Y-73963756D01*
X204129190Y-73971487D01*
X204220640Y-74018083D01*
X204221880Y-74018715D01*
X204272676Y-74066690D01*
X204289471Y-74134511D01*
X204266934Y-74200646D01*
X204221880Y-74239685D01*
X204129186Y-74286915D01*
X203963586Y-74407228D01*
X203818828Y-74551986D01*
X203698515Y-74717586D01*
X203605581Y-74899976D01*
X203542322Y-75094665D01*
X203510300Y-75296848D01*
X203510300Y-75501551D01*
X203542322Y-75703734D01*
X203605581Y-75898423D01*
X203698515Y-76080813D01*
X203818828Y-76246413D01*
X203963586Y-76391171D01*
X204105581Y-76494334D01*
X204129190Y-76511487D01*
X204220640Y-76558083D01*
X204221880Y-76558715D01*
X204272676Y-76606690D01*
X204289471Y-76674511D01*
X204266934Y-76740646D01*
X204221880Y-76779685D01*
X204129186Y-76826915D01*
X203963586Y-76947228D01*
X203818828Y-77091986D01*
X203698515Y-77257586D01*
X203605581Y-77439976D01*
X203542322Y-77634665D01*
X203510300Y-77836848D01*
X203510300Y-78041551D01*
X203542322Y-78243734D01*
X203605581Y-78438423D01*
X203661598Y-78548360D01*
X203693734Y-78611431D01*
X203698515Y-78620813D01*
X203818828Y-78786413D01*
X203963586Y-78931171D01*
X204118549Y-79043756D01*
X204129190Y-79051487D01*
X204220640Y-79098083D01*
X204221880Y-79098715D01*
X204272676Y-79146690D01*
X204289471Y-79214511D01*
X204266934Y-79280646D01*
X204221880Y-79319685D01*
X204129186Y-79366915D01*
X203963586Y-79487228D01*
X203818828Y-79631986D01*
X203698515Y-79797586D01*
X203605581Y-79979976D01*
X203542322Y-80174665D01*
X203510300Y-80376848D01*
X203510300Y-80581551D01*
X203542322Y-80783734D01*
X203605581Y-80978423D01*
X203698515Y-81160813D01*
X203818828Y-81326413D01*
X203963586Y-81471171D01*
X204118549Y-81583756D01*
X204129190Y-81591487D01*
X204245407Y-81650703D01*
X204311576Y-81684418D01*
X204311578Y-81684418D01*
X204311581Y-81684420D01*
X204352293Y-81697648D01*
X204506265Y-81747677D01*
X204607357Y-81763688D01*
X204708448Y-81779700D01*
X204708449Y-81779700D01*
X204913151Y-81779700D01*
X204913152Y-81779700D01*
X205115334Y-81747677D01*
X205310019Y-81684420D01*
X205492410Y-81591487D01*
X205624574Y-81495465D01*
X205658013Y-81471171D01*
X205658015Y-81471168D01*
X205658019Y-81471166D01*
X205802766Y-81326419D01*
X205802768Y-81326415D01*
X205802771Y-81326413D01*
X205870838Y-81232725D01*
X205923087Y-81160810D01*
X206016020Y-80978419D01*
X206079277Y-80783734D01*
X206111300Y-80581552D01*
X206111300Y-80376848D01*
X206079277Y-80174666D01*
X206016020Y-79979981D01*
X206016018Y-79979978D01*
X206016018Y-79979976D01*
X205982303Y-79913807D01*
X205923087Y-79797590D01*
X205895209Y-79759219D01*
X205802771Y-79631986D01*
X205658013Y-79487228D01*
X205492414Y-79366915D01*
X205483457Y-79362351D01*
X205399717Y-79319683D01*
X205348923Y-79271711D01*
X205332128Y-79203890D01*
X205354665Y-79137755D01*
X205399717Y-79098716D01*
X205492410Y-79051487D01*
X205624573Y-78955466D01*
X205658013Y-78931171D01*
X205658015Y-78931168D01*
X205658019Y-78931166D01*
X205802766Y-78786419D01*
X205802768Y-78786415D01*
X205802771Y-78786413D01*
X205880795Y-78679020D01*
X205923087Y-78620810D01*
X206016020Y-78438419D01*
X206079277Y-78243734D01*
X206111300Y-78041552D01*
X206111300Y-77836848D01*
X206079277Y-77634666D01*
X206057361Y-77567217D01*
X206016018Y-77439976D01*
X205978925Y-77367179D01*
X205923087Y-77257590D01*
X205887433Y-77208516D01*
X205802771Y-77091986D01*
X205658013Y-76947228D01*
X205492414Y-76826915D01*
X205483457Y-76822351D01*
X205399717Y-76779683D01*
X205348923Y-76731711D01*
X205332128Y-76663890D01*
X205354665Y-76597755D01*
X205399717Y-76558716D01*
X205492410Y-76511487D01*
X205624573Y-76415466D01*
X205658013Y-76391171D01*
X205658015Y-76391168D01*
X205658019Y-76391166D01*
X205802766Y-76246419D01*
X205802768Y-76246415D01*
X205802771Y-76246413D01*
X205887363Y-76129980D01*
X205923087Y-76080810D01*
X206016020Y-75898419D01*
X206079277Y-75703734D01*
X206111300Y-75501552D01*
X206111300Y-75296848D01*
X206079277Y-75094666D01*
X206016020Y-74899981D01*
X206016018Y-74899978D01*
X206016018Y-74899976D01*
X205982303Y-74833807D01*
X205923087Y-74717590D01*
X205915356Y-74706949D01*
X205802771Y-74551986D01*
X205658013Y-74407228D01*
X205492414Y-74286915D01*
X205483457Y-74282351D01*
X205399717Y-74239683D01*
X205348923Y-74191711D01*
X205332128Y-74123890D01*
X205354665Y-74057755D01*
X205399717Y-74018716D01*
X205492410Y-73971487D01*
X205624573Y-73875466D01*
X205658013Y-73851171D01*
X205658015Y-73851168D01*
X205658019Y-73851166D01*
X205802766Y-73706419D01*
X205802768Y-73706415D01*
X205802771Y-73706413D01*
X205868285Y-73616239D01*
X205923087Y-73540810D01*
X206016020Y-73358419D01*
X206079277Y-73163734D01*
X206111300Y-72961552D01*
X206111300Y-72756848D01*
X206079277Y-72554666D01*
X206016020Y-72359981D01*
X206016018Y-72359978D01*
X206016018Y-72359976D01*
X205944734Y-72220075D01*
X205923087Y-72177590D01*
X205862683Y-72094450D01*
X205802771Y-72011986D01*
X205658019Y-71867234D01*
X205621730Y-71840869D01*
X205579064Y-71785539D01*
X205573085Y-71715926D01*
X205605690Y-71654131D01*
X205666528Y-71619773D01*
X205681362Y-71617260D01*
X205718283Y-71613291D01*
X205853128Y-71562997D01*
X205853127Y-71562997D01*
X205853131Y-71562996D01*
X205968346Y-71476746D01*
X206054596Y-71361531D01*
X206104891Y-71226683D01*
X206111300Y-71167073D01*
X206111299Y-69471328D01*
X206104891Y-69411717D01*
X206102212Y-69404535D01*
X206054597Y-69276871D01*
X206054593Y-69276864D01*
X205968347Y-69161655D01*
X205968344Y-69161652D01*
X205853135Y-69075406D01*
X205853128Y-69075402D01*
X205718282Y-69025108D01*
X205718283Y-69025108D01*
X205658683Y-69018701D01*
X205658681Y-69018700D01*
X205658673Y-69018700D01*
X205658664Y-69018700D01*
X203962929Y-69018700D01*
X203962923Y-69018701D01*
X203903316Y-69025108D01*
X203768471Y-69075402D01*
X203768464Y-69075406D01*
X203653255Y-69161652D01*
X203653252Y-69161655D01*
X203567006Y-69276864D01*
X203567002Y-69276871D01*
X203516708Y-69411717D01*
X203510301Y-69471316D01*
X203510301Y-69471323D01*
X203510300Y-69471335D01*
X203006772Y-69471335D01*
X203026144Y-69411716D01*
X203028475Y-69404541D01*
X203028475Y-69404539D01*
X203028477Y-69404534D01*
X203060500Y-69202352D01*
X203060500Y-68997648D01*
X203038148Y-68856523D01*
X203028477Y-68795465D01*
X202979072Y-68643414D01*
X202965220Y-68600781D01*
X202965218Y-68600778D01*
X202965218Y-68600776D01*
X202931503Y-68534607D01*
X202872287Y-68418390D01*
X202808235Y-68330229D01*
X202751971Y-68252786D01*
X202607213Y-68108028D01*
X202441614Y-67987715D01*
X202435006Y-67984348D01*
X202348917Y-67940483D01*
X202298123Y-67892511D01*
X202281328Y-67824690D01*
X202303865Y-67758555D01*
X202348917Y-67719516D01*
X202441610Y-67672287D01*
X202532042Y-67606585D01*
X202607213Y-67551971D01*
X202607215Y-67551968D01*
X202607219Y-67551966D01*
X202751966Y-67407219D01*
X202751968Y-67407215D01*
X202751971Y-67407213D01*
X202869669Y-67245213D01*
X202872287Y-67241610D01*
X202965220Y-67059219D01*
X203028477Y-66864534D01*
X203060500Y-66662352D01*
X203060500Y-66457648D01*
X203028477Y-66255466D01*
X202965220Y-66060781D01*
X202965218Y-66060778D01*
X202965218Y-66060776D01*
X202931503Y-65994607D01*
X202872287Y-65878390D01*
X202838324Y-65831643D01*
X202751971Y-65712786D01*
X202607213Y-65568028D01*
X202441613Y-65447715D01*
X202441612Y-65447714D01*
X202441610Y-65447713D01*
X202384653Y-65418691D01*
X202259223Y-65354781D01*
X202064534Y-65291522D01*
X201889995Y-65263878D01*
X201862352Y-65259500D01*
X201657648Y-65259500D01*
X201633329Y-65263351D01*
X201455465Y-65291522D01*
X201260776Y-65354781D01*
X201078386Y-65447715D01*
X200912786Y-65568028D01*
X200768028Y-65712786D01*
X200647715Y-65878386D01*
X200554781Y-66060776D01*
X200491522Y-66255465D01*
X200459500Y-66457648D01*
X200459500Y-66662351D01*
X200491522Y-66864534D01*
X200554781Y-67059223D01*
X200647715Y-67241613D01*
X200768028Y-67407213D01*
X200912786Y-67551971D01*
X201067749Y-67664556D01*
X201078390Y-67672287D01*
X201169840Y-67718883D01*
X201171080Y-67719515D01*
X201221876Y-67767490D01*
X201238671Y-67835311D01*
X201216134Y-67901446D01*
X201171080Y-67940485D01*
X201078386Y-67987715D01*
X200912786Y-68108028D01*
X200768028Y-68252786D01*
X200647715Y-68418386D01*
X200554781Y-68600776D01*
X200491522Y-68795465D01*
X200466263Y-68954947D01*
X200459500Y-68997648D01*
X200459500Y-69202352D01*
X200461647Y-69215910D01*
X200491522Y-69404534D01*
X200554781Y-69599223D01*
X200647715Y-69781613D01*
X200768028Y-69947213D01*
X200912786Y-70091971D01*
X201067749Y-70204556D01*
X201078390Y-70212287D01*
X201169840Y-70258883D01*
X201171080Y-70259515D01*
X201221876Y-70307490D01*
X201238671Y-70375311D01*
X201216134Y-70441446D01*
X201171080Y-70480485D01*
X201078386Y-70527715D01*
X200912786Y-70648028D01*
X200768028Y-70792786D01*
X200647715Y-70958386D01*
X200554781Y-71140776D01*
X200491522Y-71335465D01*
X200473379Y-71450018D01*
X200459500Y-71537648D01*
X200459500Y-71742352D01*
X200463878Y-71769995D01*
X200491522Y-71944534D01*
X200554781Y-72139223D01*
X200647715Y-72321613D01*
X200768028Y-72487213D01*
X200912786Y-72631971D01*
X201067749Y-72744556D01*
X201078390Y-72752287D01*
X201169840Y-72798883D01*
X201171080Y-72799515D01*
X201221876Y-72847490D01*
X201238671Y-72915311D01*
X201216134Y-72981446D01*
X201171080Y-73020485D01*
X201078386Y-73067715D01*
X200912786Y-73188028D01*
X200768028Y-73332786D01*
X200647715Y-73498386D01*
X200554781Y-73680776D01*
X200491522Y-73875465D01*
X200468834Y-74018715D01*
X200459500Y-74077648D01*
X200459500Y-74282352D01*
X200460223Y-74286915D01*
X200491522Y-74484534D01*
X200554781Y-74679223D01*
X200647715Y-74861613D01*
X200768028Y-75027213D01*
X200912786Y-75171971D01*
X201067749Y-75284556D01*
X201078390Y-75292287D01*
X201169840Y-75338883D01*
X201171080Y-75339515D01*
X201221876Y-75387490D01*
X201238671Y-75455311D01*
X201216134Y-75521446D01*
X201171080Y-75560485D01*
X201078386Y-75607715D01*
X200912786Y-75728028D01*
X200768028Y-75872786D01*
X200647715Y-76038386D01*
X200554781Y-76220776D01*
X200491522Y-76415465D01*
X200468834Y-76558715D01*
X200459500Y-76617648D01*
X200459500Y-76822352D01*
X200460223Y-76826915D01*
X200491522Y-77024534D01*
X200554781Y-77219223D01*
X200647715Y-77401613D01*
X200768028Y-77567213D01*
X200912786Y-77711971D01*
X201067749Y-77824556D01*
X201078390Y-77832287D01*
X201169840Y-77878883D01*
X201171080Y-77879515D01*
X201221876Y-77927490D01*
X201238671Y-77995311D01*
X201216134Y-78061446D01*
X201171080Y-78100485D01*
X201078386Y-78147715D01*
X200912786Y-78268028D01*
X200768028Y-78412786D01*
X200647715Y-78578386D01*
X200554781Y-78760776D01*
X200491522Y-78955465D01*
X200472100Y-79078096D01*
X200459500Y-79157648D01*
X200459500Y-79362352D01*
X200460223Y-79366915D01*
X200491522Y-79564534D01*
X200554781Y-79759223D01*
X200647715Y-79941613D01*
X200768028Y-80107213D01*
X200912786Y-80251971D01*
X201067749Y-80364556D01*
X201078390Y-80372287D01*
X201169840Y-80418883D01*
X201171080Y-80419515D01*
X201221876Y-80467490D01*
X201238671Y-80535311D01*
X201216134Y-80601446D01*
X201171080Y-80640485D01*
X201078386Y-80687715D01*
X200912786Y-80808028D01*
X200768028Y-80952786D01*
X200647715Y-81118386D01*
X200554781Y-81300776D01*
X200491522Y-81495465D01*
X200459500Y-81697648D01*
X200459500Y-81902351D01*
X200491522Y-82104534D01*
X200554781Y-82299223D01*
X200647715Y-82481613D01*
X200768028Y-82647213D01*
X200912786Y-82791971D01*
X201067749Y-82904556D01*
X201078390Y-82912287D01*
X201169840Y-82958883D01*
X201171080Y-82959515D01*
X201221876Y-83007490D01*
X201238671Y-83075311D01*
X201216134Y-83141446D01*
X201171080Y-83180485D01*
X201078386Y-83227715D01*
X200912786Y-83348028D01*
X200768028Y-83492786D01*
X200647715Y-83658386D01*
X200554781Y-83840776D01*
X200491522Y-84035465D01*
X200459500Y-84237648D01*
X200459500Y-84442351D01*
X200491522Y-84644534D01*
X200554781Y-84839223D01*
X200647715Y-85021613D01*
X200768028Y-85187213D01*
X200912786Y-85331971D01*
X201067749Y-85444556D01*
X201078390Y-85452287D01*
X201169840Y-85498883D01*
X201171080Y-85499515D01*
X201221876Y-85547490D01*
X201238671Y-85615311D01*
X201216134Y-85681446D01*
X201171080Y-85720485D01*
X201078386Y-85767715D01*
X200912786Y-85888028D01*
X200768028Y-86032786D01*
X200647715Y-86198386D01*
X200554781Y-86380776D01*
X200491522Y-86575465D01*
X200459500Y-86777648D01*
X200459500Y-86982351D01*
X200491522Y-87184534D01*
X200554781Y-87379223D01*
X200647715Y-87561613D01*
X200768028Y-87727213D01*
X200912786Y-87871971D01*
X201067749Y-87984556D01*
X201078390Y-87992287D01*
X201169840Y-88038883D01*
X201171080Y-88039515D01*
X201221876Y-88087490D01*
X201238671Y-88155311D01*
X201216134Y-88221446D01*
X201171080Y-88260485D01*
X201078386Y-88307715D01*
X200912786Y-88428028D01*
X200768028Y-88572786D01*
X200647715Y-88738386D01*
X200554781Y-88920776D01*
X200491522Y-89115465D01*
X200459500Y-89317648D01*
X200459500Y-89522352D01*
X200463878Y-89549995D01*
X200491522Y-89724534D01*
X200554781Y-89919223D01*
X200647715Y-90101613D01*
X200768028Y-90267213D01*
X200912786Y-90411971D01*
X201067749Y-90524556D01*
X201078390Y-90532287D01*
X201169840Y-90578883D01*
X201171080Y-90579515D01*
X201221876Y-90627490D01*
X201238671Y-90695311D01*
X201216134Y-90761446D01*
X201171080Y-90800485D01*
X201078386Y-90847715D01*
X200912786Y-90968028D01*
X200768028Y-91112786D01*
X200647715Y-91278386D01*
X200554781Y-91460776D01*
X200491522Y-91655465D01*
X200459500Y-91857648D01*
X200459500Y-92062351D01*
X200491522Y-92264534D01*
X200554781Y-92459223D01*
X200647715Y-92641613D01*
X200768028Y-92807213D01*
X200912786Y-92951971D01*
X201067749Y-93064556D01*
X201078390Y-93072287D01*
X201169840Y-93118883D01*
X201171080Y-93119515D01*
X201221876Y-93167490D01*
X201238671Y-93235311D01*
X201216134Y-93301446D01*
X201171080Y-93340485D01*
X201078386Y-93387715D01*
X200912786Y-93508028D01*
X200768028Y-93652786D01*
X200647715Y-93818386D01*
X200554781Y-94000776D01*
X200491522Y-94195465D01*
X200459500Y-94397648D01*
X200459500Y-94602351D01*
X200491522Y-94804534D01*
X200554781Y-94999223D01*
X200647715Y-95181613D01*
X200768028Y-95347213D01*
X200912786Y-95491971D01*
X201067749Y-95604556D01*
X201078390Y-95612287D01*
X201151425Y-95649500D01*
X201171080Y-95659515D01*
X201221876Y-95707490D01*
X201238671Y-95775311D01*
X201216134Y-95841446D01*
X201171080Y-95880485D01*
X201078386Y-95927715D01*
X200912786Y-96048028D01*
X200768028Y-96192786D01*
X200647715Y-96358386D01*
X200554781Y-96540776D01*
X200491522Y-96735465D01*
X200459220Y-96939415D01*
X200429291Y-97002550D01*
X200369979Y-97039481D01*
X200300117Y-97038483D01*
X200249066Y-97007698D01*
X198158421Y-94917052D01*
X198158420Y-94917051D01*
X198076029Y-94862000D01*
X198076028Y-94861999D01*
X198035500Y-94834919D01*
X198035488Y-94834912D01*
X197898917Y-94778343D01*
X197898907Y-94778340D01*
X197753920Y-94749500D01*
X197753918Y-94749500D01*
X185137229Y-94749500D01*
X185070190Y-94729815D01*
X185049548Y-94713181D01*
X182786818Y-92450451D01*
X182753333Y-92389128D01*
X182750499Y-92362770D01*
X182750499Y-91349998D01*
X182750498Y-91349981D01*
X182739999Y-91247203D01*
X182739998Y-91247200D01*
X182684814Y-91080666D01*
X182592712Y-90931344D01*
X182468656Y-90807288D01*
X182319334Y-90715186D01*
X182152797Y-90660001D01*
X182152795Y-90660000D01*
X182050010Y-90649500D01*
X180499998Y-90649500D01*
X180499981Y-90649501D01*
X180397203Y-90660000D01*
X180397200Y-90660001D01*
X180230668Y-90715185D01*
X180230663Y-90715187D01*
X180081342Y-90807289D01*
X179957289Y-90931342D01*
X179865187Y-91080663D01*
X179865186Y-91080666D01*
X179810001Y-91247203D01*
X179810001Y-91247204D01*
X179810000Y-91247204D01*
X179799500Y-91349983D01*
X179799500Y-92650001D01*
X179799501Y-92650018D01*
X179810000Y-92752796D01*
X179810001Y-92752799D01*
X179865185Y-92919331D01*
X179865187Y-92919336D01*
X179900069Y-92975888D01*
X179957288Y-93068656D01*
X180081344Y-93192712D01*
X180230666Y-93284814D01*
X180397203Y-93339999D01*
X180499991Y-93350500D01*
X181512769Y-93350499D01*
X181579808Y-93370183D01*
X181600450Y-93386818D01*
X182926814Y-94713181D01*
X184192048Y-95978415D01*
X184192049Y-95978416D01*
X184261661Y-96048028D01*
X184296585Y-96082952D01*
X184419498Y-96165080D01*
X184419511Y-96165087D01*
X184556082Y-96221656D01*
X184556087Y-96221658D01*
X184556091Y-96221658D01*
X184556092Y-96221659D01*
X184701079Y-96250500D01*
X184701082Y-96250500D01*
X197317770Y-96250500D01*
X197384809Y-96270185D01*
X197405451Y-96286819D01*
X200433526Y-99314893D01*
X200467011Y-99376216D01*
X200468318Y-99421971D01*
X200459500Y-99477647D01*
X200459500Y-99682351D01*
X200491522Y-99884534D01*
X200554781Y-100079223D01*
X200647715Y-100261613D01*
X200768028Y-100427213D01*
X200912786Y-100571971D01*
X201067749Y-100684556D01*
X201078390Y-100692287D01*
X201169840Y-100738883D01*
X201171080Y-100739515D01*
X201221876Y-100787490D01*
X201238671Y-100855311D01*
X201216134Y-100921446D01*
X201171080Y-100960485D01*
X201078386Y-101007715D01*
X200912786Y-101128028D01*
X200768028Y-101272786D01*
X200647715Y-101438386D01*
X200554781Y-101620776D01*
X200491522Y-101815465D01*
X200459500Y-102017648D01*
X200459500Y-102222351D01*
X200491522Y-102424534D01*
X200554781Y-102619223D01*
X200647715Y-102801613D01*
X200768028Y-102967213D01*
X200912786Y-103111971D01*
X201067749Y-103224556D01*
X201078390Y-103232287D01*
X201169840Y-103278883D01*
X201171080Y-103279515D01*
X201221876Y-103327490D01*
X201238671Y-103395311D01*
X201216134Y-103461446D01*
X201171080Y-103500485D01*
X201078386Y-103547715D01*
X200912786Y-103668028D01*
X200768028Y-103812786D01*
X200647715Y-103978386D01*
X200554781Y-104160776D01*
X200491522Y-104355465D01*
X200459500Y-104557648D01*
X200459500Y-104762351D01*
X200491522Y-104964534D01*
X200554781Y-105159223D01*
X200647715Y-105341613D01*
X200768028Y-105507213D01*
X200912786Y-105651971D01*
X201067749Y-105764556D01*
X201078390Y-105772287D01*
X201169840Y-105818883D01*
X201171080Y-105819515D01*
X201221876Y-105867490D01*
X201238671Y-105935311D01*
X201216134Y-106001446D01*
X201171080Y-106040485D01*
X201078386Y-106087715D01*
X200912786Y-106208028D01*
X200768028Y-106352786D01*
X200647715Y-106518386D01*
X200554781Y-106700776D01*
X200491522Y-106895465D01*
X200459500Y-107097648D01*
X200459500Y-107302351D01*
X200491522Y-107504534D01*
X200554781Y-107699223D01*
X200647715Y-107881613D01*
X200768028Y-108047213D01*
X200912786Y-108191971D01*
X201067749Y-108304556D01*
X201078390Y-108312287D01*
X201169840Y-108358883D01*
X201171080Y-108359515D01*
X201221876Y-108407490D01*
X201238671Y-108475311D01*
X201216134Y-108541446D01*
X201171080Y-108580485D01*
X201078386Y-108627715D01*
X200912786Y-108748028D01*
X200768028Y-108892786D01*
X200647715Y-109058386D01*
X200554781Y-109240776D01*
X200491522Y-109435465D01*
X200459500Y-109637648D01*
X200459500Y-109842351D01*
X200491522Y-110044534D01*
X200554781Y-110239223D01*
X200647715Y-110421613D01*
X200768028Y-110587213D01*
X200912786Y-110731971D01*
X201033880Y-110819949D01*
X201078390Y-110852287D01*
X201132372Y-110879792D01*
X201171080Y-110899515D01*
X201221876Y-110947490D01*
X201238671Y-111015311D01*
X201216134Y-111081446D01*
X201171080Y-111120485D01*
X201078386Y-111167715D01*
X200912786Y-111288028D01*
X200768028Y-111432786D01*
X200647715Y-111598386D01*
X200554781Y-111780776D01*
X200491522Y-111975465D01*
X200461272Y-112166462D01*
X200459500Y-112177648D01*
X200459500Y-112382352D01*
X200462981Y-112404329D01*
X200491522Y-112584534D01*
X200554781Y-112779223D01*
X200647715Y-112961613D01*
X200768028Y-113127213D01*
X200912786Y-113271971D01*
X201061184Y-113379786D01*
X201078390Y-113392287D01*
X201169840Y-113438883D01*
X201171080Y-113439515D01*
X201221876Y-113487490D01*
X201238671Y-113555311D01*
X201216134Y-113621446D01*
X201171080Y-113660485D01*
X201078386Y-113707715D01*
X200912786Y-113828028D01*
X200768028Y-113972786D01*
X200647715Y-114138386D01*
X200554781Y-114320776D01*
X200491522Y-114515465D01*
X200459500Y-114717648D01*
X200459500Y-114922351D01*
X200491522Y-115124534D01*
X200554781Y-115319223D01*
X200647715Y-115501613D01*
X200768028Y-115667213D01*
X200912786Y-115811971D01*
X201039702Y-115904179D01*
X201078390Y-115932287D01*
X201169840Y-115978883D01*
X201171080Y-115979515D01*
X201221876Y-116027490D01*
X201238671Y-116095311D01*
X201216134Y-116161446D01*
X201171080Y-116200485D01*
X201078386Y-116247715D01*
X200912786Y-116368028D01*
X200768028Y-116512786D01*
X200647715Y-116678386D01*
X200554781Y-116860776D01*
X200491522Y-117055465D01*
X200459500Y-117257648D01*
X200459500Y-117462351D01*
X200491522Y-117664534D01*
X200554781Y-117859223D01*
X200647715Y-118041613D01*
X200768028Y-118207213D01*
X200912786Y-118351971D01*
X201067749Y-118464556D01*
X201078390Y-118472287D01*
X201169840Y-118518883D01*
X201171080Y-118519515D01*
X201221876Y-118567490D01*
X201238671Y-118635311D01*
X201216134Y-118701446D01*
X201171080Y-118740485D01*
X201078386Y-118787715D01*
X200912786Y-118908028D01*
X200768028Y-119052786D01*
X200647715Y-119218386D01*
X200554781Y-119400776D01*
X200491522Y-119595465D01*
X200459500Y-119797648D01*
X200459500Y-120002351D01*
X200491522Y-120204534D01*
X200554781Y-120399223D01*
X200647715Y-120581613D01*
X200768028Y-120747213D01*
X200912786Y-120891971D01*
X201067749Y-121004556D01*
X201078390Y-121012287D01*
X201169840Y-121058883D01*
X201171080Y-121059515D01*
X201221876Y-121107490D01*
X201238671Y-121175311D01*
X201216134Y-121241446D01*
X201171080Y-121280485D01*
X201078386Y-121327715D01*
X200912786Y-121448028D01*
X200768028Y-121592786D01*
X200647715Y-121758386D01*
X200554781Y-121940776D01*
X200491522Y-122135465D01*
X200459500Y-122337648D01*
X200459500Y-122542351D01*
X200491522Y-122744534D01*
X200554781Y-122939223D01*
X200647715Y-123121613D01*
X200768028Y-123287213D01*
X200912786Y-123431971D01*
X201067749Y-123544556D01*
X201078390Y-123552287D01*
X201194607Y-123611503D01*
X201260776Y-123645218D01*
X201260778Y-123645218D01*
X201260781Y-123645220D01*
X201365137Y-123679127D01*
X201455465Y-123708477D01*
X201556557Y-123724488D01*
X201657648Y-123740500D01*
X201657649Y-123740500D01*
X201862351Y-123740500D01*
X201862352Y-123740500D01*
X202064534Y-123708477D01*
X202259219Y-123645220D01*
X202441610Y-123552287D01*
X202534590Y-123484732D01*
X202607213Y-123431971D01*
X202607215Y-123431968D01*
X202607219Y-123431966D01*
X202751966Y-123287219D01*
X202751968Y-123287215D01*
X202751971Y-123287213D01*
X202804732Y-123214590D01*
X202872287Y-123121610D01*
X202965220Y-122939219D01*
X203028477Y-122744534D01*
X203060500Y-122542352D01*
X203060500Y-122337648D01*
X203028477Y-122135466D01*
X202965220Y-121940781D01*
X202965218Y-121940778D01*
X202965218Y-121940776D01*
X202927752Y-121867246D01*
X202872287Y-121758390D01*
X202864556Y-121747749D01*
X202751971Y-121592786D01*
X202607213Y-121448028D01*
X202441614Y-121327715D01*
X202435006Y-121324348D01*
X202348917Y-121280483D01*
X202298123Y-121232511D01*
X202281328Y-121164690D01*
X202303865Y-121098555D01*
X202348917Y-121059516D01*
X202441610Y-121012287D01*
X202462770Y-120996913D01*
X202607213Y-120891971D01*
X202607215Y-120891968D01*
X202607219Y-120891966D01*
X202751966Y-120747219D01*
X202751968Y-120747215D01*
X202751971Y-120747213D01*
X202818032Y-120656286D01*
X202872287Y-120581610D01*
X202965220Y-120399219D01*
X203028477Y-120204534D01*
X203060500Y-120002352D01*
X203060500Y-119797648D01*
X203028477Y-119595466D01*
X202965220Y-119400781D01*
X202965218Y-119400778D01*
X202965218Y-119400776D01*
X202931503Y-119334607D01*
X202872287Y-119218390D01*
X202858694Y-119199681D01*
X202751971Y-119052786D01*
X202607213Y-118908028D01*
X202441614Y-118787715D01*
X202435006Y-118784348D01*
X202348917Y-118740483D01*
X202298123Y-118692511D01*
X202281328Y-118624690D01*
X202303865Y-118558555D01*
X202348917Y-118519516D01*
X202441610Y-118472287D01*
X202474575Y-118448337D01*
X202607213Y-118351971D01*
X202607215Y-118351968D01*
X202607219Y-118351966D01*
X202751966Y-118207219D01*
X202751968Y-118207215D01*
X202751971Y-118207213D01*
X202804732Y-118134590D01*
X202872287Y-118041610D01*
X202965220Y-117859219D01*
X203028477Y-117664534D01*
X203060500Y-117462352D01*
X203060500Y-117257648D01*
X203028477Y-117055465D01*
X202999127Y-116965137D01*
X202965220Y-116860781D01*
X202965218Y-116860778D01*
X202965218Y-116860776D01*
X202931503Y-116794607D01*
X202872287Y-116678390D01*
X202864556Y-116667749D01*
X202751971Y-116512786D01*
X202607213Y-116368028D01*
X202441614Y-116247715D01*
X202425493Y-116239501D01*
X202348917Y-116200483D01*
X202298123Y-116152511D01*
X202281328Y-116084690D01*
X202303865Y-116018555D01*
X202348917Y-115979516D01*
X202441610Y-115932287D01*
X202528126Y-115869430D01*
X202607213Y-115811971D01*
X202607215Y-115811968D01*
X202607219Y-115811966D01*
X202751966Y-115667219D01*
X202751968Y-115667215D01*
X202751971Y-115667213D01*
X202804732Y-115594590D01*
X202872287Y-115501610D01*
X202965220Y-115319219D01*
X203028477Y-115124534D01*
X203060500Y-114922352D01*
X203060500Y-114717648D01*
X203036106Y-114563632D01*
X203028477Y-114515465D01*
X202965218Y-114320776D01*
X202931503Y-114254607D01*
X202872287Y-114138390D01*
X202864556Y-114127749D01*
X202751971Y-113972786D01*
X202607213Y-113828028D01*
X202441614Y-113707715D01*
X202435006Y-113704348D01*
X202348917Y-113660483D01*
X202298123Y-113612511D01*
X202281328Y-113544690D01*
X202303865Y-113478555D01*
X202348917Y-113439516D01*
X202441610Y-113392287D01*
X202462770Y-113376913D01*
X202607213Y-113271971D01*
X202607215Y-113271968D01*
X202607219Y-113271966D01*
X202751966Y-113127219D01*
X202751968Y-113127215D01*
X202751971Y-113127213D01*
X202804732Y-113054590D01*
X202872287Y-112961610D01*
X202965220Y-112779219D01*
X203028477Y-112584534D01*
X203060500Y-112382352D01*
X203060500Y-112177648D01*
X203040931Y-112054097D01*
X203028477Y-111975465D01*
X202965218Y-111780776D01*
X202903047Y-111658760D01*
X202872287Y-111598390D01*
X202864556Y-111587749D01*
X202751971Y-111432786D01*
X202607213Y-111288028D01*
X202441614Y-111167715D01*
X202406220Y-111149681D01*
X202348917Y-111120483D01*
X202298123Y-111072511D01*
X202281328Y-111004690D01*
X202303865Y-110938555D01*
X202348917Y-110899516D01*
X202441610Y-110852287D01*
X202486120Y-110819949D01*
X202607213Y-110731971D01*
X202607215Y-110731968D01*
X202607219Y-110731966D01*
X202751966Y-110587219D01*
X202751968Y-110587215D01*
X202751971Y-110587213D01*
X202872284Y-110421614D01*
X202872285Y-110421613D01*
X202872287Y-110421610D01*
X202919516Y-110328917D01*
X202967489Y-110278123D01*
X203035310Y-110261328D01*
X203101445Y-110283865D01*
X203140485Y-110328919D01*
X203187715Y-110421614D01*
X203308028Y-110587213D01*
X203452786Y-110731971D01*
X203573880Y-110819949D01*
X203618390Y-110852287D01*
X203711080Y-110899515D01*
X203800776Y-110945218D01*
X203800778Y-110945218D01*
X203800781Y-110945220D01*
X203905137Y-110979127D01*
X203995465Y-111008477D01*
X204014697Y-111011523D01*
X204197648Y-111040500D01*
X204197649Y-111040500D01*
X204402351Y-111040500D01*
X204402352Y-111040500D01*
X204604534Y-111008477D01*
X204799219Y-110945220D01*
X204981610Y-110852287D01*
X205074590Y-110784732D01*
X205147213Y-110731971D01*
X205147215Y-110731968D01*
X205147219Y-110731966D01*
X205291966Y-110587219D01*
X205291968Y-110587215D01*
X205291971Y-110587213D01*
X205412284Y-110421614D01*
X205412285Y-110421613D01*
X205412287Y-110421610D01*
X205459516Y-110328917D01*
X205507489Y-110278123D01*
X205575310Y-110261328D01*
X205641445Y-110283865D01*
X205680485Y-110328919D01*
X205727715Y-110421614D01*
X205848028Y-110587213D01*
X205992786Y-110731971D01*
X206113880Y-110819949D01*
X206158390Y-110852287D01*
X206251080Y-110899515D01*
X206340776Y-110945218D01*
X206340778Y-110945218D01*
X206340781Y-110945220D01*
X206445137Y-110979127D01*
X206535465Y-111008477D01*
X206554697Y-111011523D01*
X206737648Y-111040500D01*
X206737649Y-111040500D01*
X206942351Y-111040500D01*
X206942352Y-111040500D01*
X207144534Y-111008477D01*
X207339219Y-110945220D01*
X207521610Y-110852287D01*
X207614590Y-110784732D01*
X207687213Y-110731971D01*
X207687215Y-110731968D01*
X207687219Y-110731966D01*
X207831966Y-110587219D01*
X207831968Y-110587215D01*
X207831971Y-110587213D01*
X207952284Y-110421614D01*
X207952285Y-110421613D01*
X207952287Y-110421610D01*
X207999516Y-110328917D01*
X208047489Y-110278123D01*
X208115310Y-110261328D01*
X208181445Y-110283865D01*
X208220485Y-110328919D01*
X208267715Y-110421614D01*
X208388028Y-110587213D01*
X208532786Y-110731971D01*
X208653880Y-110819949D01*
X208698390Y-110852287D01*
X208791080Y-110899515D01*
X208880776Y-110945218D01*
X208880778Y-110945218D01*
X208880781Y-110945220D01*
X208985137Y-110979127D01*
X209075465Y-111008477D01*
X209094697Y-111011523D01*
X209277648Y-111040500D01*
X209277649Y-111040500D01*
X209482351Y-111040500D01*
X209482352Y-111040500D01*
X209684534Y-111008477D01*
X209879219Y-110945220D01*
X210061610Y-110852287D01*
X210154590Y-110784732D01*
X210227213Y-110731971D01*
X210227215Y-110731968D01*
X210227219Y-110731966D01*
X210371966Y-110587219D01*
X210371968Y-110587215D01*
X210371971Y-110587213D01*
X210492284Y-110421614D01*
X210492285Y-110421613D01*
X210492287Y-110421610D01*
X210539516Y-110328917D01*
X210587489Y-110278123D01*
X210655310Y-110261328D01*
X210721445Y-110283865D01*
X210760485Y-110328919D01*
X210807715Y-110421614D01*
X210928028Y-110587213D01*
X211072786Y-110731971D01*
X211193880Y-110819949D01*
X211238390Y-110852287D01*
X211331080Y-110899515D01*
X211420776Y-110945218D01*
X211420778Y-110945218D01*
X211420781Y-110945220D01*
X211525137Y-110979127D01*
X211615465Y-111008477D01*
X211634697Y-111011523D01*
X211817648Y-111040500D01*
X211817649Y-111040500D01*
X212022351Y-111040500D01*
X212022352Y-111040500D01*
X212224534Y-111008477D01*
X212419219Y-110945220D01*
X212601610Y-110852287D01*
X212694590Y-110784732D01*
X212767213Y-110731971D01*
X212767215Y-110731968D01*
X212767219Y-110731966D01*
X212911966Y-110587219D01*
X212911968Y-110587215D01*
X212911971Y-110587213D01*
X213032284Y-110421614D01*
X213032285Y-110421613D01*
X213032287Y-110421610D01*
X213079516Y-110328917D01*
X213127489Y-110278123D01*
X213195310Y-110261328D01*
X213261445Y-110283865D01*
X213300485Y-110328919D01*
X213347715Y-110421614D01*
X213468028Y-110587213D01*
X213612786Y-110731971D01*
X213733880Y-110819949D01*
X213778390Y-110852287D01*
X213871080Y-110899515D01*
X213960776Y-110945218D01*
X213960778Y-110945218D01*
X213960781Y-110945220D01*
X214065137Y-110979127D01*
X214155465Y-111008477D01*
X214174697Y-111011523D01*
X214357648Y-111040500D01*
X214357649Y-111040500D01*
X214562351Y-111040500D01*
X214562352Y-111040500D01*
X214764534Y-111008477D01*
X214959219Y-110945220D01*
X215141610Y-110852287D01*
X215234590Y-110784732D01*
X215307213Y-110731971D01*
X215307215Y-110731968D01*
X215307219Y-110731966D01*
X215451966Y-110587219D01*
X215451968Y-110587215D01*
X215451971Y-110587213D01*
X215572284Y-110421614D01*
X215572285Y-110421613D01*
X215572287Y-110421610D01*
X215619516Y-110328917D01*
X215667489Y-110278123D01*
X215735310Y-110261328D01*
X215801445Y-110283865D01*
X215840485Y-110328919D01*
X215887715Y-110421614D01*
X216008028Y-110587213D01*
X216152786Y-110731971D01*
X216273880Y-110819949D01*
X216318390Y-110852287D01*
X216372372Y-110879792D01*
X216411080Y-110899515D01*
X216461876Y-110947490D01*
X216478671Y-111015311D01*
X216456134Y-111081446D01*
X216411080Y-111120485D01*
X216318386Y-111167715D01*
X216152786Y-111288028D01*
X216008028Y-111432786D01*
X215887715Y-111598386D01*
X215794781Y-111780776D01*
X215731522Y-111975465D01*
X215701272Y-112166462D01*
X215699500Y-112177648D01*
X215699500Y-112382352D01*
X215702981Y-112404329D01*
X215731522Y-112584534D01*
X215794781Y-112779223D01*
X215887715Y-112961613D01*
X216008028Y-113127213D01*
X216152786Y-113271971D01*
X216301184Y-113379786D01*
X216318390Y-113392287D01*
X216409840Y-113438883D01*
X216411080Y-113439515D01*
X216461876Y-113487490D01*
X216478671Y-113555311D01*
X216456134Y-113621446D01*
X216411080Y-113660485D01*
X216318386Y-113707715D01*
X216152786Y-113828028D01*
X216008028Y-113972786D01*
X215887715Y-114138386D01*
X215794781Y-114320776D01*
X215731522Y-114515465D01*
X215699500Y-114717648D01*
X215699500Y-114922351D01*
X215731522Y-115124534D01*
X215794781Y-115319223D01*
X215887715Y-115501613D01*
X216008028Y-115667213D01*
X216152786Y-115811971D01*
X216279702Y-115904179D01*
X216318390Y-115932287D01*
X216409840Y-115978883D01*
X216411080Y-115979515D01*
X216461876Y-116027490D01*
X216478671Y-116095311D01*
X216456134Y-116161446D01*
X216411080Y-116200485D01*
X216318386Y-116247715D01*
X216152786Y-116368028D01*
X216008028Y-116512786D01*
X215887715Y-116678386D01*
X215794781Y-116860776D01*
X215731522Y-117055465D01*
X215699500Y-117257648D01*
X215699500Y-117462351D01*
X215731522Y-117664534D01*
X215794781Y-117859223D01*
X215887715Y-118041613D01*
X216008028Y-118207213D01*
X216152786Y-118351971D01*
X216307749Y-118464556D01*
X216318390Y-118472287D01*
X216409840Y-118518883D01*
X216411080Y-118519515D01*
X216461876Y-118567490D01*
X216478671Y-118635311D01*
X216456134Y-118701446D01*
X216411080Y-118740485D01*
X216318386Y-118787715D01*
X216152786Y-118908028D01*
X216008028Y-119052786D01*
X215887715Y-119218386D01*
X215794781Y-119400776D01*
X215731522Y-119595465D01*
X215699500Y-119797648D01*
X215699500Y-120002351D01*
X215731522Y-120204534D01*
X215794781Y-120399223D01*
X215887715Y-120581613D01*
X216008028Y-120747213D01*
X216152786Y-120891971D01*
X216307749Y-121004556D01*
X216318390Y-121012287D01*
X216409840Y-121058883D01*
X216411080Y-121059515D01*
X216461876Y-121107490D01*
X216478671Y-121175311D01*
X216456134Y-121241446D01*
X216411080Y-121280485D01*
X216318386Y-121327715D01*
X216152786Y-121448028D01*
X216008028Y-121592786D01*
X215887715Y-121758386D01*
X215794781Y-121940776D01*
X215731522Y-122135465D01*
X215699500Y-122337648D01*
X215699500Y-122542351D01*
X215731522Y-122744534D01*
X215794781Y-122939223D01*
X215887715Y-123121613D01*
X216008028Y-123287213D01*
X216152786Y-123431971D01*
X216307749Y-123544556D01*
X216318390Y-123552287D01*
X216434607Y-123611503D01*
X216500776Y-123645218D01*
X216500778Y-123645218D01*
X216500781Y-123645220D01*
X216605137Y-123679127D01*
X216695465Y-123708477D01*
X216796557Y-123724488D01*
X216897648Y-123740500D01*
X216897649Y-123740500D01*
X217102351Y-123740500D01*
X217102352Y-123740500D01*
X217304534Y-123708477D01*
X217499219Y-123645220D01*
X217681610Y-123552287D01*
X217774590Y-123484732D01*
X217847213Y-123431971D01*
X217847215Y-123431968D01*
X217847219Y-123431966D01*
X217991966Y-123287219D01*
X217991968Y-123287215D01*
X217991971Y-123287213D01*
X218044732Y-123214590D01*
X218112287Y-123121610D01*
X218205220Y-122939219D01*
X218268477Y-122744534D01*
X218300500Y-122542352D01*
X218300500Y-122337648D01*
X218268477Y-122135466D01*
X218205220Y-121940781D01*
X218205218Y-121940778D01*
X218205218Y-121940776D01*
X218167752Y-121867246D01*
X218112287Y-121758390D01*
X218104556Y-121747749D01*
X217991971Y-121592786D01*
X217847213Y-121448028D01*
X217681614Y-121327715D01*
X217675006Y-121324348D01*
X217588917Y-121280483D01*
X217538123Y-121232511D01*
X217521328Y-121164690D01*
X217543865Y-121098555D01*
X217588917Y-121059516D01*
X217681610Y-121012287D01*
X217702770Y-120996913D01*
X217847213Y-120891971D01*
X217847215Y-120891968D01*
X217847219Y-120891966D01*
X217991966Y-120747219D01*
X217991968Y-120747215D01*
X217991971Y-120747213D01*
X218058032Y-120656286D01*
X218112287Y-120581610D01*
X218205220Y-120399219D01*
X218268477Y-120204534D01*
X218300500Y-120002352D01*
X218300500Y-119797648D01*
X218268477Y-119595466D01*
X218205220Y-119400781D01*
X218205218Y-119400778D01*
X218205218Y-119400776D01*
X218171503Y-119334607D01*
X218112287Y-119218390D01*
X218098694Y-119199681D01*
X217991971Y-119052786D01*
X217847213Y-118908028D01*
X217681614Y-118787715D01*
X217675006Y-118784348D01*
X217588917Y-118740483D01*
X217538123Y-118692511D01*
X217521328Y-118624690D01*
X217543865Y-118558555D01*
X217588917Y-118519516D01*
X217681610Y-118472287D01*
X217714575Y-118448337D01*
X217847213Y-118351971D01*
X217847215Y-118351968D01*
X217847219Y-118351966D01*
X217991966Y-118207219D01*
X217991968Y-118207215D01*
X217991971Y-118207213D01*
X218044732Y-118134590D01*
X218112287Y-118041610D01*
X218205220Y-117859219D01*
X218268477Y-117664534D01*
X218300500Y-117462352D01*
X218300500Y-117257648D01*
X218268477Y-117055465D01*
X218239127Y-116965137D01*
X218205220Y-116860781D01*
X218205218Y-116860778D01*
X218205218Y-116860776D01*
X218171503Y-116794607D01*
X218112287Y-116678390D01*
X218104556Y-116667749D01*
X217991971Y-116512786D01*
X217847213Y-116368028D01*
X217681614Y-116247715D01*
X217665493Y-116239501D01*
X217588917Y-116200483D01*
X217538123Y-116152511D01*
X217521328Y-116084690D01*
X217543865Y-116018555D01*
X217588917Y-115979516D01*
X217681610Y-115932287D01*
X217768126Y-115869430D01*
X217847213Y-115811971D01*
X217847215Y-115811968D01*
X217847219Y-115811966D01*
X217991966Y-115667219D01*
X217991968Y-115667215D01*
X217991971Y-115667213D01*
X218044732Y-115594590D01*
X218112287Y-115501610D01*
X218205220Y-115319219D01*
X218268477Y-115124534D01*
X218300500Y-114922352D01*
X218300500Y-114717648D01*
X218276106Y-114563632D01*
X218268477Y-114515465D01*
X218205218Y-114320776D01*
X218171503Y-114254607D01*
X218112287Y-114138390D01*
X218104556Y-114127749D01*
X217991971Y-113972786D01*
X217847213Y-113828028D01*
X217681614Y-113707715D01*
X217675006Y-113704348D01*
X217588917Y-113660483D01*
X217538123Y-113612511D01*
X217521328Y-113544690D01*
X217543865Y-113478555D01*
X217588917Y-113439516D01*
X217681610Y-113392287D01*
X217702770Y-113376913D01*
X217847213Y-113271971D01*
X217847215Y-113271968D01*
X217847219Y-113271966D01*
X217991966Y-113127219D01*
X217991968Y-113127215D01*
X217991971Y-113127213D01*
X218044732Y-113054590D01*
X218112287Y-112961610D01*
X218205220Y-112779219D01*
X218268477Y-112584534D01*
X218300500Y-112382352D01*
X218300500Y-112177648D01*
X218280931Y-112054097D01*
X218268477Y-111975465D01*
X218205218Y-111780776D01*
X218143047Y-111658760D01*
X218112287Y-111598390D01*
X218104556Y-111587749D01*
X217991971Y-111432786D01*
X217847213Y-111288028D01*
X217681614Y-111167715D01*
X217646220Y-111149681D01*
X217588917Y-111120483D01*
X217538123Y-111072511D01*
X217521328Y-111004690D01*
X217543865Y-110938555D01*
X217588917Y-110899516D01*
X217681610Y-110852287D01*
X217726120Y-110819949D01*
X217847213Y-110731971D01*
X217847215Y-110731968D01*
X217847219Y-110731966D01*
X217991966Y-110587219D01*
X217991968Y-110587215D01*
X217991971Y-110587213D01*
X218044732Y-110514590D01*
X218112287Y-110421610D01*
X218205220Y-110239219D01*
X218268477Y-110044534D01*
X218292365Y-109893713D01*
X223424500Y-109893713D01*
X223424500Y-110106286D01*
X223445554Y-110239219D01*
X223457754Y-110316243D01*
X223491991Y-110421614D01*
X223523444Y-110518414D01*
X223619951Y-110707820D01*
X223744890Y-110879786D01*
X223895209Y-111030105D01*
X223895214Y-111030109D01*
X224059793Y-111149682D01*
X224102459Y-111205011D01*
X224108438Y-111274625D01*
X224075833Y-111336420D01*
X224059793Y-111350318D01*
X223895214Y-111469890D01*
X223895209Y-111469894D01*
X223744890Y-111620213D01*
X223619951Y-111792179D01*
X223523444Y-111981585D01*
X223457753Y-112183760D01*
X223424500Y-112393713D01*
X223424500Y-112606286D01*
X223451890Y-112779223D01*
X223457754Y-112816243D01*
X223519119Y-113005105D01*
X223523444Y-113018414D01*
X223619951Y-113207820D01*
X223744890Y-113379786D01*
X223895213Y-113530109D01*
X224067179Y-113655048D01*
X224067181Y-113655049D01*
X224067184Y-113655051D01*
X224256588Y-113751557D01*
X224458757Y-113817246D01*
X224668713Y-113850500D01*
X224668714Y-113850500D01*
X225131286Y-113850500D01*
X225131287Y-113850500D01*
X225341243Y-113817246D01*
X225543412Y-113751557D01*
X225732816Y-113655051D01*
X225815177Y-113595213D01*
X225904786Y-113530109D01*
X225904788Y-113530106D01*
X225904792Y-113530104D01*
X226055104Y-113379792D01*
X226055106Y-113379788D01*
X226055109Y-113379786D01*
X226180048Y-113207820D01*
X226180047Y-113207820D01*
X226180051Y-113207816D01*
X226276557Y-113018412D01*
X226342246Y-112816243D01*
X226375500Y-112606287D01*
X226375500Y-112393713D01*
X226342246Y-112183757D01*
X226276557Y-111981588D01*
X226180051Y-111792184D01*
X226180049Y-111792181D01*
X226180048Y-111792179D01*
X226055109Y-111620213D01*
X225904792Y-111469896D01*
X225853707Y-111432781D01*
X225740204Y-111350316D01*
X225697540Y-111294989D01*
X225691561Y-111225376D01*
X225724166Y-111163580D01*
X225740199Y-111149686D01*
X225904792Y-111030104D01*
X226055104Y-110879792D01*
X226055106Y-110879788D01*
X226055109Y-110879786D01*
X226180048Y-110707820D01*
X226180047Y-110707820D01*
X226180051Y-110707816D01*
X226276557Y-110518412D01*
X226342246Y-110316243D01*
X226375500Y-110106287D01*
X226375500Y-109893713D01*
X226342246Y-109683757D01*
X226276557Y-109481588D01*
X226180051Y-109292184D01*
X226180049Y-109292181D01*
X226180048Y-109292179D01*
X226055109Y-109120213D01*
X225904786Y-108969890D01*
X225732820Y-108844951D01*
X225543414Y-108748444D01*
X225543413Y-108748443D01*
X225543412Y-108748443D01*
X225341243Y-108682754D01*
X225341241Y-108682753D01*
X225341240Y-108682753D01*
X225179957Y-108657208D01*
X225131287Y-108649500D01*
X224668713Y-108649500D01*
X224620042Y-108657208D01*
X224458760Y-108682753D01*
X224458757Y-108682754D01*
X224309389Y-108731287D01*
X224256585Y-108748444D01*
X224067179Y-108844951D01*
X223895213Y-108969890D01*
X223744890Y-109120213D01*
X223619951Y-109292179D01*
X223523444Y-109481585D01*
X223457753Y-109683760D01*
X223424500Y-109893713D01*
X218292365Y-109893713D01*
X218300500Y-109842352D01*
X218300500Y-109637648D01*
X218268477Y-109435466D01*
X218205220Y-109240781D01*
X218205218Y-109240778D01*
X218205218Y-109240776D01*
X218143787Y-109120213D01*
X218112287Y-109058390D01*
X218104556Y-109047749D01*
X217991971Y-108892786D01*
X217847213Y-108748028D01*
X217681614Y-108627715D01*
X217618504Y-108595559D01*
X217588917Y-108580483D01*
X217538123Y-108532511D01*
X217521328Y-108464690D01*
X217543865Y-108398555D01*
X217588917Y-108359516D01*
X217681610Y-108312287D01*
X217702770Y-108296913D01*
X217847213Y-108191971D01*
X217847215Y-108191968D01*
X217847219Y-108191966D01*
X217991966Y-108047219D01*
X217991968Y-108047215D01*
X217991971Y-108047213D01*
X218086441Y-107917184D01*
X218112287Y-107881610D01*
X218205220Y-107699219D01*
X218268477Y-107504534D01*
X218300500Y-107302352D01*
X218300500Y-107097648D01*
X218268477Y-106895466D01*
X218205220Y-106700781D01*
X218205218Y-106700778D01*
X218205218Y-106700776D01*
X218171503Y-106634607D01*
X218112287Y-106518390D01*
X218056237Y-106441243D01*
X217991971Y-106352786D01*
X217847213Y-106208028D01*
X217681614Y-106087715D01*
X217675006Y-106084348D01*
X217588917Y-106040483D01*
X217538123Y-105992511D01*
X217521328Y-105924690D01*
X217543865Y-105858555D01*
X217588917Y-105819516D01*
X217681610Y-105772287D01*
X217702770Y-105756913D01*
X217847213Y-105651971D01*
X217847215Y-105651968D01*
X217847219Y-105651966D01*
X217991966Y-105507219D01*
X217991968Y-105507215D01*
X217991971Y-105507213D01*
X218057383Y-105417179D01*
X218112287Y-105341610D01*
X218205220Y-105159219D01*
X218268477Y-104964534D01*
X218300500Y-104762352D01*
X218300500Y-104557648D01*
X218268477Y-104355466D01*
X218205220Y-104160781D01*
X218205218Y-104160778D01*
X218205218Y-104160776D01*
X218171503Y-104094607D01*
X218112287Y-103978390D01*
X218104556Y-103967749D01*
X217991971Y-103812786D01*
X217847213Y-103668028D01*
X217681614Y-103547715D01*
X217675006Y-103544348D01*
X217588917Y-103500483D01*
X217538123Y-103452511D01*
X217521328Y-103384690D01*
X217543865Y-103318555D01*
X217588917Y-103279516D01*
X217681610Y-103232287D01*
X217702770Y-103216913D01*
X217847213Y-103111971D01*
X217847215Y-103111968D01*
X217847219Y-103111966D01*
X217991966Y-102967219D01*
X217991968Y-102967215D01*
X217991971Y-102967213D01*
X218044732Y-102894590D01*
X218112287Y-102801610D01*
X218205220Y-102619219D01*
X218268477Y-102424534D01*
X218300500Y-102222352D01*
X218300500Y-102017648D01*
X218268477Y-101815466D01*
X218205220Y-101620781D01*
X218205218Y-101620778D01*
X218205218Y-101620776D01*
X218133595Y-101480210D01*
X218112287Y-101438390D01*
X218052542Y-101356157D01*
X217991971Y-101272786D01*
X217847213Y-101128028D01*
X217681613Y-101007715D01*
X217681612Y-101007714D01*
X217681610Y-101007713D01*
X217624653Y-100978691D01*
X217499223Y-100914781D01*
X217304534Y-100851522D01*
X217129995Y-100823878D01*
X217102352Y-100819500D01*
X216897648Y-100819500D01*
X216873329Y-100823351D01*
X216695465Y-100851522D01*
X216500776Y-100914781D01*
X216318386Y-101007715D01*
X216152786Y-101128028D01*
X216008028Y-101272786D01*
X215887715Y-101438386D01*
X215794781Y-101620776D01*
X215731522Y-101815465D01*
X215699500Y-102017648D01*
X215699500Y-102222351D01*
X215731522Y-102424534D01*
X215794781Y-102619223D01*
X215887715Y-102801613D01*
X216008028Y-102967213D01*
X216152786Y-103111971D01*
X216307749Y-103224556D01*
X216318390Y-103232287D01*
X216409840Y-103278883D01*
X216411080Y-103279515D01*
X216461876Y-103327490D01*
X216478671Y-103395311D01*
X216456134Y-103461446D01*
X216411080Y-103500485D01*
X216318386Y-103547715D01*
X216152786Y-103668028D01*
X216008028Y-103812786D01*
X215887715Y-103978386D01*
X215794781Y-104160776D01*
X215731522Y-104355465D01*
X215699500Y-104557648D01*
X215699500Y-104762351D01*
X215731522Y-104964534D01*
X215794781Y-105159223D01*
X215887715Y-105341613D01*
X216008028Y-105507213D01*
X216152786Y-105651971D01*
X216307749Y-105764556D01*
X216318390Y-105772287D01*
X216409840Y-105818883D01*
X216411080Y-105819515D01*
X216461876Y-105867490D01*
X216478671Y-105935311D01*
X216456134Y-106001446D01*
X216411080Y-106040485D01*
X216318386Y-106087715D01*
X216152786Y-106208028D01*
X216008028Y-106352786D01*
X215887715Y-106518386D01*
X215794781Y-106700776D01*
X215731522Y-106895465D01*
X215699500Y-107097648D01*
X215699500Y-107302351D01*
X215731522Y-107504534D01*
X215794781Y-107699223D01*
X215887715Y-107881613D01*
X216008028Y-108047213D01*
X216152786Y-108191971D01*
X216307749Y-108304556D01*
X216318390Y-108312287D01*
X216409840Y-108358883D01*
X216411080Y-108359515D01*
X216461876Y-108407490D01*
X216478671Y-108475311D01*
X216456134Y-108541446D01*
X216411080Y-108580485D01*
X216318386Y-108627715D01*
X216152786Y-108748028D01*
X216008028Y-108892786D01*
X215887715Y-109058386D01*
X215840485Y-109151080D01*
X215792510Y-109201876D01*
X215724689Y-109218671D01*
X215658554Y-109196134D01*
X215619515Y-109151080D01*
X215603785Y-109120208D01*
X215572287Y-109058390D01*
X215564556Y-109047749D01*
X215451971Y-108892786D01*
X215307213Y-108748028D01*
X215141613Y-108627715D01*
X215141612Y-108627714D01*
X215141610Y-108627713D01*
X215078504Y-108595559D01*
X214959223Y-108534781D01*
X214764534Y-108471522D01*
X214589995Y-108443878D01*
X214562352Y-108439500D01*
X214357648Y-108439500D01*
X214333329Y-108443351D01*
X214155465Y-108471522D01*
X213960776Y-108534781D01*
X213778386Y-108627715D01*
X213612786Y-108748028D01*
X213468028Y-108892786D01*
X213347715Y-109058386D01*
X213300485Y-109151080D01*
X213252510Y-109201876D01*
X213184689Y-109218671D01*
X213118554Y-109196134D01*
X213079515Y-109151080D01*
X213063785Y-109120208D01*
X213032287Y-109058390D01*
X213024556Y-109047749D01*
X212911971Y-108892786D01*
X212767213Y-108748028D01*
X212601613Y-108627715D01*
X212601612Y-108627714D01*
X212601610Y-108627713D01*
X212538504Y-108595559D01*
X212419223Y-108534781D01*
X212224534Y-108471522D01*
X212049995Y-108443878D01*
X212022352Y-108439500D01*
X211817648Y-108439500D01*
X211793329Y-108443351D01*
X211615465Y-108471522D01*
X211420776Y-108534781D01*
X211238386Y-108627715D01*
X211072786Y-108748028D01*
X210928028Y-108892786D01*
X210807715Y-109058386D01*
X210760485Y-109151080D01*
X210712510Y-109201876D01*
X210644689Y-109218671D01*
X210578554Y-109196134D01*
X210539515Y-109151080D01*
X210523785Y-109120208D01*
X210492287Y-109058390D01*
X210484556Y-109047749D01*
X210371971Y-108892786D01*
X210227213Y-108748028D01*
X210061613Y-108627715D01*
X210061612Y-108627714D01*
X210061610Y-108627713D01*
X209998504Y-108595559D01*
X209879223Y-108534781D01*
X209684534Y-108471522D01*
X209509995Y-108443878D01*
X209482352Y-108439500D01*
X209277648Y-108439500D01*
X209253329Y-108443351D01*
X209075465Y-108471522D01*
X208880776Y-108534781D01*
X208698386Y-108627715D01*
X208532786Y-108748028D01*
X208388028Y-108892786D01*
X208267715Y-109058386D01*
X208220485Y-109151080D01*
X208172510Y-109201876D01*
X208104689Y-109218671D01*
X208038554Y-109196134D01*
X207999515Y-109151080D01*
X207983785Y-109120208D01*
X207952287Y-109058390D01*
X207944556Y-109047749D01*
X207831971Y-108892786D01*
X207687213Y-108748028D01*
X207521613Y-108627715D01*
X207521612Y-108627714D01*
X207521610Y-108627713D01*
X207458504Y-108595559D01*
X207339223Y-108534781D01*
X207144534Y-108471522D01*
X206969995Y-108443878D01*
X206942352Y-108439500D01*
X206737648Y-108439500D01*
X206713329Y-108443351D01*
X206535465Y-108471522D01*
X206340776Y-108534781D01*
X206158386Y-108627715D01*
X205992786Y-108748028D01*
X205848028Y-108892786D01*
X205727715Y-109058386D01*
X205680485Y-109151080D01*
X205632510Y-109201876D01*
X205564689Y-109218671D01*
X205498554Y-109196134D01*
X205459515Y-109151080D01*
X205443785Y-109120208D01*
X205412287Y-109058390D01*
X205404556Y-109047749D01*
X205291971Y-108892786D01*
X205147213Y-108748028D01*
X204981613Y-108627715D01*
X204981612Y-108627714D01*
X204981610Y-108627713D01*
X204918504Y-108595559D01*
X204799223Y-108534781D01*
X204604534Y-108471522D01*
X204429995Y-108443878D01*
X204402352Y-108439500D01*
X204197648Y-108439500D01*
X204173329Y-108443351D01*
X203995465Y-108471522D01*
X203800776Y-108534781D01*
X203618386Y-108627715D01*
X203452786Y-108748028D01*
X203308028Y-108892786D01*
X203187715Y-109058386D01*
X203140485Y-109151080D01*
X203092510Y-109201876D01*
X203024689Y-109218671D01*
X202958554Y-109196134D01*
X202919515Y-109151080D01*
X202903785Y-109120208D01*
X202872287Y-109058390D01*
X202864556Y-109047749D01*
X202751971Y-108892786D01*
X202607213Y-108748028D01*
X202441614Y-108627715D01*
X202378504Y-108595559D01*
X202348917Y-108580483D01*
X202298123Y-108532511D01*
X202281328Y-108464690D01*
X202303865Y-108398555D01*
X202348917Y-108359516D01*
X202441610Y-108312287D01*
X202462770Y-108296913D01*
X202607213Y-108191971D01*
X202607215Y-108191968D01*
X202607219Y-108191966D01*
X202751966Y-108047219D01*
X202751968Y-108047215D01*
X202751971Y-108047213D01*
X202846441Y-107917184D01*
X202872287Y-107881610D01*
X202965220Y-107699219D01*
X203028477Y-107504534D01*
X203060500Y-107302352D01*
X203060500Y-107097648D01*
X203028477Y-106895466D01*
X202965220Y-106700781D01*
X202965218Y-106700778D01*
X202965218Y-106700776D01*
X202931503Y-106634607D01*
X202872287Y-106518390D01*
X202816237Y-106441243D01*
X202751971Y-106352786D01*
X202607213Y-106208028D01*
X202441614Y-106087715D01*
X202435006Y-106084348D01*
X202348917Y-106040483D01*
X202298123Y-105992511D01*
X202281328Y-105924690D01*
X202303865Y-105858555D01*
X202348917Y-105819516D01*
X202441610Y-105772287D01*
X202462770Y-105756913D01*
X202607213Y-105651971D01*
X202607215Y-105651968D01*
X202607219Y-105651966D01*
X202751966Y-105507219D01*
X202751968Y-105507215D01*
X202751971Y-105507213D01*
X202817383Y-105417179D01*
X202872287Y-105341610D01*
X202965220Y-105159219D01*
X203028477Y-104964534D01*
X203060500Y-104762352D01*
X203060500Y-104557648D01*
X203028477Y-104355466D01*
X202965220Y-104160781D01*
X202965218Y-104160778D01*
X202965218Y-104160776D01*
X202931503Y-104094607D01*
X202872287Y-103978390D01*
X202864556Y-103967749D01*
X202751971Y-103812786D01*
X202607213Y-103668028D01*
X202441614Y-103547715D01*
X202435006Y-103544348D01*
X202348917Y-103500483D01*
X202298123Y-103452511D01*
X202281328Y-103384690D01*
X202303865Y-103318555D01*
X202348917Y-103279516D01*
X202441610Y-103232287D01*
X202462770Y-103216913D01*
X202607213Y-103111971D01*
X202607215Y-103111968D01*
X202607219Y-103111966D01*
X202751966Y-102967219D01*
X202751968Y-102967215D01*
X202751971Y-102967213D01*
X202804732Y-102894590D01*
X202872287Y-102801610D01*
X202965220Y-102619219D01*
X203028477Y-102424534D01*
X203060500Y-102222352D01*
X203060500Y-102017648D01*
X203028477Y-101815466D01*
X202965220Y-101620781D01*
X202965218Y-101620778D01*
X202965218Y-101620776D01*
X202893595Y-101480210D01*
X202872287Y-101438390D01*
X202812542Y-101356157D01*
X202751971Y-101272786D01*
X202607213Y-101128028D01*
X202441614Y-101007715D01*
X202435006Y-101004348D01*
X202348917Y-100960483D01*
X202298123Y-100912511D01*
X202281328Y-100844690D01*
X202303865Y-100778555D01*
X202348917Y-100739516D01*
X202441610Y-100692287D01*
X202462770Y-100676913D01*
X202607213Y-100571971D01*
X202607215Y-100571968D01*
X202607219Y-100571966D01*
X202751966Y-100427219D01*
X202751968Y-100427215D01*
X202751971Y-100427213D01*
X202804732Y-100354590D01*
X202872287Y-100261610D01*
X202965220Y-100079219D01*
X203028477Y-99884534D01*
X203060500Y-99682352D01*
X203060500Y-99477648D01*
X203051681Y-99421971D01*
X203060635Y-99352679D01*
X203086470Y-99314895D01*
X208389548Y-94011819D01*
X208450871Y-93978334D01*
X208477229Y-93975500D01*
X215632322Y-93975500D01*
X215699361Y-93995185D01*
X215745116Y-94047989D01*
X215755060Y-94117147D01*
X215750253Y-94137818D01*
X215731523Y-94195461D01*
X215731523Y-94195464D01*
X215699500Y-94397648D01*
X215699500Y-94602351D01*
X215731522Y-94804534D01*
X215794781Y-94999223D01*
X215887715Y-95181613D01*
X216008028Y-95347213D01*
X216152786Y-95491971D01*
X216307749Y-95604556D01*
X216318390Y-95612287D01*
X216391425Y-95649500D01*
X216411080Y-95659515D01*
X216461876Y-95707490D01*
X216478671Y-95775311D01*
X216456134Y-95841446D01*
X216411080Y-95880485D01*
X216318386Y-95927715D01*
X216152786Y-96048028D01*
X216008028Y-96192786D01*
X215887715Y-96358386D01*
X215794781Y-96540776D01*
X215731522Y-96735465D01*
X215699500Y-96937648D01*
X215699500Y-97142351D01*
X215731522Y-97344534D01*
X215794781Y-97539223D01*
X215887715Y-97721613D01*
X216008028Y-97887213D01*
X216152786Y-98031971D01*
X216251574Y-98103743D01*
X216318390Y-98152287D01*
X216421867Y-98205011D01*
X216500776Y-98245218D01*
X216500778Y-98245218D01*
X216500781Y-98245220D01*
X216591280Y-98274625D01*
X216695465Y-98308477D01*
X216796557Y-98324488D01*
X216897648Y-98340500D01*
X216897649Y-98340500D01*
X217102351Y-98340500D01*
X217102352Y-98340500D01*
X217304534Y-98308477D01*
X217499219Y-98245220D01*
X217681610Y-98152287D01*
X217774590Y-98084732D01*
X217847213Y-98031971D01*
X217847215Y-98031968D01*
X217847219Y-98031966D01*
X217991966Y-97887219D01*
X217991968Y-97887215D01*
X217991971Y-97887213D01*
X218044732Y-97814590D01*
X218112287Y-97721610D01*
X218132870Y-97681213D01*
X223424500Y-97681213D01*
X223424500Y-97893786D01*
X223446385Y-98031966D01*
X223457754Y-98103743D01*
X223513277Y-98274625D01*
X223523444Y-98305914D01*
X223619951Y-98495320D01*
X223744890Y-98667286D01*
X223883705Y-98806101D01*
X223917190Y-98867424D01*
X223912206Y-98937116D01*
X223870334Y-98993049D01*
X223861121Y-98999321D01*
X223706342Y-99094789D01*
X223582289Y-99218842D01*
X223490187Y-99368163D01*
X223490185Y-99368168D01*
X223472357Y-99421971D01*
X223435001Y-99534703D01*
X223435001Y-99534704D01*
X223435000Y-99534704D01*
X223424500Y-99637483D01*
X223424500Y-100937501D01*
X223424501Y-100937518D01*
X223435000Y-101040296D01*
X223435001Y-101040299D01*
X223464072Y-101128028D01*
X223490186Y-101206834D01*
X223582288Y-101356156D01*
X223706344Y-101480212D01*
X223855666Y-101572314D01*
X224022203Y-101627499D01*
X224124991Y-101638000D01*
X225675008Y-101637999D01*
X225777797Y-101627499D01*
X225944334Y-101572314D01*
X226093656Y-101480212D01*
X226217712Y-101356156D01*
X226309814Y-101206834D01*
X226364999Y-101040297D01*
X226375500Y-100937509D01*
X226375499Y-99637492D01*
X226364999Y-99534703D01*
X226309814Y-99368166D01*
X226217712Y-99218844D01*
X226093656Y-99094788D01*
X225944334Y-99002686D01*
X225944333Y-99002685D01*
X225938878Y-98999321D01*
X225892154Y-98947373D01*
X225880931Y-98878410D01*
X225908775Y-98814328D01*
X225916272Y-98806123D01*
X226055104Y-98667292D01*
X226180051Y-98495316D01*
X226276557Y-98305912D01*
X226342246Y-98103743D01*
X226375500Y-97893787D01*
X226375500Y-97681213D01*
X226342246Y-97471257D01*
X226276557Y-97269088D01*
X226180051Y-97079684D01*
X226180049Y-97079681D01*
X226180048Y-97079679D01*
X226055109Y-96907713D01*
X225904786Y-96757390D01*
X225732820Y-96632451D01*
X225543414Y-96535944D01*
X225543413Y-96535943D01*
X225543412Y-96535943D01*
X225341243Y-96470254D01*
X225341241Y-96470253D01*
X225341240Y-96470253D01*
X225179957Y-96444708D01*
X225131287Y-96437000D01*
X224668713Y-96437000D01*
X224620042Y-96444708D01*
X224458760Y-96470253D01*
X224256585Y-96535944D01*
X224067179Y-96632451D01*
X223895213Y-96757390D01*
X223744890Y-96907713D01*
X223619951Y-97079679D01*
X223523444Y-97269085D01*
X223457753Y-97471260D01*
X223424500Y-97681213D01*
X218132870Y-97681213D01*
X218159126Y-97629684D01*
X218164037Y-97620046D01*
X218177692Y-97593245D01*
X218205220Y-97539219D01*
X218268477Y-97344534D01*
X218300500Y-97142352D01*
X218300500Y-96937648D01*
X218289406Y-96867603D01*
X218268477Y-96735465D01*
X218235005Y-96632449D01*
X218205220Y-96540781D01*
X218205218Y-96540778D01*
X218205218Y-96540776D01*
X218152341Y-96437000D01*
X218112287Y-96358390D01*
X218064186Y-96292184D01*
X217991971Y-96192786D01*
X217847213Y-96048028D01*
X217681614Y-95927715D01*
X217675006Y-95924348D01*
X217588917Y-95880483D01*
X217538123Y-95832511D01*
X217521328Y-95764690D01*
X217543865Y-95698555D01*
X217588917Y-95659516D01*
X217681610Y-95612287D01*
X217702770Y-95596913D01*
X217847213Y-95491971D01*
X217847215Y-95491968D01*
X217847219Y-95491966D01*
X217991966Y-95347219D01*
X217991968Y-95347215D01*
X217991971Y-95347213D01*
X218044732Y-95274590D01*
X218112287Y-95181610D01*
X218205220Y-94999219D01*
X218268477Y-94804534D01*
X218300500Y-94602352D01*
X218300500Y-94397648D01*
X218268477Y-94195466D01*
X218268476Y-94195462D01*
X218268476Y-94195461D01*
X218249747Y-94137818D01*
X218247752Y-94067976D01*
X218283833Y-94008144D01*
X218346534Y-93977316D01*
X218367678Y-93975500D01*
X220982744Y-93975500D01*
X221049783Y-93995185D01*
X221095538Y-94047989D01*
X221100398Y-94060340D01*
X221126544Y-94138897D01*
X221126546Y-94138901D01*
X221204331Y-94259935D01*
X221204339Y-94259946D01*
X221250083Y-94312738D01*
X221250086Y-94312741D01*
X221250090Y-94312745D01*
X221358824Y-94406965D01*
X221358827Y-94406966D01*
X221358828Y-94406967D01*
X221488796Y-94466323D01*
X221489701Y-94466736D01*
X221556740Y-94486421D01*
X221556744Y-94486422D01*
X221699160Y-94506898D01*
X221699163Y-94506898D01*
X224343261Y-94506898D01*
X224343267Y-94506898D01*
X224422349Y-94500674D01*
X224460665Y-94494605D01*
X224537791Y-94476088D01*
X224567858Y-94466318D01*
X224586754Y-94461780D01*
X224698859Y-94444025D01*
X224718247Y-94442500D01*
X225081739Y-94442500D01*
X225101135Y-94444026D01*
X225138409Y-94449929D01*
X225213238Y-94461780D01*
X225232150Y-94466320D01*
X225262208Y-94476088D01*
X225339336Y-94494605D01*
X225377653Y-94500674D01*
X225456733Y-94506898D01*
X227747031Y-94506898D01*
X227814070Y-94526583D01*
X227859825Y-94579387D01*
X227859974Y-94579714D01*
X236795521Y-114296978D01*
X236795529Y-114296993D01*
X236868468Y-114412956D01*
X236868476Y-114412968D01*
X236911250Y-114464020D01*
X237012674Y-114556155D01*
X237141681Y-114619862D01*
X237198443Y-114638414D01*
X237204431Y-114640928D01*
X237208093Y-114641568D01*
X237208094Y-114641569D01*
X237289539Y-114655808D01*
X237349816Y-114666348D01*
X237349820Y-114666348D01*
X237349824Y-114666349D01*
X239349504Y-114726945D01*
X239396844Y-114726161D01*
X239419998Y-114724691D01*
X239467046Y-114719484D01*
X239548854Y-114706526D01*
X239568252Y-114705000D01*
X239931744Y-114705000D01*
X239951130Y-114706525D01*
X240073871Y-114725965D01*
X240084279Y-114728076D01*
X240135166Y-114740702D01*
X240169727Y-114746714D01*
X240241048Y-114753961D01*
X243811282Y-114862150D01*
X243931028Y-114851476D01*
X243988328Y-114839377D01*
X244102169Y-114800728D01*
X244221782Y-114720763D01*
X244269671Y-114677725D01*
X244271285Y-114676399D01*
X244273750Y-114674060D01*
X244273754Y-114674057D01*
X244365992Y-114563632D01*
X244423383Y-114431694D01*
X244441851Y-114364309D01*
X244459746Y-114221547D01*
X244364908Y-108981746D01*
X244350666Y-108871408D01*
X244337843Y-108818696D01*
X244337839Y-108818685D01*
X244299812Y-108714148D01*
X244218340Y-108595559D01*
X244173922Y-108547376D01*
X244172477Y-108545694D01*
X244170975Y-108544179D01*
X244059392Y-108453349D01*
X243926739Y-108397635D01*
X243926735Y-108397634D01*
X243859126Y-108380022D01*
X243716163Y-108363936D01*
X243716138Y-108363935D01*
X237808399Y-108545712D01*
X237740785Y-108528099D01*
X237693428Y-108476727D01*
X237680586Y-108422141D01*
X237680542Y-108407490D01*
X237642700Y-95731213D01*
X238274500Y-95731213D01*
X238274500Y-95943786D01*
X238302442Y-96120208D01*
X238307754Y-96153743D01*
X238352736Y-96292184D01*
X238373444Y-96355914D01*
X238469951Y-96545320D01*
X238594890Y-96717286D01*
X238745209Y-96867605D01*
X238745214Y-96867609D01*
X238909793Y-96987182D01*
X238952459Y-97042511D01*
X238958438Y-97112125D01*
X238925833Y-97173920D01*
X238909793Y-97187818D01*
X238745214Y-97307390D01*
X238745209Y-97307394D01*
X238594890Y-97457713D01*
X238469951Y-97629679D01*
X238373444Y-97819085D01*
X238307753Y-98021260D01*
X238274500Y-98231213D01*
X238274500Y-98443786D01*
X238302442Y-98620208D01*
X238307754Y-98653743D01*
X238359931Y-98814328D01*
X238373444Y-98855914D01*
X238469951Y-99045320D01*
X238594890Y-99217286D01*
X238745213Y-99367609D01*
X238917179Y-99492548D01*
X238917181Y-99492549D01*
X238917184Y-99492551D01*
X239106588Y-99589057D01*
X239308757Y-99654746D01*
X239518713Y-99688000D01*
X239518714Y-99688000D01*
X239981286Y-99688000D01*
X239981287Y-99688000D01*
X240191243Y-99654746D01*
X240393412Y-99589057D01*
X240582816Y-99492551D01*
X240604789Y-99476586D01*
X240754786Y-99367609D01*
X240754788Y-99367606D01*
X240754792Y-99367604D01*
X240905104Y-99217292D01*
X240905106Y-99217288D01*
X240905109Y-99217286D01*
X241030048Y-99045320D01*
X241030047Y-99045320D01*
X241030051Y-99045316D01*
X241126557Y-98855912D01*
X241192246Y-98653743D01*
X241225500Y-98443787D01*
X241225500Y-98231213D01*
X241192246Y-98021257D01*
X241126557Y-97819088D01*
X241030051Y-97629684D01*
X241030049Y-97629681D01*
X241030048Y-97629679D01*
X240905109Y-97457713D01*
X240754792Y-97307396D01*
X240702061Y-97269085D01*
X240590204Y-97187816D01*
X240547540Y-97132489D01*
X240541561Y-97062876D01*
X240574166Y-97001080D01*
X240590199Y-96987186D01*
X240754792Y-96867604D01*
X240905104Y-96717292D01*
X240905106Y-96717288D01*
X240905109Y-96717286D01*
X241030048Y-96545320D01*
X241030047Y-96545320D01*
X241030051Y-96545316D01*
X241126557Y-96355912D01*
X241192246Y-96153743D01*
X241225500Y-95943787D01*
X241225500Y-95731213D01*
X241192246Y-95521257D01*
X241126557Y-95319088D01*
X241030051Y-95129684D01*
X241030049Y-95129681D01*
X241030048Y-95129679D01*
X240905109Y-94957713D01*
X240754786Y-94807390D01*
X240582820Y-94682451D01*
X240393414Y-94585944D01*
X240393413Y-94585943D01*
X240393412Y-94585943D01*
X240191243Y-94520254D01*
X240191241Y-94520253D01*
X240191240Y-94520253D01*
X240029296Y-94494604D01*
X239981287Y-94487000D01*
X239518713Y-94487000D01*
X239470704Y-94494604D01*
X239308760Y-94520253D01*
X239106585Y-94585944D01*
X238917179Y-94682451D01*
X238745213Y-94807390D01*
X238594890Y-94957713D01*
X238469951Y-95129679D01*
X238373444Y-95319085D01*
X238307753Y-95521260D01*
X238274500Y-95731213D01*
X237642700Y-95731213D01*
X237633413Y-92620289D01*
X237652897Y-92553194D01*
X237705564Y-92507282D01*
X237757938Y-92495923D01*
X239439236Y-92503109D01*
X239439237Y-92503108D01*
X239439247Y-92503109D01*
X239455239Y-92502531D01*
X239479971Y-92501640D01*
X239499897Y-92500115D01*
X239540392Y-92495367D01*
X239548859Y-92494025D01*
X239568254Y-92492500D01*
X239931751Y-92492500D01*
X239951147Y-92494026D01*
X239976676Y-92498070D01*
X240015004Y-92502649D01*
X240033872Y-92504175D01*
X240049762Y-92504850D01*
X240072453Y-92505815D01*
X240218137Y-92506437D01*
X243510518Y-92520508D01*
X243618886Y-92509230D01*
X243670840Y-92498065D01*
X243774270Y-92463829D01*
X243895370Y-92386134D01*
X243948209Y-92340420D01*
X244042511Y-92231761D01*
X244102383Y-92100929D01*
X244121830Y-92034889D01*
X244122112Y-92033959D01*
X244122120Y-92033905D01*
X244122121Y-92033903D01*
X244142708Y-91891503D01*
X244153424Y-78100485D01*
X244154033Y-77316188D01*
X244154033Y-77316186D01*
X244142521Y-77208528D01*
X244131315Y-77156921D01*
X244109359Y-77090910D01*
X244097147Y-77054194D01*
X244019361Y-76933159D01*
X244019358Y-76933154D01*
X244019353Y-76933148D01*
X243973609Y-76880356D01*
X243973605Y-76880353D01*
X243973603Y-76880350D01*
X243864869Y-76786130D01*
X243864866Y-76786128D01*
X243864864Y-76786127D01*
X243733998Y-76726361D01*
X243733993Y-76726359D01*
X243733992Y-76726359D01*
X243670856Y-76707820D01*
X243666950Y-76706673D01*
X243619477Y-76699847D01*
X243524533Y-76686197D01*
X238200684Y-76686197D01*
X238199650Y-76686197D01*
X238199640Y-76686198D01*
X238199053Y-76686198D01*
X238198266Y-76686201D01*
X238198225Y-76686202D01*
X237276785Y-76689801D01*
X231923365Y-76710712D01*
X231923355Y-76710712D01*
X231923353Y-76710713D01*
X231868785Y-76716892D01*
X231814215Y-76723071D01*
X231761964Y-76734844D01*
X231658062Y-76770488D01*
X231658061Y-76770489D01*
X231537884Y-76849592D01*
X231537881Y-76849595D01*
X231485582Y-76895923D01*
X231485577Y-76895928D01*
X231392562Y-77005673D01*
X231392561Y-77005674D01*
X231392561Y-77005675D01*
X231384196Y-77024534D01*
X231334220Y-77137201D01*
X231315272Y-77204440D01*
X231315266Y-77204466D01*
X231296350Y-77347071D01*
X231296350Y-77347081D01*
X231296350Y-77347084D01*
X231316701Y-79209200D01*
X231337575Y-81119145D01*
X231318624Y-81186395D01*
X231266323Y-81232725D01*
X231213582Y-81244500D01*
X226773434Y-81244500D01*
X226655438Y-81258465D01*
X226642731Y-81261515D01*
X226599139Y-81271979D01*
X226487650Y-81313109D01*
X226487640Y-81313113D01*
X226408060Y-81353661D01*
X226390084Y-81361107D01*
X226282146Y-81396178D01*
X226263227Y-81400720D01*
X226170249Y-81415447D01*
X226151145Y-81418473D01*
X226131749Y-81420000D01*
X225768252Y-81420000D01*
X225748854Y-81418473D01*
X225636774Y-81400721D01*
X225617855Y-81396179D01*
X225565872Y-81379289D01*
X225509907Y-81361104D01*
X225491933Y-81353658D01*
X225412352Y-81313110D01*
X225300856Y-81271978D01*
X225300853Y-81271977D01*
X225266741Y-81263788D01*
X225244564Y-81258465D01*
X225126566Y-81244500D01*
X221772713Y-81244500D01*
X221667834Y-81255500D01*
X221617510Y-81266173D01*
X221617508Y-81266173D01*
X221517201Y-81298688D01*
X221395360Y-81375204D01*
X221395358Y-81375205D01*
X221342071Y-81420414D01*
X221246720Y-81528163D01*
X221185591Y-81658407D01*
X221185590Y-81658408D01*
X221165208Y-81725239D01*
X221165207Y-81725246D01*
X221143246Y-81867435D01*
X221074487Y-88460960D01*
X221069692Y-88920808D01*
X221069674Y-88923140D01*
X221069674Y-88923184D01*
X221069667Y-88924477D01*
X221069660Y-88927214D01*
X221069660Y-88927378D01*
X221069660Y-92350500D01*
X221049975Y-92417539D01*
X220997171Y-92463294D01*
X220945660Y-92474500D01*
X218370927Y-92474500D01*
X218303888Y-92454815D01*
X218258133Y-92402011D01*
X218248189Y-92332853D01*
X218252996Y-92312182D01*
X218268476Y-92264538D01*
X218268476Y-92264537D01*
X218268477Y-92264534D01*
X218300500Y-92062352D01*
X218300500Y-91857648D01*
X218268477Y-91655466D01*
X218259487Y-91627799D01*
X218226089Y-91525009D01*
X218205220Y-91460781D01*
X218205218Y-91460778D01*
X218205218Y-91460776D01*
X218148770Y-91349992D01*
X218112287Y-91278390D01*
X218089629Y-91247203D01*
X217991971Y-91112786D01*
X217847213Y-90968028D01*
X217681614Y-90847715D01*
X217675006Y-90844348D01*
X217588917Y-90800483D01*
X217538123Y-90752511D01*
X217521328Y-90684690D01*
X217543865Y-90618555D01*
X217588917Y-90579516D01*
X217681610Y-90532287D01*
X217702770Y-90516913D01*
X217847213Y-90411971D01*
X217847215Y-90411968D01*
X217847219Y-90411966D01*
X217991966Y-90267219D01*
X217991968Y-90267215D01*
X217991971Y-90267213D01*
X218044732Y-90194590D01*
X218112287Y-90101610D01*
X218205220Y-89919219D01*
X218268477Y-89724534D01*
X218300500Y-89522352D01*
X218300500Y-89317648D01*
X218290544Y-89254792D01*
X218268477Y-89115465D01*
X218206044Y-88923318D01*
X218205220Y-88920781D01*
X218205218Y-88920778D01*
X218205218Y-88920776D01*
X218171503Y-88854607D01*
X218112287Y-88738390D01*
X218078030Y-88691239D01*
X217991971Y-88572786D01*
X217847213Y-88428028D01*
X217681614Y-88307715D01*
X217605068Y-88268713D01*
X217588917Y-88260483D01*
X217538123Y-88212511D01*
X217521328Y-88144690D01*
X217543865Y-88078555D01*
X217588917Y-88039516D01*
X217681610Y-87992287D01*
X217702770Y-87976913D01*
X217847213Y-87871971D01*
X217847215Y-87871968D01*
X217847219Y-87871966D01*
X217991966Y-87727219D01*
X217991968Y-87727215D01*
X217991971Y-87727213D01*
X218044732Y-87654590D01*
X218112287Y-87561610D01*
X218205220Y-87379219D01*
X218268477Y-87184534D01*
X218300500Y-86982352D01*
X218300500Y-86777648D01*
X218268477Y-86575466D01*
X218205220Y-86380781D01*
X218205218Y-86380778D01*
X218205218Y-86380776D01*
X218171503Y-86314607D01*
X218112287Y-86198390D01*
X218104556Y-86187749D01*
X217991971Y-86032786D01*
X217847213Y-85888028D01*
X217681614Y-85767715D01*
X217675006Y-85764348D01*
X217588917Y-85720483D01*
X217538123Y-85672511D01*
X217521328Y-85604690D01*
X217543865Y-85538555D01*
X217588917Y-85499516D01*
X217681610Y-85452287D01*
X217702770Y-85436913D01*
X217847213Y-85331971D01*
X217847215Y-85331968D01*
X217847219Y-85331966D01*
X217991966Y-85187219D01*
X217991968Y-85187215D01*
X217991971Y-85187213D01*
X218044732Y-85114590D01*
X218112287Y-85021610D01*
X218205220Y-84839219D01*
X218268477Y-84644534D01*
X218300500Y-84442352D01*
X218300500Y-84237648D01*
X218268477Y-84035466D01*
X218205220Y-83840781D01*
X218205218Y-83840778D01*
X218205218Y-83840776D01*
X218171503Y-83774607D01*
X218112287Y-83658390D01*
X218104556Y-83647749D01*
X217991971Y-83492786D01*
X217847213Y-83348028D01*
X217681614Y-83227715D01*
X217675006Y-83224348D01*
X217588917Y-83180483D01*
X217538123Y-83132511D01*
X217521328Y-83064690D01*
X217543865Y-82998555D01*
X217588917Y-82959516D01*
X217681610Y-82912287D01*
X217702770Y-82896913D01*
X217847213Y-82791971D01*
X217847215Y-82791968D01*
X217847219Y-82791966D01*
X217991966Y-82647219D01*
X217991968Y-82647215D01*
X217991971Y-82647213D01*
X218044732Y-82574590D01*
X218112287Y-82481610D01*
X218205220Y-82299219D01*
X218268477Y-82104534D01*
X218300500Y-81902352D01*
X218300500Y-81697648D01*
X218294285Y-81658407D01*
X218268477Y-81495465D01*
X218229402Y-81375205D01*
X218205220Y-81300781D01*
X218205218Y-81300778D01*
X218205218Y-81300776D01*
X218146937Y-81186395D01*
X218112287Y-81118390D01*
X218104556Y-81107749D01*
X217991971Y-80952786D01*
X217847213Y-80808028D01*
X217681614Y-80687715D01*
X217675006Y-80684348D01*
X217588917Y-80640483D01*
X217538123Y-80592511D01*
X217521328Y-80524690D01*
X217543865Y-80458555D01*
X217588917Y-80419516D01*
X217681610Y-80372287D01*
X217702770Y-80356913D01*
X217847213Y-80251971D01*
X217847215Y-80251968D01*
X217847219Y-80251966D01*
X217991966Y-80107219D01*
X217991968Y-80107215D01*
X217991971Y-80107213D01*
X218084409Y-79979981D01*
X218112287Y-79941610D01*
X218205220Y-79759219D01*
X218268477Y-79564534D01*
X218300500Y-79362352D01*
X218300500Y-79157648D01*
X218287900Y-79078096D01*
X218268477Y-78955465D01*
X218212381Y-78782820D01*
X218205220Y-78760781D01*
X218205218Y-78760778D01*
X218205218Y-78760776D01*
X218171503Y-78694607D01*
X218112287Y-78578390D01*
X218104556Y-78567749D01*
X217991971Y-78412786D01*
X217847213Y-78268028D01*
X217681614Y-78147715D01*
X217647590Y-78130379D01*
X217588917Y-78100483D01*
X217538123Y-78052511D01*
X217521328Y-77984690D01*
X217543865Y-77918555D01*
X217588917Y-77879516D01*
X217681610Y-77832287D01*
X217702770Y-77816913D01*
X217847213Y-77711971D01*
X217847215Y-77711968D01*
X217847219Y-77711966D01*
X217991966Y-77567219D01*
X217991968Y-77567215D01*
X217991971Y-77567213D01*
X218063581Y-77468648D01*
X218112287Y-77401610D01*
X218205220Y-77219219D01*
X218268477Y-77024534D01*
X218300500Y-76822352D01*
X218300500Y-76617648D01*
X218284782Y-76518412D01*
X218268477Y-76415465D01*
X218213548Y-76246413D01*
X218205220Y-76220781D01*
X218205218Y-76220778D01*
X218205218Y-76220776D01*
X218168375Y-76148468D01*
X218112287Y-76038390D01*
X218088759Y-76006006D01*
X217991971Y-75872786D01*
X217847213Y-75728028D01*
X217681614Y-75607715D01*
X217675006Y-75604348D01*
X217588917Y-75560483D01*
X217538123Y-75512511D01*
X217521328Y-75444690D01*
X217543865Y-75378555D01*
X217588917Y-75339516D01*
X217681610Y-75292287D01*
X217702770Y-75276913D01*
X217847213Y-75171971D01*
X217847215Y-75171968D01*
X217847219Y-75171966D01*
X217991966Y-75027219D01*
X217991968Y-75027215D01*
X217991971Y-75027213D01*
X218066245Y-74924983D01*
X224474500Y-74924983D01*
X224474500Y-76225001D01*
X224474501Y-76225018D01*
X224485000Y-76327796D01*
X224485001Y-76327799D01*
X224540185Y-76494331D01*
X224540187Y-76494336D01*
X224573509Y-76548360D01*
X224616246Y-76617648D01*
X224632289Y-76643657D01*
X224756344Y-76767712D01*
X224911120Y-76863178D01*
X224957845Y-76915126D01*
X224969068Y-76984088D01*
X224941224Y-77048171D01*
X224933706Y-77056398D01*
X224794889Y-77195215D01*
X224669951Y-77367179D01*
X224573444Y-77556585D01*
X224507753Y-77758760D01*
X224474500Y-77968713D01*
X224474500Y-78181286D01*
X224488238Y-78268028D01*
X224507754Y-78391243D01*
X224523082Y-78438419D01*
X224573444Y-78593414D01*
X224669951Y-78782820D01*
X224794890Y-78954786D01*
X224945213Y-79105109D01*
X225117179Y-79230048D01*
X225117181Y-79230049D01*
X225117184Y-79230051D01*
X225306588Y-79326557D01*
X225508757Y-79392246D01*
X225718713Y-79425500D01*
X225718714Y-79425500D01*
X226181286Y-79425500D01*
X226181287Y-79425500D01*
X226391243Y-79392246D01*
X226593412Y-79326557D01*
X226782816Y-79230051D01*
X226818824Y-79203890D01*
X226954786Y-79105109D01*
X226954788Y-79105106D01*
X226954792Y-79105104D01*
X227105104Y-78954792D01*
X227105106Y-78954788D01*
X227105109Y-78954786D01*
X227230048Y-78782820D01*
X227230047Y-78782820D01*
X227230051Y-78782816D01*
X227326557Y-78593412D01*
X227392246Y-78391243D01*
X227425500Y-78181287D01*
X227425500Y-77968713D01*
X227392246Y-77758757D01*
X227326557Y-77556588D01*
X227230051Y-77367184D01*
X227230049Y-77367181D01*
X227230048Y-77367179D01*
X227105109Y-77195213D01*
X226966294Y-77056398D01*
X226932809Y-76995075D01*
X226937793Y-76925383D01*
X226979665Y-76869450D01*
X226988879Y-76863178D01*
X226994331Y-76859814D01*
X226994334Y-76859814D01*
X227143656Y-76767712D01*
X227267712Y-76643656D01*
X227359814Y-76494334D01*
X227414999Y-76327797D01*
X227425500Y-76225009D01*
X227425499Y-74924992D01*
X227419024Y-74861610D01*
X227414999Y-74822203D01*
X227414998Y-74822200D01*
X227359814Y-74655666D01*
X227267712Y-74506344D01*
X227143656Y-74382288D01*
X226994334Y-74290186D01*
X226827797Y-74235001D01*
X226827795Y-74235000D01*
X226725010Y-74224500D01*
X225174998Y-74224500D01*
X225174981Y-74224501D01*
X225072203Y-74235000D01*
X225072200Y-74235001D01*
X224905668Y-74290185D01*
X224905663Y-74290187D01*
X224756342Y-74382289D01*
X224632289Y-74506342D01*
X224540187Y-74655663D01*
X224540186Y-74655666D01*
X224485001Y-74822203D01*
X224485001Y-74822204D01*
X224485000Y-74822204D01*
X224474500Y-74924983D01*
X218066245Y-74924983D01*
X218112285Y-74861613D01*
X218169949Y-74748443D01*
X218205220Y-74679219D01*
X218268477Y-74484534D01*
X218300500Y-74282352D01*
X218300500Y-74077648D01*
X218289440Y-74007816D01*
X218268477Y-73875465D01*
X218205218Y-73680776D01*
X218171503Y-73614607D01*
X218112287Y-73498390D01*
X218104556Y-73487749D01*
X217991971Y-73332786D01*
X217847213Y-73188028D01*
X217681614Y-73067715D01*
X217675006Y-73064348D01*
X217588917Y-73020483D01*
X217538123Y-72972511D01*
X217521328Y-72904690D01*
X217543865Y-72838555D01*
X217588917Y-72799516D01*
X217681610Y-72752287D01*
X217702770Y-72736913D01*
X217847213Y-72631971D01*
X217847215Y-72631968D01*
X217847219Y-72631966D01*
X217991966Y-72487219D01*
X217991968Y-72487215D01*
X217991971Y-72487213D01*
X218084409Y-72359981D01*
X218112287Y-72321610D01*
X218205220Y-72139219D01*
X218268477Y-71944534D01*
X218300500Y-71742352D01*
X218300500Y-71537648D01*
X218268477Y-71335466D01*
X218205220Y-71140781D01*
X218205218Y-71140778D01*
X218205218Y-71140776D01*
X218171503Y-71074607D01*
X218112287Y-70958390D01*
X218104556Y-70947749D01*
X217991971Y-70792786D01*
X217847213Y-70648028D01*
X217681614Y-70527715D01*
X217675006Y-70524348D01*
X217588917Y-70480483D01*
X217538123Y-70432511D01*
X217521328Y-70364690D01*
X217543865Y-70298555D01*
X217588917Y-70259516D01*
X217681610Y-70212287D01*
X217702770Y-70196913D01*
X217767365Y-70149983D01*
X238499500Y-70149983D01*
X238499500Y-71450001D01*
X238499501Y-71450018D01*
X238510000Y-71552796D01*
X238510001Y-71552799D01*
X238565185Y-71719331D01*
X238565187Y-71719336D01*
X238582197Y-71746913D01*
X238656408Y-71867230D01*
X238657289Y-71868657D01*
X238781344Y-71992712D01*
X238936120Y-72088178D01*
X238982845Y-72140126D01*
X238994068Y-72209088D01*
X238966224Y-72273171D01*
X238958706Y-72281398D01*
X238819889Y-72420215D01*
X238694951Y-72592179D01*
X238598444Y-72781585D01*
X238532753Y-72983760D01*
X238499500Y-73193713D01*
X238499500Y-73406286D01*
X238532753Y-73616239D01*
X238598444Y-73818414D01*
X238694951Y-74007820D01*
X238819890Y-74179786D01*
X238970213Y-74330109D01*
X239142179Y-74455048D01*
X239142181Y-74455049D01*
X239142184Y-74455051D01*
X239331588Y-74551557D01*
X239533757Y-74617246D01*
X239743713Y-74650500D01*
X239743714Y-74650500D01*
X240206286Y-74650500D01*
X240206287Y-74650500D01*
X240416243Y-74617246D01*
X240618412Y-74551557D01*
X240807816Y-74455051D01*
X240907965Y-74382289D01*
X240979786Y-74330109D01*
X240979788Y-74330106D01*
X240979792Y-74330104D01*
X241130104Y-74179792D01*
X241130106Y-74179788D01*
X241130109Y-74179786D01*
X241255048Y-74007820D01*
X241255047Y-74007820D01*
X241255051Y-74007816D01*
X241351557Y-73818412D01*
X241417246Y-73616243D01*
X241450500Y-73406287D01*
X241450500Y-73193713D01*
X241417246Y-72983757D01*
X241351557Y-72781588D01*
X241255051Y-72592184D01*
X241255049Y-72592181D01*
X241255048Y-72592179D01*
X241130109Y-72420213D01*
X240991294Y-72281398D01*
X240957809Y-72220075D01*
X240962793Y-72150383D01*
X241004665Y-72094450D01*
X241013879Y-72088178D01*
X241019331Y-72084814D01*
X241019334Y-72084814D01*
X241168656Y-71992712D01*
X241292712Y-71868656D01*
X241384814Y-71719334D01*
X241439999Y-71552797D01*
X241450500Y-71450009D01*
X241450499Y-70149992D01*
X241439999Y-70047203D01*
X241384814Y-69880666D01*
X241292712Y-69731344D01*
X241168656Y-69607288D01*
X241019334Y-69515186D01*
X240852797Y-69460001D01*
X240852795Y-69460000D01*
X240750010Y-69449500D01*
X239199998Y-69449500D01*
X239199981Y-69449501D01*
X239097203Y-69460000D01*
X239097200Y-69460001D01*
X238930668Y-69515185D01*
X238930663Y-69515187D01*
X238781342Y-69607289D01*
X238657289Y-69731342D01*
X238565187Y-69880663D01*
X238565186Y-69880666D01*
X238510001Y-70047203D01*
X238510001Y-70047204D01*
X238510000Y-70047204D01*
X238499500Y-70149983D01*
X217767365Y-70149983D01*
X217847213Y-70091971D01*
X217847215Y-70091968D01*
X217847219Y-70091966D01*
X217991966Y-69947219D01*
X217991968Y-69947215D01*
X217991971Y-69947213D01*
X218046470Y-69872200D01*
X218112287Y-69781610D01*
X218205220Y-69599219D01*
X218268477Y-69404534D01*
X218300500Y-69202352D01*
X218300500Y-68997648D01*
X218278148Y-68856523D01*
X218268477Y-68795465D01*
X218219072Y-68643414D01*
X218205220Y-68600781D01*
X218205218Y-68600778D01*
X218205218Y-68600776D01*
X218171503Y-68534607D01*
X218112287Y-68418390D01*
X218048235Y-68330229D01*
X217991971Y-68252786D01*
X217847213Y-68108028D01*
X217681614Y-67987715D01*
X217675006Y-67984348D01*
X217588917Y-67940483D01*
X217538123Y-67892511D01*
X217521328Y-67824690D01*
X217543865Y-67758555D01*
X217588917Y-67719516D01*
X217681610Y-67672287D01*
X217772042Y-67606585D01*
X217847213Y-67551971D01*
X217847215Y-67551968D01*
X217847219Y-67551966D01*
X217991966Y-67407219D01*
X217991968Y-67407215D01*
X217991971Y-67407213D01*
X218109669Y-67245213D01*
X218112287Y-67241610D01*
X218205220Y-67059219D01*
X218268477Y-66864534D01*
X218300500Y-66662352D01*
X218300500Y-66457648D01*
X218268477Y-66255466D01*
X218205220Y-66060781D01*
X218205218Y-66060778D01*
X218205218Y-66060776D01*
X218123457Y-65900312D01*
X218110561Y-65831643D01*
X218136837Y-65766902D01*
X218193944Y-65726645D01*
X218234743Y-65720020D01*
X219226593Y-65726461D01*
X219293503Y-65746580D01*
X219338914Y-65799680D01*
X219349784Y-65849519D01*
X219368577Y-68330207D01*
X219368577Y-68330217D01*
X219368578Y-68330224D01*
X219368579Y-68330229D01*
X219380769Y-68436814D01*
X219392200Y-68487881D01*
X219392201Y-68487884D01*
X219426607Y-68589486D01*
X219426608Y-68589488D01*
X219461602Y-68643414D01*
X219504934Y-68710187D01*
X219550915Y-68762780D01*
X219550917Y-68762781D01*
X219550919Y-68762784D01*
X219660071Y-68856523D01*
X219791212Y-68915714D01*
X219858338Y-68935102D01*
X219858340Y-68935102D01*
X219858341Y-68935102D01*
X219858344Y-68935103D01*
X219866573Y-68936267D01*
X219866848Y-68936286D01*
X220000845Y-68954948D01*
X226903786Y-68924404D01*
X227010100Y-68912616D01*
X227061062Y-68901411D01*
X227162504Y-68867523D01*
X227248770Y-68812082D01*
X227283531Y-68789743D01*
X227283533Y-68789741D01*
X227283543Y-68789735D01*
X227336347Y-68743980D01*
X227430567Y-68635246D01*
X227490338Y-68504369D01*
X227510023Y-68437330D01*
X227510024Y-68437326D01*
X227530500Y-68294910D01*
X227530500Y-63893713D01*
X240399500Y-63893713D01*
X240399500Y-64106286D01*
X240432753Y-64316239D01*
X240498444Y-64518414D01*
X240594951Y-64707820D01*
X240719890Y-64879786D01*
X240870213Y-65030109D01*
X241042179Y-65155048D01*
X241042181Y-65155049D01*
X241042184Y-65155051D01*
X241231588Y-65251557D01*
X241433757Y-65317246D01*
X241643713Y-65350500D01*
X241643714Y-65350500D01*
X241856286Y-65350500D01*
X241856287Y-65350500D01*
X242066243Y-65317246D01*
X242268412Y-65251557D01*
X242457816Y-65155051D01*
X242479789Y-65139086D01*
X242629786Y-65030109D01*
X242629788Y-65030106D01*
X242629792Y-65030104D01*
X242780104Y-64879792D01*
X242780106Y-64879788D01*
X242780109Y-64879786D01*
X242905048Y-64707820D01*
X242905049Y-64707819D01*
X242905051Y-64707816D01*
X243001557Y-64518412D01*
X243067246Y-64316243D01*
X243100500Y-64106287D01*
X243100500Y-63893713D01*
X243067246Y-63683757D01*
X243001557Y-63481588D01*
X242905051Y-63292184D01*
X242905049Y-63292181D01*
X242905048Y-63292179D01*
X242780109Y-63120213D01*
X242629786Y-62969890D01*
X242457820Y-62844951D01*
X242268414Y-62748444D01*
X242268413Y-62748443D01*
X242268412Y-62748443D01*
X242066243Y-62682754D01*
X242066241Y-62682753D01*
X242066240Y-62682753D01*
X241904957Y-62657208D01*
X241856287Y-62649500D01*
X241643713Y-62649500D01*
X241595042Y-62657208D01*
X241433760Y-62682753D01*
X241231585Y-62748444D01*
X241042179Y-62844951D01*
X240870213Y-62969890D01*
X240719890Y-63120213D01*
X240594951Y-63292179D01*
X240498444Y-63481585D01*
X240432753Y-63683760D01*
X240399500Y-63893713D01*
X227530500Y-63893713D01*
X227530500Y-61799000D01*
X227518947Y-61691544D01*
X227507741Y-61640033D01*
X227507637Y-61639722D01*
X227473616Y-61537502D01*
X227473613Y-61537496D01*
X227415606Y-61447237D01*
X227395825Y-61416457D01*
X227395820Y-61416451D01*
X227350076Y-61363659D01*
X227350072Y-61363656D01*
X227350070Y-61363653D01*
X227241336Y-61269433D01*
X227241333Y-61269431D01*
X227241331Y-61269430D01*
X227110465Y-61209664D01*
X227110460Y-61209662D01*
X227110459Y-61209662D01*
X227055338Y-61193476D01*
X226996562Y-61155701D01*
X226967538Y-61092145D01*
X226977482Y-61022987D01*
X227023238Y-60970184D01*
X227090276Y-60950500D01*
X241710118Y-60950500D01*
X241746755Y-60950500D01*
X241753243Y-60950669D01*
X242062288Y-60966865D01*
X242075164Y-60968219D01*
X242377608Y-61016122D01*
X242390292Y-61018817D01*
X242686077Y-61098073D01*
X242698415Y-61102082D01*
X242984279Y-61211815D01*
X242996121Y-61217087D01*
X243268976Y-61356114D01*
X243280191Y-61362590D01*
X243537008Y-61529368D01*
X243547489Y-61536983D01*
X243724090Y-61679991D01*
X243785467Y-61729693D01*
X243795112Y-61738378D01*
X244011621Y-61954887D01*
X244020306Y-61964532D01*
X244213014Y-62202507D01*
X244220633Y-62212995D01*
X244387406Y-62469802D01*
X244393888Y-62481029D01*
X244496673Y-62682754D01*
X244532907Y-62753867D01*
X244538186Y-62765725D01*
X244647917Y-63051585D01*
X244651928Y-63063928D01*
X244731180Y-63359701D01*
X244733878Y-63372397D01*
X244781778Y-63674819D01*
X244783135Y-63687728D01*
X244799330Y-63996756D01*
X244799500Y-64003245D01*
X244799500Y-126996754D01*
X244799330Y-127003243D01*
X244783135Y-127312271D01*
X244781778Y-127325180D01*
X244733878Y-127627602D01*
X244731180Y-127640298D01*
X244651928Y-127936071D01*
X244647917Y-127948414D01*
X244538186Y-128234274D01*
X244532907Y-128246132D01*
X244393892Y-128518964D01*
X244387402Y-128530204D01*
X244220638Y-128786998D01*
X244213009Y-128797499D01*
X244020306Y-129035467D01*
X244011621Y-129045112D01*
X243795112Y-129261621D01*
X243785467Y-129270306D01*
X243547499Y-129463009D01*
X243536998Y-129470638D01*
X243280204Y-129637402D01*
X243268964Y-129643892D01*
X242996132Y-129782907D01*
X242984274Y-129788186D01*
X242698414Y-129897917D01*
X242686071Y-129901928D01*
X242390298Y-129981180D01*
X242377602Y-129983878D01*
X242075180Y-130031778D01*
X242062271Y-130033135D01*
X241753244Y-130049330D01*
X241746755Y-130049500D01*
X178253245Y-130049500D01*
X178246756Y-130049330D01*
X177937728Y-130033135D01*
X177924819Y-130031778D01*
X177622397Y-129983878D01*
X177609701Y-129981180D01*
X177313928Y-129901928D01*
X177301585Y-129897917D01*
X177015725Y-129788186D01*
X177003867Y-129782907D01*
X176987976Y-129774810D01*
X176731029Y-129643888D01*
X176719802Y-129637406D01*
X176462995Y-129470633D01*
X176452507Y-129463014D01*
X176214532Y-129270306D01*
X176204887Y-129261621D01*
X175988378Y-129045112D01*
X175979693Y-129035467D01*
X175786983Y-128797489D01*
X175779368Y-128787008D01*
X175612590Y-128530191D01*
X175606114Y-128518976D01*
X175467087Y-128246121D01*
X175461813Y-128234274D01*
X175435297Y-128165198D01*
X175352082Y-127948414D01*
X175348071Y-127936071D01*
X175318219Y-127824663D01*
X175268817Y-127640292D01*
X175266121Y-127627602D01*
X175247004Y-127506904D01*
X175218219Y-127325164D01*
X175216865Y-127312288D01*
X175200670Y-127003243D01*
X175200500Y-126996754D01*
X175200500Y-126893713D01*
X176899500Y-126893713D01*
X176899500Y-127106286D01*
X176932753Y-127316239D01*
X176998444Y-127518414D01*
X177094951Y-127707820D01*
X177219890Y-127879786D01*
X177370213Y-128030109D01*
X177542179Y-128155048D01*
X177542181Y-128155049D01*
X177542184Y-128155051D01*
X177731588Y-128251557D01*
X177933757Y-128317246D01*
X178143713Y-128350500D01*
X178143714Y-128350500D01*
X178356286Y-128350500D01*
X178356287Y-128350500D01*
X178566243Y-128317246D01*
X178768412Y-128251557D01*
X178957816Y-128155051D01*
X178979789Y-128139086D01*
X179129786Y-128030109D01*
X179129788Y-128030106D01*
X179129792Y-128030104D01*
X179280104Y-127879792D01*
X179280106Y-127879788D01*
X179280109Y-127879786D01*
X179405048Y-127707820D01*
X179405047Y-127707820D01*
X179405051Y-127707816D01*
X179501557Y-127518412D01*
X179567246Y-127316243D01*
X179600500Y-127106287D01*
X179600500Y-126893713D01*
X179567246Y-126683757D01*
X179501557Y-126481588D01*
X179405051Y-126292184D01*
X179405049Y-126292181D01*
X179405048Y-126292179D01*
X179280109Y-126120213D01*
X179129786Y-125969890D01*
X178957820Y-125844951D01*
X178768414Y-125748444D01*
X178768413Y-125748443D01*
X178768412Y-125748443D01*
X178566243Y-125682754D01*
X178566241Y-125682753D01*
X178566240Y-125682753D01*
X178404957Y-125657208D01*
X178356287Y-125649500D01*
X178143713Y-125649500D01*
X178095042Y-125657208D01*
X177933760Y-125682753D01*
X177731585Y-125748444D01*
X177542179Y-125844951D01*
X177370213Y-125969890D01*
X177219890Y-126120213D01*
X177094951Y-126292179D01*
X176998444Y-126481585D01*
X176932753Y-126683760D01*
X176899500Y-126893713D01*
X175200500Y-126893713D01*
X175200500Y-118448338D01*
X176569500Y-118448338D01*
X176569500Y-122407561D01*
X176581260Y-122515974D01*
X176592659Y-122567891D01*
X176592663Y-122567908D01*
X176627394Y-122671264D01*
X176627396Y-122671268D01*
X176705649Y-122792008D01*
X176751607Y-122844636D01*
X176751614Y-122844642D01*
X176751616Y-122844644D01*
X176860698Y-122938434D01*
X176860702Y-122938436D01*
X176991809Y-122997704D01*
X177058923Y-123017131D01*
X177058924Y-123017131D01*
X177059418Y-123017200D01*
X177067240Y-123018310D01*
X177067468Y-123018326D01*
X177201417Y-123037060D01*
X191899975Y-122980606D01*
X191967087Y-123000033D01*
X192013045Y-123052661D01*
X192024438Y-123106280D01*
X191960774Y-127817496D01*
X191960774Y-127817501D01*
X191971565Y-127928430D01*
X191971568Y-127928449D01*
X191982760Y-127981625D01*
X192017603Y-128087502D01*
X192017607Y-128087509D01*
X192095387Y-128208537D01*
X192095396Y-128208548D01*
X192141140Y-128261340D01*
X192141143Y-128261343D01*
X192141147Y-128261347D01*
X192249881Y-128355567D01*
X192249884Y-128355568D01*
X192249885Y-128355569D01*
X192342907Y-128398052D01*
X192380758Y-128415338D01*
X192447797Y-128435023D01*
X192447801Y-128435024D01*
X192590217Y-128455500D01*
X192590220Y-128455500D01*
X229861759Y-128455500D01*
X229861768Y-128455500D01*
X229895997Y-128451801D01*
X229969741Y-128443834D01*
X229969744Y-128443833D01*
X229969747Y-128443833D01*
X230021500Y-128432517D01*
X230124498Y-128398052D01*
X230245370Y-128320006D01*
X230298076Y-128274138D01*
X230298077Y-128274137D01*
X230392065Y-128165198D01*
X230451555Y-128034192D01*
X230471096Y-127967110D01*
X230473744Y-127948414D01*
X230481181Y-127895881D01*
X230491267Y-127824652D01*
X230489274Y-126893713D01*
X240399500Y-126893713D01*
X240399500Y-127106286D01*
X240432753Y-127316239D01*
X240498444Y-127518414D01*
X240594951Y-127707820D01*
X240719890Y-127879786D01*
X240870213Y-128030109D01*
X241042179Y-128155048D01*
X241042181Y-128155049D01*
X241042184Y-128155051D01*
X241231588Y-128251557D01*
X241433757Y-128317246D01*
X241643713Y-128350500D01*
X241643714Y-128350500D01*
X241856286Y-128350500D01*
X241856287Y-128350500D01*
X242066243Y-128317246D01*
X242268412Y-128251557D01*
X242457816Y-128155051D01*
X242479789Y-128139086D01*
X242629786Y-128030109D01*
X242629788Y-128030106D01*
X242629792Y-128030104D01*
X242780104Y-127879792D01*
X242780106Y-127879788D01*
X242780109Y-127879786D01*
X242905048Y-127707820D01*
X242905047Y-127707820D01*
X242905051Y-127707816D01*
X243001557Y-127518412D01*
X243067246Y-127316243D01*
X243100500Y-127106287D01*
X243100500Y-126893713D01*
X243067246Y-126683757D01*
X243001557Y-126481588D01*
X242905051Y-126292184D01*
X242905049Y-126292181D01*
X242905048Y-126292179D01*
X242780109Y-126120213D01*
X242629786Y-125969890D01*
X242457820Y-125844951D01*
X242268414Y-125748444D01*
X242268413Y-125748443D01*
X242268412Y-125748443D01*
X242066243Y-125682754D01*
X242066241Y-125682753D01*
X242066240Y-125682753D01*
X241904957Y-125657208D01*
X241856287Y-125649500D01*
X241643713Y-125649500D01*
X241595042Y-125657208D01*
X241433760Y-125682753D01*
X241231585Y-125748444D01*
X241042179Y-125844951D01*
X240870213Y-125969890D01*
X240719890Y-126120213D01*
X240594951Y-126292179D01*
X240498444Y-126481585D01*
X240432753Y-126683760D01*
X240399500Y-126893713D01*
X230489274Y-126893713D01*
X230471590Y-118635311D01*
X230470109Y-117943713D01*
X238274500Y-117943713D01*
X238274500Y-118156286D01*
X238305493Y-118351971D01*
X238307754Y-118366243D01*
X238373143Y-118567490D01*
X238373444Y-118568414D01*
X238469951Y-118757820D01*
X238594890Y-118929786D01*
X238745209Y-119080105D01*
X238745214Y-119080109D01*
X238909793Y-119199682D01*
X238952459Y-119255011D01*
X238958438Y-119324625D01*
X238925833Y-119386420D01*
X238909793Y-119400318D01*
X238745214Y-119519890D01*
X238745209Y-119519894D01*
X238594890Y-119670213D01*
X238469951Y-119842179D01*
X238373444Y-120031585D01*
X238307753Y-120233760D01*
X238274500Y-120443713D01*
X238274500Y-120656287D01*
X238307754Y-120866243D01*
X238370552Y-121059515D01*
X238373444Y-121068414D01*
X238469951Y-121257820D01*
X238594890Y-121429786D01*
X238745213Y-121580109D01*
X238917179Y-121705048D01*
X238917181Y-121705049D01*
X238917184Y-121705051D01*
X239106588Y-121801557D01*
X239308757Y-121867246D01*
X239518713Y-121900500D01*
X239518714Y-121900500D01*
X239981286Y-121900500D01*
X239981287Y-121900500D01*
X240191243Y-121867246D01*
X240393412Y-121801557D01*
X240582816Y-121705051D01*
X240737337Y-121592786D01*
X240754786Y-121580109D01*
X240754788Y-121580106D01*
X240754792Y-121580104D01*
X240905104Y-121429792D01*
X240905106Y-121429788D01*
X240905109Y-121429786D01*
X241030048Y-121257820D01*
X241030047Y-121257820D01*
X241030051Y-121257816D01*
X241126557Y-121068412D01*
X241192246Y-120866243D01*
X241225500Y-120656287D01*
X241225500Y-120443713D01*
X241192246Y-120233757D01*
X241126557Y-120031588D01*
X241030051Y-119842184D01*
X241030049Y-119842181D01*
X241030048Y-119842179D01*
X240905109Y-119670213D01*
X240754792Y-119519896D01*
X240754784Y-119519890D01*
X240590204Y-119400316D01*
X240547540Y-119344989D01*
X240541561Y-119275376D01*
X240574166Y-119213580D01*
X240590199Y-119199686D01*
X240754792Y-119080104D01*
X240905104Y-118929792D01*
X240905106Y-118929788D01*
X240905109Y-118929786D01*
X241030048Y-118757820D01*
X241030047Y-118757820D01*
X241030051Y-118757816D01*
X241126557Y-118568412D01*
X241192246Y-118366243D01*
X241225500Y-118156287D01*
X241225500Y-117943713D01*
X241192246Y-117733757D01*
X241126557Y-117531588D01*
X241030051Y-117342184D01*
X241030049Y-117342181D01*
X241030048Y-117342179D01*
X240905109Y-117170213D01*
X240754786Y-117019890D01*
X240582820Y-116894951D01*
X240393414Y-116798444D01*
X240393413Y-116798443D01*
X240393412Y-116798443D01*
X240191243Y-116732754D01*
X240191241Y-116732753D01*
X240191240Y-116732753D01*
X240029957Y-116707208D01*
X239981287Y-116699500D01*
X239518713Y-116699500D01*
X239470042Y-116707208D01*
X239308760Y-116732753D01*
X239106585Y-116798444D01*
X238917179Y-116894951D01*
X238745213Y-117019890D01*
X238594890Y-117170213D01*
X238469951Y-117342179D01*
X238373444Y-117531585D01*
X238307753Y-117733760D01*
X238274500Y-117943713D01*
X230470109Y-117943713D01*
X230470099Y-117939107D01*
X230466798Y-116397650D01*
X230466797Y-116397649D01*
X230455130Y-116290746D01*
X230443924Y-116239501D01*
X230409912Y-116137496D01*
X230409911Y-116137495D01*
X230409911Y-116137493D01*
X230332128Y-116016462D01*
X230332119Y-116016451D01*
X230286375Y-115963659D01*
X230286371Y-115963656D01*
X230286369Y-115963653D01*
X230177635Y-115869433D01*
X230177632Y-115869431D01*
X230177630Y-115869430D01*
X230046764Y-115809664D01*
X230046759Y-115809662D01*
X230046758Y-115809662D01*
X229987491Y-115792259D01*
X229979716Y-115789976D01*
X229917646Y-115781052D01*
X229837299Y-115769500D01*
X225490902Y-115769500D01*
X225490896Y-115769500D01*
X225411833Y-115775723D01*
X225411815Y-115775725D01*
X225373504Y-115781793D01*
X225296377Y-115800308D01*
X225232146Y-115821179D01*
X225213226Y-115825721D01*
X225101147Y-115843473D01*
X225081749Y-115845000D01*
X224718252Y-115845000D01*
X224698854Y-115843473D01*
X224678179Y-115840198D01*
X224586771Y-115825720D01*
X224567854Y-115821179D01*
X224529102Y-115808588D01*
X224503625Y-115800310D01*
X224503622Y-115800309D01*
X224503615Y-115800307D01*
X224503598Y-115800302D01*
X224426494Y-115781793D01*
X224426495Y-115781793D01*
X224388184Y-115775725D01*
X224388178Y-115775724D01*
X224388176Y-115775724D01*
X224388172Y-115775723D01*
X224388166Y-115775723D01*
X224309103Y-115769500D01*
X224309098Y-115769500D01*
X220574000Y-115769500D01*
X220573991Y-115769500D01*
X220573990Y-115769501D01*
X220466549Y-115781052D01*
X220466537Y-115781054D01*
X220415027Y-115792260D01*
X220312502Y-115826383D01*
X220312496Y-115826386D01*
X220191462Y-115904171D01*
X220191451Y-115904179D01*
X220138659Y-115949923D01*
X220044433Y-116058664D01*
X220044430Y-116058668D01*
X219984664Y-116189534D01*
X219967581Y-116247713D01*
X219964977Y-116256580D01*
X219964976Y-116256584D01*
X219944695Y-116397648D01*
X219944500Y-116399001D01*
X219944500Y-124447254D01*
X219924815Y-124514293D01*
X219872011Y-124560048D01*
X219820638Y-124571254D01*
X199529615Y-124593799D01*
X199462553Y-124574189D01*
X199416740Y-124521436D01*
X199405477Y-124469805D01*
X199405060Y-112548978D01*
X199393505Y-112441532D01*
X199382299Y-112390025D01*
X199348173Y-112287496D01*
X199348171Y-112287493D01*
X199348171Y-112287492D01*
X199270389Y-112166462D01*
X199270380Y-112166451D01*
X199224636Y-112113659D01*
X199224632Y-112113656D01*
X199224630Y-112113653D01*
X199115896Y-112019433D01*
X199115893Y-112019431D01*
X199115891Y-112019430D01*
X198985025Y-111959664D01*
X198985020Y-111959662D01*
X198985019Y-111959662D01*
X198917980Y-111939977D01*
X198917982Y-111939977D01*
X198917977Y-111939976D01*
X198861054Y-111931792D01*
X198775560Y-111919500D01*
X193263960Y-111919500D01*
X193263954Y-111919500D01*
X193184890Y-111925723D01*
X193184887Y-111925723D01*
X193184880Y-111925724D01*
X193163757Y-111929069D01*
X193146560Y-111931793D01*
X193081134Y-111947498D01*
X193071591Y-111949396D01*
X193013480Y-111958600D01*
X192951145Y-111968473D01*
X192931749Y-111970000D01*
X192568253Y-111970000D01*
X192548855Y-111968473D01*
X192521616Y-111964158D01*
X192428372Y-111949389D01*
X192418828Y-111947491D01*
X192387527Y-111939977D01*
X192353437Y-111931793D01*
X192347819Y-111930903D01*
X192315124Y-111925724D01*
X192315110Y-111925723D01*
X192236045Y-111919500D01*
X192236040Y-111919500D01*
X189300373Y-111919500D01*
X189300367Y-111919500D01*
X189300358Y-111919501D01*
X189192982Y-111931039D01*
X189192976Y-111931040D01*
X189141485Y-111942235D01*
X189038984Y-111976334D01*
X188917934Y-112054093D01*
X188917928Y-112054097D01*
X188865115Y-112099842D01*
X188770877Y-112208552D01*
X188711081Y-112339411D01*
X188711076Y-112339424D01*
X188692003Y-112404329D01*
X188691508Y-112405906D01*
X188691378Y-112406455D01*
X188670873Y-112548864D01*
X188670873Y-112548870D01*
X188669819Y-117537196D01*
X188650120Y-117604232D01*
X188597307Y-117649975D01*
X188547541Y-117661158D01*
X180755789Y-117769376D01*
X180755778Y-117769376D01*
X180755776Y-117769377D01*
X180743498Y-117770472D01*
X180680242Y-117776114D01*
X180680237Y-117776115D01*
X180643651Y-117782171D01*
X180580536Y-117797557D01*
X180570568Y-117799558D01*
X180565183Y-117800411D01*
X180451145Y-117818473D01*
X180431749Y-117820000D01*
X180068252Y-117820000D01*
X180048854Y-117818473D01*
X180029374Y-117815387D01*
X179934820Y-117800411D01*
X179934754Y-117800380D01*
X179906811Y-117795965D01*
X179902417Y-117793884D01*
X179875602Y-117790899D01*
X179875581Y-117790896D01*
X179840952Y-117787035D01*
X179840943Y-117787035D01*
X179823985Y-117785143D01*
X179816602Y-117785343D01*
X179769781Y-117783071D01*
X177290755Y-117817502D01*
X177190254Y-117818898D01*
X177151302Y-117823497D01*
X177086377Y-117831162D01*
X177086367Y-117831164D01*
X177036619Y-117842350D01*
X177036602Y-117842354D01*
X176937495Y-117875723D01*
X176816462Y-117953508D01*
X176816451Y-117953516D01*
X176763659Y-117999260D01*
X176669433Y-118108001D01*
X176669430Y-118108005D01*
X176609664Y-118238871D01*
X176589976Y-118305919D01*
X176569500Y-118448338D01*
X175200500Y-118448338D01*
X175200500Y-111868713D01*
X178774500Y-111868713D01*
X178774500Y-112081286D01*
X178807160Y-112287496D01*
X178807754Y-112291243D01*
X178845188Y-112406453D01*
X178873444Y-112493414D01*
X178969951Y-112682820D01*
X179094890Y-112854786D01*
X179245209Y-113005105D01*
X179245214Y-113005109D01*
X179409793Y-113124682D01*
X179452459Y-113180011D01*
X179458438Y-113249625D01*
X179425833Y-113311420D01*
X179409793Y-113325318D01*
X179245214Y-113444890D01*
X179245209Y-113444894D01*
X179094890Y-113595213D01*
X178969951Y-113767179D01*
X178873444Y-113956585D01*
X178807753Y-114158760D01*
X178774500Y-114368713D01*
X178774500Y-114581286D01*
X178799748Y-114740700D01*
X178807754Y-114791243D01*
X178830793Y-114862150D01*
X178873444Y-114993414D01*
X178969951Y-115182820D01*
X179094890Y-115354786D01*
X179245213Y-115505109D01*
X179417179Y-115630048D01*
X179417181Y-115630049D01*
X179417184Y-115630051D01*
X179606588Y-115726557D01*
X179808757Y-115792246D01*
X180018713Y-115825500D01*
X180018714Y-115825500D01*
X180481286Y-115825500D01*
X180481287Y-115825500D01*
X180691243Y-115792246D01*
X180893412Y-115726557D01*
X181082816Y-115630051D01*
X181104789Y-115614086D01*
X181254786Y-115505109D01*
X181254788Y-115505106D01*
X181254792Y-115505104D01*
X181405104Y-115354792D01*
X181405106Y-115354788D01*
X181405109Y-115354786D01*
X181530048Y-115182820D01*
X181530047Y-115182820D01*
X181530051Y-115182816D01*
X181626557Y-114993412D01*
X181692246Y-114791243D01*
X181725500Y-114581287D01*
X181725500Y-114368713D01*
X181692246Y-114158757D01*
X181626557Y-113956588D01*
X181530051Y-113767184D01*
X181530049Y-113767181D01*
X181530048Y-113767179D01*
X181405109Y-113595213D01*
X181254792Y-113444896D01*
X181165183Y-113379792D01*
X181090204Y-113325316D01*
X181047540Y-113269989D01*
X181041561Y-113200376D01*
X181074166Y-113138580D01*
X181090199Y-113124686D01*
X181254792Y-113005104D01*
X181405104Y-112854792D01*
X181405106Y-112854788D01*
X181405109Y-112854786D01*
X181530048Y-112682820D01*
X181530047Y-112682820D01*
X181530051Y-112682816D01*
X181626557Y-112493412D01*
X181692246Y-112291243D01*
X181725500Y-112081287D01*
X181725500Y-111868713D01*
X181692246Y-111658757D01*
X181626557Y-111456588D01*
X181530051Y-111267184D01*
X181530049Y-111267181D01*
X181530048Y-111267179D01*
X181405109Y-111095213D01*
X181254786Y-110944890D01*
X181082820Y-110819951D01*
X180893414Y-110723444D01*
X180893413Y-110723443D01*
X180893412Y-110723443D01*
X180691243Y-110657754D01*
X180691241Y-110657753D01*
X180691240Y-110657753D01*
X180529957Y-110632208D01*
X180481287Y-110624500D01*
X180018713Y-110624500D01*
X179970042Y-110632208D01*
X179808760Y-110657753D01*
X179606585Y-110723444D01*
X179417179Y-110819951D01*
X179245213Y-110944890D01*
X179094890Y-111095213D01*
X178969951Y-111267179D01*
X178873444Y-111456585D01*
X178807753Y-111658760D01*
X178774500Y-111868713D01*
X175200500Y-111868713D01*
X175200500Y-106018713D01*
X191274500Y-106018713D01*
X191274500Y-106231287D01*
X191307754Y-106441243D01*
X191332819Y-106518386D01*
X191373444Y-106643414D01*
X191469951Y-106832820D01*
X191594890Y-107004786D01*
X191745209Y-107155105D01*
X191745214Y-107155109D01*
X191909793Y-107274682D01*
X191952459Y-107330011D01*
X191958438Y-107399625D01*
X191925833Y-107461420D01*
X191909793Y-107475318D01*
X191745214Y-107594890D01*
X191745209Y-107594894D01*
X191594890Y-107745213D01*
X191469951Y-107917179D01*
X191373444Y-108106585D01*
X191307753Y-108308760D01*
X191283056Y-108464690D01*
X191274500Y-108518713D01*
X191274500Y-108731287D01*
X191307754Y-108941243D01*
X191345816Y-109058386D01*
X191373444Y-109143414D01*
X191469951Y-109332820D01*
X191594890Y-109504786D01*
X191745213Y-109655109D01*
X191917179Y-109780048D01*
X191917181Y-109780049D01*
X191917184Y-109780051D01*
X192106588Y-109876557D01*
X192308757Y-109942246D01*
X192518713Y-109975500D01*
X192518714Y-109975500D01*
X192981286Y-109975500D01*
X192981287Y-109975500D01*
X193191243Y-109942246D01*
X193393412Y-109876557D01*
X193582816Y-109780051D01*
X193604789Y-109764086D01*
X193754786Y-109655109D01*
X193754788Y-109655106D01*
X193754792Y-109655104D01*
X193905104Y-109504792D01*
X193905106Y-109504788D01*
X193905109Y-109504786D01*
X194030048Y-109332820D01*
X194030047Y-109332820D01*
X194030051Y-109332816D01*
X194126557Y-109143412D01*
X194192246Y-108941243D01*
X194225500Y-108731287D01*
X194225500Y-108518713D01*
X194192246Y-108308757D01*
X194126557Y-108106588D01*
X194030051Y-107917184D01*
X194030049Y-107917181D01*
X194030048Y-107917179D01*
X193905109Y-107745213D01*
X193754792Y-107594896D01*
X193754784Y-107594890D01*
X193590204Y-107475316D01*
X193547540Y-107419989D01*
X193541561Y-107350376D01*
X193574166Y-107288580D01*
X193590199Y-107274686D01*
X193754792Y-107155104D01*
X193905104Y-107004792D01*
X193905106Y-107004788D01*
X193905109Y-107004786D01*
X194030048Y-106832820D01*
X194030047Y-106832820D01*
X194030051Y-106832816D01*
X194126557Y-106643412D01*
X194192246Y-106441243D01*
X194225500Y-106231287D01*
X194225500Y-106018713D01*
X194192246Y-105808757D01*
X194126557Y-105606588D01*
X194030051Y-105417184D01*
X194030049Y-105417181D01*
X194030048Y-105417179D01*
X193905109Y-105245213D01*
X193754786Y-105094890D01*
X193582820Y-104969951D01*
X193393414Y-104873444D01*
X193393413Y-104873443D01*
X193393412Y-104873443D01*
X193191243Y-104807754D01*
X193191241Y-104807753D01*
X193191240Y-104807753D01*
X193029957Y-104782208D01*
X192981287Y-104774500D01*
X192518713Y-104774500D01*
X192470042Y-104782208D01*
X192308760Y-104807753D01*
X192106585Y-104873444D01*
X191917179Y-104969951D01*
X191745213Y-105094890D01*
X191594890Y-105245213D01*
X191469951Y-105417179D01*
X191373444Y-105606585D01*
X191307753Y-105808760D01*
X191278650Y-105992511D01*
X191274500Y-106018713D01*
X175200500Y-106018713D01*
X175200500Y-96893713D01*
X179799500Y-96893713D01*
X179799500Y-97106286D01*
X179831352Y-97307396D01*
X179832754Y-97316243D01*
X179883122Y-97471260D01*
X179898444Y-97518414D01*
X179994951Y-97707820D01*
X180119890Y-97879786D01*
X180270209Y-98030105D01*
X180270214Y-98030109D01*
X180434793Y-98149682D01*
X180477459Y-98205011D01*
X180483438Y-98274625D01*
X180450833Y-98336420D01*
X180434793Y-98350318D01*
X180270214Y-98469890D01*
X180270209Y-98469894D01*
X180119890Y-98620213D01*
X179994951Y-98792179D01*
X179898444Y-98981585D01*
X179832753Y-99183760D01*
X179811984Y-99314892D01*
X179799500Y-99393713D01*
X179799500Y-99606287D01*
X179832754Y-99816243D01*
X179854943Y-99884534D01*
X179898444Y-100018414D01*
X179994951Y-100207820D01*
X180119890Y-100379786D01*
X180270213Y-100530109D01*
X180442179Y-100655048D01*
X180442181Y-100655049D01*
X180442184Y-100655051D01*
X180631588Y-100751557D01*
X180833757Y-100817246D01*
X181043713Y-100850500D01*
X181043714Y-100850500D01*
X181506286Y-100850500D01*
X181506287Y-100850500D01*
X181716243Y-100817246D01*
X181918412Y-100751557D01*
X182107816Y-100655051D01*
X182222167Y-100571971D01*
X182279786Y-100530109D01*
X182279788Y-100530106D01*
X182279792Y-100530104D01*
X182430104Y-100379792D01*
X182430106Y-100379788D01*
X182430109Y-100379786D01*
X182555048Y-100207820D01*
X182555047Y-100207820D01*
X182555051Y-100207816D01*
X182651557Y-100018412D01*
X182717246Y-99816243D01*
X182750500Y-99606287D01*
X182750500Y-99393713D01*
X182717246Y-99183757D01*
X182651557Y-98981588D01*
X182555051Y-98792184D01*
X182555049Y-98792181D01*
X182555048Y-98792179D01*
X182430109Y-98620213D01*
X182279792Y-98469896D01*
X182243854Y-98443786D01*
X182115204Y-98350316D01*
X182072540Y-98294989D01*
X182066561Y-98225376D01*
X182099166Y-98163580D01*
X182115199Y-98149686D01*
X182279792Y-98030104D01*
X182430104Y-97879792D01*
X182430106Y-97879788D01*
X182430109Y-97879786D01*
X182555048Y-97707820D01*
X182555047Y-97707820D01*
X182555051Y-97707816D01*
X182651557Y-97518412D01*
X182717246Y-97316243D01*
X182750500Y-97106287D01*
X182750500Y-96893713D01*
X182717246Y-96683757D01*
X182651557Y-96481588D01*
X182555051Y-96292184D01*
X182555049Y-96292181D01*
X182555048Y-96292179D01*
X182430109Y-96120213D01*
X182279786Y-95969890D01*
X182107820Y-95844951D01*
X181918414Y-95748444D01*
X181918413Y-95748443D01*
X181918412Y-95748443D01*
X181716243Y-95682754D01*
X181716241Y-95682753D01*
X181716240Y-95682753D01*
X181554957Y-95657208D01*
X181506287Y-95649500D01*
X181043713Y-95649500D01*
X180995042Y-95657208D01*
X180833760Y-95682753D01*
X180631585Y-95748444D01*
X180442179Y-95844951D01*
X180270213Y-95969890D01*
X180119890Y-96120213D01*
X179994951Y-96292179D01*
X179898444Y-96481585D01*
X179832753Y-96683760D01*
X179799500Y-96893713D01*
X175200500Y-96893713D01*
X175200500Y-88268713D01*
X191274500Y-88268713D01*
X191274500Y-88481286D01*
X191307753Y-88691239D01*
X191373444Y-88893414D01*
X191469951Y-89082820D01*
X191594890Y-89254786D01*
X191733705Y-89393601D01*
X191767190Y-89454924D01*
X191762206Y-89524616D01*
X191720334Y-89580549D01*
X191711121Y-89586821D01*
X191556342Y-89682289D01*
X191432289Y-89806342D01*
X191340187Y-89955663D01*
X191340186Y-89955666D01*
X191285001Y-90122203D01*
X191285001Y-90122204D01*
X191285000Y-90122204D01*
X191274500Y-90224983D01*
X191274500Y-91525001D01*
X191274501Y-91525018D01*
X191285000Y-91627796D01*
X191285001Y-91627799D01*
X191340185Y-91794331D01*
X191340186Y-91794334D01*
X191432288Y-91943656D01*
X191556344Y-92067712D01*
X191705666Y-92159814D01*
X191872203Y-92214999D01*
X191974991Y-92225500D01*
X193525008Y-92225499D01*
X193627797Y-92214999D01*
X193794334Y-92159814D01*
X193943656Y-92067712D01*
X194067712Y-91943656D01*
X194159814Y-91794334D01*
X194214999Y-91627797D01*
X194225500Y-91525009D01*
X194225499Y-90224992D01*
X194214999Y-90122203D01*
X194159814Y-89955666D01*
X194067712Y-89806344D01*
X193943656Y-89682288D01*
X193794334Y-89590186D01*
X193794333Y-89590185D01*
X193788878Y-89586821D01*
X193742154Y-89534873D01*
X193730931Y-89465910D01*
X193758775Y-89401828D01*
X193766272Y-89393623D01*
X193905104Y-89254792D01*
X194030051Y-89082816D01*
X194126557Y-88893412D01*
X194192246Y-88691243D01*
X194225500Y-88481287D01*
X194225500Y-88268713D01*
X194192246Y-88058757D01*
X194126557Y-87856588D01*
X194030051Y-87667184D01*
X194030049Y-87667181D01*
X194030048Y-87667179D01*
X193905109Y-87495213D01*
X193754786Y-87344890D01*
X193582820Y-87219951D01*
X193393414Y-87123444D01*
X193393413Y-87123443D01*
X193393412Y-87123443D01*
X193191243Y-87057754D01*
X193191241Y-87057753D01*
X193191240Y-87057753D01*
X193029957Y-87032208D01*
X192981287Y-87024500D01*
X192518713Y-87024500D01*
X192470042Y-87032208D01*
X192308760Y-87057753D01*
X192106585Y-87123444D01*
X191917179Y-87219951D01*
X191745213Y-87344890D01*
X191594890Y-87495213D01*
X191469951Y-87667179D01*
X191373444Y-87856585D01*
X191307753Y-88058760D01*
X191274500Y-88268713D01*
X175200500Y-88268713D01*
X175200500Y-75893713D01*
X178749500Y-75893713D01*
X178749500Y-76106286D01*
X178782338Y-76313621D01*
X178782754Y-76316243D01*
X178840620Y-76494336D01*
X178848444Y-76518414D01*
X178944951Y-76707820D01*
X179069890Y-76879786D01*
X179208705Y-77018601D01*
X179242190Y-77079924D01*
X179237206Y-77149616D01*
X179195334Y-77205549D01*
X179186121Y-77211821D01*
X179031342Y-77307289D01*
X178907289Y-77431342D01*
X178815187Y-77580663D01*
X178815186Y-77580666D01*
X178760001Y-77747203D01*
X178760001Y-77747204D01*
X178760000Y-77747204D01*
X178749500Y-77849983D01*
X178749500Y-79150001D01*
X178749501Y-79150018D01*
X178760000Y-79252796D01*
X178760001Y-79252799D01*
X178796304Y-79362352D01*
X178815186Y-79419334D01*
X178907288Y-79568656D01*
X179031344Y-79692712D01*
X179180666Y-79784814D01*
X179347203Y-79839999D01*
X179449991Y-79850500D01*
X181000008Y-79850499D01*
X181102797Y-79839999D01*
X181269334Y-79784814D01*
X181418656Y-79692712D01*
X181542712Y-79568656D01*
X181634814Y-79419334D01*
X181689999Y-79252797D01*
X181700500Y-79150009D01*
X181700499Y-77849992D01*
X181698690Y-77832287D01*
X181689999Y-77747203D01*
X181689998Y-77747200D01*
X181678324Y-77711971D01*
X181634814Y-77580666D01*
X181542712Y-77431344D01*
X181418656Y-77307288D01*
X181269334Y-77215186D01*
X181269333Y-77215185D01*
X181263878Y-77211821D01*
X181217154Y-77159873D01*
X181205931Y-77090910D01*
X181233775Y-77026828D01*
X181241272Y-77018623D01*
X181380104Y-76879792D01*
X181402046Y-76849592D01*
X181505048Y-76707820D01*
X181505047Y-76707820D01*
X181505051Y-76707816D01*
X181601557Y-76518412D01*
X181667246Y-76316243D01*
X181700500Y-76106287D01*
X181700500Y-75893713D01*
X181667246Y-75683757D01*
X181601557Y-75481588D01*
X181505051Y-75292184D01*
X181505049Y-75292181D01*
X181505048Y-75292179D01*
X181380109Y-75120213D01*
X181229786Y-74969890D01*
X181057820Y-74844951D01*
X180868414Y-74748444D01*
X180868413Y-74748443D01*
X180868412Y-74748443D01*
X180666243Y-74682754D01*
X180666241Y-74682753D01*
X180666240Y-74682753D01*
X180495198Y-74655663D01*
X180456287Y-74649500D01*
X179993713Y-74649500D01*
X179954802Y-74655663D01*
X179783760Y-74682753D01*
X179581585Y-74748444D01*
X179392179Y-74844951D01*
X179220213Y-74969890D01*
X179069890Y-75120213D01*
X178944951Y-75292179D01*
X178848444Y-75481585D01*
X178782753Y-75683760D01*
X178749500Y-75893713D01*
X175200500Y-75893713D01*
X175200500Y-68018713D01*
X191274500Y-68018713D01*
X191274500Y-68231286D01*
X191307133Y-68437327D01*
X191307754Y-68441243D01*
X191370789Y-68635245D01*
X191373444Y-68643414D01*
X191469951Y-68832820D01*
X191594890Y-69004786D01*
X191733705Y-69143601D01*
X191767190Y-69204924D01*
X191762206Y-69274616D01*
X191720334Y-69330549D01*
X191711121Y-69336821D01*
X191556342Y-69432289D01*
X191432289Y-69556342D01*
X191340187Y-69705663D01*
X191340186Y-69705666D01*
X191285001Y-69872203D01*
X191285001Y-69872204D01*
X191285000Y-69872204D01*
X191274500Y-69974983D01*
X191274500Y-71275001D01*
X191274501Y-71275018D01*
X191285000Y-71377796D01*
X191285001Y-71377799D01*
X191317790Y-71476747D01*
X191340186Y-71544334D01*
X191432288Y-71693656D01*
X191556344Y-71817712D01*
X191705666Y-71909814D01*
X191872203Y-71964999D01*
X191974991Y-71975500D01*
X193525008Y-71975499D01*
X193627797Y-71964999D01*
X193794334Y-71909814D01*
X193943656Y-71817712D01*
X194067712Y-71693656D01*
X194159814Y-71544334D01*
X194214999Y-71377797D01*
X194225500Y-71275009D01*
X194225499Y-69974992D01*
X194214999Y-69872203D01*
X194159814Y-69705666D01*
X194067712Y-69556344D01*
X193943656Y-69432288D01*
X193794334Y-69340186D01*
X193794333Y-69340185D01*
X193788878Y-69336821D01*
X193742154Y-69284873D01*
X193730931Y-69215910D01*
X193758775Y-69151828D01*
X193766272Y-69143623D01*
X193905104Y-69004792D01*
X193910295Y-68997648D01*
X194004835Y-68867523D01*
X194030051Y-68832816D01*
X194126557Y-68643412D01*
X194192246Y-68441243D01*
X194225500Y-68231287D01*
X194225500Y-68018713D01*
X194192246Y-67808757D01*
X194126557Y-67606588D01*
X194030051Y-67417184D01*
X194030049Y-67417181D01*
X194030048Y-67417179D01*
X193905109Y-67245213D01*
X193754786Y-67094890D01*
X193582820Y-66969951D01*
X193393414Y-66873444D01*
X193393413Y-66873443D01*
X193393412Y-66873443D01*
X193191243Y-66807754D01*
X193191241Y-66807753D01*
X193191240Y-66807753D01*
X193029957Y-66782208D01*
X192981287Y-66774500D01*
X192518713Y-66774500D01*
X192470042Y-66782208D01*
X192308760Y-66807753D01*
X192106585Y-66873444D01*
X191917179Y-66969951D01*
X191745213Y-67094890D01*
X191594890Y-67245213D01*
X191469951Y-67417179D01*
X191373444Y-67606585D01*
X191307753Y-67808760D01*
X191274500Y-68018713D01*
X175200500Y-68018713D01*
X175200500Y-64003245D01*
X175200670Y-63996756D01*
X175206070Y-63893713D01*
X176899500Y-63893713D01*
X176899500Y-64106286D01*
X176932753Y-64316239D01*
X176998444Y-64518414D01*
X177094951Y-64707820D01*
X177219890Y-64879786D01*
X177370213Y-65030109D01*
X177542179Y-65155048D01*
X177542181Y-65155049D01*
X177542184Y-65155051D01*
X177731588Y-65251557D01*
X177933757Y-65317246D01*
X178143713Y-65350500D01*
X178143714Y-65350500D01*
X178356286Y-65350500D01*
X178356287Y-65350500D01*
X178566243Y-65317246D01*
X178768412Y-65251557D01*
X178957816Y-65155051D01*
X178979789Y-65139086D01*
X179129786Y-65030109D01*
X179129788Y-65030106D01*
X179129792Y-65030104D01*
X179280104Y-64879792D01*
X179280106Y-64879788D01*
X179280109Y-64879786D01*
X179340847Y-64796186D01*
X179405051Y-64707816D01*
X179429696Y-64659448D01*
X206959500Y-64659448D01*
X206959500Y-64840551D01*
X206987829Y-65019410D01*
X207043787Y-65191636D01*
X207043788Y-65191639D01*
X207078366Y-65259500D01*
X207124733Y-65350500D01*
X207126006Y-65352997D01*
X207232441Y-65499494D01*
X207232445Y-65499499D01*
X207360500Y-65627554D01*
X207360505Y-65627558D01*
X207467934Y-65705609D01*
X207507006Y-65733996D01*
X207612484Y-65787740D01*
X207668360Y-65816211D01*
X207668363Y-65816212D01*
X207754476Y-65844191D01*
X207840591Y-65872171D01*
X207923429Y-65885291D01*
X208019449Y-65900500D01*
X208019454Y-65900500D01*
X208200551Y-65900500D01*
X208287259Y-65886765D01*
X208379409Y-65872171D01*
X208551639Y-65816211D01*
X208712994Y-65733996D01*
X208859501Y-65627553D01*
X208987553Y-65499501D01*
X209093996Y-65352994D01*
X209176211Y-65191639D01*
X209232171Y-65019409D01*
X209246422Y-64929425D01*
X209257527Y-64859321D01*
X209287456Y-64796186D01*
X209346768Y-64759255D01*
X209416630Y-64760253D01*
X209474863Y-64798863D01*
X209502473Y-64859321D01*
X209527829Y-65019410D01*
X209583787Y-65191636D01*
X209583788Y-65191639D01*
X209618366Y-65259500D01*
X209664733Y-65350500D01*
X209666006Y-65352997D01*
X209772441Y-65499494D01*
X209772445Y-65499499D01*
X209900500Y-65627554D01*
X209900505Y-65627558D01*
X210007934Y-65705609D01*
X210047006Y-65733996D01*
X210152484Y-65787740D01*
X210208360Y-65816211D01*
X210208363Y-65816212D01*
X210294476Y-65844191D01*
X210380591Y-65872171D01*
X210463429Y-65885291D01*
X210559449Y-65900500D01*
X210559454Y-65900500D01*
X210740551Y-65900500D01*
X210827259Y-65886765D01*
X210919409Y-65872171D01*
X211091639Y-65816211D01*
X211252994Y-65733996D01*
X211399501Y-65627553D01*
X211527553Y-65499501D01*
X211633996Y-65352994D01*
X211716211Y-65191639D01*
X211772171Y-65019409D01*
X211786765Y-64927259D01*
X211800500Y-64840551D01*
X211800500Y-64659448D01*
X211784019Y-64555397D01*
X211772171Y-64480591D01*
X211716211Y-64308361D01*
X211716211Y-64308360D01*
X211687740Y-64252484D01*
X211633996Y-64147006D01*
X211604411Y-64106286D01*
X211527558Y-64000505D01*
X211527554Y-64000500D01*
X211399499Y-63872445D01*
X211399494Y-63872441D01*
X211252997Y-63766006D01*
X211252996Y-63766005D01*
X211252994Y-63766004D01*
X211201300Y-63739664D01*
X211091639Y-63683788D01*
X211091636Y-63683787D01*
X210919410Y-63627829D01*
X210740551Y-63599500D01*
X210740546Y-63599500D01*
X210559454Y-63599500D01*
X210559449Y-63599500D01*
X210380589Y-63627829D01*
X210208363Y-63683787D01*
X210208360Y-63683788D01*
X210047002Y-63766006D01*
X209900505Y-63872441D01*
X209900500Y-63872445D01*
X209772445Y-64000500D01*
X209772441Y-64000505D01*
X209666006Y-64147002D01*
X209583788Y-64308360D01*
X209583787Y-64308363D01*
X209527829Y-64480589D01*
X209502473Y-64640678D01*
X209472544Y-64703813D01*
X209413232Y-64740744D01*
X209343369Y-64739746D01*
X209285137Y-64701136D01*
X209257527Y-64640678D01*
X209243740Y-64553639D01*
X209232171Y-64480591D01*
X209176211Y-64308361D01*
X209176211Y-64308360D01*
X209147740Y-64252484D01*
X209093996Y-64147006D01*
X209064411Y-64106286D01*
X208987558Y-64000505D01*
X208987554Y-64000500D01*
X208859499Y-63872445D01*
X208859494Y-63872441D01*
X208712997Y-63766006D01*
X208712996Y-63766005D01*
X208712994Y-63766004D01*
X208661300Y-63739664D01*
X208551639Y-63683788D01*
X208551636Y-63683787D01*
X208379410Y-63627829D01*
X208200551Y-63599500D01*
X208200546Y-63599500D01*
X208019454Y-63599500D01*
X208019449Y-63599500D01*
X207840589Y-63627829D01*
X207668363Y-63683787D01*
X207668360Y-63683788D01*
X207507002Y-63766006D01*
X207360505Y-63872441D01*
X207360500Y-63872445D01*
X207232445Y-64000500D01*
X207232441Y-64000505D01*
X207126006Y-64147002D01*
X207043788Y-64308360D01*
X207043787Y-64308363D01*
X206987829Y-64480589D01*
X206959500Y-64659448D01*
X179429696Y-64659448D01*
X179501557Y-64518412D01*
X179567246Y-64316243D01*
X179600500Y-64106287D01*
X179600500Y-63893713D01*
X179567246Y-63683757D01*
X179501557Y-63481588D01*
X179405051Y-63292184D01*
X179405049Y-63292181D01*
X179405048Y-63292179D01*
X179280109Y-63120213D01*
X179129786Y-62969890D01*
X178957820Y-62844951D01*
X178768414Y-62748444D01*
X178768413Y-62748443D01*
X178768412Y-62748443D01*
X178566243Y-62682754D01*
X178566241Y-62682753D01*
X178566240Y-62682753D01*
X178404957Y-62657208D01*
X178356287Y-62649500D01*
X178143713Y-62649500D01*
X178095042Y-62657208D01*
X177933760Y-62682753D01*
X177731585Y-62748444D01*
X177542179Y-62844951D01*
X177370213Y-62969890D01*
X177219890Y-63120213D01*
X177094951Y-63292179D01*
X176998444Y-63481585D01*
X176932753Y-63683760D01*
X176899500Y-63893713D01*
X175206070Y-63893713D01*
X175206665Y-63882352D01*
X175216865Y-63687709D01*
X175218219Y-63674837D01*
X175266123Y-63372387D01*
X175268816Y-63359711D01*
X175348074Y-63063917D01*
X175352082Y-63051585D01*
X175461818Y-62765713D01*
X175467083Y-62753885D01*
X175606118Y-62481014D01*
X175612584Y-62469816D01*
X175779374Y-62212982D01*
X175786976Y-62202519D01*
X175979701Y-61964522D01*
X175988368Y-61954897D01*
X176204897Y-61738368D01*
X176214522Y-61729701D01*
X176452519Y-61536976D01*
X176462982Y-61529374D01*
X176719816Y-61362584D01*
X176731014Y-61356118D01*
X177003885Y-61217083D01*
X177015713Y-61211818D01*
X177301589Y-61102080D01*
X177313917Y-61098074D01*
X177609711Y-61018816D01*
X177622387Y-61016123D01*
X177924837Y-60968219D01*
X177937709Y-60966865D01*
X178246756Y-60950669D01*
X178253245Y-60950500D01*
X178289882Y-60950500D01*
X215566085Y-60950500D01*
X215633124Y-60970185D01*
G37*
G04 #@! TD.AperFunction*
M02*
