M48
; DRILL file {KiCad 9.0.2} date 2025-10-30T11:45:12+0530
; FORMAT={-:-/ absolute / metric / decimal}
; #@! TF.CreationDate,2025-10-30T11:45:12+05:30
; #@! TF.GenerationSoftware,Kicad,Pcbnew,9.0.2
; #@! TF.FileFunction,Plated,1,2,PTH
FMAT,2
METRIC
; #@! TA.AperFunction,Plated,PTH,ComponentDrill
T1C0.800
; #@! TA.AperFunction,Plated,PTH,ComponentDrill
T2C0.950
; #@! TA.AperFunction,Plated,PTH,ComponentDrill
T3C1.100
; #@! TA.AperFunction,Plated,PTH,ComponentDrill
T4C1.520
%
G90
G05
T1
X208.11Y-64.75
X210.562Y-76.99
X210.562Y-78.99
X210.65Y-64.75
X212.562Y-76.99
X212.562Y-78.99
X214.562Y-76.99
X214.562Y-78.99
T2
X180.225Y-73.5
X180.225Y-76.0
X180.225Y-78.5
X180.25Y-111.975
X180.25Y-114.475
X180.25Y-116.975
X180.25Y-119.475
X181.275Y-92.0
X181.275Y-94.5
X181.275Y-97.0
X181.275Y-99.5
X192.75Y-65.625
X192.75Y-68.125
X192.75Y-70.625
X192.75Y-85.875
X192.75Y-88.375
X192.75Y-90.875
X192.75Y-106.125
X192.75Y-108.625
X192.75Y-111.125
X192.75Y-113.625
X224.9Y-92.787
X224.9Y-95.287
X224.9Y-97.787
X224.9Y-100.287
X224.9Y-110.0
X224.9Y-112.5
X224.9Y-115.0
X224.9Y-117.5
X225.95Y-75.575
X225.95Y-78.075
X225.95Y-80.575
X225.95Y-83.075
X239.75Y-90.837
X239.75Y-93.337
X239.75Y-95.837
X239.75Y-98.337
X239.75Y-113.05
X239.75Y-115.55
X239.75Y-118.05
X239.75Y-120.55
X239.975Y-70.8
X239.975Y-73.3
X239.975Y-75.8
X239.975Y-78.3
T3
X201.76Y-64.02
X201.76Y-66.56
X201.76Y-69.1
X201.76Y-71.64
X201.76Y-74.18
X201.76Y-76.72
X201.76Y-79.26
X201.76Y-81.8
X201.76Y-84.34
X201.76Y-86.88
X201.76Y-89.42
X201.76Y-91.96
X201.76Y-94.5
X201.76Y-97.04
X201.76Y-99.58
X201.76Y-102.12
X201.76Y-104.66
X201.76Y-107.2
X201.76Y-109.74
X201.76Y-112.28
X201.76Y-114.82
X201.76Y-117.36
X201.76Y-119.9
X201.76Y-122.44
X204.3Y-109.74
X204.811Y-70.319
X204.811Y-72.859
X204.811Y-75.399
X204.811Y-77.939
X204.811Y-80.479
X206.84Y-109.74
X209.38Y-109.74
X211.92Y-109.74
X214.46Y-66.56
X214.46Y-109.74
X217.0Y-64.02
X217.0Y-66.56
X217.0Y-69.1
X217.0Y-71.64
X217.0Y-74.18
X217.0Y-76.72
X217.0Y-79.26
X217.0Y-81.8
X217.0Y-84.34
X217.0Y-86.88
X217.0Y-89.42
X217.0Y-91.96
X217.0Y-94.5
X217.0Y-97.04
X217.0Y-99.58
X217.0Y-102.12
X217.0Y-104.66
X217.0Y-107.2
X217.0Y-109.74
X217.0Y-112.28
X217.0Y-114.82
X217.0Y-117.36
X217.0Y-119.9
X217.0Y-122.44
T4
X189.96Y-124.975
X195.04Y-124.975
X224.46Y-65.375
X229.54Y-65.375
M30
